<?xml version="1.0" encoding="utf-8"?>
<!-- Generator: Adobe Illustrator 25.0.1, SVG Export Plug-In . SVG Version: 6.00 Build 0)  -->
<svg version="1.1" id="Capa_1" xmlns="http://www.w3.org/2000/svg" xmlns:xlink="http://www.w3.org/1999/xlink" x="0px" y="0px"
	 viewBox="0 0 100.2 318.7" style="enable-background:new 0 0 100.2 318.7;" xml:space="preserve">
<style type="text/css">
	.st0{fill:none;stroke:#735D65;stroke-width:0.5;stroke-miterlimit:10;}
	.st1{fill:#23171B;}
	.st2{fill:#FFFFFF;stroke:#735D65;stroke-width:0.5;stroke-miterlimit:10;}
	.st3{fill:none;stroke:#000000;stroke-width:0.75;stroke-miterlimit:10;}
	.st4{font-family:'MyriadPro-Regular';}
	.st5{font-size:7.8242px;}
</style>
<g>
	<polygon class="st0" points="50.1,0.2 0.2,0.2 0.2,27.7 50.1,27.7 50.1,27.7 100,27.7 100,0.2 	"/>
	<g>
		<path class="st1" d="M12.1,7.7c0.4-1.2,1.1-2.1,2.1-2.7c1.6-1.1,3.4-1.6,5.4-1.2c1.5,0.3,2,1.4,1.1,2.6c-0.6,0.9-1.6,1.4-2.6,1.8
			c-1.1,0.4-2.3,0.6-3.4,0.7c-0.2,0-0.3,0-0.5,0.2c0.1,0,0.2,0.1,0.4,0.1c0.2,0,0.4,0,0.6,0c0.4,0,0.8,0,1.2,0.1
			c0.6,0.1,1,0.5,1,0.9c0,0.4-0.3,0.7-0.9,0.9c-0.9,0.2-1.8,0.2-2.6-0.3c-0.6-0.3-1.1-0.3-1.7,0.1c-1.6,1-2.6,2.4-2.7,4.3
			c-0.1,2,1.4,3.3,3.4,2.9c2.3-0.4,4.2-1.6,5.3-3.6c1.4-2.5,2.8-4.9,4.2-7.4c0.2-0.4,0.4-0.9,0.6-1.4c0.4-0.1,0.9-0.1,1.5-0.2
			c0.5,0,0.7,0.2,0.5,0.7c-0.1,0.3-0.2,0.6-0.4,0.8c-1.4,2.5-2.8,5.1-4.2,7.6c-0.5,1-1,1.9-1.5,2.9c-0.1,0.2-0.1,0.5-0.2,0.8
			c0.6,0.2,0.8-0.1,1.1-0.4c0.9-0.8,1.5-1.8,2.1-2.8c0.2-0.3,0.4-0.5,0.5-0.8c0.4,0.2,0.3,0.5,0.2,0.6c-0.9,1.3-1.6,2.7-2.8,3.8
			c-0.4,0.4-0.9,0.7-1.4,0.9c-0.9,0.4-1.6,0-1.7-1c0-0.2,0-0.4,0-0.7c-0.4-0.1-0.5,0.2-0.7,0.3c-1.1,0.8-2.3,1.5-3.7,1.7
			c-2.1,0.3-4.4-0.4-5.1-3c-0.4-1.5-0.1-2.8,0.8-4.1c1-1.4,2.3-2.5,4-2.9c0.2,0,0.3-0.1,0.4-0.2c0-0.8-0.1-0.9-0.8-1.1
			c-0.3-0.1-0.6-0.2-0.9-0.4C9.7,7.7,9,7.1,9,6c0-1.1,0.7-1.8,1.7-2.1c0.6-0.2,1.4-0.2,2.1-0.2c0.2,0,0.4,0.1,0.5,0.2
			c0.1,0.1,0.2,0.3,0.1,0.4c0,0.1-0.2,0.2-0.4,0.2c-0.1,0-0.3,0-0.4,0c-0.2,0-0.4,0-0.7,0c-0.8,0.1-1.4,0.6-1.6,1.2
			c-0.1,0.7,0.2,1.4,1,1.7C11.6,7.6,11.8,7.6,12.1,7.7z M14.1,7.9c2.1-0.1,3.8-0.6,5.1-1.9c0.1-0.1,0.2-0.2,0.3-0.3
			c0.4-0.6,0.1-1.2-0.6-1.3c-0.4,0-0.8,0-1.2,0.1c-1.2,0.4-2.3,1.1-3.1,2.2C14.4,7,14.3,7.4,14.1,7.9z M15.3,10.1
			c0-0.1,0-0.2-0.2-0.2c-0.1,0-0.2,0-0.2,0.1C15,10.1,15.1,10.2,15.3,10.1z"/>
		<path class="st1" d="M39.7,11.2c0.4-0.1,0.8-0.2,1.3-0.3c1.9-0.3,3.5-1.8,3.9-3.7c0.2-1.2-0.3-2.4-1.5-2.8
			c-0.5-0.2-1.1-0.3-1.6-0.3c-2.8,0-5.1,1.1-7,3.3c-0.7,0.8-1.1,1.7-1.1,2.7c0,0.5,0,1.1,0.5,1.4c0.5,0.3,1.1,0.2,1.6-0.1
			c0.2-0.1,0.5-0.3,0.7-0.4c0.3,0.3,0.1,0.6-0.1,0.7c-0.6,0.5-1.2,1-1.9,1.3c-1.2,0.6-2.3-0.1-2.6-1.4c-0.2-1-0.1-1.9,0.4-2.8
			C32.6,8.2,33,7.5,33.5,7c2.8-2.9,6.3-4.2,10.3-3.5c1,0.2,1.8,0.6,2.4,1.4C47,6.1,47,7.4,46.3,8.7c-0.8,1.3-2,2-3.4,2.5
			c-0.4,0.1-0.9,0.2-1.3,0.4c0.1,0.2,0.2,0.4,0.3,0.6c0.5,0.7,0.5,1.5,0.2,2.3c-0.2,0.5-0.4,1-0.6,1.5c-0.1,0.3-0.3,0.7-0.4,1
			c0,0.2,0,0.6,0.1,0.7c0.1,0.1,0.5,0.1,0.7,0c0.8-0.3,1.4-0.9,1.9-1.7c0.3-0.4,0.6-0.9,0.9-1.3c0.1-0.2,0.2-0.5,0.7-0.3
			c0,0.2,0,0.4-0.1,0.5c-0.8,1.1-1.5,2.3-2.5,3.2c-0.6,0.5-1.2,0.9-2,1.1c-1.1,0.2-2-0.4-2-1.5c0-0.6,0.1-1.2,0.3-1.7
			c0.3-0.8,0.8-1.5,1.2-2.3c0.2-0.4,0.4-0.8,0.5-1.2c0.1-0.4,0-0.7-0.5-0.8c-0.3,0-0.6,0-0.5-0.4C39.7,11.3,39.7,11.2,39.7,11.2z"/>
		<path class="st1" d="M39.1,12.2c-0.8,1.4-1.5,2.8-2.6,4.1c-1.7,2-3.8,3.2-6.5,3.4c-0.4,0-0.9,0-1.3-0.1c-0.9-0.2-1.6-0.9-1.7-1.7
			c-0.1-0.5,0-0.9,0.4-1.3c0.3-0.3,0.8-0.4,1.2-0.2c0.4,0.2,0.6,0.6,0.6,1c0,0.2-0.1,0.3-0.1,0.5c-0.3,0.7-0.1,1.1,0.7,1.2
			c0.8,0.1,1.6-0.2,2.3-0.7c1.2-0.8,2-2,2.8-3.2c1.2-2,2.4-4,3.5-6c0.9-1.5,1.9-2.7,3.5-3.5c0.5-0.2,1-0.4,1.6-0.6
			c0.2-0.1,0.5,0,0.7,0c0,0.1,0,0.1,0.1,0.2c-0.2,0.1-0.3,0.3-0.5,0.4c-0.8,0.3-1.4,0.9-1.8,1.6c-0.6,1-1.2,2.1-1.8,3.2
			C39.9,10.7,39.3,11.8,39.1,12.2z"/>
		<path class="st1" d="M60.3,12.3c-0.3,0-0.8,0.2-1,0.4c-1,0.6-1.5,1.6-1.8,2.7c-0.3,1.2-0.6,2.3-0.9,3.5c-0.4,0-0.8,0-1.3,0
			c0.1-0.4,0.1-0.7,0.1-1c0.3-1.5,0.7-3,1.1-4.6c0-0.1,0.2-0.9,0.2-0.9c-0.9,0.2-1.9,0.9-2.3,1.9c-0.2,0.5-0.4,1.1-0.5,1.7
			c-0.2,0.7-0.3,1.4-0.4,2.1c-0.2,1-0.4,1.1-1.6,0.7c0.4-2.1,0.9-4.2,1.3-6.3c-0.6,0-0.9,0.5-1.6,0.8c-0.2-0.2-0.1-0.4-0.1-0.5
			c0.7-0.8,1.4-1.4,2.4-1.7c0.6-0.2,0.9,0.1,0.8,0.8c-0.1,0.3-0.1,0.6-0.2,1c0.2-0.2,1.5-1.1,1.9-1.5c0.2-0.1,0.3-0.2,0.5-0.3
			c0.9-0.3,1.3,0,1.2,0.9c0,0.1,0,0.3,0,0.6c0.3-0.3,0.5-0.4,0.7-0.6c0.5-0.3,1-0.8,1.5-1c0.8-0.3,1.4,0.1,1.3,0.9
			c0,0.6-0.2,1.2-0.4,1.8c-0.3,1.1-0.6,2.3-0.9,3.4c-0.1,0.2,0,0.4-0.1,0.8c0.4-0.2,0.6-0.4,0.9-0.5c0.2-0.1,0.3-0.3,0.5-0.4
			c0.1,0,0.3,0,0.3,0c0,0.1,0.1,0.3,0,0.4c-0.6,0.5-1.2,1.1-1.9,1.6c-0.5,0.3-1.1,0.1-1.2-0.6c-0.1-0.5,0-1,0.1-1.4
			c0.3-1.1,0.6-2.2,0.9-3.3C60.1,13.3,60.2,12.9,60.3,12.3z"/>
		<path class="st1" d="M73.8,12.8c0.6-0.5,1.2-1,1.7-1.4c0.3-0.2,0.6-0.4,0.9-0.6c1-0.5,1.6,0,1.5,1.1c0,0.2-0.1,0.4-0.1,0.7
			c-0.3,1.2-0.7,2.3-1,3.5c-0.1,0.5-0.2,1-0.3,1.5c0.9,0,1.7-1,1.9-1c0,0,0.1,0.4,0,0.5c-0.6,0.7-1.3,1.3-2.1,1.7
			c-0.6,0.2-1,0-1.1-0.6c-0.1-0.4,0-0.9,0.1-1.3c0.3-1.1,0.6-2.2,0.9-3.3c0.1-0.4,0.3-1.3,0.1-1.4c-0.2-0.1-0.5,0.1-0.7,0.2
			c-1.1,0.7-1.9,1.5-2.2,2.8c-0.2,1.1-0.5,2.3-0.8,3.5c-0.4,0-0.9,0-1.4,0c0.2-1.1,0.5-2.2,0.7-3.3c0.2-1,0.6-2.1,0.7-3.2
			c-0.7,0.1-1,0.7-1.5,1c-0.3,0-0.4-0.3-0.2-0.5c0.7-0.8,1.4-1.5,2.5-1.8c0.6-0.2,0.8,0,0.8,0.7c0,0.2-0.1,0.4-0.1,0.6
			C73.9,12.2,73.9,12.4,73.8,12.8z"/>
		<path class="st1" d="M69.6,10.7c-0.5,2.3-1.4,4.5-1.5,6.8c0.8,0.1,1.1-0.6,1.6-0.8c0.3,0.1,0.3,0.3,0.1,0.5
			c-0.6,0.7-1.3,1.3-2.2,1.6c-0.2,0.1-0.3,0.1-0.5,0.1c-0.5,0-0.7-0.2-0.7-0.7c0-0.2,0.1-0.4,0.1-0.8c-0.2,0.1-0.4,0.2-0.5,0.3
			c-0.6,0.4-1.1,0.8-1.7,1.1c-0.8,0.4-1.4,0-1.6-0.8c-0.3-0.9-0.2-1.7,0.1-2.5c0.4-1.3,1.2-2.5,2.2-3.4c0.8-0.7,1.7-1.2,2.8-1.2
			c0.4,0,0.9,0,1.3-0.3C69.2,10.6,69.4,10.7,69.6,10.7z M67.7,12.4c-1.1-0.3-1.9,0-2.5,0.9c-0.5,0.8-0.9,1.6-1,2.5
			c0,0.4-0.1,0.8,0,1.2c0.1,0.5,0.4,0.7,0.9,0.6c0.3-0.1,0.5-0.2,0.7-0.4c0.6-0.5,1-1.1,1.2-1.9c0.2-0.8,0.4-1.7,0.6-2.5
			C67.7,12.7,67.7,12.5,67.7,12.4z"/>
		<path class="st1" d="M85,16c0.1-1.7,0.7-3.3,1.9-4.5c0.7-0.6,1.4-1.1,2.4-1.1c1-0.1,1.7,0.4,2.1,1.3c0.5,1.2,0.3,2.4-0.1,3.6
			c-0.4,1.1-1.2,2-2.2,2.7c-0.4,0.3-0.9,0.5-1.4,0.6c-1.5,0.2-2.5-0.7-2.6-2.2C85,16.3,85,16.1,85,16z M87,17.1
			c0.2,0.6,0.9,0.8,1.5,0.4c0.3-0.3,0.7-0.6,0.9-1c0.7-1.3,0.8-2.7,0.5-4.1c0-0.1-0.1-0.3-0.1-0.4c-0.3-0.8-1.1-1-1.7-0.4
			c-0.5,0.4-0.9,1-1.1,1.7C86.5,14.8,86.7,16.5,87,17.1z"/>
		<path class="st1" d="M45.2,17.2c0.2-1.9,0.8-3.7,2.2-5.1c0.5-0.5,1.1-0.9,1.9-0.9c1.2-0.1,1.9,0.9,1.4,2c-0.2,0.5-0.6,1-1,1.3
			c-0.7,0.5-1.5,0.9-2.2,1.3c-0.3,0.1-0.6,0.2-0.6,0.6c0,0.4,0,0.9,0.1,1.3c0,0.2,0.5,0.3,0.7,0.3c0.4-0.1,0.8-0.3,1.1-0.5
			c0.3-0.2,0.6-0.4,1-0.6c0.1-0.1,0.4,0,0.4,0.1c0.1,0.1,0,0.3,0,0.4c-0.1,0.1-0.2,0.2-0.3,0.3c-0.6,0.4-1.2,0.9-1.8,1.3
			c-0.2,0.1-0.5,0.2-0.7,0.3c-1.3,0.4-2-0.1-2.2-1.4C45.2,17.6,45.2,17.5,45.2,17.2z M47,15.2c0.9-0.4,1.5-0.9,2.1-1.5
			c0.4-0.5,0.4-1.2,0-1.4c-0.4-0.3-0.9-0.1-1.3,0.4C47.4,13.4,47.2,14.2,47,15.2z"/>
		<path class="st1" d="M80.7,18.7c-0.3-0.1-0.7-0.1-1-0.2c-0.6-0.2-1-0.9-0.9-1.5c0.1-0.4,0.4-0.7,0.7-0.7c0.4,0,0.6,0.3,0.6,0.7
			c0,0.5,0.1,0.9,0.6,1c0.6,0.1,1.1,0,1.5-0.5c0.3-0.4,0.4-0.9,0.1-1.4c-0.2-0.3-0.5-0.6-0.7-0.9c-0.3-0.4-0.6-0.7-0.8-1.1
			c-0.5-1-0.3-2,0.4-2.8c0.7-0.7,2-1,2.9-0.6c0.3,0.1,0.5,0.4,0.7,0.7c0.2,0.3,0,0.6-0.3,0.8c-0.3,0.2-0.5,0.1-0.8-0.1
			c-0.2-0.1-0.3-0.3-0.5-0.5c-0.4-0.3-0.7-0.4-1.1-0.2c-0.4,0.2-0.5,0.6-0.4,1c0.1,0.3,0.2,0.6,0.4,0.9c0.3,0.4,0.6,0.7,0.9,1.1
			c1.7,2,0.1,4-1.6,4.2C81.2,18.7,81,18.7,80.7,18.7z"/>
	</g>
	<rect x="50.1" y="110.8" class="st2" width="49.9" height="41.5"/>
	<rect x="50.1" y="152.4" class="st2" width="49.9" height="41.5"/>
	<rect x="50.1" y="193.9" class="st2" width="49.9" height="41.5"/>
	<rect x="50.1" y="235.4" class="st2" width="49.9" height="41.5"/>
	<rect x="50.1" y="276.9" class="st2" width="49.9" height="41.5"/>
	<rect x="0.3" y="276.9" class="st0" width="49.8" height="41.5"/>
	<rect x="0.3" y="235.4" class="st0" width="49.8" height="41.5"/>
	<rect x="0.2" y="193.9" class="st0" width="49.8" height="41.5"/>
	<rect x="0.2" y="152.4" class="st0" width="49.8" height="41.5"/>
	<rect x="0.2" y="110.8" class="st0" width="49.9" height="41.5"/>
	<rect x="0.2" y="69.3" class="st0" width="49.8" height="41.5"/>
	<rect x="0.2" y="27.7" class="st0" width="49.9" height="41.5"/>
	<g>
		<g>
			<path d="M10.4,310.2h0.8v5.6h-0.8V310.2z M10.8,310.2H14v0.7h-3.2V310.2z M10.8,312.6h2.7v0.7h-2.7V312.6z M10.8,315H14v0.7h-3.2
				V315z"/>
			<path d="M15.7,315.7c-0.2,0-0.4-0.1-0.6-0.2c-0.2-0.1-0.3-0.2-0.5-0.3l0.5-0.6c0.2,0.2,0.4,0.3,0.6,0.4c0.2,0.1,0.4,0.1,0.6,0.1
				c0.3,0,0.5,0,0.7-0.1c0.2-0.1,0.2-0.2,0.2-0.4c0-0.1,0-0.2-0.1-0.3c-0.1-0.1-0.2-0.1-0.3-0.1s-0.3,0-0.5-0.1c0,0,0,0-0.1,0
				c0,0,0,0-0.1,0c0,0,0,0,0,0c0,0,0,0,0,0c-0.3,0-0.5-0.1-0.6-0.1s-0.3-0.2-0.4-0.3c-0.1-0.2-0.2-0.4-0.2-0.6s0.1-0.5,0.2-0.7
				c0.1-0.2,0.3-0.3,0.5-0.4c0.2-0.1,0.5-0.1,0.8-0.1c0.2,0,0.4,0,0.6,0.1c0.2,0,0.4,0.1,0.5,0.2c0.2,0.1,0.3,0.2,0.5,0.3l-0.5,0.6
				c-0.2-0.1-0.4-0.2-0.6-0.3c-0.2-0.1-0.4-0.1-0.6-0.1c-0.3,0-0.5,0-0.6,0.1c-0.1,0.1-0.2,0.2-0.2,0.4c0,0.1,0,0.2,0.1,0.2
				c0.1,0.1,0.2,0.1,0.3,0.1c0.1,0,0.3,0,0.5,0c0,0,0,0,0,0c0,0,0,0,0.1,0c0,0,0,0,0,0c0,0,0,0,0,0c0.3,0,0.5,0.1,0.7,0.1
				c0.2,0.1,0.4,0.2,0.5,0.3c0.1,0.2,0.2,0.4,0.2,0.7c0,0.3-0.1,0.5-0.2,0.7s-0.3,0.3-0.5,0.4c-0.2,0.1-0.5,0.1-0.9,0.1
				C16.2,315.8,15.9,315.7,15.7,315.7z"/>
			<path d="M19,311.7h0.8v5.6H19V311.7z M20.1,315.6c-0.2-0.1-0.3-0.3-0.4-0.5l0.1-0.8c0,0.2,0,0.3,0.1,0.4c0.1,0.1,0.1,0.2,0.3,0.3
				c0.1,0.1,0.3,0.1,0.4,0.1c0.3,0,0.5-0.1,0.6-0.2c0.1-0.2,0.2-0.4,0.2-0.7v-0.9c0-0.3-0.1-0.5-0.2-0.7c-0.1-0.2-0.3-0.2-0.6-0.2
				c-0.2,0-0.3,0-0.4,0.1c-0.1,0.1-0.2,0.2-0.3,0.3c-0.1,0.1-0.1,0.3-0.1,0.4l-0.1-0.8c0.1-0.2,0.3-0.4,0.5-0.5
				c0.2-0.1,0.4-0.2,0.6-0.2c0.3,0,0.5,0.1,0.7,0.2c0.2,0.1,0.3,0.3,0.5,0.6s0.2,0.5,0.2,0.9v0.9c0,0.3-0.1,0.6-0.2,0.9
				s-0.3,0.4-0.5,0.5c-0.2,0.1-0.4,0.2-0.7,0.2C20.5,315.8,20.3,315.7,20.1,315.6z"/>
			<path d="M23.9,315.6c-0.3-0.1-0.5-0.3-0.6-0.6c-0.1-0.3-0.2-0.6-0.2-1v-0.4c0-0.4,0.1-0.7,0.2-1c0.1-0.3,0.3-0.5,0.6-0.6
				c0.2-0.1,0.5-0.2,0.9-0.2c0.3,0,0.6,0.1,0.8,0.2c0.2,0.2,0.4,0.4,0.5,0.7c0.1,0.3,0.2,0.7,0.2,1.1v0.3h-2.6v-0.6h1.9
				c0-0.3-0.1-0.6-0.2-0.8c-0.1-0.2-0.3-0.3-0.6-0.3c-0.3,0-0.5,0.1-0.7,0.3s-0.2,0.5-0.2,0.8v0.5c0,0.3,0.1,0.6,0.3,0.8
				c0.2,0.2,0.4,0.3,0.7,0.3c0.2,0,0.3,0,0.5-0.1c0.2-0.1,0.3-0.2,0.4-0.3l0.5,0.5c-0.2,0.2-0.4,0.3-0.7,0.4
				c-0.2,0.1-0.5,0.2-0.7,0.2C24.5,315.8,24.2,315.7,23.9,315.6z"/>
			<path d="M28.1,315.6c-0.3-0.1-0.4-0.3-0.6-0.6c-0.1-0.3-0.2-0.6-0.2-0.9v-0.7c0-0.4,0.1-0.7,0.2-0.9s0.3-0.4,0.6-0.6
				c0.3-0.1,0.6-0.2,0.9-0.2c0.2,0,0.4,0,0.6,0.1c0.2,0,0.3,0.1,0.5,0.2c0.1,0.1,0.3,0.2,0.4,0.3l-0.6,0.5c-0.1-0.1-0.2-0.2-0.4-0.3
				c-0.1-0.1-0.3-0.1-0.5-0.1c-0.3,0-0.5,0.1-0.7,0.3s-0.2,0.4-0.2,0.7v0.7c0,0.3,0.1,0.6,0.2,0.7c0.2,0.2,0.4,0.3,0.7,0.3
				c0.2,0,0.3,0,0.5-0.1c0.1-0.1,0.3-0.2,0.4-0.3l0.6,0.5c-0.1,0.1-0.2,0.2-0.4,0.3c-0.1,0.1-0.3,0.2-0.5,0.2
				c-0.2,0-0.4,0.1-0.6,0.1C28.6,315.8,28.3,315.7,28.1,315.6z"/>
			<path d="M31.3,310.2H32v0.8h-0.8V310.2z M31.3,311.7H32v4h-0.8V311.7z"/>
			<path d="M33.4,315.5c-0.2-0.2-0.4-0.5-0.4-0.9c0-0.4,0.1-0.7,0.3-0.9c0.2-0.2,0.6-0.3,1-0.3h1.1l0.1,0.6h-1.2
				c-0.2,0-0.4,0-0.5,0.1c-0.1,0.1-0.1,0.2-0.1,0.4c0,0.2,0.1,0.4,0.2,0.4c0.1,0.1,0.3,0.1,0.6,0.1c0.3,0,0.5,0,0.7-0.1
				c0.1-0.1,0.2-0.2,0.2-0.3l0.1,0.6c-0.1,0.1-0.2,0.2-0.3,0.3c-0.1,0.1-0.2,0.1-0.3,0.2s-0.3,0.1-0.4,0.1
				C34,315.8,33.6,315.7,33.4,315.5z M35.4,313.2c0-0.3-0.1-0.5-0.2-0.6c-0.1-0.1-0.3-0.2-0.6-0.2c-0.2,0-0.3,0-0.5,0.1
				c-0.1,0-0.3,0.1-0.4,0.2l-0.6-0.4c0.1-0.2,0.3-0.3,0.6-0.4c0.2-0.1,0.5-0.2,0.8-0.2c0.3,0,0.6,0.1,0.8,0.2
				c0.2,0.1,0.4,0.3,0.5,0.5c0.1,0.2,0.2,0.5,0.2,0.8v2.5h-0.7V313.2z"/>
			<path d="M38.1,314.7c0,0.1,0,0.2,0.1,0.2c0,0.1,0.1,0.1,0.2,0.1h0.4v0.7h-0.5c-0.3,0-0.5-0.1-0.7-0.3c-0.2-0.2-0.2-0.4-0.2-0.8
				v-4.5h0.8V314.7z"/>
		</g>
	</g>
	<g>
		<g>
			<path d="M17.7,60.9h0.8v5.6h-0.8V60.9z M18.1,63.6h1.8c0.2,0,0.3,0,0.4-0.1c0.1-0.1,0.2-0.2,0.3-0.3c0.1-0.1,0.1-0.3,0.1-0.5
				c0-0.2,0-0.4-0.1-0.5c-0.1-0.1-0.2-0.3-0.3-0.3c-0.1-0.1-0.3-0.1-0.4-0.1h-1.8v-0.7h1.7c0.3,0,0.6,0.1,0.9,0.2
				c0.3,0.1,0.4,0.3,0.6,0.6c0.1,0.3,0.2,0.6,0.2,0.9c0,0.3-0.1,0.6-0.2,0.9S21,64,20.8,64.1c-0.3,0.1-0.5,0.2-0.9,0.2h-1.7V63.6z"
				/>
			<path d="M22.5,60.9h0.8v0.8h-0.8V60.9z M22.5,62.5h0.8v4h-0.8V62.5z"/>
			<path d="M24.5,62.5h0.8v4h-0.8V62.5z M26.9,64.1c0-0.3-0.1-0.5-0.2-0.6c-0.1-0.2-0.3-0.2-0.6-0.2c-0.3,0-0.5,0.1-0.6,0.2
				c-0.1,0.1-0.2,0.3-0.2,0.6l-0.1-0.8c0.1-0.2,0.3-0.4,0.5-0.6c0.2-0.1,0.4-0.2,0.7-0.2c0.4,0,0.8,0.1,1,0.4
				c0.2,0.3,0.4,0.7,0.4,1.2v2.4h-0.8V64.1z"/>
			<path d="M29.5,66.3c-0.2-0.1-0.4-0.3-0.6-0.6c-0.1-0.3-0.2-0.6-0.2-0.9v-0.6c0-0.4,0.1-0.7,0.2-0.9c0.1-0.3,0.3-0.5,0.6-0.6
				c0.2-0.1,0.5-0.2,0.9-0.2s0.6,0.1,0.9,0.2c0.2,0.1,0.4,0.3,0.6,0.6c0.1,0.3,0.2,0.6,0.2,0.9v0.7c0,0.4-0.1,0.7-0.2,0.9
				c-0.1,0.3-0.3,0.5-0.6,0.6c-0.2,0.1-0.5,0.2-0.9,0.2S29.8,66.5,29.5,66.3z M31,65.5c0.1-0.2,0.2-0.4,0.2-0.7v-0.7
				c0-0.3-0.1-0.5-0.2-0.7c-0.1-0.2-0.4-0.3-0.6-0.3s-0.5,0.1-0.6,0.3c-0.1,0.2-0.2,0.4-0.2,0.7v0.7c0,0.3,0.1,0.5,0.2,0.7
				c0.1,0.2,0.4,0.3,0.6,0.3S30.9,65.7,31,65.5z"/>
		</g>
	</g>
	<polygon class="st3" points="2.7,55.3 46.9,55.3 41.3,33.3 8.2,33.3 	"/>
	<polygon class="st3" points="2.7,304.7 46.9,304.7 41.4,282.5 8.2,282.5 	"/>
	<g>
		<g>
			<path d="M12.6,102.5h0.8v5.6h-0.8V102.5z M13,105.1h1.8c0.2,0,0.3,0,0.4-0.1c0.1-0.1,0.2-0.2,0.3-0.3c0.1-0.1,0.1-0.3,0.1-0.5
				c0-0.2,0-0.4-0.1-0.5c-0.1-0.1-0.2-0.3-0.3-0.3c-0.1-0.1-0.3-0.1-0.4-0.1H13v-0.7h1.7c0.3,0,0.6,0.1,0.9,0.2
				c0.2,0.1,0.4,0.3,0.6,0.6c0.1,0.3,0.2,0.6,0.2,0.9c0,0.3-0.1,0.6-0.2,0.9c-0.1,0.3-0.3,0.5-0.6,0.6c-0.2,0.1-0.5,0.2-0.9,0.2H13
				V105.1z"/>
			<path d="M17.3,102.5h0.8v0.8h-0.8V102.5z M17.3,104h0.8v4h-0.8V104z"/>
			<path d="M19.3,104H20v4h-0.8V104z M21.6,105.6c0-0.3-0.1-0.5-0.2-0.6c-0.1-0.2-0.3-0.2-0.6-0.2c-0.3,0-0.4,0.1-0.6,0.2
				c-0.1,0.1-0.2,0.3-0.2,0.6l-0.1-0.8c0.1-0.2,0.3-0.4,0.5-0.6c0.2-0.1,0.4-0.2,0.6-0.2c0.4,0,0.8,0.1,1,0.4
				c0.2,0.3,0.4,0.7,0.4,1.2v2.4h-0.8V105.6z"/>
			<path d="M24.2,107.9c-0.2-0.1-0.4-0.3-0.6-0.6c-0.1-0.3-0.2-0.6-0.2-0.9v-0.6c0-0.4,0.1-0.7,0.2-0.9s0.3-0.5,0.6-0.6
				s0.5-0.2,0.9-0.2s0.6,0.1,0.9,0.2c0.2,0.1,0.4,0.3,0.6,0.6s0.2,0.6,0.2,0.9v0.7c0,0.4-0.1,0.7-0.2,0.9c-0.1,0.3-0.3,0.5-0.6,0.6
				c-0.2,0.1-0.5,0.2-0.9,0.2S24.5,108,24.2,107.9z M25.7,107.1c0.1-0.2,0.2-0.4,0.2-0.7v-0.7c0-0.3-0.1-0.5-0.2-0.7
				c-0.1-0.2-0.4-0.3-0.6-0.3s-0.5,0.1-0.6,0.3c-0.1,0.2-0.2,0.4-0.2,0.7v0.7c0,0.3,0.1,0.5,0.2,0.7c0.1,0.2,0.4,0.3,0.6,0.3
				S25.6,107.2,25.7,107.1z"/>
			<path d="M30.1,107.8c-0.2-0.2-0.4-0.5-0.4-0.9c0-0.4,0.1-0.7,0.3-0.9c0.2-0.2,0.6-0.3,1-0.3h1.1l0.1,0.6H31c-0.2,0-0.4,0-0.5,0.1
				c-0.1,0.1-0.1,0.2-0.1,0.4c0,0.2,0.1,0.4,0.2,0.4c0.1,0.1,0.3,0.1,0.6,0.1c0.3,0,0.5,0,0.7-0.1c0.1-0.1,0.2-0.2,0.2-0.3l0.1,0.6
				c-0.1,0.1-0.2,0.2-0.3,0.3c-0.1,0.1-0.2,0.1-0.3,0.2c-0.1,0-0.3,0.1-0.4,0.1C30.7,108.1,30.3,108,30.1,107.8z M32.1,105.5
				c0-0.3-0.1-0.5-0.2-0.6c-0.1-0.1-0.3-0.2-0.6-0.2c-0.2,0-0.3,0-0.5,0.1c-0.1,0-0.3,0.1-0.4,0.2l-0.6-0.4c0.1-0.2,0.3-0.3,0.6-0.4
				c0.2-0.1,0.5-0.2,0.8-0.2c0.3,0,0.6,0.1,0.8,0.2c0.2,0.1,0.4,0.3,0.5,0.5s0.2,0.5,0.2,0.8v2.5h-0.7V105.5z"/>
			<path d="M33.5,108.9h0.4c0.1,0,0.1,0,0.2-0.1c0-0.1,0.1-0.1,0.1-0.2V104h0.8v4.5c0,0.3-0.1,0.6-0.2,0.8c-0.2,0.2-0.4,0.3-0.7,0.3
				h-0.5V108.9z M34.1,102.5h0.8v0.8h-0.8V102.5z"/>
			<path d="M36.1,102.9l1.1-1.4l0.6,0.5l-1.2,1.3L36.1,102.9z M36.1,104h0.8v4h-0.8V104z"/>
		</g>
	</g>
	<polygon class="st3" points="19.3,74.8 2.7,96.9 46.9,96.9 30.3,74.8 	"/>
	<g>
		<g>
			<path d="M13.4,232.6c-0.2-0.1-0.5-0.1-0.7-0.2s-0.4-0.2-0.6-0.4l0.5-0.6c0.2,0.2,0.4,0.3,0.7,0.4s0.5,0.1,0.8,0.1
				c0.4,0,0.7-0.1,0.9-0.2c0.2-0.1,0.3-0.4,0.3-0.6v0c0-0.2,0-0.3-0.1-0.5s-0.2-0.2-0.4-0.3s-0.4-0.1-0.6-0.2c0,0,0,0,0,0
				c0,0,0,0,0,0l-0.1,0c-0.4-0.1-0.7-0.1-0.9-0.2s-0.4-0.2-0.6-0.4c-0.2-0.2-0.2-0.5-0.2-0.9v0c0-0.3,0.1-0.6,0.2-0.9
				c0.2-0.2,0.4-0.4,0.7-0.6c0.3-0.1,0.6-0.2,1.1-0.2c0.2,0,0.4,0,0.6,0.1s0.4,0.1,0.6,0.2c0.2,0.1,0.4,0.2,0.5,0.3l-0.4,0.6
				c-0.2-0.2-0.4-0.3-0.6-0.3c-0.2-0.1-0.4-0.1-0.6-0.1c-0.4,0-0.7,0.1-0.9,0.2c-0.2,0.2-0.3,0.4-0.3,0.6v0c0,0.2,0.1,0.3,0.2,0.5
				s0.2,0.2,0.4,0.2c0.2,0.1,0.4,0.1,0.7,0.2c0,0,0,0,0,0c0,0,0,0,0,0c0,0,0,0,0,0c0,0,0,0,0,0c0.3,0.1,0.6,0.2,0.8,0.2
				c0.2,0.1,0.4,0.2,0.6,0.5c0.1,0.2,0.2,0.5,0.2,0.9v0c0,0.3-0.1,0.6-0.2,0.9c-0.2,0.2-0.4,0.4-0.7,0.5c-0.3,0.1-0.7,0.2-1.1,0.2
				C13.8,232.7,13.6,232.7,13.4,232.6z"/>
			<path d="M17.3,232.4c-0.2-0.2-0.4-0.5-0.4-0.9c0-0.4,0.1-0.7,0.3-0.9c0.2-0.2,0.6-0.3,1-0.3h1.1l0.1,0.6h-1.2
				c-0.2,0-0.4,0-0.5,0.1c-0.1,0.1-0.1,0.2-0.1,0.4c0,0.2,0.1,0.4,0.2,0.4c0.1,0.1,0.3,0.1,0.6,0.1c0.3,0,0.5,0,0.7-0.1
				c0.1-0.1,0.2-0.2,0.2-0.3l0.1,0.6c-0.1,0.1-0.2,0.2-0.3,0.3c-0.1,0.1-0.2,0.1-0.3,0.2s-0.3,0.1-0.4,0.1
				C17.9,232.7,17.6,232.6,17.3,232.4z M19.4,230.1c0-0.3-0.1-0.5-0.2-0.6c-0.1-0.1-0.3-0.2-0.6-0.2c-0.2,0-0.3,0-0.5,0.1
				c-0.1,0-0.3,0.1-0.4,0.2l-0.6-0.4c0.1-0.2,0.3-0.3,0.6-0.4c0.2-0.1,0.5-0.2,0.8-0.2c0.3,0,0.6,0.1,0.8,0.2
				c0.2,0.1,0.4,0.3,0.5,0.5c0.1,0.2,0.2,0.5,0.2,0.8v2.5h-0.7V230.1z"/>
			<path d="M22.1,231.6c0,0.1,0,0.2,0.1,0.2c0,0.1,0.1,0.1,0.2,0.1h0.4v0.7h-0.5c-0.3,0-0.5-0.1-0.7-0.3c-0.2-0.2-0.2-0.4-0.2-0.8
				v-4.5h0.8V231.6z"/>
			<path d="M23.7,232.4c-0.2-0.2-0.4-0.5-0.4-0.9c0-0.4,0.1-0.7,0.3-0.9c0.2-0.2,0.6-0.3,1-0.3h1.1l0.1,0.6h-1.2
				c-0.2,0-0.4,0-0.5,0.1c-0.1,0.1-0.1,0.2-0.1,0.4c0,0.2,0.1,0.4,0.2,0.4c0.1,0.1,0.3,0.1,0.6,0.1c0.3,0,0.5,0,0.7-0.1
				c0.1-0.1,0.2-0.2,0.2-0.3l0.1,0.6c-0.1,0.1-0.2,0.2-0.3,0.3c-0.1,0.1-0.2,0.1-0.3,0.2s-0.3,0.1-0.4,0.1
				C24.3,232.7,23.9,232.6,23.7,232.4z M25.7,230.1c0-0.3-0.1-0.5-0.2-0.6c-0.1-0.1-0.3-0.2-0.6-0.2c-0.2,0-0.3,0-0.5,0.1
				c-0.1,0-0.3,0.1-0.4,0.2l-0.6-0.4c0.1-0.2,0.3-0.3,0.6-0.4c0.2-0.1,0.5-0.2,0.8-0.2c0.3,0,0.6,0.1,0.8,0.2
				c0.2,0.1,0.4,0.3,0.5,0.5c0.1,0.2,0.2,0.5,0.2,0.8v2.5h-0.7V230.1z"/>
			<path d="M27.7,228.7h0.8v4h-0.8V228.7z M30,230.2c0-0.3-0.1-0.5-0.2-0.7c-0.1-0.2-0.3-0.2-0.6-0.2c-0.3,0-0.4,0.1-0.6,0.2
				c-0.1,0.1-0.2,0.3-0.2,0.6l-0.1-0.8c0.1-0.2,0.3-0.4,0.5-0.6c0.2-0.1,0.4-0.2,0.6-0.2c0.3,0,0.5,0.1,0.7,0.2
				c0.2,0.1,0.3,0.3,0.4,0.6c0.1,0.2,0.2,0.5,0.2,0.9v2.4H30V230.2z M32.3,230.2c0-0.3-0.1-0.5-0.2-0.7c-0.1-0.2-0.3-0.2-0.6-0.2
				c-0.2,0-0.4,0.1-0.6,0.2c-0.1,0.1-0.2,0.4-0.2,0.6l-0.2-0.8c0.1-0.3,0.3-0.5,0.5-0.6s0.4-0.2,0.7-0.2c0.3,0,0.5,0.1,0.7,0.2
				c0.2,0.1,0.4,0.3,0.5,0.6s0.2,0.5,0.2,0.9v2.4h-0.8V230.2z"/>
			<path d="M35,232.5c-0.3-0.1-0.5-0.3-0.6-0.6c-0.1-0.3-0.2-0.6-0.2-1v-0.4c0-0.4,0.1-0.7,0.2-1c0.1-0.3,0.3-0.5,0.6-0.6
				c0.2-0.1,0.5-0.2,0.9-0.2c0.3,0,0.6,0.1,0.8,0.2c0.2,0.2,0.4,0.4,0.5,0.7c0.1,0.3,0.2,0.7,0.2,1.1v0.3h-2.6v-0.6h1.9
				c0-0.3-0.1-0.6-0.2-0.8c-0.1-0.2-0.3-0.3-0.6-0.3c-0.3,0-0.5,0.1-0.7,0.3s-0.2,0.5-0.2,0.8v0.5c0,0.3,0.1,0.6,0.3,0.8
				c0.2,0.2,0.4,0.3,0.7,0.3c0.2,0,0.3,0,0.5-0.1c0.2-0.1,0.3-0.2,0.4-0.3l0.5,0.5c-0.2,0.2-0.4,0.3-0.7,0.4
				c-0.2,0.1-0.5,0.2-0.7,0.2C35.5,232.7,35.2,232.6,35,232.5z"/>
		</g>
	</g>
	<polygon class="st3" points="2.6,221.6 8.1,205 24.8,199.4 41.4,205 47,221.6 	"/>
	<g>
		<g>
			<path d="M6.4,144h0.7l2.7,4.3l-0.1,0.1V144h0.8v5.6H9.8l-2.7-4.2l0.1-0.1v4.3H6.4V144z"/>
			<path d="M11.9,149.3c-0.2-0.2-0.4-0.5-0.4-0.9c0-0.4,0.1-0.7,0.3-0.9c0.2-0.2,0.6-0.3,1-0.3H14l0.1,0.6h-1.2
				c-0.2,0-0.4,0-0.5,0.1c-0.1,0.1-0.1,0.2-0.1,0.4c0,0.2,0.1,0.4,0.2,0.4c0.1,0.1,0.3,0.1,0.6,0.1c0.3,0,0.5,0,0.7-0.1
				c0.1-0.1,0.2-0.2,0.2-0.3l0.1,0.6c-0.1,0.1-0.2,0.2-0.3,0.3c-0.1,0.1-0.2,0.1-0.3,0.2c-0.1,0-0.3,0.1-0.4,0.1
				C12.5,149.6,12.2,149.5,11.9,149.3z M14,147c0-0.3-0.1-0.5-0.2-0.6c-0.1-0.1-0.3-0.2-0.6-0.2c-0.2,0-0.3,0-0.5,0.1
				c-0.1,0-0.3,0.1-0.4,0.2l-0.6-0.4c0.1-0.2,0.3-0.3,0.6-0.4c0.2-0.1,0.5-0.2,0.8-0.2c0.3,0,0.6,0.1,0.8,0.2
				c0.2,0.1,0.4,0.3,0.5,0.5s0.2,0.5,0.2,0.8v2.5H14V147z"/>
			<path d="M15.9,145.6h0.8v5.6h-0.8V145.6z M17,149.4c-0.2-0.1-0.3-0.3-0.4-0.5l0.1-0.8c0,0.2,0,0.3,0.1,0.4s0.1,0.2,0.3,0.3
				c0.1,0.1,0.3,0.1,0.4,0.1c0.3,0,0.5-0.1,0.6-0.2c0.1-0.2,0.2-0.4,0.2-0.7v-0.9c0-0.3-0.1-0.5-0.2-0.7c-0.1-0.2-0.3-0.2-0.6-0.2
				c-0.2,0-0.3,0-0.4,0.1c-0.1,0.1-0.2,0.2-0.3,0.3c-0.1,0.1-0.1,0.3-0.1,0.4l-0.1-0.8c0.1-0.2,0.3-0.4,0.5-0.5
				c0.2-0.1,0.4-0.2,0.6-0.2c0.3,0,0.5,0.1,0.7,0.2c0.2,0.1,0.3,0.3,0.5,0.6c0.1,0.2,0.2,0.5,0.2,0.9v0.9c0,0.3-0.1,0.6-0.2,0.9
				c-0.1,0.2-0.3,0.4-0.5,0.5c-0.2,0.1-0.4,0.2-0.7,0.2C17.4,149.6,17.2,149.6,17,149.4z"/>
			<path d="M20.7,149.4c-0.2-0.1-0.4-0.3-0.6-0.6c-0.1-0.3-0.2-0.6-0.2-0.9v-0.6c0-0.4,0.1-0.7,0.2-0.9s0.3-0.5,0.6-0.6
				s0.5-0.2,0.9-0.2s0.6,0.1,0.9,0.2c0.2,0.1,0.4,0.3,0.6,0.6s0.2,0.6,0.2,0.9v0.7c0,0.4-0.1,0.7-0.2,0.9c-0.1,0.3-0.3,0.5-0.6,0.6
				c-0.2,0.1-0.5,0.2-0.9,0.2S21,149.6,20.7,149.4z M22.2,148.6c0.1-0.2,0.2-0.4,0.2-0.7v-0.7c0-0.3-0.1-0.5-0.2-0.7
				c-0.1-0.2-0.4-0.3-0.6-0.3s-0.5,0.1-0.6,0.3c-0.1,0.2-0.2,0.4-0.2,0.7v0.7c0,0.3,0.1,0.5,0.2,0.7c0.1,0.2,0.4,0.3,0.6,0.3
				S22.1,148.8,22.2,148.6z"/>
			<path d="M25.1,148.5c0,0.1,0,0.2,0.1,0.2c0,0.1,0.1,0.1,0.2,0.1h0.4v0.7h-0.5c-0.3,0-0.5-0.1-0.7-0.3c-0.2-0.2-0.2-0.4-0.2-0.8
				V144h0.8V148.5z"/>
			<path d="M26.6,144h0.8v0.8h-0.8V144z M26.6,145.6h0.8v4h-0.8V145.6z"/>
			<path d="M28.2,145.6H30v0.7h-1.8V145.6z M28.8,149.3c-0.1-0.2-0.2-0.4-0.2-0.8v-4.1h0.8v4.1c0,0.1,0,0.2,0.1,0.2
				c0,0.1,0.1,0.1,0.2,0.1H30v0.7h-0.4C29.2,149.6,29,149.5,28.8,149.3z"/>
			<path d="M31.2,149.3c-0.2-0.2-0.4-0.5-0.4-0.9c0-0.4,0.1-0.7,0.3-0.9c0.2-0.2,0.6-0.3,1-0.3h1.1l0.1,0.6h-1.2
				c-0.2,0-0.4,0-0.5,0.1c-0.1,0.1-0.1,0.2-0.1,0.4c0,0.2,0.1,0.4,0.2,0.4c0.1,0.1,0.3,0.1,0.6,0.1c0.3,0,0.5,0,0.7-0.1
				c0.1-0.1,0.2-0.2,0.2-0.3l0.1,0.6c-0.1,0.1-0.2,0.2-0.3,0.3c-0.1,0.1-0.2,0.1-0.3,0.2c-0.1,0-0.3,0.1-0.4,0.1
				C31.8,149.6,31.4,149.5,31.2,149.3z M33.3,147c0-0.3-0.1-0.5-0.2-0.6c-0.1-0.1-0.3-0.2-0.6-0.2c-0.2,0-0.3,0-0.5,0.1
				c-0.1,0-0.3,0.1-0.4,0.2l-0.6-0.4c0.1-0.2,0.3-0.3,0.6-0.4c0.2-0.1,0.5-0.2,0.8-0.2c0.3,0,0.6,0.1,0.8,0.2
				c0.2,0.1,0.4,0.3,0.5,0.5s0.2,0.5,0.2,0.8v2.5h-0.7V147z"/>
			<path d="M35.2,145.6h0.8v4h-0.8V145.6z M37.6,147.2c0-0.3-0.1-0.5-0.2-0.6c-0.1-0.2-0.3-0.2-0.6-0.2c-0.3,0-0.4,0.1-0.6,0.2
				c-0.1,0.1-0.2,0.3-0.2,0.6l-0.1-0.8c0.1-0.2,0.3-0.4,0.5-0.6c0.2-0.1,0.4-0.2,0.6-0.2c0.4,0,0.8,0.1,1,0.4
				c0.2,0.3,0.4,0.7,0.4,1.2v2.4h-0.8V147.2z"/>
			<path d="M39.7,149.3c-0.2-0.2-0.4-0.5-0.4-0.9c0-0.4,0.1-0.7,0.3-0.9c0.2-0.2,0.6-0.3,1-0.3h1.1l0.1,0.6h-1.2
				c-0.2,0-0.4,0-0.5,0.1c-0.1,0.1-0.1,0.2-0.1,0.4c0,0.2,0.1,0.4,0.2,0.4c0.1,0.1,0.3,0.1,0.6,0.1c0.3,0,0.5,0,0.7-0.1
				c0.1-0.1,0.2-0.2,0.2-0.3l0.1,0.6c-0.1,0.1-0.2,0.2-0.3,0.3c-0.1,0.1-0.2,0.1-0.3,0.2c-0.1,0-0.3,0.1-0.4,0.1
				C40.3,149.6,39.9,149.5,39.7,149.3z M41.7,147c0-0.3-0.1-0.5-0.2-0.6c-0.1-0.1-0.3-0.2-0.6-0.2c-0.2,0-0.3,0-0.5,0.1
				c-0.1,0-0.3,0.1-0.4,0.2l-0.6-0.4c0.1-0.2,0.3-0.3,0.6-0.4c0.2-0.1,0.5-0.2,0.8-0.2c0.3,0,0.6,0.1,0.8,0.2
				c0.2,0.1,0.4,0.3,0.5,0.5s0.2,0.5,0.2,0.8v2.5h-0.7V147z"/>
		</g>
	</g>
	<circle class="st3" cx="24.8" cy="126.9" r="10.5"/>
	<g>
		<g>
			<path d="M15.2,268.6h0.7l2,5.6H17l-1.5-4.5l-1.5,4.5h-0.8L15.2,268.6z M14.1,272.2H17v0.7h-2.9V272.2z"/>
			<path d="M19.3,274c-0.3-0.1-0.4-0.3-0.6-0.6c-0.1-0.3-0.2-0.6-0.2-0.9v-0.7c0-0.4,0.1-0.7,0.2-0.9c0.1-0.3,0.3-0.4,0.6-0.6
				c0.3-0.1,0.6-0.2,0.9-0.2c0.2,0,0.4,0,0.6,0.1c0.2,0,0.3,0.1,0.5,0.2c0.1,0.1,0.3,0.2,0.4,0.3l-0.6,0.5c-0.1-0.1-0.2-0.2-0.4-0.3
				c-0.1-0.1-0.3-0.1-0.5-0.1c-0.3,0-0.5,0.1-0.7,0.3c-0.2,0.2-0.2,0.4-0.2,0.7v0.7c0,0.3,0.1,0.6,0.2,0.7c0.2,0.2,0.4,0.3,0.7,0.3
				c0.2,0,0.3,0,0.5-0.1s0.3-0.2,0.4-0.3l0.6,0.5c-0.1,0.1-0.2,0.2-0.4,0.3c-0.1,0.1-0.3,0.2-0.5,0.2c-0.2,0-0.4,0.1-0.6,0.1
				C19.9,274.2,19.5,274.2,19.3,274z"/>
			<path d="M23.2,274c-0.3-0.1-0.5-0.3-0.6-0.6c-0.1-0.3-0.2-0.6-0.2-1V272c0-0.4,0.1-0.7,0.2-1c0.1-0.3,0.3-0.5,0.6-0.6
				c0.2-0.1,0.5-0.2,0.9-0.2c0.3,0,0.6,0.1,0.8,0.2c0.2,0.2,0.4,0.4,0.5,0.7c0.1,0.3,0.2,0.7,0.2,1.1v0.3h-2.6v-0.6h1.9
				c0-0.3-0.1-0.6-0.2-0.8s-0.3-0.3-0.6-0.3c-0.3,0-0.5,0.1-0.7,0.3c-0.2,0.2-0.2,0.5-0.2,0.8v0.5c0,0.3,0.1,0.6,0.3,0.8
				c0.2,0.2,0.4,0.3,0.7,0.3c0.2,0,0.3,0,0.5-0.1c0.2-0.1,0.3-0.2,0.4-0.3l0.5,0.5c-0.2,0.2-0.4,0.3-0.7,0.4s-0.5,0.2-0.7,0.2
				C23.7,274.2,23.4,274.2,23.2,274z"/>
			<path d="M27.4,273.2c0,0.1,0,0.2,0.1,0.2c0,0.1,0.1,0.1,0.2,0.1H28v0.7h-0.5c-0.3,0-0.5-0.1-0.7-0.3c-0.2-0.2-0.2-0.4-0.2-0.8
				v-4.5h0.8V273.2z"/>
			<path d="M29.4,274.1c-0.2-0.1-0.4-0.3-0.5-0.6s-0.2-0.5-0.2-0.9v-0.9c0-0.3,0.1-0.6,0.2-0.9c0.1-0.2,0.3-0.4,0.5-0.6
				s0.4-0.2,0.7-0.2c0.2,0,0.4,0.1,0.6,0.2c0.2,0.1,0.3,0.3,0.5,0.5l-0.1,0.8c0-0.2,0-0.3-0.1-0.4c-0.1-0.1-0.1-0.2-0.3-0.3
				c-0.1-0.1-0.3-0.1-0.4-0.1c-0.3,0-0.5,0.1-0.6,0.2c-0.1,0.2-0.2,0.4-0.2,0.7v0.9c0,0.3,0.1,0.5,0.2,0.7c0.1,0.2,0.3,0.2,0.6,0.2
				c0.2,0,0.3,0,0.4-0.1c0.1-0.1,0.2-0.2,0.3-0.3s0.1-0.3,0.1-0.4l0.1,0.8c-0.1,0.2-0.2,0.4-0.4,0.5c-0.2,0.1-0.4,0.2-0.7,0.2
				C29.8,274.3,29.6,274.2,29.4,274.1z M29.4,275.6c-0.2-0.1-0.4-0.3-0.5-0.5l0.5-0.5c0.1,0.1,0.2,0.2,0.4,0.3s0.3,0.1,0.4,0.1
				c0.3,0,0.5-0.1,0.7-0.2s0.2-0.4,0.2-0.7v-4h0.8v3.8c0,0.4-0.1,0.7-0.2,0.9c-0.1,0.3-0.3,0.5-0.6,0.6c-0.3,0.1-0.6,0.2-0.9,0.2
				C29.9,275.8,29.6,275.7,29.4,275.6z"/>
			<path d="M33.2,273.9c-0.2-0.2-0.4-0.5-0.4-0.9c0-0.4,0.1-0.7,0.3-0.9c0.2-0.2,0.6-0.3,1-0.3h1.1l0.1,0.6h-1.2
				c-0.2,0-0.4,0-0.5,0.1c-0.1,0.1-0.1,0.2-0.1,0.4c0,0.2,0.1,0.3,0.2,0.4c0.1,0.1,0.3,0.1,0.6,0.1c0.3,0,0.5,0,0.7-0.1
				c0.1-0.1,0.2-0.2,0.2-0.3l0.1,0.6c-0.1,0.1-0.2,0.2-0.3,0.3c-0.1,0.1-0.2,0.1-0.3,0.2c-0.1,0-0.3,0.1-0.4,0.1
				C33.8,274.2,33.5,274.1,33.2,273.9z M35.3,271.7c0-0.3-0.1-0.5-0.2-0.6c-0.1-0.1-0.3-0.2-0.6-0.2c-0.2,0-0.3,0-0.5,0.1
				c-0.1,0-0.3,0.1-0.4,0.2l-0.6-0.4c0.1-0.2,0.3-0.3,0.6-0.4c0.2-0.1,0.5-0.2,0.8-0.2c0.3,0,0.6,0.1,0.8,0.2
				c0.2,0.1,0.4,0.3,0.5,0.5c0.1,0.2,0.2,0.5,0.2,0.8v2.5h-0.7V271.7z"/>
		</g>
	</g>
	<line class="st3" x1="10.6" y1="259.4" x2="10.6" y2="267.3"/>
	<line class="st3" x1="13.2" y1="259.4" x2="13.2" y2="267.3"/>
	<line class="st3" x1="15.9" y1="259.4" x2="15.9" y2="267.3"/>
	<line class="st3" x1="34.3" y1="259.4" x2="34.3" y2="267.3"/>
	<line class="st3" x1="37" y1="259.4" x2="37" y2="267.3"/>
	<line class="st3" x1="39.6" y1="259.4" x2="39.6" y2="267.3"/>
	<g>
		<polyline class="st3" points="41.5,263.1 46.9,263.1 30.3,241 19.3,241 2.7,263.1 8,263.1 		"/>
		<line class="st3" x1="18.6" y1="263.1" x2="30.8" y2="263.1"/>
	</g>
	<g>
		<g>
			<path d="M15.7,185.6h0.7v5.6h-0.8V187l0,0.2l-1.4,3.1h-0.5l-1.4-3.1l0-0.3v4.2h-0.8v-5.6h0.7l1.6,3.7L15.7,185.6z"/>
			<path d="M17.8,190.9c-0.2-0.2-0.4-0.5-0.4-0.9c0-0.4,0.1-0.7,0.3-0.9c0.2-0.2,0.6-0.3,1-0.3h1.1l0.1,0.6h-1.2
				c-0.2,0-0.4,0-0.5,0.1c-0.1,0.1-0.1,0.2-0.1,0.4c0,0.2,0.1,0.3,0.2,0.4c0.1,0.1,0.3,0.1,0.6,0.1c0.3,0,0.5,0,0.7-0.1
				c0.1-0.1,0.2-0.2,0.2-0.3l0.1,0.6c-0.1,0.1-0.2,0.2-0.3,0.3c-0.1,0.1-0.2,0.1-0.3,0.2c-0.1,0-0.3,0.1-0.4,0.1
				C18.4,191.2,18.1,191.1,17.8,190.9z M19.9,188.6c0-0.3-0.1-0.5-0.2-0.6c-0.1-0.1-0.3-0.2-0.6-0.2c-0.2,0-0.3,0-0.5,0.1
				c-0.1,0-0.3,0.1-0.4,0.2l-0.6-0.4c0.1-0.2,0.3-0.3,0.6-0.4c0.2-0.1,0.5-0.2,0.8-0.2c0.3,0,0.6,0.1,0.8,0.2
				c0.2,0.1,0.4,0.3,0.5,0.5c0.1,0.2,0.2,0.5,0.2,0.8v2.5h-0.7V188.6z"/>
			<path d="M21.8,187.2h0.8v4h-0.8V187.2z M23.7,187.9c-0.1,0-0.2-0.1-0.4-0.1c-0.2,0-0.4,0.1-0.6,0.2c-0.1,0.1-0.2,0.3-0.2,0.6
				l-0.1-0.8c0.1-0.2,0.3-0.4,0.5-0.6c0.2-0.1,0.4-0.2,0.6-0.2c0.2,0,0.3,0,0.5,0.1c0.1,0.1,0.3,0.1,0.4,0.2l-0.5,0.7
				C23.9,188,23.8,187.9,23.7,187.9z"/>
			<path d="M25.1,185.6h0.8v0.8h-0.8V185.6z M25.1,187.2h0.8v4h-0.8V187.2z"/>
			<path d="M27.8,191.1c-0.2,0-0.4-0.1-0.6-0.2c-0.2-0.1-0.3-0.2-0.5-0.3l0.5-0.6c0.2,0.2,0.4,0.3,0.6,0.4c0.2,0.1,0.4,0.1,0.6,0.1
				c0.3,0,0.5,0,0.7-0.1c0.2-0.1,0.2-0.2,0.2-0.4c0-0.1,0-0.2-0.1-0.3c-0.1-0.1-0.2-0.1-0.3-0.1s-0.3,0-0.5-0.1c0,0,0,0-0.1,0
				c0,0,0,0-0.1,0c0,0,0,0,0,0c0,0,0,0,0,0c-0.3,0-0.5-0.1-0.6-0.1c-0.2-0.1-0.3-0.2-0.4-0.3c-0.1-0.2-0.2-0.4-0.2-0.6
				c0-0.3,0.1-0.5,0.2-0.7c0.1-0.2,0.3-0.3,0.5-0.4s0.5-0.1,0.8-0.1c0.2,0,0.4,0,0.6,0.1c0.2,0,0.4,0.1,0.5,0.2
				c0.2,0.1,0.3,0.2,0.5,0.3l-0.5,0.6c-0.2-0.1-0.4-0.2-0.6-0.3s-0.4-0.1-0.6-0.1c-0.3,0-0.5,0-0.6,0.1c-0.1,0.1-0.2,0.2-0.2,0.4
				c0,0.1,0,0.2,0.1,0.2c0.1,0.1,0.2,0.1,0.3,0.1c0.1,0,0.3,0,0.5,0c0,0,0,0,0,0c0,0,0,0,0.1,0c0,0,0,0,0,0c0,0,0,0,0,0
				c0.3,0,0.5,0.1,0.7,0.1c0.2,0.1,0.4,0.2,0.5,0.3c0.1,0.2,0.2,0.4,0.2,0.7c0,0.3-0.1,0.5-0.2,0.7c-0.1,0.2-0.3,0.3-0.5,0.4
				c-0.2,0.1-0.5,0.1-0.9,0.1C28.2,191.2,28,191.2,27.8,191.1z"/>
			<path d="M31.7,191c-0.3-0.1-0.4-0.3-0.6-0.6c-0.1-0.3-0.2-0.6-0.2-0.9v-0.7c0-0.4,0.1-0.7,0.2-0.9c0.1-0.3,0.3-0.4,0.6-0.6
				c0.3-0.1,0.6-0.2,0.9-0.2c0.2,0,0.4,0,0.6,0.1c0.2,0,0.3,0.1,0.5,0.2c0.1,0.1,0.3,0.2,0.4,0.3l-0.6,0.5c-0.1-0.1-0.2-0.2-0.4-0.3
				c-0.1-0.1-0.3-0.1-0.5-0.1c-0.3,0-0.5,0.1-0.7,0.3c-0.2,0.2-0.2,0.4-0.2,0.7v0.7c0,0.3,0.1,0.6,0.2,0.7c0.2,0.2,0.4,0.3,0.7,0.3
				c0.2,0,0.3,0,0.5-0.1s0.3-0.2,0.4-0.3l0.6,0.5c-0.1,0.1-0.2,0.2-0.4,0.3c-0.1,0.1-0.3,0.2-0.5,0.2c-0.2,0-0.4,0.1-0.6,0.1
				C32.3,191.2,32,191.1,31.7,191z"/>
			<path d="M35.6,191c-0.2-0.1-0.4-0.3-0.6-0.6c-0.1-0.3-0.2-0.6-0.2-0.9v-0.6c0-0.4,0.1-0.7,0.2-0.9s0.3-0.5,0.6-0.6
				s0.5-0.2,0.9-0.2s0.6,0.1,0.9,0.2c0.2,0.1,0.4,0.3,0.6,0.6s0.2,0.6,0.2,0.9v0.7c0,0.4-0.1,0.7-0.2,0.9c-0.1,0.3-0.3,0.5-0.6,0.6
				c-0.2,0.1-0.5,0.2-0.9,0.2S35.8,191.1,35.6,191z M37.1,190.2c0.1-0.2,0.2-0.4,0.2-0.7v-0.7c0-0.3-0.1-0.5-0.2-0.7
				c-0.1-0.2-0.4-0.3-0.6-0.3s-0.5,0.1-0.6,0.3c-0.1,0.2-0.2,0.4-0.2,0.7v0.7c0,0.3,0.1,0.5,0.2,0.7c0.1,0.2,0.4,0.3,0.6,0.3
				S36.9,190.4,37.1,190.2z"/>
		</g>
	</g>
	<g>
		<line class="st3" x1="10.8" y1="176.3" x2="10.8" y2="184.2"/>
		<line class="st3" x1="13.4" y1="176.3" x2="13.4" y2="184.2"/>
		<line class="st3" x1="16.1" y1="176.3" x2="16.1" y2="184.2"/>
	</g>
	<line class="st3" x1="33.6" y1="176.3" x2="33.6" y2="184.2"/>
	<line class="st3" x1="36.2" y1="176.3" x2="36.2" y2="184.2"/>
	<line class="st3" x1="38.9" y1="176.3" x2="38.9" y2="184.2"/>
	<g>
		<polyline class="st3" points="41.5,180 46.9,180 41.4,157.9 8.2,157.9 2.7,180 8.1,180 		"/>
		<line class="st3" x1="18.7" y1="180" x2="30.9" y2="180"/>
	</g>
	<g>
		<g>
			<path class="st1" d="M56.1,149.4c-0.3-0.2-0.5-0.4-0.7-0.7s-0.2-0.7-0.2-1.1V146c0-0.4,0.1-0.8,0.2-1.1c0.2-0.3,0.4-0.5,0.7-0.7
				c0.3-0.2,0.6-0.3,1-0.3c0.4,0,0.7,0.1,1,0.3c0.3,0.2,0.5,0.4,0.7,0.7c0.2,0.3,0.2,0.7,0.2,1.1v1.6c0,0.4-0.1,0.8-0.2,1.1
				c-0.2,0.3-0.4,0.5-0.7,0.7c-0.3,0.2-0.6,0.3-1,0.3C56.7,149.6,56.4,149.5,56.1,149.4z M57.7,148.7c0.2-0.1,0.3-0.2,0.4-0.4
				c0.1-0.2,0.1-0.4,0.1-0.7V146c0-0.2,0-0.5-0.1-0.7c-0.1-0.2-0.2-0.3-0.4-0.4c-0.2-0.1-0.4-0.2-0.6-0.2c-0.2,0-0.4,0.1-0.6,0.2
				c-0.2,0.1-0.3,0.2-0.4,0.4c-0.1,0.2-0.1,0.4-0.1,0.7v1.6c0,0.2,0,0.5,0.1,0.7c0.1,0.2,0.2,0.3,0.4,0.4c0.2,0.1,0.4,0.2,0.6,0.2
				C57.3,148.9,57.5,148.8,57.7,148.7z M57.1,148l0.4-0.5l2.1,1.6l-0.4,0.5L57.1,148z"/>
			<path class="st1" d="M63.1,149.4c-0.3-0.1-0.5-0.3-0.6-0.6s-0.2-0.6-0.2-0.9v-0.7c0-0.4,0.1-0.7,0.2-0.9c0.1-0.3,0.3-0.4,0.6-0.6
				s0.6-0.2,0.9-0.2c0.2,0,0.4,0,0.6,0.1c0.2,0,0.3,0.1,0.5,0.2c0.1,0.1,0.3,0.2,0.4,0.3l-0.6,0.5c-0.1-0.1-0.2-0.2-0.4-0.3
				s-0.3-0.1-0.5-0.1c-0.3,0-0.5,0.1-0.7,0.3c-0.2,0.2-0.2,0.4-0.2,0.7v0.7c0,0.3,0.1,0.6,0.2,0.7c0.2,0.2,0.4,0.3,0.7,0.3
				c0.2,0,0.3,0,0.5-0.1c0.2-0.1,0.3-0.2,0.4-0.3l0.6,0.5c-0.1,0.1-0.2,0.2-0.4,0.3c-0.1,0.1-0.3,0.2-0.5,0.2s-0.4,0.1-0.6,0.1
				C63.7,149.6,63.4,149.6,63.1,149.4z"/>
			<path class="st1" d="M66.5,149.3c-0.2-0.2-0.4-0.5-0.4-0.9c0-0.4,0.1-0.7,0.3-0.9c0.2-0.2,0.6-0.3,1-0.3h1.1l0.1,0.6h-1.2
				c-0.2,0-0.4,0-0.5,0.1s-0.2,0.2-0.2,0.4c0,0.2,0.1,0.4,0.2,0.4c0.1,0.1,0.3,0.1,0.6,0.1c0.3,0,0.5,0,0.7-0.1s0.2-0.2,0.2-0.3
				l0.1,0.6c-0.1,0.1-0.2,0.2-0.3,0.3s-0.2,0.1-0.3,0.2c-0.1,0-0.3,0.1-0.4,0.1C67.1,149.6,66.7,149.5,66.5,149.3z M68.6,147
				c0-0.3-0.1-0.5-0.2-0.6c-0.1-0.1-0.3-0.2-0.6-0.2c-0.2,0-0.3,0-0.5,0.1s-0.3,0.1-0.4,0.2l-0.6-0.4c0.2-0.2,0.3-0.3,0.6-0.4
				c0.2-0.1,0.5-0.2,0.8-0.2c0.3,0,0.6,0.1,0.8,0.2c0.2,0.1,0.4,0.3,0.5,0.5s0.2,0.5,0.2,0.8v2.5h-0.7V147z"/>
			<path class="st1" d="M70.5,145.6h0.8v4h-0.8V145.6z M72.9,147.2c0-0.3-0.1-0.5-0.2-0.6c-0.1-0.2-0.3-0.2-0.6-0.2
				c-0.3,0-0.5,0.1-0.6,0.2c-0.1,0.1-0.2,0.3-0.2,0.6l-0.1-0.8c0.1-0.2,0.3-0.4,0.5-0.6c0.2-0.1,0.4-0.2,0.7-0.2
				c0.3,0,0.5,0.1,0.7,0.2c0.2,0.1,0.3,0.3,0.4,0.6c0.1,0.2,0.2,0.5,0.2,0.9v2.4h-0.8V147.2z M75.2,147.2c0-0.3-0.1-0.5-0.2-0.6
				c-0.1-0.2-0.3-0.2-0.6-0.2c-0.2,0-0.4,0.1-0.6,0.2c-0.1,0.1-0.2,0.4-0.2,0.6l-0.2-0.8c0.1-0.3,0.3-0.5,0.5-0.6
				c0.2-0.1,0.4-0.2,0.7-0.2c0.3,0,0.5,0.1,0.7,0.2c0.2,0.1,0.4,0.3,0.5,0.6c0.1,0.2,0.2,0.5,0.2,0.9v2.4h-0.8V147.2z"/>
			<path class="st1" d="M77.4,149.3c-0.2-0.2-0.4-0.5-0.4-0.9c0-0.4,0.1-0.7,0.3-0.9c0.2-0.2,0.6-0.3,1-0.3h1.1l0.1,0.6h-1.2
				c-0.2,0-0.4,0-0.5,0.1s-0.2,0.2-0.2,0.4c0,0.2,0.1,0.4,0.2,0.4c0.1,0.1,0.3,0.1,0.6,0.1c0.3,0,0.5,0,0.7-0.1s0.2-0.2,0.2-0.3
				l0.1,0.6c-0.1,0.1-0.2,0.2-0.3,0.3s-0.2,0.1-0.3,0.2c-0.1,0-0.3,0.1-0.4,0.1C78,149.6,77.6,149.5,77.4,149.3z M79.4,147
				c0-0.3-0.1-0.5-0.2-0.6c-0.1-0.1-0.3-0.2-0.6-0.2c-0.2,0-0.3,0-0.5,0.1s-0.3,0.1-0.4,0.2l-0.6-0.4c0.2-0.2,0.3-0.3,0.6-0.4
				c0.2-0.1,0.5-0.2,0.8-0.2c0.3,0,0.6,0.1,0.8,0.2c0.2,0.1,0.4,0.3,0.5,0.5s0.2,0.5,0.2,0.8v2.5h-0.7V147z"/>
			<path class="st1" d="M81.4,145.6h0.8v4h-0.8V145.6z M83.3,146.3c-0.1,0-0.2-0.1-0.4-0.1c-0.2,0-0.4,0.1-0.6,0.2s-0.2,0.3-0.2,0.6
				l-0.1-0.8c0.1-0.2,0.3-0.4,0.5-0.6c0.2-0.1,0.4-0.2,0.6-0.2c0.2,0,0.3,0,0.5,0.1s0.3,0.1,0.4,0.2l-0.5,0.7
				C83.5,146.5,83.4,146.4,83.3,146.3z"/>
			<path class="st1" d="M85.3,149.4c-0.2-0.1-0.4-0.3-0.6-0.6c-0.1-0.3-0.2-0.6-0.2-0.9v-0.6c0-0.4,0.1-0.7,0.2-0.9s0.3-0.5,0.6-0.6
				s0.5-0.2,0.9-0.2s0.6,0.1,0.9,0.2c0.2,0.1,0.4,0.3,0.6,0.6c0.1,0.3,0.2,0.6,0.2,0.9v0.7c0,0.4-0.1,0.7-0.2,0.9
				c-0.1,0.3-0.3,0.5-0.6,0.6c-0.2,0.1-0.5,0.2-0.9,0.2S85.6,149.6,85.3,149.4z M86.9,148.6c0.1-0.2,0.2-0.4,0.2-0.7v-0.7
				c0-0.3-0.1-0.5-0.2-0.7c-0.1-0.2-0.4-0.3-0.6-0.3s-0.5,0.1-0.6,0.3c-0.1,0.2-0.2,0.4-0.2,0.7v0.7c0,0.3,0.1,0.5,0.2,0.7
				c0.1,0.2,0.4,0.3,0.6,0.3S86.7,148.8,86.9,148.6z M85.8,144.4l1.1-1.4l0.6,0.5l-1.2,1.3L85.8,144.4z"/>
			<path class="st1" d="M89,145.6h0.8v4H89V145.6z M91.4,147.2c0-0.3-0.1-0.5-0.2-0.6c-0.1-0.2-0.3-0.2-0.6-0.2
				c-0.3,0-0.5,0.1-0.6,0.2c-0.1,0.1-0.2,0.3-0.2,0.6l-0.1-0.8c0.1-0.2,0.3-0.4,0.5-0.6c0.2-0.1,0.4-0.2,0.7-0.2
				c0.4,0,0.8,0.1,1,0.4c0.2,0.3,0.4,0.7,0.4,1.2v2.4h-0.8V147.2z"/>
		</g>
	</g>
	<g>
		<g>
			<path d="M63.6,190.9c-0.3-0.2-0.5-0.4-0.7-0.7c-0.2-0.3-0.2-0.7-0.2-1.1v-1.6c0-0.4,0.1-0.8,0.2-1.1c0.2-0.3,0.4-0.5,0.7-0.7
				c0.3-0.2,0.6-0.3,1-0.3c0.4,0,0.7,0.1,1,0.3c0.3,0.2,0.5,0.4,0.7,0.7c0.2,0.3,0.2,0.7,0.2,1.1v1.6c0,0.4-0.1,0.8-0.2,1.1
				c-0.2,0.3-0.4,0.5-0.7,0.7c-0.3,0.2-0.6,0.3-1,0.3C64.2,191.2,63.8,191.1,63.6,190.9z M65.2,190.3c0.2-0.1,0.3-0.2,0.4-0.4
				s0.1-0.4,0.1-0.7v-1.6c0-0.2,0-0.5-0.1-0.7c-0.1-0.2-0.2-0.3-0.4-0.4c-0.2-0.1-0.4-0.2-0.6-0.2s-0.4,0.1-0.6,0.2
				c-0.2,0.1-0.3,0.2-0.4,0.4c-0.1,0.2-0.1,0.4-0.1,0.7v1.6c0,0.2,0,0.5,0.1,0.7c0.1,0.2,0.2,0.3,0.4,0.4c0.2,0.1,0.4,0.2,0.6,0.2
				S65,190.4,65.2,190.3z M64.6,189.6l0.4-0.5l2.1,1.6l-0.4,0.5L64.6,189.6z"/>
			<path d="M69.9,187.2h0.8v5.6h-0.8V187.2z M71,191c-0.2-0.1-0.3-0.3-0.4-0.5l0.1-0.8c0,0.2,0,0.3,0.1,0.4c0.1,0.1,0.1,0.2,0.3,0.3
				c0.1,0.1,0.3,0.1,0.4,0.1c0.3,0,0.5-0.1,0.6-0.2s0.2-0.4,0.2-0.7v-0.9c0-0.3-0.1-0.5-0.2-0.7c-0.1-0.2-0.3-0.2-0.6-0.2
				c-0.2,0-0.3,0-0.4,0.1c-0.1,0.1-0.2,0.2-0.3,0.3c-0.1,0.1-0.1,0.3-0.1,0.4l-0.1-0.8c0.1-0.2,0.3-0.4,0.5-0.5s0.4-0.2,0.6-0.2
				c0.3,0,0.5,0.1,0.7,0.2c0.2,0.1,0.4,0.3,0.5,0.6c0.1,0.2,0.2,0.5,0.2,0.9v0.9c0,0.3-0.1,0.6-0.2,0.9c-0.1,0.2-0.3,0.4-0.5,0.5
				c-0.2,0.1-0.5,0.2-0.7,0.2C71.4,191.2,71.2,191.1,71,191z"/>
			<path d="M74.8,191c-0.2-0.1-0.4-0.3-0.6-0.6c-0.1-0.3-0.2-0.6-0.2-0.9v-0.6c0-0.4,0.1-0.7,0.2-0.9s0.3-0.5,0.6-0.6
				s0.5-0.2,0.9-0.2s0.6,0.1,0.9,0.2c0.2,0.1,0.4,0.3,0.6,0.6c0.1,0.3,0.2,0.6,0.2,0.9v0.7c0,0.4-0.1,0.7-0.2,0.9
				c-0.1,0.3-0.3,0.5-0.6,0.6c-0.2,0.1-0.5,0.2-0.9,0.2S75,191.1,74.8,191z M76.3,190.2c0.1-0.2,0.2-0.4,0.2-0.7v-0.7
				c0-0.3-0.1-0.5-0.2-0.7c-0.1-0.2-0.4-0.3-0.6-0.3s-0.5,0.1-0.6,0.3c-0.1,0.2-0.2,0.4-0.2,0.7v0.7c0,0.3,0.1,0.5,0.2,0.7
				c0.1,0.2,0.4,0.3,0.6,0.3S76.2,190.4,76.3,190.2z"/>
			<path d="M79.2,190.1c0,0.1,0,0.2,0.1,0.2c0,0.1,0.1,0.1,0.2,0.1h0.4v0.7h-0.5c-0.3,0-0.5-0.1-0.7-0.3c-0.2-0.2-0.2-0.4-0.2-0.8
				v-4.5h0.8V190.1z"/>
			<path d="M81.5,190.1c0,0.1,0,0.2,0.1,0.2c0,0.1,0.1,0.1,0.2,0.1h0.4v0.7h-0.5c-0.3,0-0.5-0.1-0.7-0.3c-0.2-0.2-0.2-0.4-0.2-0.8
				v-4.5h0.8V190.1z"/>
			<path d="M83.6,191c-0.2-0.1-0.4-0.3-0.6-0.6c-0.1-0.3-0.2-0.6-0.2-0.9v-0.6c0-0.4,0.1-0.7,0.2-0.9c0.1-0.3,0.3-0.5,0.6-0.6
				c0.2-0.1,0.5-0.2,0.9-0.2s0.6,0.1,0.9,0.2s0.4,0.3,0.6,0.6s0.2,0.6,0.2,0.9v0.7c0,0.4-0.1,0.7-0.2,0.9c-0.1,0.3-0.3,0.5-0.6,0.6
				s-0.5,0.2-0.9,0.2S83.8,191.1,83.6,191z M85.1,190.2c0.1-0.2,0.2-0.4,0.2-0.7v-0.7c0-0.3-0.1-0.5-0.2-0.7
				c-0.1-0.2-0.4-0.3-0.6-0.3s-0.5,0.1-0.6,0.3c-0.1,0.2-0.2,0.4-0.2,0.7v0.7c0,0.3,0.1,0.5,0.2,0.7c0.1,0.2,0.4,0.3,0.6,0.3
				S85,190.4,85.1,190.2z"/>
		</g>
	</g>
	<g>
		<g>
			<g>
				<path d="M53.7,232.4c-0.3-0.2-0.5-0.4-0.7-0.7c-0.2-0.3-0.2-0.7-0.2-1.1v-1.6c0-0.4,0.1-0.8,0.2-1.1c0.2-0.3,0.4-0.5,0.7-0.7
					c0.3-0.2,0.6-0.3,1-0.3c0.4,0,0.7,0.1,1,0.3c0.3,0.2,0.5,0.4,0.7,0.7c0.2,0.3,0.2,0.7,0.2,1.1v1.6c0,0.4-0.1,0.8-0.2,1.1
					c-0.2,0.3-0.4,0.5-0.7,0.7c-0.3,0.2-0.6,0.3-1,0.3C54.3,232.7,54,232.6,53.7,232.4z M55.3,231.8c0.2-0.1,0.3-0.2,0.4-0.4
					s0.1-0.4,0.1-0.7v-1.6c0-0.2,0-0.5-0.1-0.7c-0.1-0.2-0.2-0.3-0.4-0.4c-0.2-0.1-0.4-0.2-0.6-0.2s-0.4,0.1-0.6,0.2
					c-0.2,0.1-0.3,0.2-0.4,0.4c-0.1,0.2-0.1,0.4-0.1,0.7v1.6c0,0.2,0,0.5,0.1,0.7c0.1,0.2,0.2,0.3,0.4,0.4c0.2,0.1,0.4,0.2,0.6,0.2
					S55.1,231.9,55.3,231.8z M54.7,231.1l0.4-0.5l2.1,1.6l-0.4,0.5L54.7,231.1z"/>
				<path d="M60.7,232.5c-0.3-0.1-0.5-0.3-0.6-0.6c-0.1-0.3-0.2-0.6-0.2-0.9v-0.7c0-0.4,0.1-0.7,0.2-0.9c0.1-0.3,0.3-0.4,0.6-0.6
					s0.6-0.2,0.9-0.2c0.2,0,0.4,0,0.6,0.1c0.2,0,0.3,0.1,0.5,0.2c0.1,0.1,0.3,0.2,0.4,0.3l-0.6,0.5c-0.1-0.1-0.2-0.2-0.4-0.3
					c-0.2-0.1-0.3-0.1-0.5-0.1c-0.3,0-0.5,0.1-0.7,0.3c-0.2,0.2-0.2,0.4-0.2,0.7v0.7c0,0.3,0.1,0.6,0.2,0.7c0.2,0.2,0.4,0.3,0.7,0.3
					c0.2,0,0.3,0,0.5-0.1s0.3-0.2,0.4-0.3l0.6,0.5c-0.1,0.1-0.2,0.2-0.4,0.3c-0.1,0.1-0.3,0.2-0.5,0.2c-0.2,0-0.4,0.1-0.6,0.1
					C61.3,232.7,61,232.6,60.7,232.5z"/>
				<path d="M63.9,227.1h0.8v5.6h-0.8V227.1z M66.3,230.2c0-0.3-0.1-0.5-0.2-0.6c-0.1-0.2-0.3-0.2-0.6-0.2c-0.3,0-0.5,0.1-0.6,0.2
					c-0.1,0.1-0.2,0.3-0.2,0.6l-0.1-0.8c0.1-0.2,0.3-0.4,0.5-0.5c0.2-0.1,0.4-0.2,0.7-0.2c0.4,0,0.8,0.1,1,0.4
					c0.2,0.3,0.4,0.7,0.4,1.2v2.4h-0.8V230.2z"/>
				<path d="M68.5,232.4c-0.2-0.2-0.4-0.5-0.4-0.9c0-0.4,0.1-0.7,0.3-0.9s0.6-0.3,1-0.3h1.1l0.1,0.6h-1.2c-0.2,0-0.4,0-0.5,0.1
					c-0.1,0.1-0.2,0.2-0.2,0.4c0,0.2,0.1,0.3,0.2,0.4c0.1,0.1,0.3,0.1,0.6,0.1c0.3,0,0.5,0,0.7-0.1s0.2-0.2,0.2-0.3l0.1,0.6
					c-0.1,0.1-0.2,0.2-0.3,0.3c-0.1,0.1-0.2,0.1-0.3,0.2c-0.1,0-0.3,0.1-0.4,0.1C69.1,232.7,68.7,232.6,68.5,232.4z M70.5,230.1
					c0-0.3-0.1-0.5-0.2-0.6c-0.1-0.1-0.3-0.2-0.6-0.2c-0.2,0-0.3,0-0.5,0.1c-0.2,0-0.3,0.1-0.4,0.2l-0.6-0.4
					c0.2-0.2,0.3-0.3,0.6-0.4c0.2-0.1,0.5-0.2,0.8-0.2c0.3,0,0.6,0.1,0.8,0.2c0.2,0.1,0.4,0.3,0.5,0.5c0.1,0.2,0.2,0.5,0.2,0.8v2.5
					h-0.7V230.1z"/>
				<path d="M72.5,228.7h0.8v4h-0.8V228.7z M74.8,230.2c0-0.3-0.1-0.5-0.2-0.6c-0.1-0.2-0.3-0.2-0.6-0.2c-0.3,0-0.5,0.1-0.6,0.2
					c-0.1,0.1-0.2,0.3-0.2,0.6l-0.1-0.8c0.1-0.2,0.3-0.4,0.5-0.6s0.4-0.2,0.7-0.2c0.3,0,0.5,0.1,0.7,0.2c0.2,0.1,0.3,0.3,0.4,0.6
					c0.1,0.2,0.2,0.5,0.2,0.9v2.4h-0.8V230.2z M77.2,230.2c0-0.3-0.1-0.5-0.2-0.6c-0.1-0.2-0.3-0.2-0.6-0.2c-0.2,0-0.4,0.1-0.6,0.2
					c-0.1,0.1-0.2,0.4-0.2,0.6l-0.2-0.8c0.1-0.3,0.3-0.5,0.5-0.6c0.2-0.1,0.4-0.2,0.7-0.2c0.3,0,0.5,0.1,0.7,0.2
					c0.2,0.1,0.4,0.3,0.5,0.6c0.1,0.2,0.2,0.5,0.2,0.9v2.4h-0.8V230.2z"/>
				<path d="M79.2,228.7h0.8v5.6h-0.8V228.7z M80.3,232.5c-0.2-0.1-0.3-0.3-0.4-0.5l0.1-0.8c0,0.2,0,0.3,0.1,0.4
					c0.1,0.1,0.1,0.2,0.3,0.3s0.3,0.1,0.4,0.1c0.3,0,0.5-0.1,0.6-0.2c0.1-0.2,0.2-0.4,0.2-0.7v-0.9c0-0.3-0.1-0.5-0.2-0.7
					c-0.1-0.2-0.3-0.2-0.6-0.2c-0.2,0-0.3,0-0.4,0.1s-0.2,0.2-0.3,0.3c-0.1,0.1-0.1,0.3-0.1,0.4l-0.1-0.8c0.1-0.2,0.3-0.4,0.5-0.5
					s0.4-0.2,0.6-0.2c0.3,0,0.5,0.1,0.7,0.2s0.4,0.3,0.5,0.6c0.1,0.2,0.2,0.5,0.2,0.9v0.9c0,0.3-0.1,0.6-0.2,0.9
					c-0.1,0.2-0.3,0.4-0.5,0.5c-0.2,0.1-0.5,0.2-0.7,0.2C80.7,232.7,80.5,232.6,80.3,232.5z"/>
				<path d="M83.4,227.1h0.8v0.8h-0.8V227.1z M83.4,228.7h0.8v4h-0.8V228.7z"/>
				<path d="M85.4,228.7h0.8v4h-0.8V228.7z M87.3,227.8c-0.1,0-0.2-0.1-0.2-0.1l0,0c0,0,0,0,0,0c0,0,0,0,0,0
					c-0.1-0.1-0.2-0.1-0.2-0.2s-0.1,0-0.2,0c-0.1,0-0.2,0-0.2,0.1c0,0-0.1,0.1-0.1,0.2v0.2h-0.6v-0.2c0-0.3,0.1-0.6,0.2-0.7
					s0.3-0.2,0.6-0.2c0.1,0,0.2,0,0.3,0.1s0.2,0.1,0.3,0.2l0,0l0,0c0.1,0.1,0.2,0.1,0.2,0.1c0.1,0,0.1,0,0.2,0c0.1,0,0.2,0,0.2-0.1
					c0,0,0.1-0.1,0.1-0.2v-0.2h0.6v0.1c0,0.3-0.1,0.6-0.2,0.7s-0.3,0.2-0.6,0.2C87.4,227.9,87.3,227.9,87.3,227.8z M87.8,230.2
					c0-0.3-0.1-0.5-0.2-0.6c-0.1-0.2-0.3-0.2-0.6-0.2c-0.3,0-0.5,0.1-0.6,0.2c-0.1,0.1-0.2,0.3-0.2,0.6l-0.1-0.8
					c0.1-0.2,0.3-0.4,0.5-0.6s0.4-0.2,0.7-0.2c0.4,0,0.8,0.1,1,0.4c0.2,0.3,0.4,0.7,0.4,1.2v2.4h-0.8V230.2z"/>
				<path d="M90.4,232.5c-0.2-0.1-0.4-0.3-0.6-0.6c-0.1-0.3-0.2-0.6-0.2-0.9v-0.6c0-0.4,0.1-0.7,0.2-0.9s0.3-0.5,0.6-0.6
					s0.5-0.2,0.9-0.2s0.6,0.1,0.9,0.2c0.2,0.1,0.4,0.3,0.6,0.6c0.1,0.3,0.2,0.6,0.2,0.9v0.7c0,0.4-0.1,0.7-0.2,0.9
					c-0.1,0.3-0.3,0.5-0.6,0.6c-0.2,0.1-0.5,0.2-0.9,0.2S90.6,232.6,90.4,232.5z M91.9,231.7c0.1-0.2,0.2-0.4,0.2-0.7v-0.7
					c0-0.3-0.1-0.5-0.2-0.7c-0.1-0.2-0.4-0.3-0.6-0.3s-0.5,0.1-0.6,0.3c-0.1,0.2-0.2,0.4-0.2,0.7v0.7c0,0.3,0.1,0.5,0.2,0.7
					c0.1,0.2,0.4,0.3,0.6,0.3S91.8,231.9,91.9,231.7z"/>
				<path d="M94,228.7h0.8v4H94V228.7z M96.4,230.2c0-0.3-0.1-0.5-0.2-0.6c-0.1-0.2-0.3-0.2-0.6-0.2c-0.3,0-0.5,0.1-0.6,0.2
					c-0.1,0.1-0.2,0.3-0.2,0.6l-0.1-0.8c0.1-0.2,0.3-0.4,0.5-0.6s0.4-0.2,0.7-0.2c0.4,0,0.8,0.1,1,0.4c0.2,0.3,0.4,0.7,0.4,1.2v2.4
					h-0.8V230.2z"/>
			</g>
		</g>
	</g>
	<g>
		<g>
			<path d="M57.4,274c-0.3-0.2-0.5-0.4-0.7-0.7c-0.2-0.3-0.2-0.7-0.2-1.1v-1.6c0-0.4,0.1-0.8,0.2-1.1c0.2-0.3,0.4-0.5,0.7-0.7
				c0.3-0.2,0.6-0.3,1-0.3c0.4,0,0.7,0.1,1,0.3c0.3,0.2,0.5,0.4,0.7,0.7c0.2,0.3,0.2,0.7,0.2,1.1v1.6c0,0.4-0.1,0.8-0.2,1.1
				c-0.2,0.3-0.4,0.5-0.7,0.7c-0.3,0.2-0.6,0.3-1,0.3C58,274.3,57.7,274.2,57.4,274z M59,273.3c0.2-0.1,0.3-0.2,0.4-0.4
				s0.1-0.4,0.1-0.7v-1.6c0-0.2,0-0.5-0.1-0.7c-0.1-0.2-0.2-0.3-0.4-0.4c-0.2-0.1-0.4-0.2-0.6-0.2s-0.4,0.1-0.6,0.2
				c-0.2,0.1-0.3,0.2-0.4,0.4c-0.1,0.2-0.1,0.4-0.1,0.7v1.6c0,0.2,0,0.5,0.1,0.7c0.1,0.2,0.2,0.3,0.4,0.4c0.2,0.1,0.4,0.2,0.6,0.2
				S58.8,273.4,59,273.3z M58.4,272.7l0.4-0.5l2.1,1.6l-0.4,0.5L58.4,272.7z"/>
			<path d="M63.9,274c-0.2-0.2-0.4-0.5-0.4-0.9c0-0.4,0.1-0.7,0.3-0.9c0.2-0.2,0.6-0.3,1-0.3H66l0.1,0.6h-1.2c-0.2,0-0.4,0-0.5,0.1
				c-0.1,0.1-0.2,0.2-0.2,0.4c0,0.2,0.1,0.3,0.2,0.4c0.1,0.1,0.3,0.1,0.6,0.1c0.3,0,0.5,0,0.7-0.1s0.2-0.2,0.2-0.3l0.1,0.6
				c-0.1,0.1-0.2,0.2-0.3,0.3c-0.1,0.1-0.2,0.1-0.3,0.2c-0.1,0-0.3,0.1-0.4,0.1C64.5,274.3,64.1,274.2,63.9,274z M66,271.7
				c0-0.3-0.1-0.5-0.2-0.6c-0.1-0.1-0.3-0.2-0.6-0.2c-0.2,0-0.3,0-0.5,0.1c-0.2,0-0.3,0.1-0.4,0.2l-0.6-0.4c0.1-0.2,0.3-0.3,0.6-0.4
				s0.5-0.2,0.8-0.2c0.3,0,0.6,0.1,0.8,0.2c0.2,0.1,0.4,0.3,0.5,0.5c0.1,0.2,0.2,0.5,0.2,0.8v2.5H66V271.7z"/>
			<path d="M68.6,274.1c-0.3-0.1-0.5-0.3-0.6-0.6c-0.1-0.3-0.2-0.6-0.2-0.9v-0.7c0-0.4,0.1-0.7,0.2-0.9c0.1-0.3,0.3-0.4,0.6-0.6
				s0.6-0.2,0.9-0.2c0.2,0,0.4,0,0.6,0.1c0.2,0,0.3,0.1,0.5,0.2c0.1,0.1,0.3,0.2,0.4,0.3l-0.6,0.5c-0.1-0.1-0.2-0.2-0.4-0.3
				c-0.2-0.1-0.3-0.1-0.5-0.1c-0.3,0-0.5,0.1-0.7,0.3c-0.2,0.2-0.2,0.4-0.2,0.7v0.7c0,0.3,0.1,0.6,0.2,0.7c0.2,0.2,0.4,0.3,0.7,0.3
				c0.2,0,0.3,0,0.5-0.1s0.3-0.2,0.4-0.3l0.6,0.5c-0.1,0.1-0.2,0.2-0.4,0.3c-0.1,0.1-0.3,0.2-0.5,0.2c-0.2,0-0.4,0.1-0.6,0.1
				C69.1,274.3,68.8,274.2,68.6,274.1z"/>
			<path d="M72.5,274.1c-0.3-0.1-0.5-0.3-0.6-0.6c-0.1-0.3-0.2-0.6-0.2-1V272c0-0.4,0.1-0.7,0.2-1c0.1-0.3,0.3-0.5,0.6-0.6
				c0.2-0.1,0.5-0.2,0.9-0.2c0.3,0,0.6,0.1,0.8,0.2c0.2,0.2,0.4,0.4,0.5,0.7c0.1,0.3,0.2,0.7,0.2,1.1v0.3h-2.7v-0.6h1.9
				c0-0.3-0.1-0.6-0.2-0.8s-0.3-0.3-0.6-0.3c-0.3,0-0.5,0.1-0.7,0.3c-0.2,0.2-0.2,0.5-0.2,0.8v0.5c0,0.3,0.1,0.6,0.3,0.8
				c0.2,0.2,0.4,0.3,0.7,0.3c0.2,0,0.3,0,0.5-0.1s0.3-0.2,0.4-0.3l0.5,0.5c-0.2,0.2-0.4,0.3-0.7,0.4c-0.2,0.1-0.5,0.2-0.7,0.2
				C73.1,274.3,72.7,274.2,72.5,274.1z"/>
			<path d="M76,268.7h0.8v0.8H76V268.7z M76,270.2h0.8v4H76V270.2z"/>
			<path d="M77.6,270.2h1.8v0.7h-1.8V270.2z M78.3,274c-0.1-0.2-0.2-0.4-0.2-0.8v-4.1h0.8v4.1c0,0.1,0,0.2,0.1,0.2
				c0,0.1,0.1,0.1,0.2,0.1h0.4v0.7H79C78.7,274.2,78.4,274.1,78.3,274z"/>
			<path d="M81.3,272.7c0,0.3,0.1,0.5,0.2,0.6s0.3,0.2,0.6,0.2c0.3,0,0.5-0.1,0.6-0.2c0.1-0.1,0.2-0.3,0.2-0.6l0.1,0.8
				c-0.1,0.2-0.2,0.4-0.4,0.5c-0.2,0.1-0.4,0.2-0.7,0.2c-0.4,0-0.8-0.1-1-0.4c-0.2-0.3-0.4-0.7-0.4-1.2v-2.4h0.8V272.7z M82.9,270.2
				h0.8v4h-0.8V270.2z"/>
			<path d="M84.9,270.2h0.8v4h-0.8V270.2z M87.3,271.8c0-0.3-0.1-0.5-0.2-0.6c-0.1-0.2-0.3-0.2-0.6-0.2c-0.3,0-0.5,0.1-0.6,0.2
				c-0.1,0.1-0.2,0.3-0.2,0.6l-0.1-0.8c0.1-0.2,0.3-0.4,0.5-0.6s0.4-0.2,0.7-0.2c0.4,0,0.8,0.1,1,0.4c0.2,0.3,0.4,0.7,0.4,1.2v2.4
				h-0.8V271.8z"/>
			<path d="M89.4,274c-0.2-0.2-0.4-0.5-0.4-0.9c0-0.4,0.1-0.7,0.3-0.9c0.2-0.2,0.6-0.3,1-0.3h1.1l0.1,0.6h-1.2c-0.2,0-0.4,0-0.5,0.1
				c-0.1,0.1-0.2,0.2-0.2,0.4c0,0.2,0.1,0.3,0.2,0.4c0.1,0.1,0.3,0.1,0.6,0.1c0.3,0,0.5,0,0.7-0.1s0.2-0.2,0.2-0.3l0.1,0.6
				c-0.1,0.1-0.2,0.2-0.3,0.3c-0.1,0.1-0.2,0.1-0.3,0.2c-0.1,0-0.3,0.1-0.4,0.1C90,274.3,89.6,274.2,89.4,274z M91.5,271.7
				c0-0.3-0.1-0.5-0.2-0.6c-0.1-0.1-0.3-0.2-0.6-0.2c-0.2,0-0.3,0-0.5,0.1c-0.2,0-0.3,0.1-0.4,0.2l-0.6-0.4c0.1-0.2,0.3-0.3,0.6-0.4
				s0.5-0.2,0.8-0.2c0.3,0,0.6,0.1,0.8,0.2c0.2,0.1,0.4,0.3,0.5,0.5c0.1,0.2,0.2,0.5,0.2,0.8v2.5h-0.7V271.7z"/>
		</g>
	</g>
	<text transform="matrix(1 0 0 1 56.8682 315.7053)" class="st4 st5">*Q = Queso</text>
	<rect x="50.1" y="27.7" class="st2" width="49.9" height="41.5"/>
	<g>
		<g>
			<path d="M63.1,66.3c-0.3-0.2-0.5-0.4-0.7-0.7s-0.2-0.7-0.2-1.1v-1.6c0-0.4,0.1-0.8,0.2-1.1c0.2-0.3,0.4-0.5,0.7-0.7
				c0.3-0.2,0.6-0.3,1-0.3c0.4,0,0.7,0.1,1,0.3c0.3,0.2,0.5,0.4,0.7,0.7c0.2,0.3,0.2,0.7,0.2,1.1v1.6c0,0.4-0.1,0.8-0.2,1.1
				c-0.2,0.3-0.4,0.5-0.7,0.7c-0.3,0.2-0.6,0.3-1,0.3C63.8,66.5,63.4,66.4,63.1,66.3z M64.7,65.6c0.2-0.1,0.3-0.2,0.4-0.4
				c0.1-0.2,0.1-0.4,0.1-0.7v-1.6c0-0.2,0-0.5-0.1-0.7c-0.1-0.2-0.2-0.3-0.4-0.4c-0.2-0.1-0.4-0.2-0.6-0.2c-0.2,0-0.4,0.1-0.6,0.2
				c-0.2,0.1-0.3,0.2-0.4,0.4C63,62.4,63,62.6,63,62.9v1.6c0,0.2,0,0.5,0.1,0.7c0.1,0.2,0.2,0.3,0.4,0.4c0.2,0.1,0.4,0.2,0.6,0.2
				C64.4,65.8,64.6,65.7,64.7,65.6z M64.1,64.9l0.4-0.5l2.1,1.6l-0.4,0.5L64.1,64.9z"/>
			<path d="M68.2,64.9c0,0.3,0.1,0.5,0.2,0.6c0.1,0.2,0.3,0.2,0.6,0.2c0.3,0,0.5-0.1,0.6-0.2c0.1-0.1,0.2-0.3,0.2-0.6l0.1,0.8
				c-0.1,0.2-0.2,0.4-0.4,0.5c-0.2,0.1-0.4,0.2-0.7,0.2c-0.4,0-0.8-0.1-1-0.4c-0.2-0.3-0.4-0.7-0.4-1.2v-2.4h0.8V64.9z M69.8,62.5
				h0.8v4h-0.8V62.5z"/>
			<path d="M72.4,66.3c-0.3-0.1-0.5-0.3-0.6-0.6c-0.1-0.3-0.2-0.6-0.2-1v-0.4c0-0.4,0.1-0.7,0.2-1c0.1-0.3,0.3-0.5,0.6-0.6
				c0.2-0.1,0.5-0.2,0.9-0.2c0.3,0,0.6,0.1,0.8,0.2s0.4,0.4,0.5,0.7c0.1,0.3,0.2,0.7,0.2,1.1v0.3h-2.7v-0.6h1.9
				c0-0.3-0.1-0.6-0.2-0.8c-0.1-0.2-0.3-0.3-0.6-0.3c-0.3,0-0.5,0.1-0.7,0.3c-0.2,0.2-0.2,0.5-0.2,0.8v0.5c0,0.3,0.1,0.6,0.3,0.8
				c0.2,0.2,0.4,0.3,0.7,0.3c0.2,0,0.3,0,0.5-0.1s0.3-0.2,0.4-0.3l0.5,0.5c-0.2,0.2-0.4,0.3-0.7,0.4c-0.2,0.1-0.5,0.2-0.7,0.2
				C73,66.5,72.7,66.5,72.4,66.3z"/>
			<path d="M76.7,66.5c-0.2,0-0.4-0.1-0.6-0.2c-0.2-0.1-0.3-0.2-0.5-0.3l0.5-0.6c0.2,0.2,0.4,0.3,0.6,0.4c0.2,0.1,0.4,0.1,0.6,0.1
				c0.3,0,0.5,0,0.7-0.1c0.2-0.1,0.2-0.2,0.2-0.4c0-0.1,0-0.2-0.1-0.3c-0.1-0.1-0.2-0.1-0.3-0.1s-0.3,0-0.5-0.1c0,0,0,0-0.1,0
				c0,0,0,0-0.1,0c0,0,0,0,0,0c0,0,0,0,0,0c-0.3,0-0.5-0.1-0.7-0.1c-0.2-0.1-0.3-0.2-0.4-0.3c-0.1-0.2-0.2-0.4-0.2-0.6
				c0-0.3,0.1-0.5,0.2-0.7c0.1-0.2,0.3-0.3,0.5-0.4c0.2-0.1,0.5-0.1,0.9-0.1c0.2,0,0.4,0,0.6,0.1c0.2,0,0.4,0.1,0.5,0.2
				s0.3,0.2,0.5,0.3l-0.5,0.6c-0.2-0.1-0.4-0.2-0.6-0.3c-0.2-0.1-0.4-0.1-0.6-0.1c-0.3,0-0.5,0-0.6,0.1c-0.1,0.1-0.2,0.2-0.2,0.4
				c0,0.1,0,0.2,0.1,0.2c0.1,0.1,0.2,0.1,0.3,0.1c0.1,0,0.3,0,0.5,0c0,0,0,0,0,0s0,0,0.1,0c0,0,0,0,0,0s0,0,0,0
				c0.3,0,0.5,0.1,0.7,0.1c0.2,0.1,0.4,0.2,0.5,0.3c0.1,0.2,0.2,0.4,0.2,0.7c0,0.3-0.1,0.5-0.2,0.7c-0.1,0.2-0.3,0.3-0.6,0.4
				s-0.6,0.1-0.9,0.1C77.1,66.5,76.9,66.5,76.7,66.5z"/>
			<path d="M80.6,66.3c-0.2-0.1-0.4-0.3-0.6-0.6c-0.1-0.3-0.2-0.6-0.2-0.9v-0.6c0-0.4,0.1-0.7,0.2-0.9c0.1-0.3,0.3-0.5,0.6-0.6
				c0.2-0.1,0.5-0.2,0.9-0.2s0.6,0.1,0.9,0.2s0.4,0.3,0.6,0.6s0.2,0.6,0.2,0.9v0.7c0,0.4-0.1,0.7-0.2,0.9c-0.1,0.3-0.3,0.5-0.6,0.6
				c-0.2,0.1-0.5,0.2-0.9,0.2S80.9,66.5,80.6,66.3z M82.1,65.5c0.1-0.2,0.2-0.4,0.2-0.7v-0.7c0-0.3-0.1-0.5-0.2-0.7
				c-0.1-0.2-0.4-0.3-0.6-0.3s-0.5,0.1-0.6,0.3c-0.1,0.2-0.2,0.4-0.2,0.7v0.7c0,0.3,0.1,0.5,0.2,0.7c0.1,0.2,0.4,0.3,0.6,0.3
				S82,65.7,82.1,65.5z"/>
		</g>
	</g>
	<path class="st3" d="M52.9,55.4h44.3c0,0,0-22.1-22.1-22.1S52.9,55.4,52.9,55.4z"/>
	<rect x="50.1" y="69.3" class="st2" width="49.9" height="41.5"/>
	<g>
		<g>
			<path d="M62.9,107.8c-0.3-0.2-0.5-0.4-0.7-0.7c-0.2-0.3-0.2-0.7-0.2-1.1v-1.6c0-0.4,0.1-0.8,0.2-1.1c0.2-0.3,0.4-0.5,0.7-0.7
				c0.3-0.2,0.6-0.3,1-0.3c0.4,0,0.7,0.1,1,0.3c0.3,0.2,0.5,0.4,0.7,0.7c0.2,0.3,0.2,0.7,0.2,1.1v1.6c0,0.4-0.1,0.8-0.2,1.1
				c-0.2,0.3-0.4,0.5-0.7,0.7c-0.3,0.2-0.6,0.3-1,0.3C63.5,108.1,63.2,108,62.9,107.8z M64.5,107.2c0.2-0.1,0.3-0.2,0.4-0.4
				c0.1-0.2,0.1-0.4,0.1-0.7v-1.6c0-0.2,0-0.5-0.1-0.7c-0.1-0.2-0.2-0.3-0.4-0.4c-0.2-0.1-0.4-0.2-0.6-0.2s-0.4,0.1-0.6,0.2
				s-0.3,0.2-0.4,0.4c-0.1,0.2-0.1,0.4-0.1,0.7v1.6c0,0.2,0,0.5,0.1,0.7c0.1,0.2,0.2,0.3,0.4,0.4s0.4,0.2,0.6,0.2
				S64.4,107.3,64.5,107.2z M63.9,106.5l0.4-0.5l2.1,1.6l-0.4,0.5L63.9,106.5z"/>
			<path d="M69.9,107.9c-0.3-0.1-0.5-0.3-0.6-0.6c-0.1-0.3-0.2-0.6-0.2-0.9v-0.7c0-0.4,0.1-0.7,0.2-0.9c0.1-0.3,0.3-0.4,0.6-0.6
				s0.6-0.2,0.9-0.2c0.2,0,0.4,0,0.6,0.1c0.2,0,0.3,0.1,0.5,0.2s0.3,0.2,0.4,0.3l-0.6,0.5c-0.1-0.1-0.2-0.2-0.4-0.3
				s-0.3-0.1-0.5-0.1c-0.3,0-0.5,0.1-0.7,0.3c-0.2,0.2-0.2,0.4-0.2,0.7v0.7c0,0.3,0.1,0.6,0.2,0.7c0.2,0.2,0.4,0.3,0.7,0.3
				c0.2,0,0.3,0,0.5-0.1c0.2-0.1,0.3-0.2,0.4-0.3l0.6,0.5c-0.1,0.1-0.2,0.2-0.4,0.3c-0.1,0.1-0.3,0.2-0.5,0.2
				c-0.2,0-0.4,0.1-0.6,0.1C70.5,108.1,70.2,108,69.9,107.9z"/>
			<path d="M73.3,107.8c-0.2-0.2-0.4-0.5-0.4-0.9c0-0.4,0.1-0.7,0.3-0.9c0.2-0.2,0.6-0.3,1-0.3h1.1l0.1,0.6h-1.2
				c-0.2,0-0.4,0-0.5,0.1s-0.2,0.2-0.2,0.4c0,0.2,0.1,0.4,0.2,0.4c0.1,0.1,0.3,0.1,0.6,0.1c0.3,0,0.5,0,0.7-0.1s0.2-0.2,0.2-0.3
				l0.1,0.6c-0.1,0.1-0.2,0.2-0.3,0.3S75,108,74.9,108c-0.1,0-0.3,0.1-0.4,0.1C73.9,108.1,73.6,108,73.3,107.8z M75.4,105.5
				c0-0.3-0.1-0.5-0.2-0.6c-0.1-0.1-0.3-0.2-0.6-0.2c-0.2,0-0.3,0-0.5,0.1s-0.3,0.1-0.4,0.2l-0.6-0.4c0.1-0.2,0.3-0.3,0.6-0.4
				s0.5-0.2,0.8-0.2c0.3,0,0.6,0.1,0.8,0.2c0.2,0.1,0.4,0.3,0.5,0.5c0.1,0.2,0.2,0.5,0.2,0.8v2.5h-0.7V105.5z"/>
			<path d="M77.3,104.1h0.8v4h-0.8V104.1z M79.2,104.8c-0.1,0-0.2-0.1-0.4-0.1c-0.2,0-0.4,0.1-0.6,0.2c-0.1,0.1-0.2,0.3-0.2,0.6
				l-0.1-0.8c0.1-0.2,0.3-0.4,0.5-0.6c0.2-0.1,0.4-0.2,0.6-0.2c0.2,0,0.3,0,0.5,0.1s0.3,0.1,0.4,0.2l-0.5,0.7
				C79.4,104.9,79.3,104.8,79.2,104.8z"/>
			<path d="M80.7,104.1h0.8v4h-0.8V104.1z M83.1,105.6c0-0.3-0.1-0.5-0.2-0.6c-0.1-0.2-0.3-0.2-0.6-0.2c-0.3,0-0.5,0.1-0.6,0.2
				c-0.1,0.1-0.2,0.3-0.2,0.6l-0.1-0.8c0.1-0.2,0.3-0.4,0.5-0.6s0.4-0.2,0.7-0.2c0.4,0,0.8,0.1,1,0.4c0.2,0.3,0.4,0.7,0.4,1.2v2.4
				h-0.8V105.6z"/>
			<path d="M85.7,107.9c-0.3-0.1-0.5-0.3-0.6-0.6c-0.1-0.3-0.2-0.6-0.2-1v-0.4c0-0.4,0.1-0.7,0.2-1c0.1-0.3,0.3-0.5,0.6-0.6
				c0.2-0.1,0.5-0.2,0.9-0.2c0.3,0,0.6,0.1,0.8,0.2s0.4,0.4,0.5,0.7c0.1,0.3,0.2,0.7,0.2,1.1v0.3h-2.7v-0.6h1.9
				c0-0.3-0.1-0.6-0.2-0.8c-0.1-0.2-0.3-0.3-0.6-0.3c-0.3,0-0.5,0.1-0.7,0.3c-0.2,0.2-0.2,0.5-0.2,0.8v0.5c0,0.3,0.1,0.6,0.3,0.8
				c0.2,0.2,0.4,0.3,0.7,0.3c0.2,0,0.3,0,0.5-0.1c0.2-0.1,0.3-0.2,0.4-0.3l0.5,0.5c-0.2,0.2-0.4,0.3-0.7,0.4
				c-0.2,0.1-0.5,0.2-0.7,0.2C86.3,108.1,86,108,85.7,107.9z"/>
		</g>
	</g>
	<g>
		<line class="st3" x1="61.6" y1="214.8" x2="61.6" y2="221.6"/>
		<line class="st3" x1="63.8" y1="214.8" x2="63.8" y2="221.6"/>
		<line class="st3" x1="66.1" y1="214.8" x2="66.1" y2="221.6"/>
		<line class="st3" x1="81.2" y1="214.8" x2="81.2" y2="221.6"/>
		<line class="st3" x1="83.5" y1="214.8" x2="83.5" y2="221.6"/>
		<line class="st3" x1="85.8" y1="214.8" x2="85.8" y2="221.6"/>
		<g>
			<path class="st3" d="M88.1,219h5.1c0,0,0-19.5-19.5-19.5S54.2,219,54.2,219h5.1"/>
			<line class="st3" x1="68.4" y1="219" x2="78.9" y2="219"/>
		</g>
	</g>
	<g>
		<g>
			<line class="st3" x1="72.4" y1="71.4" x2="72.4" y2="79.1"/>
			<line class="st3" x1="75" y1="71.4" x2="75" y2="79.1"/>
			<line class="st3" x1="77.6" y1="71.4" x2="77.6" y2="79.1"/>
		</g>
		<g>
			<path class="st3" d="M69.8,75.3c-16.9,3.2-16.9,21.7-16.9,21.7h44.3c0,0,0-18.5-16.9-21.7"/>
		</g>
	</g>
	<g>
		<line class="st3" x1="83.6" y1="134.3" x2="83.6" y2="142"/>
		<line class="st3" x1="86.2" y1="134.3" x2="86.2" y2="142"/>
		<line class="st3" x1="88.8" y1="134.3" x2="88.8" y2="142"/>
		<g>
			<path class="st3" d="M91.4,138.5h5.8c0,0,0-22.1-22.1-22.1s-22.1,22.1-22.1,22.1H81"/>
		</g>
	</g>
	<line class="st3" x1="87.9" y1="250" x2="93.9" y2="245"/>
	<line class="st3" x1="86.2" y1="248" x2="92.2" y2="243"/>
	<line class="st3" x1="84.6" y1="246" x2="90.5" y2="241"/>
	<g>
		<path class="st3" d="M85,242.9c-2.7-1.2-6-1.9-10-1.9c-22.2,0-22.2,22.2-22.2,22.2h44.4c0,0,0-7.2-4.1-13.4"/>
	</g>
	<g>
		<line class="st3" x1="83.7" y1="175.8" x2="83.7" y2="183.5"/>
		<line class="st3" x1="86.2" y1="175.8" x2="86.2" y2="183.5"/>
		<line class="st3" x1="88.8" y1="175.8" x2="88.8" y2="183.5"/>
	</g>
	<line class="st3" x1="72.5" y1="154.7" x2="72.5" y2="162.4"/>
	<line class="st3" x1="75" y1="154.7" x2="75" y2="162.4"/>
	<line class="st3" x1="77.6" y1="154.7" x2="77.6" y2="162.4"/>
	<g>
		<path class="st3" d="M69.8,158.5c-16.9,3.2-16.9,21.7-16.9,21.7H81"/>
		<path class="st3" d="M91.4,180.2h5.7c0,0,0-18.5-16.9-21.7"/>
	</g>
</g>
</svg>
