<?xml version="1.0" encoding="utf-8"?>
<!-- Generator: Adobe Illustrator 24.2.1, SVG Export Plug-In . SVG Version: 6.00 Build 0)  -->
<svg version="1.1" id="Capa_1" xmlns="http://www.w3.org/2000/svg" xmlns:xlink="http://www.w3.org/1999/xlink" x="0px" y="0px"
	 viewBox="0 0 528.5 528.8" style="enable-background:new 0 0 528.5 528.8;" xml:space="preserve">
<style type="text/css">
	.st0{fill:#F20505;}
	.st1{fill:#FFFFFF;}
</style>
<path class="st0" d="M264.3,0c146.7,1.1,264,117.4,264.2,263.9c0.2,147-116.8,265.1-264.8,264.9C116.6,528.6,0.2,411.3,0,265.1
	C-0.2,117,117.8,1.2,264.3,0z M204.1,265.1c-2.4,1.8-4.1,2.8-5.5,4.2c-20.8,20.5-41.5,41-62.2,61.6c-8.9,8.9-8.9,15.4-0.1,24.3
	c12.3,12.4,24.7,24.8,37.1,37.2c8.8,8.9,15.5,8.9,24.3,0c20.7-20.8,41.4-41.6,62-62.4c1.4-1.4,2.8-2.7,4.6-4.3
	c1.7,1.6,3.2,2.9,4.6,4.3c21,21.2,42,42.4,63,63.5c7.2,7.3,14.4,7.4,21.8,0.2c13.2-13,26.3-26,39.4-39.1c7.9-7.9,7.7-15-0.3-22.9
	c-21.1-21-42.3-42.1-63.4-63.1c-1.3-1.3-2.4-2.6-4.9-5.2c2-1.3,4-2.2,5.4-3.6c21-20.7,42-41.5,62.9-62.2c8.1-8,8.1-15.1,0-23.3
	c-12.7-12.8-25.4-25.5-38.2-38.2c-8.2-8.1-15.1-8.2-23.2,0c-20.9,21-41.9,42.1-62.8,63.1c-1.4,1.4-2.8,2.7-5.2,4.9
	c-1.8-2.3-3.2-4.5-4.9-6.3c-20.5-20.8-41-41.5-61.5-62.2c-7.7-7.7-14.8-7.7-22.5,0c-13,12.9-26,25.9-38.9,38.9
	c-7.7,7.8-7.6,14.8,0,22.5c16,16,32.1,32,48.2,48C190.1,251.3,196.5,257.6,204.1,265.1z"/>
<path class="st1" d="M204.1,265.1c-7.6-7.5-14.1-13.7-20.4-20.1c-16.1-16-32.1-32-48.2-48c-7.7-7.6-7.7-14.7,0-22.5
	c12.9-13,25.9-26,38.9-38.9c7.7-7.7,14.9-7.7,22.5,0c20.6,20.7,41.1,41.4,61.5,62.2c1.7,1.8,3.1,3.9,4.9,6.3
	c2.4-2.2,3.9-3.5,5.2-4.9c20.9-21,41.9-42.1,62.8-63.1c8.1-8.1,15-8.1,23.2,0c12.7,12.7,25.5,25.4,38.2,38.2c8.1,8.1,8,15.3,0,23.3
	c-21,20.8-41.9,41.5-62.9,62.2c-1.4,1.4-3.3,2.2-5.4,3.6c2.4,2.6,3.6,3.9,4.9,5.2c21.1,21,42.3,42.1,63.4,63.1
	c8,7.9,8.2,15,0.3,22.9c-13,13.1-26.1,26.2-39.4,39.1c-7.3,7.2-14.5,7-21.8-0.2c-21-21.1-42-42.4-63-63.5c-1.4-1.4-2.8-2.7-4.6-4.3
	c-1.7,1.6-3.2,2.9-4.6,4.3c-20.7,20.8-41.3,41.6-62,62.4c-8.8,8.8-15.5,8.8-24.3,0c-12.4-12.4-24.7-24.8-37.1-37.2
	c-8.8-8.9-8.8-15.5,0.1-24.3c20.7-20.6,41.4-41.1,62.1-61.6C200,267.9,201.8,266.9,204.1,265.1z"/>
</svg>
