<?xml version="1.0" encoding="utf-8"?>
<!-- Generator: Adobe Illustrator 25.1.0, SVG Export Plug-In . SVG Version: 6.00 Build 0)  -->
<svg version="1.1" id="Capa_1" xmlns="http://www.w3.org/2000/svg" xmlns:xlink="http://www.w3.org/1999/xlink" x="0px" y="0px"
	 viewBox="0 0 260.93 134.85" style="enable-background:new 0 0 260.93 134.85;" xml:space="preserve">
<style type="text/css">
	.st0{fill:#F7F7F7;stroke:#23171B;stroke-width:3;stroke-miterlimit:10;}
	.st1{fill:none;stroke:#23171B;stroke-width:3;stroke-miterlimit:10;}
	.st2{fill:#23171B;stroke:#F7F7F7;stroke-width:3;stroke-miterlimit:10;}
</style>
<path class="st0" d="M251.6,102.02h-62.11V17.23h28.65c6.94,0,13.26,3.99,16.28,10.17l14.77,33.87c1.51,3.57,2.34,7.35,2.34,11.2
	v29.54h0.07V102.02z"/>
<path class="st0" d="M189.55,102.02H53.86V14.83c0-7.35,5.98-13.33,13.33-13.33h109.04c7.35,0,13.33,5.98,13.33,13.33v87.19H189.55z
	"/>
<path class="st0" d="M251.05,118.72H62.24c-4.6,0-8.38-3.71-8.38-8.38v-8.38h197.19c4.6,0,8.38,3.71,8.38,8.38l0,0
	C259.43,115.01,255.65,118.72,251.05,118.72z"/>
<circle class="st0" cx="95.29" cy="115.97" r="17.38"/>
<circle class="st0" cx="216.42" cy="115.97" r="17.38"/>
<circle class="st0" cx="216.42" cy="115.97" r="8.59"/>
<circle class="st0" cx="95.29" cy="115.97" r="8.59"/>
<path class="st0" d="M238.89,70.69h-36.9c-1.79,0-3.23-1.44-3.23-3.23V30.43c0-1.79,1.44-3.23,3.23-3.23h19.17
	c1.31,0,2.47,0.76,2.95,1.92l16.83,38.48C241.57,69.04,240.47,70.69,238.89,70.69z"/>
<line class="st1" x1="195.74" y1="79.14" x2="206.32" y2="79.14"/>
<path class="st2" d="M78.45,69.86h-49.2c-2.2,0-3.99-1.79-3.99-3.99l0,0c0-2.2,1.79-3.99,3.99-3.99h49.26c2.2,0,3.99,1.79,3.99,3.99
	l0,0C82.44,68.08,80.65,69.86,78.45,69.86z"/>
<path class="st2" d="M78.45,49.46H17.72c-2.2,0-3.99-1.79-3.99-3.99l0,0c0-2.2,1.79-3.99,3.99-3.99h60.74c2.2,0,3.99,1.79,3.99,3.99
	l0,0C82.44,47.67,80.65,49.46,78.45,49.46z"/>
<path class="st2" d="M78.45,29.05H5.49c-2.2,0-3.99-1.79-3.99-3.99l0,0c0-2.2,1.79-3.99,3.99-3.99h73.04c2.2,0,3.99,1.79,3.99,3.99
	l0,0C82.44,27.27,80.65,29.05,78.45,29.05z"/>
</svg>
