<?xml version="1.0" encoding="utf-8"?>
<!-- Generator: Adobe Illustrator 24.3.0, SVG Export Plug-In . SVG Version: 6.00 Build 0)  -->
<svg version="1.1" id="Capa_1" xmlns="http://www.w3.org/2000/svg" xmlns:xlink="http://www.w3.org/1999/xlink" x="0px" y="0px"
	 viewBox="0 0 373.3 1187" style="enable-background:new 0 0 373.3 1187;" xml:space="preserve">
<style type="text/css">
	.st0{fill:#FFFFFF;stroke:#735D65;stroke-miterlimit:10;}
	.st1{fill:#23171B;}
	.st2{fill:#FFFFFF;}
	.st3{fill:#735D65;}
</style>
<g>
	<path class="st0" d="M0.9,104.2H0V0h373.3v104.2H0.9z M1.9,102.3h369.6V1.9H1.9V102.3z"/>
</g>
<g>
	<g>
		<path class="st1" d="M45.1,28.8c1.5-4.5,4.1-7.8,7.8-10.2C59,14.5,65.7,12.7,73,14c5.6,0.9,7.3,5.2,4.1,9.9
			c-2.3,3.4-5.8,5.3-9.6,6.6c-4.1,1.4-8.4,2.3-12.8,2.5c-0.6,0-1.2,0.1-1.9,0.6c0.5,0.2,0.9,0.5,1.4,0.5c0.7,0,1.4-0.2,2.2-0.2
			c1.4,0,2.9,0,4.3,0.3c2.1,0.4,3.6,2,3.5,3.4c0,1.4-1.2,2.6-3.3,3.2c-3.3,0.9-6.7,0.6-9.7-1.1c-2.3-1.2-4.2-1.1-6.4,0.3
			c-5.9,3.7-9.7,8.9-9.9,16c-0.3,7.4,5.2,12.2,12.5,10.9c8.6-1.5,15.5-5.8,19.9-13.5c5.3-9.2,10.5-18.4,15.6-27.7
			c0.8-1.5,1.3-3.2,2.2-5.3c1.6-0.2,3.5-0.6,5.4-0.7c1.8-0.1,2.5,0.8,2,2.6c-0.3,1.1-0.9,2.1-1.4,3.1C86,34.8,80.7,44.2,75.5,53.7
			c-1.9,3.6-3.7,7.2-5.5,10.8c-0.4,0.9-0.5,1.9-0.8,2.9c2.1,0.7,3.1-0.4,4.2-1.4c3.3-2.9,5.6-6.6,7.9-10.4c0.6-1,1.3-2,2-3
			c1.3,0.8,1,1.7,0.6,2.4c-3.2,4.8-5.8,10.1-10.3,14c-1.5,1.3-3.4,2.5-5.2,3.3c-3.4,1.5-6-0.1-6.3-3.9C62,67.6,62,66.8,62,65.8
			c-1.3-0.3-1.9,0.7-2.7,1.3c-4.1,3.1-8.7,5.4-13.8,6.2c-7.9,1.3-16.2-1.3-19.1-11c-1.6-5.5-0.3-10.5,2.9-15.1
			c3.6-5.3,8.4-9.2,14.7-10.9c0.6-0.2,1.1-0.5,1.7-0.7c-0.2-3.1-0.3-3.2-2.8-4.1c-1.2-0.4-2.4-0.8-3.5-1.3c-3.3-1.6-5.7-4-5.6-7.9
			c0.1-4,2.7-6.6,6.2-7.8c2.4-0.8,5.1-0.7,7.7-0.9c0.6,0,1.5,0.4,1.9,0.8c0.4,0.3,0.6,1.2,0.4,1.7c-0.2,0.4-0.9,0.8-1.4,0.9
			s-1-0.1-1.5-0.2c-0.8-0.1-1.7-0.2-2.5-0.1c-2.9,0.3-5.3,2.2-5.8,4.5c-0.6,2.6,0.8,5,3.8,6.5C43.1,28.2,43.9,28.4,45.1,28.8z
			 M52.5,29.6c7.7-0.3,14-2,19.1-7c0.4-0.4,0.7-0.8,0.9-1.2c1.3-2.3,0.3-4.4-2.3-4.7c-1.4-0.1-3-0.1-4.3,0.3
			c-4.6,1.5-8.6,4-11.4,8.1C53.8,26.2,53.4,27.6,52.5,29.6z M56.9,37.7c0-0.2-0.2-0.6-0.6-0.7s-0.7,0.1-0.8,0.4
			C55.8,37.8,56.1,37.9,56.9,37.7z"/>
	</g>
	<g>
		<path class="st1" d="M148.1,41.7c1.6-0.4,3.1-0.9,4.7-1.2c7.2-1.3,12.9-6.7,14.4-13.8c0.9-4.4-1.2-8.8-5.4-10.4
			c-1.9-0.7-4-1.2-6.1-1.1c-10.4,0.2-19.2,4.1-25.9,12.2c-2.4,2.9-4,6.3-4.3,10.2c-0.1,2-0.1,4,1.9,5.3c2,1.3,4,0.7,5.9-0.3
			c0.9-0.5,1.7-1,2.6-1.5c1.1,1.1,0.5,2.1-0.2,2.6c-2.3,1.8-4.5,3.8-7,5c-4.4,2.1-8.6-0.3-9.7-5.1c-0.8-3.6-0.3-7.1,1.3-10.3
			c1.2-2.5,2.6-5,4.5-7c10.5-10.9,23.3-15.5,38.4-13.1c3.6,0.6,6.8,2.1,8.9,5.2c3.2,4.7,3.1,9.6,0.3,14.4c-2.9,4.9-7.5,7.6-12.8,9.3
			c-1.6,0.5-3.2,0.9-5,1.4c0.4,0.8,0.7,1.5,1,2.1c1.8,2.8,1.8,5.7,0.7,8.6c-0.8,1.9-1.6,3.8-2.4,5.7c-0.5,1.2-1.1,2.5-1.3,3.8
			c-0.1,0.8,0,2.1,0.5,2.5s1.8,0.4,2.6,0.1c3-1.3,5.4-3.5,7.2-6.2c1.1-1.6,2.2-3.3,3.3-4.9c0.5-0.7,0.9-1.7,2.4-1.3
			c-0.2,0.6-0.1,1.4-0.5,1.9c-2.8,4.2-5.5,8.5-9.4,12c-2.1,1.9-4.5,3.4-7.3,4c-4.2,0.9-7.4-1.4-7.4-5.7c0-2.1,0.4-4.4,1.3-6.3
			c1.2-3,3.1-5.7,4.5-8.5c0.7-1.5,1.4-3,1.8-4.6c0.4-1.4,0-2.7-1.9-2.9c-1.1-0.1-2.4,0.2-2-1.4C147.9,42.1,148.1,41.7,148.1,41.7z"
			/>
	</g>
	<g>
		<path class="st1" d="M145.5,45.3c-2.9,5.3-5.7,10.6-9.7,15.2c-6.4,7.5-14.3,11.9-24.2,12.5c-1.6,0.1-3.3,0-5-0.3
			c-3.5-0.7-6-3.2-6.4-6.4c-0.2-1.8,0.2-3.5,1.6-4.8c1.3-1.2,2.9-1.4,4.3-0.7c1.6,0.8,2.2,2.1,2.1,3.8c0,0.6-0.2,1.2-0.4,1.8
			c-1.1,2.7-0.4,4,2.5,4.3c3.2,0.3,5.9-0.8,8.4-2.6c4.4-3.1,7.5-7.4,10.3-12c4.4-7.4,8.8-14.8,13.2-22.2c3.2-5.5,7.2-10.2,13-13
			c1.8-0.9,3.8-1.5,5.8-2.1c0.8-0.2,1.7,0.1,2.5,0.2c0.1,0.3,0.2,0.5,0.2,0.8c-0.6,0.5-1.1,1.1-1.7,1.4c-2.9,1.2-5,3.3-6.6,5.9
			C153,31,150.8,35,148.6,39C148.5,39.8,146.3,44,145.5,45.3z"/>
	</g>
	<g>
		<path class="st1" d="M224.8,45.8c-1.1,0-2.9,0.8-3.7,1.3c-3.7,2.4-5.7,5.9-6.7,10.1c-1,4.3-2.1,8.7-3.2,13.1c-1.5,0-2.9,0-4.8,0
			c0.2-1.3,0.3-2.5,0.5-3.7c1.3-5.7,2.6-11.3,3.9-17c0.1-0.2,0.6-3.4,0.6-3.4c-3.3,0.7-7,3.5-8.5,6.9c-0.9,2-1.5,4.1-2,6.2
			c-0.7,2.6-1.1,5.3-1.7,7.9c-0.7,3.6-1.5,4-5.8,2.8c1.6-7.7,3.3-15.5,5-23.4c-2.3,0.1-3.3,1.7-5.9,2.9c-0.6-0.6-0.5-1.5-0.2-1.8
			c2.4-2.9,5.3-5.3,9-6.3c2.4-0.6,3.3,0.3,2.9,2.8c-0.2,1.1-0.5,2.2-0.8,3.9c0.9-0.6,5.4-4.2,7.2-5.7c0.6-0.4,1.3-0.7,1.9-1
			c3.2-1.2,4.7-0.1,4.6,3.4c0,0.5-0.1,1-0.1,2.3c1.2-1,1.8-1.7,2.6-2.2c1.9-1.3,3.6-2.8,5.7-3.7c2.9-1.2,5.1,0.4,4.8,3.5
			c-0.2,2.3-0.8,4.5-1.4,6.7c-1.1,4.2-2.3,8.4-3.4,12.6c-0.2,0.8-0.1,1.6-0.2,3.1c1.5-0.8,2.4-1.3,3.3-1.9c0.7-0.5,1.2-1.1,1.9-1.6
			c0.3-0.2,1-0.1,1.1,0c0.2,0.4,0.3,1.1,0.1,1.3c-2.3,2-4.6,4.2-7.2,5.9c-2,1.3-4,0.2-4.4-2.2c-0.3-1.7-0.2-3.6,0.2-5.2
			c1-4.1,2.2-8.2,3.3-12.3C224,49.6,224.2,47.9,224.8,45.8z"/>
	</g>
	<g>
		<path class="st1" d="M274.9,47.6c2.4-2,4.3-3.6,6.3-5.1c1.1-0.8,2.2-1.6,3.4-2.1c3.7-1.7,5.9,0,5.5,4.1c-0.1,0.8-0.3,1.6-0.5,2.4
			c-1.2,4.3-2.5,8.6-3.6,12.9c-0.5,1.8-0.7,3.6-1.1,5.5c3.5,0.1,6.2-3.7,7-3.7c0.2,0.1,0.3,1.5,0,1.9c-2.2,2.6-4.8,5-8,6.3
			c-2.1,0.9-3.8-0.1-4.1-2.3c-0.2-1.6-0.1-3.3,0.3-4.9c1-4.1,2.2-8.2,3.3-12.3c0.4-1.6,1.3-4.9,0.5-5.2s-2,0.3-2.7,0.8
			c-4,2.5-7.2,5.6-8.2,10.4c-0.9,4.3-2,8.5-3,13c-1.7,0-3.3,0-5.2,0c0.9-4.2,1.8-8.2,2.7-12.3c0.8-3.9,2.2-7.7,2.4-12
			c-2.6,0.5-3.8,2.5-5.4,3.6c-1-0.1-1.6-1-0.8-1.8c2.6-2.9,5.3-5.6,9.2-6.6c2.3-0.6,3.1,0.2,2.8,2.5c-0.1,0.7-0.2,1.4-0.3,2.2
			C275.2,45.5,275.1,46.2,274.9,47.6z"/>
	</g>
	<g>
		<path class="st1" d="M259.4,39.8c-2,8.7-5,16.8-5.7,25.5c3,0.3,4.1-2.4,6.1-3.1c1.2,0.5,1.2,1.3,0.5,2c-2.4,2.5-4.9,4.8-8.2,6.1
			c-0.6,0.2-1.2,0.3-1.8,0.4c-2,0.1-2.7-0.6-2.5-2.5c0.1-0.8,0.3-1.6,0.5-2.9c-0.8,0.5-1.3,0.8-1.8,1.2c-2.1,1.4-4,3-6.2,4.1
			c-2.8,1.3-5.1,0.2-6.1-2.8c-1.1-3.2-0.6-6.4,0.5-9.5c1.7-4.9,4.4-9.1,8.2-12.7c2.9-2.7,6.3-4.4,10.3-4.5c1.6-0.1,3.3,0.1,4.7-1.2
			C257.9,39.6,258.5,39.8,259.4,39.8z M252.2,46c-4-1-7,0-9.2,3.4c-2,2.9-3.3,6-3.7,9.5c-0.2,1.5-0.2,3.1-0.1,4.6
			c0.2,1.9,1.5,2.7,3.3,2.1c1-0.3,1.9-0.9,2.7-1.5c2.3-1.8,3.7-4.2,4.4-6.9c0.9-3.1,1.7-6.2,2.4-9.3C252.3,47.2,252.2,46.6,252.2,46
			z"/>
	</g>
	<g>
		<path class="st1" d="M316.5,59.7c0.2-6.5,2.5-12.1,7.1-16.7c2.4-2.4,5.3-3.9,8.8-4.2c3.7-0.3,6.5,1.3,7.8,4.8
			c1.8,4.5,1.2,9-0.6,13.3c-1.7,4.1-4.4,7.5-8.2,10c-1.6,1.1-3.5,1.9-5.4,2.2c-5.6,0.9-9.4-2.5-9.7-8.2
			C316.5,60.6,316.5,60.1,316.5,59.7z M323.9,63.8c0.9,2.3,3.4,2.9,5.5,1.4c1.3-0.9,2.5-2.3,3.2-3.7c2.6-4.8,2.9-9.9,1.9-15.2
			c-0.1-0.5-0.3-1-0.5-1.5c-1.3-2.8-3.9-3.6-6.3-1.6c-2,1.6-3.4,3.7-4,6.2C322.3,55.3,323,61.4,323.9,63.8z"/>
	</g>
	<g>
		<path class="st1" d="M168.2,64.1c0.6-7.1,3-13.7,8.3-19.1c1.9-2,4.3-3.3,7.1-3.4c4.5-0.2,7.1,3.2,5.3,7.3
			c-0.8,1.8-2.2,3.6-3.8,4.8c-2.6,1.9-5.5,3.3-8.3,4.9c-1,0.6-2.3,0.7-2.4,2.2c0,1.6-0.1,3.3,0.4,4.9c0.2,0.6,1.8,1.2,2.6,1
			c1.5-0.3,2.9-1,4.3-1.7c1.3-0.7,2.4-1.7,3.7-2.4c0.4-0.2,1.3-0.1,1.6,0.2s0.1,1.1-0.1,1.6c-0.2,0.4-0.7,0.8-1.1,1.1
			c-2.3,1.7-4.5,3.3-6.8,4.9c-0.8,0.5-1.7,0.8-2.6,1.1c-4.8,1.4-7.4-0.4-8-5.3C168.3,65.6,168.3,65,168.2,64.1z M175.3,56.5
			c3.4-1.4,5.7-3.2,7.7-5.5c1.5-1.8,1.5-4.3,0.2-5.3c-1.3-0.9-3.4-0.3-4.8,1.6C176.6,50,175.7,52.9,175.3,56.5z"/>
	</g>
	<g>
		<path class="st1" d="M300.6,69.8c-1.1-0.2-2.6-0.4-3.9-0.9c-2.4-0.9-3.8-3.4-3.5-5.7c0.3-1.5,1.4-2.7,2.7-2.6
			c1.5,0.1,2.3,1,2.3,2.5c0,1.8,0.3,3.5,2.4,3.7c2.1,0.3,4.2-0.1,5.7-1.9c1.3-1.5,1.4-3.4,0.2-5.2c-0.8-1.2-1.8-2.3-2.7-3.4
			c-1-1.3-2.1-2.6-2.9-4c-1.9-3.6-1.2-7.5,1.6-10.3c2.7-2.7,7.6-3.7,10.7-2.1c1,0.5,1.9,1.6,2.4,2.6c0.6,1.1,0.1,2.2-1,3
			c-1,0.7-2,0.5-2.8-0.3c-0.6-0.5-1.1-1.2-1.7-1.8c-1.4-1.3-2.6-1.5-3.9-0.7c-1.4,0.8-2,2.2-1.7,3.7c0.3,1.2,0.9,2.3,1.6,3.3
			c1,1.4,2.3,2.7,3.4,4c6.2,7.4,0.3,14.8-6.1,15.6C302.6,69.6,301.8,69.7,300.6,69.8z"/>
	</g>
</g>
<g>
	<g>
		<rect x="186.6" y="412.8" class="st2" width="185.7" height="154.8"/>
	</g>
	<g>
		<path class="st3" d="M373.2,568.5H185.6V411.8h187.6V568.5z M187.5,566.6h183.8V413.7H187.5V566.6z"/>
	</g>
</g>
<g>
	<g>
		<g>
			<rect x="186.6" y="567.5" class="st2" width="185.7" height="154.8"/>
		</g>
	</g>
	<g>
		<g>
			<path class="st3" d="M373.2,723.2H185.6V566.6h187.6V723.2z M187.5,721.3h183.8V568.5H187.5V721.3z"/>
		</g>
	</g>
</g>
<g>
	<g>
		<g>
			<rect x="186.6" y="722.3" class="st2" width="185.7" height="154.8"/>
		</g>
	</g>
	<g>
		<g>
			<path class="st3" d="M373.2,878H185.6V721.3h187.6V878z M187.5,876.1h183.8V723.2H187.5V876.1z"/>
		</g>
	</g>
</g>
<g>
	<g>
		<rect x="186.6" y="876.8" class="st2" width="185.7" height="154.8"/>
	</g>
	<g>
		<path class="st3" d="M373.2,1032.5H185.6V875.9h187.6V1032.5z M187.5,1030.6h183.8V877.7H187.5V1030.6z"/>
	</g>
</g>
<g>
	<g>
		<rect x="186.6" y="1031.3" class="st2" width="185.7" height="154.8"/>
	</g>
	<g>
		<path class="st3" d="M373.2,1187H185.6v-156.6h187.6V1187z M187.5,1185.1h183.8v-152.9H187.5V1185.1z"/>
	</g>
</g>
<g>
	<g>
		<path class="st0" d="M187.5,1187H0v-156.6h187.5V1187z M1.9,1185.1h183.7v-152.9H1.9V1185.1z"/>
	</g>
</g>
<g>
	<g>
		<path class="st0" d="M187.5,1032.5H0V875.9h187.5V1032.5z M1.9,1030.6h183.7V877.7H1.9V1030.6z"/>
	</g>
</g>
<g>
	<g>
		<path class="st0" d="M187.5,878H0V721.3h187.5V878z M1.9,876.1h183.8V723.2H1.9V876.1z"/>
	</g>
</g>
<g>
	<g>
		<g>
			<path class="st0" d="M187.5,723.2H0V566.6h187.5V723.2z M1.9,721.3h183.8V568.5H1.9V721.3z"/>
		</g>
	</g>
</g>
<g>
	<g>
		<path class="st0" d="M187.6,568.5H0V411.8h187.6V568.5z M1.9,566.6h183.8V413.7H1.9V566.6z"/>
	</g>
</g>
<g>
	<g>
		<path class="st0" d="M187.5,413.7H0V257.1h187.5V413.7z M1.9,411.8h183.8V259H1.9V411.8z"/>
	</g>
</g>
<g>
	<g>
		<path class="st0" d="M187.6,259H0V102.3h187.6V259z M1.9,257.1h183.8V104.2H1.9V257.1z"/>
	</g>
</g>
<g>
	<g>
		<path d="M38.9,1155.3h2.9v20.7h-2.9V1155.3z M40.3,1155.3h11.8v2.8H40.3V1155.3z M40.3,1164.3h10.2v2.8H40.3V1164.3z M40.3,1173.2
			h11.8v2.8H40.3V1173.2z"/>
	</g>
	<g>
		<path d="M58.6,1175.9c-0.8-0.2-1.5-0.4-2.1-0.8c-0.7-0.3-1.3-0.8-1.8-1.3l1.7-2.1c0.8,0.6,1.6,1.1,2.4,1.4s1.6,0.5,2.3,0.5
			c1.1,0,2-0.2,2.6-0.5c0.6-0.4,0.9-0.9,0.9-1.6c0-0.5-0.2-0.8-0.5-1.1c-0.3-0.2-0.7-0.4-1.2-0.5s-1.1-0.2-1.9-0.2
			c-0.1,0-0.2,0-0.2,0c-0.1,0-0.2,0-0.2,0h-0.1h-0.1c-0.9-0.1-1.8-0.2-2.4-0.4c-0.7-0.2-1.2-0.6-1.6-1.1c-0.4-0.6-0.7-1.4-0.7-2.4
			s0.2-1.9,0.6-2.6c0.4-0.7,1.1-1.2,1.9-1.6c0.8-0.3,1.9-0.5,3.1-0.5c0.8,0,1.5,0.1,2.2,0.2s1.4,0.4,2,0.6c0.6,0.3,1.2,0.6,1.8,1.1
			l-1.7,2.1c-0.7-0.5-1.5-0.8-2.2-1.1c-0.7-0.2-1.4-0.4-2.1-0.4c-1,0-1.7,0.2-2.2,0.5s-0.7,0.8-0.7,1.5c0,0.4,0.1,0.7,0.4,0.9
			c0.3,0.2,0.6,0.3,1.1,0.4c0.4,0.1,1,0.1,1.8,0.2c0.1,0,0.1,0,0.2,0c0.1,0,0.1,0,0.2,0h0.1h0.1c1,0.1,1.9,0.2,2.6,0.4
			c0.7,0.2,1.3,0.6,1.8,1.2s0.7,1.5,0.7,2.7c0,1.1-0.2,1.9-0.7,2.6s-1.1,1.2-2,1.6s-2,0.5-3.4,0.5
			C60.2,1176.2,59.4,1176.1,58.6,1175.9z"/>
	</g>
	<g>
		<path d="M70.9,1161.2h2.9v20.8h-2.9V1161.2z M75,1175.5c-0.7-0.4-1.2-1.1-1.5-1.9l0.2-3.1c0,0.6,0.1,1.2,0.3,1.6
			c0.2,0.4,0.6,0.8,1,1s0.9,0.4,1.6,0.4c0.9,0,1.7-0.3,2.2-0.9s0.8-1.4,0.8-2.5v-3.2c0-1.1-0.3-1.9-0.8-2.5s-1.3-0.9-2.2-0.9
			c-0.6,0-1.1,0.1-1.6,0.3c-0.4,0.2-0.8,0.6-1,1s-0.3,1-0.3,1.6l-0.3-2.8c0.4-0.9,1-1.5,1.7-2s1.5-0.7,2.4-0.7c1,0,1.9,0.2,2.7,0.7
			c0.7,0.5,1.3,1.2,1.7,2.1c0.4,0.9,0.6,2,0.6,3.3v3.2c0,1.3-0.2,2.3-0.6,3.2c-0.4,0.9-1,1.6-1.7,2c-0.8,0.5-1.7,0.7-2.7,0.7
			C76.5,1176.2,75.7,1176,75,1175.5z"/>
	</g>
	<g>
		<path d="M89.1,1175.4c-1-0.5-1.7-1.3-2.2-2.3s-0.8-2.2-0.8-3.6v-1.7c0-1.5,0.2-2.7,0.7-3.7s1.2-1.8,2.1-2.4c0.9-0.5,2-0.8,3.3-0.8
			c1.2,0,2.3,0.3,3.1,0.9c0.9,0.6,1.5,1.5,2,2.7s0.7,2.6,0.7,4.2v1h-9.9v-2.3h7.1c-0.1-1.2-0.4-2.1-0.9-2.8c-0.5-0.7-1.2-1-2.1-1
			c-1.1,0-1.9,0.4-2.5,1.1s-0.9,1.7-0.9,3.1v1.9c0,1.2,0.3,2.2,1,2.8c0.6,0.7,1.5,1,2.7,1c0.6,0,1.2-0.1,1.7-0.4
			c0.6-0.2,1.1-0.6,1.5-1l1.9,1.9c-0.7,0.7-1.5,1.2-2.4,1.6s-1.8,0.6-2.7,0.6C91.2,1176.2,90.1,1175.9,89.1,1175.4z"/>
	</g>
	<g>
		<path d="M104.5,1175.4c-0.9-0.5-1.7-1.2-2.2-2.2s-0.7-2.1-0.7-3.5v-2.4c0-1.3,0.2-2.5,0.7-3.4s1.2-1.7,2.2-2.2
			c0.9-0.5,2.1-0.7,3.4-0.7c0.8,0,1.5,0.1,2.1,0.3c0.7,0.2,1.3,0.5,1.8,0.8s1,0.8,1.3,1.3l-2.1,1.9c-0.4-0.5-0.9-0.8-1.5-1.1
			c-0.6-0.3-1.1-0.4-1.7-0.4c-1.1,0-2,0.3-2.6,0.9s-0.9,1.5-0.9,2.6v2.4c0,1.2,0.3,2.1,0.9,2.7s1.5,1,2.6,1c0.6,0,1.2-0.1,1.7-0.4
			c0.6-0.3,1-0.7,1.4-1.2l2.1,2c-0.4,0.5-0.8,0.9-1.4,1.3c-0.5,0.3-1.1,0.6-1.8,0.8c-0.7,0.2-1.4,0.3-2.1,0.3
			C106.6,1176.2,105.5,1176,104.5,1175.4z"/>
	</g>
	<g>
		<path d="M116.4,1155.3h2.9v2.9h-2.9V1155.3z M116.4,1161.2h2.9v14.8h-2.9V1161.2z"/>
	</g>
	<g>
		<path d="M124.3,1175.1c-0.9-0.8-1.3-1.9-1.3-3.4s0.4-2.6,1.2-3.3c0.8-0.7,2.1-1.1,3.7-1.1h4.2l0.2,2.3H128c-0.8,0-1.3,0.2-1.7,0.5
			c-0.4,0.3-0.6,0.9-0.6,1.5c0,0.7,0.2,1.3,0.7,1.7c0.5,0.4,1.2,0.5,2.2,0.5c1.1,0,1.9-0.1,2.5-0.4c0.5-0.2,0.8-0.6,0.8-1.1l0.3,2.1
			c-0.3,0.4-0.6,0.7-0.9,1c-0.4,0.3-0.8,0.4-1.3,0.6c-0.5,0.1-1,0.2-1.6,0.2C126.6,1176.2,125.2,1175.8,124.3,1175.1z M132,1166.6
			c0-1-0.3-1.7-0.8-2.3c-0.5-0.5-1.2-0.8-2.2-0.8c-0.6,0-1.2,0.1-1.7,0.3c-0.6,0.2-1.1,0.4-1.5,0.8l-2.1-1.5
			c0.6-0.7,1.3-1.2,2.2-1.6c0.9-0.4,1.9-0.6,3-0.6c1.2,0,2.3,0.2,3.1,0.6c0.9,0.4,1.5,1.1,2,1.9s0.7,1.8,0.7,3v9.5H132V1166.6z"/>
	</g>
	<g>
		<path d="M141.9,1172.2c0,0.4,0.1,0.6,0.2,0.8c0.2,0.2,0.4,0.3,0.7,0.3h1.4v2.8h-1.7c-1.1,0-1.9-0.3-2.5-1s-0.9-1.6-0.9-2.9v-16.8
			h2.9L141.9,1172.2L141.9,1172.2z"/>
	</g>
</g>
<g>
	<g>
		<path d="M66.1,226.9H69v20.7h-2.9V226.9z M67.6,236.8h6.6c0.6,0,1.2-0.1,1.7-0.4c0.5-0.3,0.8-0.7,1.1-1.3c0.3-0.5,0.4-1.2,0.4-1.9
			s-0.1-1.3-0.4-1.9c-0.3-0.5-0.6-1-1.1-1.3s-1-0.4-1.7-0.4h-6.6v-2.8h6.5c1.2,0,2.3,0.3,3.3,0.8c0.9,0.5,1.7,1.3,2.2,2.2
			c0.5,1,0.8,2.1,0.8,3.3c0,1.3-0.3,2.4-0.8,3.3c-0.5,1-1.2,1.7-2.2,2.2s-2,0.8-3.3,0.8h-6.5V236.8z"/>
	</g>
	<g>
		<path d="M84,226.9h2.9v2.9H84V226.9z M84,232.8h2.9v14.8H84V232.8z"/>
	</g>
	<g>
		<path d="M91.3,232.8h2.9v14.8h-2.9V232.8z M100.2,238.6c0-1-0.3-1.9-0.8-2.4c-0.5-0.6-1.3-0.9-2.3-0.9c-0.9,0-1.7,0.3-2.2,0.8
			s-0.8,1.2-0.8,2.1l-0.3-2.8c0.5-0.9,1-1.6,1.8-2.1c0.7-0.5,1.5-0.7,2.4-0.7c1.6,0,2.8,0.5,3.7,1.6c0.9,1,1.3,2.5,1.3,4.4v9h-2.9
			v-9H100.2z"/>
	</g>
	<g>
		<path d="M109.9,247.1c-0.9-0.5-1.6-1.2-2.1-2.2s-0.7-2.1-0.7-3.5V239c0-1.3,0.2-2.5,0.7-3.4c0.5-1,1.2-1.7,2.1-2.2s2-0.7,3.3-0.7
			s2.4,0.2,3.3,0.7s1.6,1.2,2.1,2.2s0.7,2.1,0.7,3.4v2.4c0,1.3-0.2,2.5-0.7,3.5s-1.2,1.7-2.1,2.2s-2,0.8-3.3,0.8
			S110.8,247.6,109.9,247.1z M115.6,244.1c0.6-0.6,0.8-1.5,0.8-2.7V239c0-1.1-0.3-2-0.8-2.7c-0.6-0.6-1.3-0.9-2.4-0.9
			s-1.8,0.3-2.4,0.9c-0.6,0.6-0.8,1.5-0.8,2.7v2.4c0,1.1,0.3,2,0.8,2.7c0.6,0.6,1.3,1,2.4,1S115,244.7,115.6,244.1z"/>
	</g>
</g>
<g>
	<path d="M176.3,207.5H8.3l21.2-85H155L176.3,207.5z M11.9,204.7h160.8l-19.9-79.4h-121L11.9,204.7z"/>
</g>
<g>
	<g>
		<path d="M176.6,1136.2H8.1l21.3-85.2h125.8L176.6,1136.2z M11.7,1133.4H173l-20-79.7H31.6L11.7,1133.4z"/>
	</g>
</g>
<g>
	<g>
		<path d="M46.8,381.7h2.9v20.7h-2.9V381.7z M48.3,391.6h6.6c0.6,0,1.2-0.1,1.6-0.4c0.5-0.3,0.8-0.7,1.1-1.3
			c0.3-0.5,0.4-1.2,0.4-1.9c0-0.7-0.1-1.3-0.4-1.9c-0.3-0.5-0.6-1-1.1-1.3s-1-0.4-1.6-0.4h-6.6v-2.8h6.5c1.2,0,2.3,0.3,3.2,0.8
			s1.7,1.3,2.2,2.2c0.5,1,0.8,2.1,0.8,3.3c0,1.3-0.3,2.4-0.8,3.3c-0.5,1-1.2,1.7-2.2,2.2c-0.9,0.5-2,0.8-3.2,0.8h-6.5V391.6z"/>
	</g>
	<g>
		<path d="M64.5,381.7h2.9v2.9h-2.9V381.7z M64.5,387.6h2.9v14.8h-2.9V387.6z"/>
	</g>
	<g>
		<path d="M71.7,387.6h2.9v14.8h-2.9V387.6z M80.6,393.4c0-1-0.3-1.9-0.8-2.4c-0.5-0.6-1.3-0.9-2.3-0.9c-0.9,0-1.7,0.3-2.2,0.8
			s-0.8,1.2-0.8,2.1l-0.3-2.8c0.5-0.9,1-1.6,1.8-2.1c0.7-0.5,1.5-0.7,2.4-0.7c1.6,0,2.8,0.5,3.7,1.6c0.9,1,1.3,2.5,1.3,4.4v9h-2.9
			v-9H80.6z"/>
	</g>
	<g>
		<path d="M90.2,401.8c-0.9-0.5-1.6-1.2-2.1-2.2s-0.7-2.1-0.7-3.5v-2.4c0-1.3,0.2-2.5,0.7-3.4c0.5-1,1.2-1.7,2.1-2.2s2-0.7,3.3-0.7
			s2.4,0.2,3.3,0.7s1.6,1.2,2.1,2.2s0.7,2.1,0.7,3.4v2.4c0,1.3-0.2,2.5-0.7,3.5s-1.2,1.7-2.1,2.2s-2,0.8-3.3,0.8
			C92.2,402.6,91.1,402.3,90.2,401.8z M95.8,398.8c0.5-0.6,0.8-1.5,0.8-2.7v-2.4c0-1.1-0.3-2-0.8-2.7c-0.6-0.6-1.3-0.9-2.3-0.9
			s-1.8,0.3-2.3,0.9c-0.6,0.6-0.8,1.5-0.8,2.7v2.4c0,1.1,0.3,2,0.8,2.7c0.5,0.6,1.3,1,2.3,1S95.3,399.5,95.8,398.8z"/>
	</g>
	<g>
		<path d="M112,401.4c-0.9-0.8-1.3-1.9-1.3-3.4s0.4-2.6,1.2-3.3c0.8-0.7,2.1-1.1,3.7-1.1h4.2l0.2,2.3h-4.3c-0.8,0-1.3,0.2-1.7,0.5
			c-0.4,0.3-0.6,0.9-0.6,1.5c0,0.7,0.2,1.3,0.7,1.7c0.5,0.4,1.2,0.5,2.2,0.5c1.1,0,1.9-0.1,2.5-0.4c0.5-0.2,0.8-0.6,0.8-1.1l0.3,2.1
			c-0.3,0.4-0.6,0.7-0.9,1c-0.4,0.3-0.8,0.4-1.3,0.6c-0.5,0.1-1,0.2-1.6,0.2C114.2,402.6,112.9,402.2,112,401.4z M119.6,393
			c0-1-0.3-1.7-0.8-2.3c-0.5-0.5-1.2-0.8-2.2-0.8c-0.6,0-1.2,0.1-1.7,0.3c-0.6,0.2-1.1,0.4-1.5,0.8l-2.1-1.5
			c0.6-0.7,1.3-1.2,2.2-1.6c0.9-0.4,1.9-0.6,3-0.6c1.2,0,2.3,0.2,3.1,0.6c0.9,0.4,1.5,1.1,2,1.9s0.7,1.8,0.7,3v9.5h-2.7V393z"/>
	</g>
	<g>
		<path d="M124.7,405.6h1.6c0.3,0,0.5-0.1,0.6-0.3c0.1-0.2,0.2-0.5,0.2-0.8v-16.9h2.9v16.9c0,1.2-0.3,2.2-0.9,2.9
			c-0.6,0.7-1.4,1-2.5,1h-1.9C124.7,408.4,124.7,405.6,124.7,405.6z M127.2,381.7h2.9v2.9h-2.9C127.2,384.6,127.2,381.7,127.2,381.7
			z"/>
	</g>
	<g>
		<path d="M134.3,383.3l4-5.1l2.1,1.7l-4.3,4.8L134.3,383.3z M134.5,387.6h2.9v14.8h-2.9V387.6z"/>
	</g>
</g>
<g>
	<g>
		<path d="M177.6,362.5H7.1L71,277.3l42.6,0.1L177.6,362.5z M12.7,359.7H172l-59.7-79.6L72.5,280L12.7,359.7z"/>
	</g>
</g>
<g>
	<g>
		<path d="M49.8,866.5c-0.9-0.2-1.7-0.5-2.5-0.9s-1.5-0.9-2.1-1.4L47,862c0.8,0.7,1.6,1.2,2.6,1.5c0.9,0.3,2,0.5,3.1,0.5
			c1.5,0,2.6-0.3,3.5-0.8c0.8-0.6,1.2-1.3,1.2-2.4l0,0c0-0.7-0.2-1.3-0.6-1.7s-0.9-0.7-1.4-0.9c-0.6-0.2-1.3-0.4-2.3-0.6H53h-0.1
			h-0.2c-1.4-0.2-2.5-0.5-3.3-0.8c-0.9-0.3-1.6-0.8-2.2-1.6c-0.6-0.8-0.9-1.9-0.9-3.4l0,0c0-1.3,0.3-2.4,0.9-3.3
			c0.6-0.9,1.4-1.6,2.5-2.1s2.4-0.7,3.9-0.7c0.7,0,1.5,0.1,2.2,0.2c0.7,0.2,1.4,0.4,2.1,0.7c0.7,0.3,1.4,0.7,2,1.2l-1.6,2.3
			c-0.8-0.6-1.6-1-2.3-1.3c-0.8-0.3-1.6-0.4-2.3-0.4c-1.4,0-2.5,0.3-3.3,0.8c-0.8,0.6-1.2,1.4-1.2,2.4l0,0c0,0.7,0.2,1.3,0.6,1.7
			c0.4,0.4,0.9,0.7,1.5,0.9s1.4,0.4,2.5,0.6h0.1H54c0,0,0.1,0,0.2,0c0.1,0,0.1,0,0.2,0c1.2,0.3,2.3,0.6,3.1,0.9
			c0.8,0.4,1.5,0.9,2.1,1.7s0.8,1.9,0.8,3.2l0,0c0,1.3-0.3,2.3-0.9,3.2c-0.6,0.9-1.5,1.6-2.6,2c-1.1,0.5-2.5,0.7-4.1,0.7
			C51.6,866.8,50.6,866.7,49.8,866.5z"/>
	</g>
	<g>
		<path d="M64.5,865.7c-0.9-0.8-1.3-1.9-1.3-3.4s0.4-2.6,1.2-3.3c0.8-0.7,2.1-1.1,3.7-1.1h4.2l0.2,2.3h-4.3c-0.8,0-1.3,0.2-1.7,0.5
			c-0.4,0.3-0.6,0.9-0.6,1.5c0,0.7,0.2,1.3,0.7,1.7s1.2,0.5,2.2,0.5c1.1,0,1.9-0.1,2.5-0.4c0.5-0.2,0.8-0.6,0.8-1.1l0.3,2.1
			c-0.3,0.4-0.6,0.7-0.9,1c-0.4,0.3-0.8,0.4-1.3,0.6c-0.5,0.1-1,0.2-1.6,0.2C66.8,866.8,65.4,866.4,64.5,865.7z M72.2,857.2
			c0-1-0.3-1.7-0.8-2.3c-0.5-0.5-1.2-0.8-2.2-0.8c-0.6,0-1.2,0.1-1.7,0.3c-0.6,0.2-1.1,0.4-1.5,0.8l-2.1-1.5
			c0.6-0.7,1.3-1.2,2.2-1.6c0.9-0.4,1.9-0.6,3-0.6c1.2,0,2.3,0.2,3.1,0.6c0.9,0.4,1.5,1.1,2,1.9c0.5,0.8,0.7,1.8,0.7,3v9.5h-2.7
			V857.2z"/>
	</g>
	<g>
		<path d="M82.1,862.8c0,0.4,0.1,0.6,0.2,0.8c0.2,0.2,0.4,0.3,0.7,0.3h1.4v2.8h-1.7c-1.1,0-1.9-0.3-2.5-1s-0.9-1.6-0.9-2.9V846h2.9
			L82.1,862.8L82.1,862.8z"/>
	</g>
	<g>
		<path d="M88.1,865.7c-0.9-0.8-1.3-1.9-1.3-3.4s0.4-2.6,1.2-3.3c0.8-0.7,2.1-1.1,3.7-1.1h4.2l0.2,2.3h-4.3c-0.8,0-1.3,0.2-1.7,0.5
			c-0.4,0.3-0.6,0.9-0.6,1.5c0,0.7,0.2,1.3,0.7,1.7s1.2,0.5,2.2,0.5c1.1,0,1.9-0.1,2.5-0.4c0.5-0.2,0.8-0.6,0.8-1.1L96,865
			c-0.3,0.4-0.6,0.7-0.9,1c-0.4,0.3-0.8,0.4-1.3,0.6c-0.5,0.1-1,0.2-1.6,0.2C90.4,866.8,89,866.4,88.1,865.7z M95.8,857.2
			c0-1-0.3-1.7-0.8-2.3c-0.5-0.5-1.2-0.8-2.2-0.8c-0.6,0-1.2,0.1-1.7,0.3c-0.6,0.2-1.1,0.4-1.5,0.8l-2.1-1.5
			c0.6-0.7,1.3-1.2,2.2-1.6c0.9-0.4,1.9-0.6,3-0.6c1.2,0,2.3,0.2,3.1,0.6c0.9,0.4,1.5,1.1,2,1.9c0.5,0.8,0.7,1.8,0.7,3v9.5h-2.7
			V857.2z"/>
	</g>
	<g>
		<path d="M102.9,851.8h2.9v14.8h-2.9V851.8z M111.6,857.6c0-1-0.3-1.9-0.8-2.4c-0.5-0.6-1.2-0.9-2.2-0.9c-0.9,0-1.7,0.3-2.2,0.8
			s-0.8,1.2-0.8,2.1l-0.3-2.8c0.5-0.9,1-1.6,1.8-2.1c0.7-0.5,1.5-0.7,2.4-0.7c1,0,1.9,0.2,2.6,0.7s1.3,1.2,1.7,2.1
			c0.4,0.9,0.6,2,0.6,3.3v9h-2.9v-9.1H111.6z M120.3,857.6c0-1-0.3-1.9-0.8-2.4c-0.5-0.6-1.3-0.9-2.3-0.9c-0.9,0-1.6,0.3-2.1,0.8
			s-0.7,1.3-0.7,2.3l-0.6-2.8c0.5-1,1.1-1.7,1.8-2.3c0.8-0.5,1.6-0.8,2.5-0.8c1.1,0,2,0.2,2.7,0.7s1.3,1.2,1.7,2.1
			c0.4,0.9,0.6,2,0.6,3.3v9h-2.9v-9H120.3z"/>
	</g>
	<g>
		<path d="M130.1,866c-1-0.5-1.7-1.3-2.2-2.3s-0.8-2.2-0.8-3.6v-1.7c0-1.5,0.2-2.7,0.7-3.7s1.2-1.8,2.1-2.4c0.9-0.5,2-0.8,3.3-0.8
			c1.2,0,2.3,0.3,3.1,0.9c0.9,0.6,1.5,1.5,2,2.7s0.7,2.6,0.7,4.2v1h-9.9V858h7.1c-0.1-1.2-0.4-2.1-0.9-2.8s-1.2-1-2.1-1
			c-1.1,0-1.9,0.4-2.5,1.1c-0.6,0.7-0.9,1.7-0.9,3.1v1.9c0,1.2,0.3,2.2,1,2.8c0.6,0.7,1.5,1,2.7,1c0.6,0,1.2-0.1,1.7-0.4
			c0.6-0.2,1.1-0.6,1.5-1l1.9,1.9c-0.7,0.7-1.5,1.2-2.4,1.6c-0.9,0.4-1.8,0.6-2.7,0.6C132.2,866.8,131.1,866.6,130.1,866z"/>
	</g>
</g>
<g>
	<g>
		<path d="M199.3,865.9c-1.1-0.6-1.9-1.5-2.5-2.7s-0.9-2.5-0.9-4v-5.9c0-1.5,0.3-2.9,0.9-4c0.6-1.2,1.4-2,2.5-2.7
			c1.1-0.6,2.3-0.9,3.8-0.9c1.4,0,2.7,0.3,3.8,0.9c1.1,0.6,1.9,1.5,2.5,2.7s0.9,2.5,0.9,4v5.9c0,1.5-0.3,2.9-0.9,4
			c-0.6,1.2-1.4,2-2.5,2.7c-1.1,0.6-2.3,0.9-3.8,0.9C201.7,866.8,200.4,866.5,199.3,865.9z M205.3,863.4c0.6-0.4,1.1-0.9,1.5-1.6
			c0.4-0.7,0.5-1.5,0.5-2.5v-6.1c0-0.9-0.2-1.7-0.5-2.5c-0.4-0.7-0.9-1.3-1.5-1.6c-0.6-0.4-1.4-0.6-2.2-0.6s-1.6,0.2-2.2,0.6
			c-0.6,0.4-1.1,0.9-1.5,1.6c-0.4,0.7-0.5,1.5-0.5,2.5v6.1c0,0.9,0.2,1.7,0.5,2.5c0.4,0.7,0.8,1.3,1.5,1.6c0.6,0.4,1.4,0.6,2.2,0.6
			C203.9,864,204.7,863.8,205.3,863.4z M203,860.9l1.5-1.9l7.6,6.1l-1.5,1.9L203,860.9z"/>
	</g>
	<g>
		<path d="M214.5,863.6h3v3h-3V863.6z"/>
	</g>
	<g>
		<path d="M231.8,866.1c-0.9-0.5-1.7-1.2-2.2-2.2s-0.7-2.1-0.7-3.5V858c0-1.3,0.2-2.5,0.7-3.4s1.2-1.7,2.2-2.2
			c0.9-0.5,2.1-0.7,3.4-0.7c0.8,0,1.5,0.1,2.1,0.3c0.7,0.2,1.3,0.5,1.8,0.8c0.5,0.4,1,0.8,1.3,1.3l-2.1,1.9
			c-0.4-0.5-0.9-0.8-1.5-1.1s-1.1-0.4-1.7-0.4c-1.1,0-2,0.3-2.6,0.9c-0.6,0.6-0.9,1.5-0.9,2.6v2.4c0,1.2,0.3,2.1,0.9,2.7
			c0.6,0.6,1.5,1,2.6,1c0.6,0,1.2-0.1,1.7-0.4c0.6-0.3,1-0.7,1.4-1.2l2.1,2c-0.4,0.5-0.8,0.9-1.4,1.3c-0.5,0.3-1.1,0.6-1.8,0.8
			s-1.4,0.3-2.1,0.3C233.9,866.8,232.7,866.6,231.8,866.1z"/>
	</g>
	<g>
		<path d="M243.7,845.9h2.9v20.7h-2.9V845.9z M252.6,857.6c0-1-0.3-1.9-0.8-2.4c-0.5-0.6-1.3-0.9-2.3-0.9c-0.9,0-1.7,0.2-2.2,0.7
			s-0.8,1.2-0.8,2.1l-0.3-2.8c0.5-0.9,1-1.5,1.8-2c0.7-0.5,1.5-0.7,2.4-0.7c1.6,0,2.8,0.5,3.7,1.6c0.9,1,1.3,2.5,1.3,4.4v9h-2.9v-9
			H252.6z"/>
	</g>
	<g>
		<path d="M260.5,865.7c-0.9-0.8-1.3-1.9-1.3-3.4s0.4-2.6,1.2-3.3c0.8-0.7,2.1-1.1,3.7-1.1h4.2l0.2,2.3h-4.3c-0.8,0-1.3,0.2-1.7,0.5
			c-0.4,0.3-0.6,0.9-0.6,1.5c0,0.7,0.2,1.3,0.7,1.7s1.2,0.5,2.2,0.5c1.1,0,1.9-0.1,2.5-0.4c0.5-0.2,0.8-0.6,0.8-1.1l0.3,2.1
			c-0.3,0.4-0.6,0.7-0.9,1c-0.4,0.3-0.8,0.4-1.3,0.6c-0.5,0.1-1,0.2-1.6,0.2C262.7,866.8,261.3,866.4,260.5,865.7z M268.1,857.2
			c0-1-0.3-1.7-0.8-2.3c-0.5-0.5-1.2-0.8-2.2-0.8c-0.6,0-1.2,0.1-1.7,0.3c-0.6,0.2-1.1,0.4-1.5,0.8l-2.1-1.5
			c0.6-0.7,1.3-1.2,2.2-1.6c0.9-0.4,1.9-0.6,3-0.6c1.2,0,2.3,0.2,3.1,0.6c0.9,0.4,1.5,1.1,2,1.9c0.5,0.8,0.7,1.8,0.7,3v9.5h-2.7
			V857.2z"/>
	</g>
	<g>
		<path d="M275.2,851.8h2.9v14.8h-2.9V851.8z M283.9,857.6c0-1-0.3-1.9-0.8-2.4c-0.5-0.6-1.2-0.9-2.2-0.9c-0.9,0-1.7,0.3-2.2,0.8
			s-0.8,1.2-0.8,2.1l-0.3-2.8c0.5-0.9,1-1.6,1.8-2.1c0.7-0.5,1.5-0.7,2.4-0.7c1,0,1.9,0.2,2.6,0.7s1.3,1.2,1.7,2.1
			c0.4,0.9,0.6,2,0.6,3.3v9h-2.9L283.9,857.6L283.9,857.6z M292.7,857.6c0-1-0.3-1.9-0.8-2.4c-0.5-0.6-1.3-0.9-2.3-0.9
			c-0.9,0-1.6,0.3-2.1,0.8s-0.7,1.3-0.7,2.3l-0.6-2.8c0.5-1,1.1-1.7,1.8-2.3c0.8-0.5,1.6-0.8,2.5-0.8c1.1,0,2,0.2,2.7,0.7
			s1.3,1.2,1.7,2.1c0.4,0.9,0.6,2,0.6,3.3v9h-2.9L292.7,857.6L292.7,857.6z"/>
	</g>
	<g>
		<path d="M299.9,851.8h2.9v20.8h-2.9V851.8z M304.1,866.2c-0.7-0.4-1.2-1.1-1.5-1.9l0.2-3.1c0,0.6,0.1,1.2,0.3,1.6
			c0.2,0.4,0.6,0.8,1,1s0.9,0.4,1.6,0.4c0.9,0,1.7-0.3,2.2-0.9c0.5-0.6,0.8-1.4,0.8-2.5v-3.2c0-1.1-0.3-1.9-0.8-2.5
			s-1.3-0.9-2.2-0.9c-0.6,0-1.1,0.1-1.6,0.3c-0.4,0.2-0.8,0.6-1,1s-0.3,1-0.3,1.6l-0.3-2.8c0.4-0.9,1-1.5,1.7-2s1.5-0.7,2.4-0.7
			c1,0,1.9,0.2,2.7,0.7c0.7,0.5,1.3,1.2,1.7,2.1c0.4,0.9,0.6,2,0.6,3.3v3.2c0,1.3-0.2,2.3-0.6,3.2s-1,1.6-1.7,2
			c-0.8,0.5-1.7,0.7-2.7,0.7C305.6,866.8,304.8,866.6,304.1,866.2z"/>
	</g>
	<g>
		<path d="M315.6,845.9h2.9v2.9h-2.9V845.9z M315.6,851.8h2.9v14.8h-2.9V851.8z"/>
	</g>
	<g>
		<path d="M322.9,851.8h2.9v14.8h-2.9V851.8z M329.8,848.7c-0.3-0.1-0.6-0.3-0.9-0.5l-0.2-0.1c0,0-0.1-0.1-0.2-0.1s-0.1-0.1-0.2-0.1
			c-0.4-0.3-0.7-0.5-0.9-0.6c-0.2-0.1-0.4-0.2-0.6-0.2c-0.3,0-0.6,0.1-0.7,0.2c-0.2,0.2-0.2,0.4-0.2,0.7v0.7h-2.2v-0.6
			c0-1.2,0.2-2.1,0.7-2.6c0.5-0.6,1.2-0.9,2.2-0.9c0.4,0,0.7,0.1,1,0.2c0.3,0.1,0.7,0.3,1,0.6l0.1,0.1l0.2,0.1
			c0.3,0.2,0.6,0.4,0.8,0.6c0.2,0.1,0.4,0.2,0.6,0.2c0.3,0,0.6-0.1,0.7-0.3c0.2-0.2,0.2-0.5,0.2-0.8v-0.6h2.2v0.5
			c0,1.2-0.2,2.1-0.7,2.7c-0.5,0.6-1.2,0.9-2.1,0.9C330.4,848.9,330.1,848.8,329.8,848.7z M331.8,857.6c0-1-0.3-1.9-0.8-2.4
			c-0.5-0.6-1.3-0.9-2.3-0.9c-0.9,0-1.7,0.3-2.2,0.8s-0.8,1.2-0.8,2.1l-0.3-2.8c0.5-0.9,1-1.6,1.8-2.1c0.7-0.5,1.5-0.7,2.4-0.7
			c1.6,0,2.8,0.5,3.7,1.6c0.9,1,1.3,2.5,1.3,4.4v9h-2.9L331.8,857.6L331.8,857.6z"/>
	</g>
	<g>
		<path d="M341.4,866.1c-0.9-0.5-1.6-1.2-2.1-2.2s-0.7-2.1-0.7-3.5V858c0-1.3,0.2-2.5,0.7-3.4c0.5-1,1.2-1.7,2.1-2.2s2-0.7,3.3-0.7
			s2.4,0.2,3.3,0.7s1.6,1.2,2.1,2.2s0.7,2.1,0.7,3.4v2.4c0,1.3-0.2,2.5-0.7,3.5s-1.2,1.7-2.1,2.2s-2,0.8-3.3,0.8
			C343.3,866.8,342.3,866.6,341.4,866.1z M346.9,863.1c0.5-0.6,0.8-1.5,0.8-2.7V858c0-1.1-0.3-2-0.8-2.7c-0.6-0.6-1.3-0.9-2.3-0.9
			s-1.8,0.3-2.3,0.9c-0.6,0.6-0.8,1.5-0.8,2.7v2.4c0,1.1,0.3,2,0.8,2.7c0.5,0.6,1.3,1,2.3,1C345.6,864.1,346.4,863.7,346.9,863.1z"
			/>
	</g>
	<g>
		<path d="M354.7,851.8h2.9v14.8h-2.9V851.8z M363.6,857.6c0-1-0.3-1.9-0.8-2.4c-0.5-0.6-1.3-0.9-2.3-0.9c-0.9,0-1.7,0.3-2.2,0.8
			s-0.8,1.2-0.8,2.1l-0.3-2.8c0.5-0.9,1-1.6,1.8-2.1c0.7-0.5,1.5-0.7,2.4-0.7c1.6,0,2.8,0.5,3.7,1.6c0.9,1,1.3,2.5,1.3,4.4v9h-2.9
			L363.6,857.6L363.6,857.6z"/>
	</g>
</g>
<g>
	<g>
		<g>
			<path d="M176.9,826.9H7.7l21.5-64.5l63.1-21l63.1,21L176.9,826.9z M11.6,824.1H173l-19.8-59.5l-60.9-20.3l-60.9,20.3L11.6,824.1z
				"/>
		</g>
	</g>
</g>
<g>
	<g>
		<path d="M23.8,536.4h2.6l10,16l-0.3,0.4v-16.4H39v20.7h-2.6l-10-15.8l0.3-0.4V557h-2.8v-20.6H23.8z"/>
	</g>
	<g>
		<path d="M44.4,556.2c-0.9-0.8-1.3-1.9-1.3-3.4s0.4-2.6,1.2-3.3s2.1-1.1,3.7-1.1h4.2l0.2,2.3H48c-0.8,0-1.3,0.2-1.7,0.5
			s-0.6,0.9-0.6,1.5c0,0.7,0.2,1.3,0.7,1.7s1.2,0.5,2.2,0.5c1.1,0,1.9-0.1,2.5-0.4c0.5-0.2,0.8-0.6,0.8-1.1l0.3,2.1
			c-0.3,0.4-0.6,0.7-0.9,1c-0.4,0.3-0.8,0.4-1.3,0.6c-0.5,0.1-1,0.2-1.6,0.2C46.7,557.3,45.3,556.9,44.4,556.2z M52,547.7
			c0-1-0.3-1.7-0.8-2.3c-0.5-0.5-1.2-0.8-2.2-0.8c-0.6,0-1.2,0.1-1.7,0.3c-0.6,0.2-1.1,0.4-1.5,0.8l-2.1-1.5
			c0.6-0.7,1.3-1.2,2.2-1.6c0.9-0.4,1.9-0.6,3-0.6c1.2,0,2.3,0.2,3.1,0.6c0.9,0.4,1.5,1.1,2,1.9c0.5,0.8,0.7,1.8,0.7,3v9.5H52V547.7
			z"/>
	</g>
	<g>
		<path d="M59.2,542.3H62v20.8h-2.9v-20.8H59.2z M63.3,556.7c-0.7-0.4-1.2-1.1-1.5-1.9l0.2-3.1c0,0.6,0.1,1.2,0.3,1.6
			c0.2,0.4,0.6,0.8,1,1s0.9,0.4,1.6,0.4c0.9,0,1.7-0.3,2.2-0.9c0.5-0.6,0.8-1.4,0.8-2.5v-3.2c0-1.1-0.3-1.9-0.8-2.5
			s-1.3-0.9-2.2-0.9c-0.6,0-1.1,0.1-1.6,0.3c-0.4,0.2-0.8,0.6-1,1s-0.3,1-0.3,1.6l-0.3-2.8c0.4-0.9,1-1.5,1.7-2s1.5-0.7,2.4-0.7
			c1,0,1.9,0.2,2.7,0.7c0.7,0.5,1.3,1.2,1.7,2.1c0.4,0.9,0.6,2,0.6,3.3v3.2c0,1.3-0.2,2.3-0.6,3.2s-1,1.6-1.7,2
			c-0.8,0.5-1.7,0.7-2.7,0.7C64.8,557.3,64,557.1,63.3,556.7z"/>
	</g>
	<g>
		<path d="M77.2,556.6c-0.9-0.5-1.6-1.2-2.1-2.2s-0.7-2.1-0.7-3.5v-2.4c0-1.3,0.2-2.5,0.7-3.4c0.5-1,1.2-1.7,2.1-2.2s2-0.7,3.3-0.7
			s2.4,0.2,3.3,0.7s1.6,1.2,2.1,2.2s0.7,2.1,0.7,3.4v2.4c0,1.3-0.2,2.5-0.7,3.5s-1.2,1.7-2.1,2.2s-2,0.8-3.3,0.8
			S78.1,557.1,77.2,556.6z M82.8,553.6c0.5-0.6,0.8-1.5,0.8-2.7v-2.4c0-1.1-0.3-2-0.8-2.7c-0.6-0.6-1.3-0.9-2.3-0.9
			s-1.8,0.3-2.3,0.9c-0.6,0.6-0.8,1.5-0.8,2.7v2.4c0,1.1,0.3,2,0.8,2.7c0.5,0.6,1.3,1,2.3,1S82.3,554.2,82.8,553.6z"/>
	</g>
	<g>
		<path d="M93.5,553.3c0,0.4,0.1,0.6,0.2,0.8c0.2,0.2,0.4,0.3,0.7,0.3h1.4v2.8H94c-1.1,0-1.9-0.3-2.5-1s-0.9-1.6-0.9-2.9v-16.8h2.9
			V553.3z"/>
	</g>
	<g>
		<path d="M99,536.4h2.9v2.9H99V536.4z M99,542.3h2.9v14.8H99V542.3z"/>
	</g>
	<g>
		<path d="M105.1,542.3h6.6v2.6h-6.6V542.3z M107.4,556.2c-0.5-0.7-0.8-1.6-0.8-2.9V538h2.9v15.3c0,0.4,0.1,0.6,0.2,0.8
			s0.3,0.3,0.6,0.3h1.4v2.8H110C108.8,557.2,108,556.9,107.4,556.2z"/>
	</g>
	<g>
		<path d="M116.3,556.2c-0.9-0.8-1.3-1.9-1.3-3.4s0.4-2.6,1.2-3.3c0.8-0.7,2.1-1.1,3.7-1.1h4.2l0.2,2.3H120c-0.8,0-1.3,0.2-1.7,0.5
			c-0.4,0.3-0.6,0.9-0.6,1.5c0,0.7,0.2,1.3,0.7,1.7s1.2,0.5,2.2,0.5c1.1,0,1.9-0.1,2.5-0.4c0.5-0.2,0.8-0.6,0.8-1.1l0.3,2.1
			c-0.3,0.4-0.6,0.7-0.9,1c-0.4,0.3-0.8,0.4-1.3,0.6c-0.5,0.1-1,0.2-1.6,0.2C118.5,557.3,117.2,556.9,116.3,556.2z M123.9,547.7
			c0-1-0.3-1.7-0.8-2.3c-0.5-0.5-1.2-0.8-2.2-0.8c-0.6,0-1.2,0.1-1.7,0.3c-0.6,0.2-1.1,0.4-1.5,0.8l-2.1-1.5
			c0.6-0.7,1.3-1.2,2.2-1.6c0.9-0.4,1.9-0.6,3-0.6c1.2,0,2.3,0.2,3.1,0.6c0.9,0.4,1.5,1.1,2,1.9c0.5,0.8,0.7,1.8,0.7,3v9.5h-2.7
			V547.7z"/>
	</g>
	<g>
		<path d="M131,542.3h2.9v14.8H131V542.3z M139.9,548.2c0-1-0.3-1.9-0.8-2.4c-0.5-0.6-1.3-0.9-2.3-0.9c-0.9,0-1.7,0.3-2.2,0.8
			s-0.8,1.2-0.8,2.1l-0.3-2.8c0.5-0.9,1-1.6,1.8-2.1c0.7-0.5,1.5-0.7,2.4-0.7c1.6,0,2.8,0.5,3.7,1.6c0.9,1,1.3,2.5,1.3,4.4v9h-2.9
			v-9H139.9z"/>
	</g>
	<g>
		<path d="M147.8,556.2c-0.9-0.8-1.3-1.9-1.3-3.4s0.4-2.6,1.2-3.3s2.1-1.1,3.7-1.1h4.2l0.2,2.3h-4.3c-0.8,0-1.3,0.2-1.7,0.5
			s-0.6,0.9-0.6,1.5c0,0.7,0.2,1.3,0.7,1.7s1.2,0.5,2.2,0.5c1.1,0,1.9-0.1,2.5-0.4c0.5-0.2,0.8-0.6,0.8-1.1l0.3,2.1
			c-0.3,0.4-0.6,0.7-0.9,1c-0.4,0.3-0.8,0.4-1.3,0.6c-0.5,0.1-1,0.2-1.6,0.2C150,557.3,148.7,556.9,147.8,556.2z M155.4,547.7
			c0-1-0.3-1.7-0.8-2.3c-0.5-0.5-1.2-0.8-2.2-0.8c-0.6,0-1.2,0.1-1.7,0.3c-0.6,0.2-1.1,0.4-1.5,0.8l-2.1-1.5
			c0.6-0.7,1.3-1.2,2.2-1.6c0.9-0.4,1.9-0.6,3-0.6c1.2,0,2.3,0.2,3.1,0.6c0.9,0.4,1.5,1.1,2,1.9c0.5,0.8,0.7,1.8,0.7,3v9.5h-2.7
			V547.7z"/>
	</g>
</g>
<g>
	<g>
		<path d="M92.3,513.1c-22.4,0-40.6-18.2-40.6-40.6s18.2-40.6,40.6-40.6s40.6,18.2,40.6,40.6C132.9,494.9,114.7,513.1,92.3,513.1z
			 M92.3,434.7c-20.8,0-37.8,17-37.8,37.8s17,37.8,37.8,37.8s37.8-17,37.8-37.8S113.2,434.7,92.3,434.7z"/>
	</g>
</g>
<g>
	<g>
		<path d="M56.5,1000.6H59l7.6,20.7h-3.1l-5.7-16.7l-5.7,16.7H49L56.5,1000.6z M52.5,1014h10.8v2.8H52.5V1014z"/>
	</g>
	<g>
		<path d="M71.9,1020.8c-0.9-0.5-1.7-1.2-2.2-2.2s-0.7-2.1-0.7-3.5v-2.4c0-1.3,0.2-2.5,0.7-3.4s1.2-1.7,2.2-2.2
			c0.9-0.5,2.1-0.7,3.4-0.7c0.8,0,1.5,0.1,2.1,0.3c0.7,0.2,1.3,0.5,1.8,0.8c0.5,0.4,1,0.8,1.3,1.3l-2.1,1.9
			c-0.4-0.5-0.9-0.8-1.5-1.1s-1.1-0.4-1.7-0.4c-1.1,0-2,0.3-2.6,0.9c-0.6,0.6-0.9,1.5-0.9,2.6v2.4c0,1.2,0.3,2.1,0.9,2.7
			c0.6,0.6,1.5,1,2.6,1c0.6,0,1.2-0.1,1.7-0.4c0.6-0.3,1-0.7,1.4-1.2l2.1,2c-0.4,0.5-0.8,0.9-1.4,1.3c-0.5,0.3-1.1,0.6-1.8,0.8
			c-0.7,0.2-1.4,0.3-2.1,0.3C73.9,1021.5,72.8,1021.3,71.9,1020.8z"/>
	</g>
	<g>
		<path d="M86.3,1020.8c-1-0.5-1.7-1.3-2.2-2.3s-0.8-2.2-0.8-3.6v-1.7c0-1.5,0.2-2.7,0.7-3.7s1.2-1.8,2.1-2.4c0.9-0.5,2-0.8,3.3-0.8
			c1.2,0,2.3,0.3,3.1,0.9c0.9,0.6,1.5,1.5,2,2.7s0.7,2.6,0.7,4.2v1h-9.9v-2.3h7.1c-0.1-1.2-0.4-2.1-0.9-2.8s-1.2-1-2.1-1
			c-1.1,0-1.9,0.4-2.5,1.1c-0.6,0.7-0.9,1.7-0.9,3.1v1.9c0,1.2,0.3,2.2,1,2.8c0.6,0.7,1.5,1,2.7,1c0.6,0,1.2-0.1,1.7-0.4
			c0.6-0.2,1.1-0.6,1.5-1l1.9,1.9c-0.7,0.7-1.5,1.2-2.4,1.6c-0.9,0.4-1.8,0.6-2.7,0.6C88.4,1021.5,87.2,1021.3,86.3,1020.8z"/>
	</g>
	<g>
		<path d="M102.1,1017.5c0,0.4,0.1,0.6,0.2,0.8c0.2,0.2,0.4,0.3,0.7,0.3h1.4v2.8h-1.7c-1.1,0-1.9-0.3-2.5-1s-0.9-1.6-0.9-2.9v-16.8
			h2.9L102.1,1017.5L102.1,1017.5z"/>
	</g>
	<g>
		<path d="M109.5,1020.9c-0.8-0.5-1.3-1.2-1.7-2.1c-0.4-0.9-0.6-2-0.6-3.2v-3.3c0-1.3,0.2-2.4,0.6-3.3c0.4-0.9,0.9-1.6,1.7-2.1
			c0.7-0.5,1.6-0.7,2.7-0.7c0.9,0,1.7,0.2,2.4,0.7c0.7,0.5,1.3,1.1,1.7,1.9l-0.3,3c0-0.6-0.1-1.2-0.3-1.6c-0.2-0.4-0.6-0.8-1-1
			s-0.9-0.3-1.6-0.3c-0.9,0-1.7,0.3-2.2,0.9c-0.5,0.6-0.8,1.4-0.8,2.5v3.2c0,1.1,0.3,1.9,0.8,2.5s1.3,0.9,2.2,0.9
			c0.6,0,1.1-0.1,1.6-0.4c0.4-0.2,0.8-0.6,1-1s0.3-1,0.3-1.6l0.2,3.1c-0.3,0.7-0.8,1.3-1.4,1.8c-0.7,0.5-1.5,0.7-2.4,0.7
			C111.2,1021.6,110.2,1021.3,109.5,1020.9z M109.5,1026.7c-0.9-0.4-1.5-1-2-1.7l1.9-1.8c0.4,0.5,0.8,0.9,1.3,1.2s1.1,0.4,1.6,0.4
			c1.1,0,1.9-0.3,2.6-0.9c0.6-0.6,0.9-1.5,0.9-2.6v-14.8h2.9v14.3c0,1.4-0.2,2.5-0.7,3.5s-1.2,1.7-2.1,2.2s-2.1,0.8-3.4,0.8
			C111.4,1027.3,110.4,1027.1,109.5,1026.7z"/>
	</g>
	<g>
		<path d="M123.8,1020.4c-0.9-0.8-1.3-1.9-1.3-3.4s0.4-2.6,1.2-3.3c0.8-0.7,2.1-1.1,3.7-1.1h4.2l0.2,2.3h-4.3
			c-0.8,0-1.3,0.2-1.7,0.5c-0.4,0.3-0.6,0.9-0.6,1.5c0,0.7,0.2,1.3,0.7,1.7s1.2,0.5,2.2,0.5c1.1,0,1.9-0.1,2.5-0.4
			c0.5-0.2,0.8-0.6,0.8-1.1l0.3,2.1c-0.3,0.4-0.6,0.7-0.9,1c-0.4,0.3-0.8,0.4-1.3,0.6c-0.5,0.1-1,0.2-1.6,0.2
			C126,1021.5,124.7,1021.2,123.8,1020.4z M131.4,1012c0-1-0.3-1.7-0.8-2.3c-0.5-0.5-1.2-0.8-2.2-0.8c-0.6,0-1.2,0.1-1.7,0.3
			c-0.6,0.2-1.1,0.4-1.5,0.8l-2.1-1.5c0.6-0.7,1.3-1.2,2.2-1.6c0.9-0.4,1.9-0.6,3-0.6c1.2,0,2.3,0.2,3.1,0.6c0.9,0.4,1.5,1.1,2,1.9
			c0.5,0.8,0.7,1.8,0.7,3v9.5h-2.7V1012z"/>
	</g>
</g>
<g>
	<g>
		<rect x="38" y="966.1" width="2.8" height="29.5"/>
	</g>
</g>
<g>
	<g>
		<rect x="47.9" y="966.1" width="2.8" height="29.5"/>
	</g>
</g>
<g>
	<g>
		<rect x="57.7" y="966.1" width="2.8" height="29.5"/>
	</g>
</g>
<g>
	<g>
		<rect x="126.5" y="966.1" width="2.8" height="29.5"/>
	</g>
</g>
<g>
	<g>
		<rect x="136.3" y="966.1" width="2.8" height="29.5"/>
	</g>
</g>
<g>
	<g>
		<rect x="146.2" y="966.1" width="2.8" height="29.5"/>
	</g>
</g>
<g>
	<g>
		<g>
			<polygon points="177.6,981.5 154.4,981.5 154.4,978.7 172,978.7 112.3,899.1 72.4,899.1 12.7,978.7 29.7,978.7 29.7,981.5 
				7.1,981.5 71,896.3 113.7,896.3 			"/>
		</g>
	</g>
	<g>
		<g>
			<rect x="69.3" y="978.7" width="45.5" height="2.8"/>
		</g>
	</g>
</g>
<g>
	<g>
		<g>
			<path d="M58.3,691.2H61v20.7h-2.8v-15.5l0.1,0.9l-5,11.7h-2l-5-11.4l0.1-1.2v15.5h-2.8v-20.7h2.7l6,13.7L58.3,691.2z"/>
		</g>
	</g>
	<g>
		<g>
			<path d="M66.5,711c-0.9-0.8-1.3-1.9-1.3-3.4s0.4-2.6,1.2-3.3c0.8-0.7,2.1-1.1,3.7-1.1h4.2l0.2,2.3h-4.3c-0.8,0-1.3,0.2-1.7,0.5
				c-0.4,0.3-0.6,0.9-0.6,1.5c0,0.7,0.2,1.3,0.7,1.7s1.2,0.5,2.2,0.5c1.1,0,1.9-0.1,2.5-0.4c0.5-0.2,0.8-0.6,0.8-1.1l0.3,2.1
				c-0.3,0.4-0.6,0.7-0.9,1c-0.4,0.3-0.8,0.4-1.3,0.6c-0.5,0.1-1,0.2-1.6,0.2C68.7,712.1,67.4,711.8,66.5,711z M74.1,702.6
				c0-1-0.3-1.7-0.8-2.3c-0.5-0.5-1.2-0.8-2.2-0.8c-0.6,0-1.2,0.1-1.7,0.3c-0.6,0.2-1.1,0.4-1.5,0.8l-2.1-1.5
				c0.6-0.7,1.3-1.2,2.2-1.6c0.9-0.4,1.9-0.6,3-0.6c1.2,0,2.3,0.2,3.1,0.6c0.9,0.4,1.5,1.1,2,1.9c0.5,0.8,0.7,1.8,0.7,3v9.5h-2.7
				V702.6z"/>
		</g>
	</g>
	<g>
		<g>
			<path d="M81.2,697.1h2.9v14.8h-2.9V697.1z M88.3,699.9c-0.4-0.2-0.8-0.2-1.3-0.2c-0.9,0-1.6,0.3-2.1,0.8s-0.8,1.2-0.8,2.1
				l-0.3-2.8c0.5-0.9,1-1.6,1.7-2.1s1.5-0.7,2.4-0.7c0.7,0,1.3,0.1,1.8,0.3s1,0.5,1.4,0.9l-1.9,2.6C89,700.3,88.7,700.1,88.3,699.9z
				"/>
		</g>
	</g>
	<g>
		<g>
			<path d="M93.5,691.2h2.9v2.9h-2.9V691.2z M93.5,697.1h2.9v14.8h-2.9V697.1z"/>
		</g>
	</g>
	<g>
		<g>
			<path d="M103.5,711.9c-0.8-0.2-1.5-0.4-2.1-0.8c-0.7-0.3-1.3-0.8-1.8-1.3l1.7-2.1c0.8,0.6,1.6,1.1,2.4,1.4
				c0.8,0.3,1.6,0.5,2.3,0.5c1.1,0,2-0.2,2.6-0.5c0.6-0.4,0.9-0.9,0.9-1.6c0-0.5-0.2-0.8-0.5-1.1c-0.3-0.2-0.7-0.4-1.2-0.5
				s-1.1-0.2-1.9-0.2c-0.1,0-0.2,0-0.2,0c-0.1,0-0.2,0-0.2,0h-0.1h-0.1c-0.9-0.1-1.8-0.2-2.4-0.4c-0.7-0.2-1.2-0.6-1.6-1.1
				c-0.4-0.6-0.7-1.4-0.7-2.4s0.2-1.9,0.6-2.6c0.4-0.7,1.1-1.2,1.9-1.6c0.8-0.3,1.9-0.5,3.1-0.5c0.8,0,1.5,0.1,2.2,0.2
				c0.7,0.1,1.4,0.4,2,0.6c0.6,0.3,1.2,0.6,1.8,1.1l-1.7,2.1c-0.7-0.5-1.5-0.8-2.2-1.1c-0.7-0.2-1.4-0.4-2.1-0.4
				c-1,0-1.7,0.2-2.2,0.5s-0.7,0.8-0.7,1.5c0,0.4,0.1,0.7,0.4,0.9s0.6,0.3,1.1,0.4c0.4,0.1,1,0.1,1.8,0.2c0.1,0,0.1,0,0.2,0
				s0.1,0,0.2,0h0.1h0.1c1,0.1,1.9,0.2,2.6,0.4s1.3,0.6,1.8,1.2c0.5,0.6,0.7,1.5,0.7,2.7c0,1.1-0.2,1.9-0.7,2.6
				c-0.5,0.7-1.1,1.2-2,1.6c-0.9,0.4-2,0.5-3.4,0.5C105.1,712.1,104.3,712,103.5,711.9z"/>
		</g>
	</g>
	<g>
		<g>
			<path d="M118.2,711.4c-0.9-0.5-1.7-1.2-2.2-2.2s-0.7-2.1-0.7-3.5v-2.4c0-1.3,0.2-2.5,0.7-3.4s1.2-1.7,2.2-2.2
				c0.9-0.5,2.1-0.7,3.4-0.7c0.8,0,1.5,0.1,2.1,0.3c0.7,0.2,1.3,0.5,1.8,0.8c0.5,0.4,1,0.8,1.3,1.3l-2.1,1.9
				c-0.4-0.5-0.9-0.8-1.5-1.1s-1.1-0.4-1.7-0.4c-1.1,0-2,0.3-2.6,0.9c-0.6,0.6-0.9,1.5-0.9,2.6v2.4c0,1.2,0.3,2.1,0.9,2.7
				c0.6,0.6,1.5,1,2.6,1c0.6,0,1.2-0.1,1.7-0.4c0.6-0.3,1-0.7,1.4-1.2l2.1,2c-0.4,0.5-0.8,0.9-1.4,1.3c-0.5,0.3-1.1,0.6-1.8,0.8
				c-0.7,0.2-1.4,0.3-2.1,0.3C120.3,712.1,119.2,711.9,118.2,711.4z"/>
		</g>
	</g>
	<g>
		<g>
			<path d="M132.5,711.4c-0.9-0.5-1.6-1.2-2.1-2.2s-0.7-2.1-0.7-3.5v-2.4c0-1.3,0.2-2.5,0.7-3.4s1.2-1.7,2.1-2.2
				c0.9-0.5,2-0.7,3.3-0.7s2.4,0.2,3.3,0.7c0.9,0.5,1.6,1.2,2.1,2.2s0.7,2.1,0.7,3.4v2.4c0,1.3-0.2,2.5-0.7,3.5s-1.2,1.7-2.1,2.2
				c-0.9,0.5-2,0.8-3.3,0.8C134.5,712.1,133.4,711.9,132.5,711.4z M138.1,708.4c0.5-0.6,0.8-1.5,0.8-2.7v-2.4c0-1.1-0.3-2-0.8-2.7
				c-0.6-0.6-1.3-0.9-2.3-0.9s-1.8,0.3-2.3,0.9c-0.6,0.6-0.8,1.5-0.8,2.7v2.4c0,1.1,0.3,2,0.8,2.7c0.5,0.6,1.3,1,2.3,1
				S137.5,709.1,138.1,708.4z"/>
		</g>
	</g>
</g>
<g>
	<g>
		<g>
			<g>
				<rect x="38.7" y="656.6" width="2.8" height="29.5"/>
			</g>
		</g>
	</g>
	<g>
		<g>
			<g>
				<rect x="48.5" y="656.6" width="2.8" height="29.5"/>
			</g>
		</g>
	</g>
	<g>
		<g>
			<g>
				<rect x="58.4" y="656.6" width="2.8" height="29.5"/>
			</g>
		</g>
	</g>
</g>
<g>
	<g>
		<g>
			<rect x="123.8" y="656.6" width="2.8" height="29.5"/>
		</g>
	</g>
</g>
<g>
	<g>
		<g>
			<rect x="133.6" y="656.6" width="2.8" height="29.5"/>
		</g>
	</g>
</g>
<g>
	<g>
		<g>
			<rect x="143.4" y="656.6" width="2.8" height="29.5"/>
		</g>
	</g>
</g>
<g>
	<g>
		<g>
			<g>
				<polygon points="176.6,672 154.7,672 154.7,669.2 173,669.2 153,589.5 31.6,589.5 11.7,669.2 30,669.2 30,672 8.1,672 
					29.4,586.8 155.2,586.8 				"/>
			</g>
		</g>
	</g>
	<g>
		<g>
			<g>
				<rect x="69.6" y="669.2" width="45.5" height="2.8"/>
			</g>
		</g>
	</g>
</g>
<g>
	<g>
		<path class="st1" d="M209.1,556.4c-1.1-0.6-2-1.5-2.6-2.7s-0.9-2.5-0.9-4v-5.9c0-1.5,0.3-2.9,0.9-4c0.6-1.2,1.5-2,2.6-2.7
			c1.1-0.6,2.4-0.9,3.8-0.9c1.4,0,2.7,0.3,3.8,0.9c1.1,0.6,2,1.5,2.6,2.7s0.9,2.5,0.9,4v5.9c0,1.5-0.3,2.9-0.9,4s-1.5,2-2.6,2.7
			c-1.1,0.6-2.4,0.9-3.8,0.9C211.4,557.3,210.2,557,209.1,556.4z M215.1,553.9c0.6-0.4,1.2-0.9,1.5-1.6c0.4-0.7,0.5-1.5,0.5-2.5
			v-6.1c0-0.9-0.2-1.7-0.5-2.5c-0.4-0.7-0.9-1.3-1.5-1.6c-0.6-0.4-1.4-0.6-2.3-0.6c-0.9,0-1.6,0.2-2.3,0.6c-0.7,0.4-1.2,0.9-1.5,1.6
			c-0.4,0.7-0.5,1.5-0.5,2.5v6.1c0,0.9,0.2,1.7,0.5,2.5c0.4,0.7,0.9,1.3,1.5,1.6c0.6,0.4,1.4,0.6,2.3,0.6
			C213.7,554.5,214.5,554.3,215.1,553.9z M212.8,551.4l1.5-1.9l7.7,6.1l-1.5,1.9L212.8,551.4z"/>
	</g>
	<g>
		<path class="st1" d="M235.2,556.6c-1-0.5-1.7-1.2-2.2-2.2s-0.8-2.1-0.8-3.5v-2.4c0-1.3,0.3-2.5,0.8-3.4s1.2-1.7,2.2-2.2
			s2.1-0.7,3.5-0.7c0.8,0,1.5,0.1,2.2,0.3s1.3,0.5,1.8,0.8c0.5,0.4,1,0.8,1.4,1.3l-2.1,1.9c-0.4-0.5-0.9-0.8-1.5-1.1
			s-1.1-0.4-1.7-0.4c-1.1,0-2,0.3-2.6,0.9c-0.6,0.6-0.9,1.5-0.9,2.6v2.4c0,1.2,0.3,2.1,0.9,2.7c0.6,0.6,1.5,1,2.6,1
			c0.6,0,1.2-0.1,1.8-0.4c0.6-0.3,1-0.7,1.5-1.2l2.1,2c-0.4,0.5-0.8,0.9-1.4,1.3c-0.5,0.3-1.2,0.6-1.8,0.8c-0.7,0.2-1.4,0.3-2.2,0.3
			C237.3,557.3,236.2,557.1,235.2,556.6z"/>
	</g>
	<g>
		<path class="st1" d="M247.9,556.2c-0.9-0.8-1.4-1.9-1.4-3.4s0.4-2.6,1.2-3.3s2.1-1.1,3.7-1.1h4.2l0.2,2.3h-4.4
			c-0.8,0-1.3,0.2-1.7,0.5s-0.6,0.9-0.6,1.5c0,0.7,0.2,1.3,0.7,1.7s1.3,0.5,2.3,0.5c1.1,0,1.9-0.1,2.5-0.4c0.5-0.2,0.8-0.6,0.8-1.1
			l0.3,2.1c-0.3,0.4-0.6,0.7-0.9,1c-0.4,0.3-0.8,0.4-1.3,0.6c-0.5,0.1-1,0.2-1.7,0.2C250.1,557.3,248.8,556.9,247.9,556.2z
			 M255.6,547.7c0-1-0.3-1.7-0.8-2.3c-0.5-0.5-1.2-0.8-2.2-0.8c-0.6,0-1.2,0.1-1.7,0.3c-0.6,0.2-1.1,0.4-1.5,0.8l-2.1-1.5
			c0.6-0.7,1.3-1.2,2.2-1.6c0.9-0.4,1.9-0.6,3.1-0.6c1.2,0,2.3,0.2,3.1,0.6c0.9,0.4,1.5,1.1,2,1.9c0.5,0.8,0.7,1.8,0.7,3v9.5h-2.8
			L255.6,547.7L255.6,547.7z"/>
	</g>
	<g>
		<path class="st1" d="M262.7,542.3h2.9v14.8h-2.9V542.3z M271.6,548.2c0-1-0.3-1.9-0.8-2.4c-0.5-0.6-1.2-0.9-2.2-0.9
			c-0.9,0-1.7,0.3-2.2,0.8s-0.8,1.2-0.8,2.1l-0.3-2.8c0.5-0.9,1-1.6,1.8-2.1c0.7-0.5,1.5-0.7,2.4-0.7c1,0,1.9,0.2,2.6,0.7
			s1.3,1.2,1.7,2.1c0.4,0.9,0.6,2,0.6,3.3v9h-2.9L271.6,548.2L271.6,548.2z M280.4,548.2c0-1-0.3-1.9-0.8-2.4
			c-0.5-0.6-1.3-0.9-2.3-0.9c-0.9,0-1.6,0.3-2.1,0.8s-0.7,1.3-0.7,2.3l-0.6-2.8c0.5-1,1.1-1.7,1.8-2.3c0.8-0.5,1.6-0.8,2.5-0.8
			c1.1,0,2,0.2,2.7,0.7c0.8,0.5,1.3,1.2,1.7,2.1c0.4,0.9,0.6,2,0.6,3.3v9h-2.9L280.4,548.2L280.4,548.2z"/>
	</g>
	<g>
		<path class="st1" d="M288.3,556.2c-0.9-0.8-1.4-1.9-1.4-3.4s0.4-2.6,1.2-3.3c0.8-0.7,2.1-1.1,3.7-1.1h4.2l0.2,2.3H292
			c-0.8,0-1.3,0.2-1.7,0.5c-0.4,0.3-0.6,0.9-0.6,1.5c0,0.7,0.2,1.3,0.7,1.7s1.3,0.5,2.3,0.5c1.1,0,1.9-0.1,2.5-0.4s0.8-0.6,0.8-1.1
			l0.3,2.1c-0.3,0.4-0.6,0.7-0.9,1c-0.4,0.3-0.8,0.4-1.3,0.6c-0.5,0.1-1,0.2-1.7,0.2C290.6,557.3,289.2,556.9,288.3,556.2z
			 M296,547.7c0-1-0.3-1.7-0.8-2.3c-0.5-0.5-1.2-0.8-2.2-0.8c-0.6,0-1.2,0.1-1.7,0.3c-0.6,0.2-1.1,0.4-1.5,0.8l-2.1-1.5
			c0.6-0.7,1.3-1.2,2.2-1.6c0.9-0.4,1.9-0.6,3.1-0.6s2.3,0.2,3.1,0.6c0.9,0.4,1.5,1.1,2,1.9c0.5,0.8,0.7,1.8,0.7,3v9.5H296V547.7z"
			/>
	</g>
	<g>
		<path class="st1" d="M303.2,542.3h2.9v14.8h-2.9V542.3z M310.4,545.1c-0.4-0.2-0.8-0.2-1.4-0.2c-0.9,0-1.6,0.3-2.1,0.8
			s-0.8,1.2-0.8,2.1l-0.3-2.8c0.5-0.9,1-1.6,1.8-2.1c0.7-0.5,1.5-0.7,2.4-0.7c0.7,0,1.3,0.1,1.8,0.3s1,0.5,1.4,0.9l-1.9,2.6
			C311.1,545.5,310.8,545.3,310.4,545.1z"/>
	</g>
	<g>
		<path class="st1" d="M317.7,556.6c-0.9-0.5-1.6-1.2-2.1-2.2s-0.7-2.1-0.7-3.5v-2.4c0-1.3,0.2-2.5,0.7-3.4c0.5-1,1.2-1.7,2.1-2.2
			s2-0.7,3.3-0.7s2.4,0.2,3.3,0.7s1.6,1.2,2.1,2.2s0.7,2.1,0.7,3.4v2.4c0,1.3-0.2,2.5-0.7,3.5s-1.2,1.7-2.1,2.2s-2,0.8-3.3,0.8
			S318.7,557.1,317.7,556.6z M323.4,553.6c0.6-0.6,0.8-1.5,0.8-2.7v-2.4c0-1.1-0.3-2-0.8-2.7c-0.6-0.6-1.3-0.9-2.4-0.9
			c-1,0-1.8,0.3-2.4,0.9c-0.6,0.6-0.8,1.5-0.8,2.7v2.4c0,1.1,0.3,2,0.8,2.7c0.6,0.6,1.3,1,2.4,1C322,554.6,322.8,554.2,323.4,553.6z
			 M319.5,538l4.1-5.1l2.1,1.7l-4.3,4.8L319.5,538z"/>
	</g>
	<g>
		<path class="st1" d="M331.3,542.3h2.9v14.8h-2.9V542.3z M340.2,548.2c0-1-0.3-1.9-0.8-2.4c-0.5-0.6-1.3-0.9-2.3-0.9
			c-0.9,0-1.7,0.3-2.2,0.8s-0.8,1.2-0.8,2.1l-0.3-2.8c0.5-0.9,1-1.6,1.8-2.1c0.7-0.5,1.5-0.7,2.4-0.7c1.6,0,2.8,0.5,3.7,1.6
			c0.9,1,1.3,2.5,1.3,4.4v9h-2.9L340.2,548.2L340.2,548.2z"/>
	</g>
</g>
<g>
	<g>
		<g>
			<path d="M236.7,711.2c-1.1-0.6-2-1.5-2.6-2.7s-0.9-2.5-0.9-4v-5.9c0-1.5,0.3-2.9,0.9-4c0.6-1.2,1.5-2,2.6-2.7s2.4-0.9,3.8-0.9
				c1.4,0,2.7,0.3,3.8,0.9s2,1.5,2.6,2.7s0.9,2.5,0.9,4v5.9c0,1.5-0.3,2.9-0.9,4s-1.5,2-2.6,2.7c-1.1,0.6-2.4,0.9-3.8,0.9
				C239.1,712.1,237.8,711.8,236.7,711.2z M242.8,708.7c0.6-0.4,1.2-0.9,1.5-1.6c0.4-0.7,0.5-1.5,0.5-2.5v-6.1
				c0-0.9-0.2-1.7-0.5-2.5c-0.4-0.7-0.9-1.3-1.5-1.6c-0.6-0.4-1.4-0.6-2.3-0.6c-0.9,0-1.6,0.2-2.3,0.6c-0.7,0.4-1.2,0.9-1.5,1.6
				c-0.4,0.7-0.5,1.5-0.5,2.5v6.1c0,0.9,0.2,1.7,0.5,2.5c0.4,0.7,0.9,1.3,1.5,1.6c0.6,0.4,1.4,0.6,2.3,0.6
				C241.4,709.3,242.1,709.1,242.8,708.7z M240.5,706.2l1.5-1.9l7.7,6.1l-1.5,1.9L240.5,706.2z"/>
		</g>
	</g>
	<g>
		<g>
			<path d="M260.4,697.1h2.9v20.8h-2.9V697.1z M264.6,711.5c-0.7-0.4-1.2-1.1-1.5-1.9l0.2-3.1c0,0.6,0.1,1.2,0.3,1.6s0.6,0.8,1,1
				s1,0.4,1.6,0.4c1,0,1.7-0.3,2.2-0.9c0.5-0.6,0.8-1.4,0.8-2.5V703c0-1.1-0.3-1.9-0.8-2.5s-1.3-0.9-2.2-0.9c-0.6,0-1.1,0.1-1.6,0.3
				c-0.4,0.2-0.8,0.6-1,1s-0.3,1-0.3,1.6l-0.3-2.8c0.4-0.9,1-1.5,1.7-2s1.5-0.7,2.4-0.7c1,0,1.9,0.2,2.7,0.7
				c0.7,0.5,1.3,1.2,1.7,2.1c0.4,0.9,0.6,2,0.6,3.3v3.2c0,1.3-0.2,2.3-0.6,3.2s-1,1.6-1.7,2c-0.8,0.5-1.7,0.7-2.8,0.7
				C266.1,712.1,265.3,711.9,264.6,711.5z"/>
		</g>
	</g>
	<g>
		<g>
			<path d="M278.6,711.4c-0.9-0.5-1.6-1.2-2.1-2.2s-0.7-2.1-0.7-3.5v-2.4c0-1.3,0.2-2.5,0.7-3.4c0.5-1,1.2-1.7,2.1-2.2
				s2-0.7,3.3-0.7s2.4,0.2,3.3,0.7s1.6,1.2,2.1,2.2s0.7,2.1,0.7,3.4v2.4c0,1.3-0.2,2.5-0.7,3.5s-1.2,1.7-2.1,2.2s-2,0.8-3.3,0.8
				S279.5,711.9,278.6,711.4z M284.3,708.4c0.6-0.6,0.8-1.5,0.8-2.7v-2.4c0-1.1-0.3-2-0.8-2.7c-0.6-0.6-1.3-0.9-2.4-0.9
				c-1,0-1.8,0.3-2.4,0.9c-0.6,0.6-0.8,1.5-0.8,2.7v2.4c0,1.1,0.3,2,0.8,2.7c0.6,0.6,1.3,1,2.4,1
				C282.9,709.4,283.7,709.1,284.3,708.4z"/>
		</g>
	</g>
	<g>
		<g>
			<path d="M295,708.1c0,0.4,0.1,0.6,0.2,0.8c0.2,0.2,0.4,0.3,0.7,0.3h1.4v2.8h-1.7c-1.1,0-2-0.3-2.6-1s-0.9-1.6-0.9-2.9v-16.8h2.9
				V708.1z"/>
		</g>
	</g>
	<g>
		<g>
			<path d="M303.5,708.1c0,0.4,0.1,0.6,0.2,0.8c0.2,0.2,0.4,0.3,0.7,0.3h1.4v2.8H304c-1.1,0-2-0.3-2.6-1s-0.9-1.6-0.9-2.9v-16.8h2.9
				v16.8H303.5z"/>
		</g>
	</g>
	<g>
		<g>
			<path d="M311.4,711.4c-0.9-0.5-1.6-1.2-2.1-2.2s-0.7-2.1-0.7-3.5v-2.4c0-1.3,0.2-2.5,0.7-3.4c0.5-1,1.2-1.7,2.1-2.2
				s2-0.7,3.3-0.7s2.4,0.2,3.3,0.7s1.6,1.2,2.1,2.2s0.7,2.1,0.7,3.4v2.4c0,1.3-0.2,2.5-0.7,3.5s-1.2,1.7-2.1,2.2s-2,0.8-3.3,0.8
				S312.3,711.9,311.4,711.4z M317,708.4c0.6-0.6,0.8-1.5,0.8-2.7v-2.4c0-1.1-0.3-2-0.8-2.7c-0.6-0.6-1.3-0.9-2.4-0.9
				c-1,0-1.8,0.3-2.4,0.9c-0.6,0.6-0.8,1.5-0.8,2.7v2.4c0,1.1,0.3,2,0.8,2.7c0.6,0.6,1.3,1,2.4,1S316.5,709.1,317,708.4z"/>
		</g>
	</g>
</g>
<g>
	<g>
		<path d="M213.7,1020.7c-1.1-0.6-2-1.5-2.6-2.7s-0.9-2.5-0.9-4v-5.9c0-1.5,0.3-2.9,0.9-4c0.6-1.2,1.5-2,2.6-2.7
			c1.1-0.6,2.4-0.9,3.8-0.9c1.4,0,2.7,0.3,3.8,0.9c1.1,0.6,2,1.5,2.6,2.7s0.9,2.5,0.9,4v5.9c0,1.5-0.3,2.9-0.9,4
			c-0.6,1.2-1.5,2-2.6,2.7c-1.1,0.6-2.4,0.9-3.8,0.9C216.1,1021.6,214.8,1021.3,213.7,1020.7z M219.8,1018.2
			c0.6-0.4,1.2-0.9,1.5-1.6c0.4-0.7,0.5-1.5,0.5-2.5v-6.1c0-0.9-0.2-1.7-0.5-2.5c-0.4-0.7-0.9-1.3-1.5-1.6s-1.4-0.6-2.3-0.6
			c-0.9,0-1.6,0.2-2.3,0.6c-0.7,0.4-1.2,0.9-1.5,1.6c-0.4,0.7-0.5,1.5-0.5,2.5v6.1c0,0.9,0.2,1.7,0.5,2.5c0.4,0.7,0.9,1.3,1.5,1.6
			c0.6,0.4,1.4,0.6,2.3,0.6C218.4,1018.8,219.2,1018.6,219.8,1018.2z M217.5,1015.7l1.5-1.9l7.7,6.1l-1.5,1.9L217.5,1015.7z"/>
	</g>
	<g>
		<path d="M238,1020.5c-0.9-0.8-1.4-1.9-1.4-3.4s0.4-2.6,1.2-3.3s2.1-1.1,3.7-1.1h4.2l0.2,2.3h-4.4c-0.8,0-1.3,0.2-1.7,0.5
			s-0.6,0.9-0.6,1.5c0,0.7,0.2,1.3,0.7,1.7s1.3,0.5,2.3,0.5c1.1,0,1.9-0.1,2.5-0.4s0.8-0.6,0.8-1.1l0.3,2.1c-0.3,0.4-0.6,0.7-0.9,1
			s-0.8,0.4-1.3,0.6c-0.5,0.1-1,0.2-1.7,0.2C240.3,1021.6,238.9,1021.2,238,1020.5z M245.7,1012c0-1-0.3-1.7-0.8-2.3
			c-0.5-0.5-1.2-0.8-2.2-0.8c-0.6,0-1.2,0.1-1.7,0.3c-0.6,0.2-1.1,0.4-1.5,0.8l-2.1-1.5c0.6-0.7,1.3-1.2,2.2-1.6
			c0.9-0.4,1.9-0.6,3.1-0.6c1.2,0,2.3,0.2,3.1,0.6c0.9,0.4,1.5,1.1,2,1.9c0.5,0.8,0.7,1.8,0.7,3v9.5h-2.8V1012z"/>
	</g>
	<g>
		<path d="M255.4,1020.9c-1-0.5-1.7-1.2-2.2-2.2s-0.8-2.1-0.8-3.5v-2.4c0-1.3,0.3-2.5,0.8-3.4s1.2-1.7,2.2-2.2s2.1-0.7,3.5-0.7
			c0.8,0,1.5,0.1,2.2,0.3s1.3,0.5,1.8,0.8c0.5,0.4,1,0.8,1.4,1.3l-2.1,1.9c-0.4-0.5-0.9-0.8-1.5-1.1s-1.1-0.4-1.7-0.4
			c-1.1,0-2,0.3-2.6,0.9c-0.6,0.6-0.9,1.5-0.9,2.6v2.4c0,1.2,0.3,2.1,0.9,2.7c0.6,0.6,1.5,1,2.6,1c0.6,0,1.2-0.1,1.8-0.4
			c0.6-0.3,1-0.7,1.5-1.2l2.1,2c-0.4,0.5-0.8,0.9-1.4,1.3c-0.5,0.3-1.2,0.6-1.8,0.8c-0.7,0.2-1.4,0.3-2.2,0.3
			C257.5,1021.6,256.4,1021.4,255.4,1020.9z"/>
	</g>
	<g>
		<path d="M270,1020.8c-1-0.5-1.7-1.3-2.2-2.3s-0.8-2.2-0.8-3.6v-1.7c0-1.5,0.2-2.7,0.7-3.7s1.2-1.8,2.1-2.4c0.9-0.5,2-0.8,3.4-0.8
			c1.2,0,2.3,0.3,3.2,0.9c0.9,0.6,1.5,1.5,2,2.7s0.7,2.6,0.7,4.2v1h-10v-2.3h7.2c-0.1-1.2-0.4-2.1-0.9-2.8s-1.3-1-2.2-1
			c-1.1,0-2,0.4-2.6,1.1c-0.6,0.7-0.9,1.7-0.9,3.1v1.9c0,1.2,0.3,2.2,1,2.8s1.6,1,2.7,1c0.6,0,1.2-0.1,1.8-0.4
			c0.6-0.2,1.1-0.6,1.5-1l1.9,1.9c-0.7,0.7-1.6,1.2-2.5,1.6c-0.9,0.4-1.8,0.6-2.7,0.6C272.1,1021.6,270.9,1021.4,270,1020.8z"/>
	</g>
	<g>
		<path d="M283.1,1000.7h2.9v2.9h-2.9V1000.7z M283.1,1006.6h2.9v14.8h-2.9V1006.6z"/>
	</g>
	<g>
		<path d="M289.2,1006.6h6.7v2.6h-6.7V1006.6z M291.6,1020.5c-0.6-0.7-0.8-1.6-0.8-2.9v-15.2h2.9v15.3c0,0.4,0.1,0.6,0.2,0.8
			s0.4,0.3,0.6,0.3h1.4v2.8h-1.7C293,1021.5,292.1,1021.1,291.6,1020.5z"/>
	</g>
	<g>
		<path d="M302.8,1015.6c0,1,0.3,1.8,0.8,2.4c0.5,0.6,1.3,0.8,2.2,0.8c0.9,0,1.7-0.3,2.2-0.8s0.8-1.2,0.8-2.1l0.2,3.1
			c-0.3,0.7-0.8,1.3-1.5,1.8s-1.5,0.7-2.5,0.7c-1.6,0-2.9-0.5-3.8-1.6c-0.9-1-1.3-2.5-1.3-4.4v-9h2.9L302.8,1015.6L302.8,1015.6z
			 M308.8,1006.6h2.9v14.8h-2.9V1006.6z"/>
	</g>
	<g>
		<path d="M316.1,1006.6h2.9v14.8h-2.9V1006.6z M325.1,1012.5c0-1-0.3-1.9-0.8-2.4c-0.5-0.6-1.3-0.9-2.3-0.9c-0.9,0-1.7,0.3-2.2,0.8
			s-0.8,1.2-0.8,2.1l-0.3-2.8c0.5-0.9,1-1.6,1.8-2.1c0.7-0.5,1.5-0.7,2.4-0.7c1.6,0,2.8,0.5,3.7,1.6c0.9,1,1.3,2.5,1.3,4.4v9H325
			L325.1,1012.5L325.1,1012.5z"/>
	</g>
	<g>
		<path d="M333,1020.5c-0.9-0.8-1.4-1.9-1.4-3.4s0.4-2.6,1.2-3.3c0.8-0.7,2.1-1.1,3.7-1.1h4.2l0.2,2.3h-4.4c-0.8,0-1.3,0.2-1.7,0.5
			c-0.4,0.3-0.6,0.9-0.6,1.5c0,0.7,0.2,1.3,0.7,1.7s1.3,0.5,2.3,0.5c1.1,0,1.9-0.1,2.5-0.4s0.8-0.6,0.8-1.1l0.3,2.1
			c-0.3,0.4-0.6,0.7-0.9,1c-0.4,0.3-0.8,0.4-1.3,0.6c-0.5,0.1-1,0.2-1.7,0.2C335.3,1021.6,333.9,1021.2,333,1020.5z M340.7,1012
			c0-1-0.3-1.7-0.8-2.3c-0.5-0.5-1.2-0.8-2.2-0.8c-0.6,0-1.2,0.1-1.7,0.3c-0.6,0.2-1.1,0.4-1.5,0.8l-2.1-1.5
			c0.6-0.7,1.3-1.2,2.2-1.6c0.9-0.4,1.9-0.6,3.1-0.6s2.3,0.2,3.1,0.6c0.9,0.4,1.5,1.1,2,1.9c0.5,0.8,0.7,1.8,0.7,3v9.5h-2.8
			L340.7,1012L340.7,1012z"/>
	</g>
</g>
<g>
	<g>
		<path d="M221.4,1157l-2.8,3.6v0.1l4.4-0.6v2l-4.4-0.5v0.1l2.8,3.5l-1.8,1.1l-1.7-4.1h-0.1l-1.9,4.1l-1.7-1.1l2.8-3.6v-0.1
			l-4.3,0.6v-2l4.3,0.6v-0.1l-2.7-3.6l1.8-1l1.8,4.1h0.1l1.8-4.1L221.4,1157z"/>
	</g>
	<g>
		<path d="M242.4,1178.9c-2.7-0.7-5.2-1.5-7.5-2.3c-0.4-0.1-0.8-0.3-1.2-0.3c-4.7-0.2-8.7-3.6-8.7-9.9s3.8-10.4,9.2-10.4
			c5.3,0,8.8,4.1,8.8,9.9c0,5-2.3,8.3-5.6,9.4v0.1c2,0.5,4.1,1,5.7,1.3L242.4,1178.9z M240.3,1166.1c0-3.9-2-8-6.2-8
			c-4.3,0-6.4,4-6.4,8.2s2.3,7.9,6.2,7.9C238,1174.2,240.3,1170.6,240.3,1166.1z"/>
	</g>
	<g>
		<path d="M251.4,1166.2v-1.7h15v1.7H251.4z M251.4,1171.9v-1.7h15v1.7H251.4z"/>
	</g>
	<g>
		<path d="M292.2,1178.9c-2.7-0.7-5.2-1.5-7.5-2.3c-0.4-0.1-0.8-0.3-1.2-0.3c-4.7-0.2-8.7-3.6-8.7-9.9s3.8-10.4,9.2-10.4
			c5.3,0,8.8,4.1,8.8,9.9c0,5-2.3,8.3-5.6,9.4v0.1c2,0.5,4.1,1,5.7,1.3L292.2,1178.9z M290.1,1166.1c0-3.9-2-8-6.2-8
			c-4.3,0-6.4,4-6.4,8.2s2.3,7.9,6.2,7.9C287.8,1174.2,290.1,1170.6,290.1,1166.1z"/>
	</g>
	<g>
		<path d="M307.8,1172.1c0,1.5,0,2.7,0.1,3.8h-2.3l-0.1-2.3h-0.1c-0.7,1.1-2.2,2.6-4.7,2.6c-2.2,0-4.9-1.2-4.9-6.2v-8.3h2.6v7.8
			c0,2.7,0.8,4.5,3.1,4.5c1.7,0,2.9-1.2,3.4-2.3c0.1-0.4,0.2-0.8,0.2-1.3v-8.7h2.6L307.8,1172.1L307.8,1172.1z"/>
	</g>
	<g>
		<path d="M313.5,1169.4c0.1,3.5,2.3,4.9,4.8,4.9c1.8,0,2.9-0.3,3.9-0.7l0.4,1.8c-0.9,0.4-2.4,0.9-4.7,0.9c-4.3,0-6.9-2.9-6.9-7.1
			c0-4.3,2.5-7.6,6.6-7.6c4.6,0,5.8,4.1,5.8,6.6c0,0.5-0.1,0.9-0.1,1.2L313.5,1169.4L313.5,1169.4z M321,1167.6
			c0-1.6-0.7-4.2-3.6-4.2c-2.6,0-3.7,2.4-3.9,4.2H321z"/>
	</g>
	<g>
		<path d="M326.3,1173.4c0.8,0.5,2.1,1,3.4,1c1.9,0,2.7-0.9,2.7-2.1s-0.7-1.9-2.6-2.6c-2.5-0.9-3.7-2.3-3.7-4c0-2.3,1.8-4.1,4.9-4.1
			c1.4,0,2.7,0.4,3.5,0.9l-0.6,1.9c-0.6-0.3-1.6-0.8-2.9-0.8c-1.5,0-2.4,0.9-2.4,1.9c0,1.2,0.8,1.7,2.7,2.4c2.4,0.9,3.7,2.2,3.7,4.3
			c0,2.5-1.9,4.2-5.3,4.2c-1.5,0-3-0.4-4-1L326.3,1173.4z"/>
	</g>
	<g>
		<path d="M351,1168.8c0,5.2-3.6,7.5-7,7.5c-3.8,0-6.8-2.8-6.8-7.3c0-4.7,3.1-7.5,7-7.5C348.3,1161.6,351,1164.5,351,1168.8z
			 M339.8,1169c0,3.1,1.8,5.4,4.3,5.4c2.4,0,4.3-2.3,4.3-5.5c0-2.4-1.2-5.4-4.2-5.4C341.1,1163.5,339.8,1166.3,339.8,1169z"/>
	</g>
</g>
<g>
	<g>
		<rect x="186.6" y="103.3" class="st2" width="185.7" height="154.7"/>
	</g>
	<g>
		<path class="st3" d="M373.2,259H185.6V102.3h187.6V259z M187.5,257.1h183.8V104.2H187.5V257.1z"/>
	</g>
</g>
<g>
	<g>
		<path d="M235.1,246.9c-1.1-0.6-2-1.5-2.6-2.7s-0.9-2.5-0.9-4v-5.9c0-1.5,0.3-2.9,0.9-4c0.6-1.2,1.5-2,2.6-2.7s2.4-0.9,3.8-0.9
			c1.4,0,2.7,0.3,3.8,0.9c1.1,0.6,2,1.5,2.6,2.7s0.9,2.5,0.9,4v5.9c0,1.5-0.3,2.9-0.9,4c-0.6,1.2-1.5,2-2.6,2.7
			c-1.1,0.6-2.4,0.9-3.8,0.9C237.5,247.8,236.2,247.5,235.1,246.9z M241.2,244.4c0.6-0.4,1.2-0.9,1.5-1.6c0.4-0.7,0.5-1.5,0.5-2.5
			v-6.1c0-0.9-0.2-1.7-0.5-2.5c-0.4-0.7-0.9-1.3-1.5-1.6s-1.4-0.6-2.3-0.6c-0.9,0-1.6,0.2-2.3,0.6c-0.7,0.4-1.2,0.9-1.5,1.6
			c-0.4,0.7-0.5,1.5-0.5,2.5v6.1c0,0.9,0.2,1.7,0.5,2.5c0.4,0.7,0.9,1.3,1.5,1.6c0.6,0.4,1.4,0.6,2.3,0.6
			C239.8,244.9,240.5,244.8,241.2,244.4z M238.9,241.9l1.5-1.9l7.7,6.1l-1.5,1.9L238.9,241.9z"/>
	</g>
	<g>
		<path d="M253.7,241.8c0,1,0.3,1.8,0.8,2.4c0.5,0.6,1.3,0.8,2.2,0.8c0.9,0,1.7-0.3,2.2-0.8s0.8-1.2,0.8-2.1l0.2,3.1
			c-0.3,0.7-0.8,1.3-1.5,1.8s-1.5,0.7-2.5,0.7c-1.6,0-2.9-0.5-3.8-1.6c-0.9-1-1.3-2.5-1.3-4.4v-9h2.9L253.7,241.8L253.7,241.8z
			 M259.7,232.8h2.9v14.8h-2.9V232.8z"/>
	</g>
	<g>
		<path d="M269.6,247c-1-0.5-1.7-1.3-2.2-2.3s-0.8-2.2-0.8-3.6v-1.7c0-1.5,0.2-2.7,0.7-3.7s1.2-1.8,2.1-2.4s2-0.8,3.4-0.8
			c1.2,0,2.3,0.3,3.2,0.9c0.9,0.6,1.5,1.5,2,2.7s0.7,2.6,0.7,4.2v1h-10V239h7.2c-0.1-1.2-0.4-2.1-0.9-2.8s-1.3-1-2.2-1
			c-1.1,0-2,0.4-2.6,1.1c-0.6,0.7-0.9,1.7-0.9,3.1v1.9c0,1.2,0.3,2.2,1,2.8c0.6,0.7,1.6,1,2.7,1c0.6,0,1.2-0.1,1.8-0.4
			c0.6-0.2,1.1-0.6,1.5-1l1.9,1.9c-0.7,0.7-1.6,1.2-2.5,1.6c-0.9,0.4-1.8,0.6-2.7,0.6C271.7,247.8,270.5,247.6,269.6,247z"/>
	</g>
	<g>
		<path d="M285.4,247.6c-0.8-0.2-1.5-0.4-2.1-0.8c-0.7-0.3-1.3-0.8-1.8-1.3l1.7-2.1c0.8,0.6,1.6,1.1,2.4,1.4
			c0.8,0.3,1.6,0.5,2.3,0.5c1.1,0,2-0.2,2.6-0.5c0.6-0.4,0.9-0.9,0.9-1.6c0-0.5-0.2-0.8-0.5-1.1c-0.3-0.2-0.7-0.4-1.2-0.5
			s-1.1-0.2-2-0.2c-0.1,0-0.2,0-0.2,0c-0.1,0-0.2,0-0.2,0h-0.1h-0.1c-1-0.1-1.8-0.2-2.4-0.4c-0.7-0.2-1.2-0.6-1.7-1.1
			c-0.4-0.6-0.7-1.4-0.7-2.4s0.2-1.9,0.6-2.6c0.4-0.7,1.1-1.2,1.9-1.6c0.8-0.3,1.9-0.5,3.2-0.5c0.8,0,1.5,0.1,2.2,0.2
			c0.7,0.1,1.4,0.4,2,0.6c0.6,0.3,1.2,0.6,1.8,1.1l-1.8,2.1c-0.7-0.5-1.5-0.8-2.2-1.1c-0.7-0.2-1.4-0.4-2.1-0.4
			c-1,0-1.7,0.2-2.2,0.5s-0.7,0.8-0.7,1.5c0,0.4,0.1,0.7,0.4,0.9s0.6,0.3,1.1,0.4c0.4,0.1,1,0.1,1.8,0.2c0.1,0,0.1,0,0.2,0
			s0.1,0,0.2,0h0.1h0.1c1,0.1,1.9,0.2,2.6,0.4s1.3,0.6,1.8,1.2c0.5,0.6,0.7,1.5,0.7,2.7c0,1.1-0.2,1.9-0.7,2.6
			c-0.5,0.7-1.1,1.2-2.1,1.6c-0.9,0.4-2.1,0.5-3.5,0.5C287,247.8,286.2,247.7,285.4,247.6z"/>
	</g>
	<g>
		<path d="M300.1,247.1c-0.9-0.5-1.6-1.2-2.1-2.2s-0.7-2.1-0.7-3.5V239c0-1.3,0.2-2.5,0.7-3.4c0.5-1,1.2-1.7,2.1-2.2s2-0.7,3.3-0.7
			s2.4,0.2,3.3,0.7s1.6,1.2,2.1,2.2s0.7,2.1,0.7,3.4v2.4c0,1.3-0.2,2.5-0.7,3.5s-1.2,1.7-2.1,2.2s-2,0.8-3.3,0.8
			S301.1,247.6,300.1,247.1z M305.8,244.1c0.6-0.6,0.8-1.5,0.8-2.7V239c0-1.1-0.3-2-0.8-2.7c-0.6-0.6-1.3-0.9-2.4-0.9
			c-1,0-1.8,0.3-2.4,0.9c-0.6,0.6-0.8,1.5-0.8,2.7v2.4c0,1.1,0.3,2,0.8,2.7c0.6,0.6,1.3,1,2.4,1C304.4,245,305.2,244.7,305.8,244.1z
			"/>
	</g>
</g>
<g>
	<path d="M363.3,207.8H195.5v-1.4c0-0.8,1-83.9,83.9-83.9s83.9,83.1,83.9,83.9V207.8z M198.3,205h162.1
		c-0.4-11.1-5.8-79.7-81.1-79.7S198.7,193.9,198.3,205z"/>
</g>
<g>
	<g>
		<rect x="186.6" y="258" class="st2" width="185.7" height="154.8"/>
	</g>
	<g>
		<path class="st3" d="M373.2,413.7H185.6V257.1h187.6V413.7z M187.5,411.8h183.8V259H187.5V411.8z"/>
	</g>
</g>
<g>
	<g>
		<path d="M234.3,401.6c-1.1-0.6-2-1.5-2.6-2.7s-0.9-2.5-0.9-4V389c0-1.5,0.3-2.9,0.9-4c0.6-1.2,1.5-2,2.6-2.7
			c1.1-0.6,2.4-0.9,3.8-0.9c1.4,0,2.7,0.3,3.8,0.9s2,1.5,2.6,2.7s0.9,2.5,0.9,4v5.9c0,1.5-0.3,2.9-0.9,4s-1.5,2-2.6,2.7
			s-2.4,0.9-3.8,0.9C236.7,402.6,235.4,402.3,234.3,401.6z M240.4,399.1c0.6-0.4,1.2-0.9,1.5-1.6c0.4-0.7,0.5-1.5,0.5-2.5v-6
			c0-0.9-0.2-1.7-0.5-2.5c-0.4-0.7-0.9-1.3-1.5-1.6c-0.6-0.4-1.4-0.6-2.3-0.6c-0.9,0-1.6,0.2-2.3,0.6s-1.2,0.9-1.5,1.6
			c-0.4,0.7-0.5,1.5-0.5,2.5v6.1c0,0.9,0.2,1.7,0.5,2.5c0.4,0.7,0.9,1.3,1.5,1.6c0.6,0.4,1.4,0.6,2.3,0.6
			C239,399.7,239.7,399.5,240.4,399.1z M238.1,396.6l1.5-1.9l7.7,6.1l-1.5,1.9L238.1,396.6z"/>
	</g>
	<g>
		<path d="M260.5,401.8c-1-0.5-1.7-1.2-2.2-2.2s-0.8-2.1-0.8-3.5v-2.4c0-1.3,0.3-2.5,0.8-3.4s1.2-1.7,2.2-2.2s2.1-0.7,3.5-0.7
			c0.8,0,1.5,0.1,2.2,0.3c0.7,0.2,1.3,0.5,1.8,0.8c0.5,0.4,1,0.8,1.4,1.3l-2.1,1.9c-0.4-0.5-0.9-0.8-1.5-1.1
			c-0.6-0.3-1.1-0.4-1.7-0.4c-1.1,0-2,0.3-2.6,0.9s-0.9,1.5-0.9,2.6v2.4c0,1.2,0.3,2.1,0.9,2.7s1.5,1,2.6,1c0.6,0,1.2-0.1,1.8-0.4
			c0.6-0.3,1-0.7,1.5-1.2l2.1,2c-0.4,0.5-0.8,0.9-1.4,1.3c-0.5,0.3-1.2,0.6-1.8,0.8c-0.7,0.2-1.4,0.3-2.2,0.3
			C262.6,402.6,261.4,402.3,260.5,401.8z"/>
	</g>
	<g>
		<path d="M273.1,401.4c-0.9-0.8-1.4-1.9-1.4-3.4s0.4-2.6,1.2-3.3c0.8-0.7,2.1-1.1,3.7-1.1h4.2l0.2,2.3h-4.4c-0.8,0-1.3,0.2-1.7,0.5
			c-0.4,0.3-0.6,0.9-0.6,1.5c0,0.7,0.2,1.3,0.7,1.7c0.5,0.4,1.3,0.5,2.3,0.5c1.1,0,1.9-0.1,2.5-0.4c0.5-0.2,0.8-0.6,0.8-1.1l0.3,2.1
			c-0.3,0.4-0.6,0.7-0.9,1c-0.4,0.3-0.8,0.4-1.3,0.6c-0.5,0.1-1,0.2-1.7,0.2C275.4,402.6,274,402.2,273.1,401.4z M280.8,393
			c0-1-0.3-1.7-0.8-2.3c-0.5-0.5-1.2-0.8-2.2-0.8c-0.6,0-1.2,0.1-1.7,0.3c-0.6,0.2-1.1,0.4-1.5,0.8l-2.1-1.5
			c0.6-0.7,1.3-1.2,2.2-1.6c0.9-0.4,1.9-0.6,3.1-0.6s2.3,0.2,3.1,0.6c0.9,0.4,1.5,1.1,2,1.9s0.7,1.8,0.7,3v9.5h-2.8L280.8,393
			L280.8,393z"/>
	</g>
	<g>
		<path d="M288,387.6h2.9v14.8H288V387.6z M295.2,390.4c-0.4-0.2-0.8-0.2-1.4-0.2c-0.9,0-1.6,0.3-2.1,0.8s-0.8,1.2-0.8,2.1l-0.3-2.8
			c0.5-0.9,1-1.6,1.8-2.1c0.7-0.5,1.5-0.7,2.4-0.7c0.7,0,1.3,0.1,1.8,0.3c0.5,0.2,1,0.5,1.4,0.9l-1.9,2.6
			C295.9,390.8,295.6,390.5,295.2,390.4z"/>
	</g>
	<g>
		<path d="M300.4,387.6h2.9v14.8h-2.9V387.6z M309.4,393.4c0-1-0.3-1.9-0.8-2.4c-0.5-0.6-1.3-0.9-2.3-0.9c-0.9,0-1.7,0.3-2.2,0.8
			s-0.8,1.2-0.8,2.1l-0.3-2.8c0.5-0.9,1-1.6,1.8-2.1c0.7-0.5,1.5-0.7,2.4-0.7c1.6,0,2.8,0.5,3.7,1.6c0.9,1,1.3,2.5,1.3,4.4v9h-2.9
			L309.4,393.4L309.4,393.4z"/>
	</g>
	<g>
		<path d="M319.3,401.8c-1-0.5-1.7-1.3-2.2-2.3s-0.8-2.2-0.8-3.6v-1.7c0-1.5,0.2-2.7,0.7-3.7s1.2-1.8,2.1-2.4c0.9-0.5,2-0.8,3.4-0.8
			c1.2,0,2.3,0.3,3.2,0.9s1.5,1.5,2,2.7s0.7,2.6,0.7,4.2v1h-10v-2.3h7.2c-0.1-1.2-0.4-2.1-0.9-2.8c-0.5-0.7-1.3-1-2.2-1
			c-1.1,0-2,0.4-2.6,1.1s-0.9,1.7-0.9,3.1v1.9c0,1.2,0.3,2.2,1,2.8c0.6,0.7,1.6,1,2.7,1c0.6,0,1.2-0.1,1.8-0.4
			c0.6-0.2,1.1-0.6,1.5-1l1.9,1.9c-0.7,0.7-1.6,1.2-2.5,1.6s-1.8,0.6-2.7,0.6C321.4,402.6,320.2,402.3,319.3,401.8z"/>
	</g>
</g>
<g>
	<g>
		<g>
			<g>
				<rect x="228" y="800.1" width="2.8" height="25.4"/>
			</g>
		</g>
	</g>
	<g>
		<g>
			<g>
				<rect x="236.4" y="800.1" width="2.8" height="25.4"/>
			</g>
		</g>
	</g>
	<g>
		<g>
			<g>
				<rect x="244.9" y="800.1" width="2.8" height="25.4"/>
			</g>
		</g>
	</g>
	<g>
		<g>
			<g>
				<rect x="301.2" y="800.1" width="2.8" height="25.4"/>
			</g>
		</g>
	</g>
	<g>
		<g>
			<g>
				<rect x="309.6" y="800.1" width="2.8" height="25.4"/>
			</g>
		</g>
	</g>
	<g>
		<g>
			<g>
				<rect x="318.1" y="800.1" width="2.8" height="25.4"/>
			</g>
		</g>
	</g>
	<g>
		<g>
			<g>
				<g>
					<path d="M348.2,817.1H328v-2.8h17.4c-0.4-10.2-5.5-69.7-71-69.7s-70.6,59.4-71,69.7h17.4v2.8h-20.2v-1.4
						c0-0.7,0.8-73.9,73.9-73.9s73.9,73.1,73.9,73.9v1.4H348.2z"/>
				</g>
			</g>
		</g>
		<g>
			<g>
				<g>
					<rect x="254.8" y="814.3" width="39.2" height="2.8"/>
				</g>
			</g>
		</g>
	</g>
</g>
<g>
	<g>
		<g>
			<g>
				<rect x="268.4" y="265.9" width="2.8" height="28.9"/>
			</g>
		</g>
		<g>
			<g>
				<rect x="278" y="265.9" width="2.8" height="28.9"/>
			</g>
		</g>
		<g>
			<g>
				<rect x="287.7" y="265.9" width="2.8" height="28.9"/>
			</g>
		</g>
	</g>
	<g>
		<g>
			<g>
				<path d="M363.3,362.5H195.6v-1.4c0-0.7,0.7-70.3,64.2-82.1l0.5,2.7c-56.3,10.5-61.4,68.2-61.9,78h162c-0.5-9.8-5.6-67.5-61.9-78
					l0.5-2.7c63.5,11.9,64.2,81.4,64.2,82.1L363.3,362.5L363.3,362.5z"/>
			</g>
		</g>
	</g>
</g>
<g>
	<g>
		<g>
			<rect x="310.2" y="500.2" width="2.8" height="28.9"/>
		</g>
	</g>
	<g>
		<g>
			<rect x="319.8" y="500.2" width="2.8" height="28.9"/>
		</g>
	</g>
	<g>
		<g>
			<rect x="329.5" y="500.2" width="2.8" height="28.9"/>
		</g>
	</g>
	<g>
		<g>
			<g>
				<path d="M363.3,517.2h-22.8v-2.8h20c-0.4-11.1-5.8-79.7-81-79.7s-80.7,68.6-81,79.7h103.3v2.8H195.6v-1.4
					c0-0.8,1-83.9,83.9-83.9s83.9,83,83.9,83.9v1.4H363.3z"/>
			</g>
		</g>
	</g>
</g>
<g>
	<g>
		<rect x="324" y="920.4" transform="matrix(0.7668 -0.6418 0.6418 0.7668 -512.725 432.1643)" width="29" height="2.8"/>
	</g>
</g>
<g>
	<g>
		<rect x="317.8" y="913" transform="matrix(0.7668 -0.6418 0.6418 0.7668 -509.3762 426.4978)" width="29" height="2.8"/>
	</g>
</g>
<g>
	<g>
		<rect x="311.6" y="905.5" transform="matrix(0.7668 -0.6418 0.6418 0.7668 -506.0468 420.7309)" width="28.9" height="2.8"/>
	</g>
</g>
<g>
	<g>
		<g>
			<path d="M363.3,981.7h-168v-1.4c0-0.8,1-84,84-84c14.2,0,27,2.5,37.9,7.3l-1.1,2.6c-10.6-4.7-22.9-7.1-36.7-7.1
				c-75.4,0-80.8,68.7-81.2,79.8h162.4c-0.3-5.8-2.1-28.3-15-47.8l2.3-1.5c15.3,23.2,15.5,49.6,15.5,50.7L363.3,981.7L363.3,981.7z"
				/>
		</g>
	</g>
</g>
<g>
	<g>
		<g>
			<g>
				<rect x="310.2" y="654.8" width="2.8" height="28.9"/>
			</g>
		</g>
	</g>
	<g>
		<g>
			<g>
				<rect x="319.8" y="654.8" width="2.8" height="28.9"/>
			</g>
		</g>
	</g>
	<g>
		<g>
			<g>
				<rect x="329.5" y="654.8" width="2.8" height="28.9"/>
			</g>
		</g>
	</g>
</g>
<g>
	<g>
		<g>
			<rect x="268.5" y="576.1" width="2.8" height="28.9"/>
		</g>
	</g>
</g>
<g>
	<g>
		<g>
			<rect x="278.1" y="576.1" width="2.8" height="28.9"/>
		</g>
	</g>
</g>
<g>
	<g>
		<g>
			<rect x="287.8" y="576.1" width="2.8" height="28.9"/>
		</g>
	</g>
</g>
<g>
	<g>
		<g>
			<g>
				<path d="M301.8,672.7H195.6v-1.4c0-0.7,0.7-70.3,64.2-82.1l0.5,2.7c-56.3,10.5-61.4,68.2-61.9,78h103.4V672.7z"/>
			</g>
		</g>
	</g>
	<g>
		<g>
			<g>
				<path d="M363.3,672.7h-22.8v-2.8h19.9c-0.5-9.8-5.6-67.5-61.9-78l0.5-2.7c63.5,11.9,64.2,81.4,64.2,82.1L363.3,672.7
					L363.3,672.7z"/>
			</g>
		</g>
	</g>
</g>
</svg>
