<?xml version="1.0" encoding="utf-8"?>
<!-- Generator: Adobe Illustrator 25.1.0, SVG Export Plug-In . SVG Version: 6.00 Build 0)  -->
<svg version="1.1" id="Capa_1" xmlns="http://www.w3.org/2000/svg" xmlns:xlink="http://www.w3.org/1999/xlink" x="0px" y="0px"
	 viewBox="0 0 263.3 164.74" style="enable-background:new 0 0 263.3 164.74;" xml:space="preserve">
<style type="text/css">
	.st0{fill:#F7F7F7;stroke:#23171B;stroke-width:3;stroke-miterlimit:10;}
</style>
<g>
	<path class="st0" d="M242.07,163.24h-24.55c-4.88,0-8.84-3.96-8.84-8.84V91.53c0-4.88,3.96-8.84,8.84-8.84h24.55
		c4.88,0,8.84,3.96,8.84,8.84v62.87C250.91,159.28,246.95,163.24,242.07,163.24z"/>
	<path class="st0" d="M99.8,46.71c0,3.38,0.19,24.48,0.19,24.48c-3.78,9.38-8.28,18.76-19.01,18.76c-9.52,0-18.07-5.29-20.59-14.77
		c-3.23,0.47-7.59-1.86-8.14-9.57c0-14.11,14.62-26.75,28.73-26.75S99.8,32.6,99.8,46.71z"/>
	<path class="st0" d="M254.71,57.81c0,3.33-4.24,7.33-8.57,5.34c-1.52,10.71-8.42,15.64-20.78,15.75
		c-12.65,0.12-17.25-6.88-20.52-14.7l-0.4-18.99c0-14.11,6.82-17.4,20.92-17.4c7.94,0,22.47-9.26,28.3-1.9
		C258.2,31.64,255.54,49.46,254.71,57.81z"/>
	<rect x="125.11" y="91.55" class="st0" width="81.01" height="60.2"/>
	<rect x="125.11" y="91.55" class="st0" width="65.32" height="60.2"/>
	<polyline class="st0" points="213.6,82.79 213.6,113.97 239.9,113.97 239.9,82.79 	"/>
	<path class="st0" d="M232.34,77.93v4.5c0,6.98-10.69,6.38-10.69,0v-3.8C225.34,79.14,228.91,78.92,232.34,77.93z"/>
	<path class="st0" d="M243.1,89.47c0,0,10.89,20.17,8.81,32.18c-2.08,12.01-20.01,19.05-29.62,20.01
		c-9.61,0.96-10.89,0.8-19.21,0.96c-8.33,0.16-9.29,9.13-0.96,9.13c5.44,0.96,14.41,0.64,21.77-0.64s35.06-6.24,37.62-29.46
		c2.56-23.21-12.65-39.7-12.65-39.7C244.54,79.71,239.9,84.99,243.1,89.47z"/>
	<path class="st0" d="M93.67,159.12h-35.1c-2.6,0-4.71-2.11-4.71-4.71V96.26c0-2.6,2.11-4.71,4.71-4.71h35.1
		c2.6,0,4.71,2.11,4.71,4.71v58.15C98.37,157.01,96.27,159.12,93.67,159.12z"/>
	<polygon class="st0" points="98.37,93.64 125.11,105.8 125.11,116.86 98.37,105.25 	"/>
	<path class="st0" d="M74.08,89l0,2.55h10.2l0-1.81C80.85,90.26,77.44,90.07,74.08,89z"/>
	<path class="st0" d="M67.6,91.55c0,0-1.2,11.81,10.57,11.13C90.57,102,89.93,91.55,89.93,91.55H67.6z"/>
	<polygon class="st0" points="208.68,87.44 206.12,91.55 206.12,102.71 208.68,102.71 	"/>
	<path class="st0" d="M213.89,64.2h17.64c0,0-1,9.72-8.96,8.96C214.61,72.39,213.89,64.2,213.89,64.2z"/>
	<ellipse class="st0" cx="221.14" cy="57.81" rx="1.57" ry="2.61"/>
	<ellipse class="st0" cx="231.2" cy="54.88" rx="2.25" ry="3.74"/>
	<ellipse class="st0" cx="212" cy="54.88" rx="2.25" ry="3.74"/>
	<path class="st0" d="M208.53,48.99c0.04-0.11,5.07-1.61,8.07,0"/>
	<path class="st0" d="M228.2,48.99c0.04-0.11,5.07-1.61,8.07,0"/>
	<path class="st0" d="M215.33,35.96c-0.12-0.12-7.69,5.88-17.29,5.28c-0.24-10.09,6.41-14.53,6.41-14.53l48.35-3.64
		c0,0,6.24,10.48,2.65,27.91c0,0-1.93-5.06-6.9-5.06c-1.16,5.22-5.24,9.85-5.24,9.85l-0.48-18.73c-9.6,4.53-18.94,6.69-27.98,6
		C215.34,39.75,216.06,37.11,215.33,35.96z"/>
	<path class="st0" d="M201,28.16h55.65c0,0-7.99-28.09-29.45-26.6S201,28.16,201,28.16z"/>
	<path class="st0" d="M197.23,30.24h48.83c0,0-7.01-10.57-25.84-10.01C201.4,20.79,197.23,30.24,197.23,30.24z"/>
	<path class="st0" d="M71.17,72.78h20.09c0,0,0.7,9.3-9.3,9.3S71.17,72.78,71.17,72.78z"/>
	<path class="st0" d="M87.68,62.11c0.47-5.22,7.63-4.75,8.25,0"/>
	<path class="st0" d="M70.01,62.11c0.47-5.22,7.63-4.75,8.25,0"/>
	<path class="st0" d="M103.18,12.79c6.61,14.97,4.95,27.15-3.18,37.14l-0.23-5.29l-7.96,4.35l-0.53-4.51l-8.1,5.44l-9.03-4.64
		l-0.05,5.7l-9.17-3.62v19.05c0,0-7.38-12.1-12.66-7.04c-1.71-5.29-7.03-27.38,5.46-33.46c8.37-0.68,32.22-11.48,35.22-16.33
		l3,13.49C96.54,19.35,98.64,15.87,103.18,12.79z"/>
	<path class="st0" d="M27.77,77.43l32.02,16.21l-3.52,11.61L18.49,82.79L1.52,32.32c-0.43-5.15,7.78-7.36,9.29,0
		c4.36-2.61,7.53,0.24,2.56,3.52L27.77,77.43z"/>
	<polygon class="st0" points="4.38,44.94 16.95,41.92 14.82,34.68 2.55,39.04 	"/>
</g>
</svg>
