<?xml version="1.0" encoding="utf-8"?>
<!-- Generator: Adobe Illustrator 24.3.0, SVG Export Plug-In . SVG Version: 6.00 Build 0)  -->
<svg version="1.1" id="Capa_1" xmlns="http://www.w3.org/2000/svg" xmlns:xlink="http://www.w3.org/1999/xlink" x="0px" y="0px"
	 viewBox="0 0 404.6 196.9" style="enable-background:new 0 0 404.6 196.9;" xml:space="preserve">
<style type="text/css">
	.st0{fill:#FFFFFF;stroke:#3F3F3F;stroke-width:5;stroke-miterlimit:10;}
	.st1{fill:none;stroke:#3F3F3F;stroke-width:5;stroke-miterlimit:10;}
	.st2{fill:none;stroke:#3F3F3F;stroke-width:5;stroke-linecap:round;stroke-miterlimit:10;}
	.st3{fill:#3F3F3F;stroke:#FFFFFF;stroke-width:5;stroke-miterlimit:10;}
</style>
<path class="st0" d="M390.7,148.8h-90.4V25.4h41.7c10.1,0,19.3,5.8,23.7,14.8l21.5,49.3c2.2,5.2,3.4,10.7,3.4,16.3V148.8z"/>
<path class="st0" d="M300.4,148.8H102.9V21.9c0-10.7,8.7-19.4,19.4-19.4H281c10.7,0,19.4,8.7,19.4,19.4V148.8z"/>
<path class="st0" d="M389.9,173.1H115.1c-6.7,0-12.2-5.4-12.2-12.2v-12.2h287c6.7,0,12.2,5.4,12.2,12.2v0
	C402.1,167.7,396.6,173.1,389.9,173.1z"/>
<circle class="st0" cx="163.2" cy="169.1" r="25.3"/>
<circle class="st0" cx="339.5" cy="169.1" r="25.3"/>
<circle class="st0" cx="339.5" cy="169.1" r="12.5"/>
<circle class="st0" cx="163.2" cy="169.1" r="12.5"/>
<path class="st1" d="M372.2,103.2h-53.7c-2.6,0-4.7-2.1-4.7-4.7V44.6c0-2.6,2.1-4.7,4.7-4.7h27.9c1.9,0,3.6,1.1,4.3,2.8l24.5,56
	C376.1,100.8,374.5,103.2,372.2,103.2z"/>
<line class="st2" x1="309.4" y1="115.5" x2="324.8" y2="115.5"/>
<path class="st3" d="M138.7,102H67.1c-3.2,0-5.8-2.6-5.8-5.8v0c0-3.2,2.6-5.8,5.8-5.8h71.7c3.2,0,5.8,2.6,5.8,5.8v0
	C144.5,99.4,141.9,102,138.7,102z"/>
<path class="st3" d="M138.7,72.3H50.3c-3.2,0-5.8-2.6-5.8-5.8v0c0-3.2,2.6-5.8,5.8-5.8h88.4c3.2,0,5.8,2.6,5.8,5.8v0
	C144.5,69.7,141.9,72.3,138.7,72.3z"/>
<path class="st3" d="M138.7,42.6H32.5c-3.2,0-5.8-2.6-5.8-5.8v0c0-3.2,2.6-5.8,5.8-5.8h106.3c3.2,0,5.8,2.6,5.8,5.8v0
	C144.5,40,141.9,42.6,138.7,42.6z"/>
</svg>
