<?xml version="1.0" encoding="utf-8"?>
<!-- Generator: Adobe Illustrator 25.0.0, SVG Export Plug-In . SVG Version: 6.00 Build 0)  -->
<svg version="1.1" id="Capa_1" xmlns="http://www.w3.org/2000/svg" xmlns:xlink="http://www.w3.org/1999/xlink" x="0px" y="0px"
	 viewBox="0 0 100 50.8" style="enable-background:new 0 0 100 50.8;" xml:space="preserve">
<style type="text/css">
	.st0{fill:#23171B;}
</style>
<g>
	
		<rect x="76.5" y="14.2" transform="matrix(0.7633 -0.6461 0.6461 0.7633 10.4513 58.5355)" class="st0" width="17.1" height="1.7"/>
</g>
<g>
	<rect x="72.9" y="9.9" transform="matrix(0.7745 -0.6326 0.6326 0.7745 11.6086 53.9357)" class="st0" width="17.2" height="1.7"/>
</g>
<g>
	<rect x="69.3" y="5.4" transform="matrix(0.7698 -0.6383 0.6383 0.7698 13.9137 51.0946)" class="st0" width="17" height="1.7"/>
</g>
<g>
	<g>
		<path class="st0" d="M100,50.8H0V50C0,49.5,0.6,0,50,0c8.5,0,16.1,1.4,22.5,4.3l-0.7,1.5C65.6,3.1,58.3,1.7,50,1.7
			C5.1,1.7,1.9,42.6,1.7,49.2h96.6c-0.2-3.4-1.3-16.8-8.9-28.4l1.4-0.9C99.9,33.6,100,49.3,100,50V50.8z"/>
	</g>
</g>
</svg>
