<?xml version="1.0" encoding="utf-8"?>
<!-- Generator: Adobe Illustrator 24.3.0, SVG Export Plug-In . SVG Version: 6.00 Build 0)  -->
<svg version="1.1" id="Capa_1" xmlns="http://www.w3.org/2000/svg" xmlns:xlink="http://www.w3.org/1999/xlink" x="0px" y="0px"
	 viewBox="0 0 100 56.9" style="enable-background:new 0 0 100 56.9;" xml:space="preserve">
<style type="text/css">
	.st0{fill:#FFFFFF;}
</style>
<g>
	<g>
		<rect x="18.4" y="39.5" class="st0" width="1.9" height="17.4"/>
	</g>
	<g>
		<rect x="24.2" y="39.5" class="st0" width="1.9" height="17.4"/>
	</g>
	<g>
		<rect x="30" y="39.5" class="st0" width="1.9" height="17.4"/>
	</g>
	<g>
		<rect x="68.1" y="39.5" class="st0" width="1.9" height="17.4"/>
	</g>
	<g>
		<rect x="73.9" y="39.5" class="st0" width="1.9" height="17.4"/>
	</g>
	<g>
		<rect x="79.7" y="39.5" class="st0" width="1.9" height="17.4"/>
	</g>
	<g>
		<g>
			<path class="st0" d="M100,51.1H86.2v-1.9h11.9c-0.3-6.9-3.7-47.3-48.2-47.3C35.6,1.9,24.2,6.1,16,14.4
				C3.6,26.8,2.1,44.9,1.9,49.2h11.9v1.9H0v-0.9c0-1,0.1-22.5,14.7-37.2C23.3,4.4,35.1,0,49.9,0C99.4,0,100,49.6,100,50.1V51.1z"/>
		</g>
		<g>
			<rect x="36.8" y="49.2" class="st0" width="26.5" height="1.9"/>
		</g>
	</g>
</g>
</svg>
