<?xml version="1.0" encoding="UTF-8"?><svg id="a" xmlns="http://www.w3.org/2000/svg" viewBox="0 0 651.31 643.62"><defs><style>.b,.c{fill:#fff;}.d{fill:#a57287;}.e{fill:#d0edf7;}.f{fill:#414973;}.g{fill:#3d2c32;}.c{opacity:.31;}</style></defs><rect class="g" x="16.69" y="142.6" width="620.09" height="501.02"/><path class="d" d="M0,142.6v151.66c0,16.35,13.25,29.6,29.6,29.6s29.61-13.25,29.61-29.6V142.6H0Z"/><path class="b" d="M59.21,142.6v151.66c0,16.35,13.25,29.6,29.6,29.6s29.61-13.25,29.61-29.6V142.6H59.21Z"/><path class="d" d="M118.42,142.6v151.66c0,16.35,13.25,29.6,29.6,29.6s29.61-13.25,29.61-29.6V142.6h-59.21Z"/><path class="b" d="M177.63,142.6v151.66c0,16.35,13.25,29.6,29.6,29.6s29.61-13.25,29.61-29.6V142.6h-59.21Z"/><path class="d" d="M236.84,142.6v151.66c0,16.35,13.25,29.6,29.6,29.6s29.61-13.25,29.61-29.6V142.6h-59.21Z"/><path class="b" d="M296.05,142.6v151.66c0,16.35,13.25,29.6,29.6,29.6s29.61-13.25,29.61-29.6V142.6h-59.21Z"/><path class="d" d="M355.26,142.6v151.66c0,16.35,13.25,29.6,29.6,29.6s29.61-13.25,29.61-29.6V142.6h-59.21Z"/><path class="b" d="M414.47,142.6v151.66c0,16.35,13.25,29.6,29.6,29.6s29.61-13.25,29.61-29.6V142.6h-59.21Z"/><path class="d" d="M473.68,142.6v151.66c0,16.35,13.25,29.6,29.6,29.6s29.61-13.25,29.61-29.6V142.6h-59.21Z"/><path class="b" d="M532.89,142.6v151.66c0,16.35,13.25,29.6,29.6,29.6s29.61-13.25,29.61-29.6V142.6h-59.21Z"/><path class="d" d="M592.1,142.6v151.66c0,16.35,13.25,29.6,29.6,29.6s29.61-13.25,29.61-29.6V142.6h-59.21Z"/><rect class="e" x="216.39" y="350.21" width="100.32" height="293.41"/><rect class="e" x="316.7" y="350.21" width="100.32" height="293.41"/><rect class="g" x="327.47" y="489.39" width="8.46" height="39.38" rx="2.44" ry="2.44"/><rect class="g" x="72.4" width="506.51" height="128.48"/><g><path class="b" d="M204.09,77.39c-.73,.51-1.21,.78-1.62,1.13-4.37,3.69-9.29,6.32-14.96,7.26-6.47,1.07-12.32-.18-16.45-5.68-3.23-4.3-4.15-9.15-2.44-14.43,2.51-7.75,7.87-12.74,15.12-15.94,.99-.44,2.07-.67,3.12-.97,1-.29,1.4-.7,1.08-1.91-.45-1.67-1.29-2.5-3.02-2.84-2.57-.52-4.94-1.62-6.83-3.52-3.44-3.46-2.97-8.53,.83-11.59,3.33-2.69,7.14-2.79,11.07-2.61,.49,.02,1.14,.22,1.4,.56,.38,.52,.71,1.3,.61,1.88-.06,.34-1.04,.8-1.55,.73-2.23-.26-4.38-.58-6.56,.49-3.89,1.92-4.57,6.33-1.31,9.19,.43,.37,.92,.68,1.42,.96,2.95,1.62,2.9,1.59,4.27-1.38,2.01-4.34,5.47-7.36,9.6-9.47,5.23-2.68,10.84-3.79,16.76-2.93,2.49,.36,4.78,1.02,5.75,3.59,1.01,2.67-.08,5.01-1.76,7.05-2.31,2.81-5.4,4.55-8.78,5.69-4.55,1.54-9.2,2.59-14.05,2.43-.31-.01-.65,0-.92,.13-.25,.11-.44,.37-.66,.56,.24,.23,.46,.65,.71,.67,.98,.06,1.97-.02,2.95-.03,2.21-.02,4.48-.45,6.52,.87,1.04,.67,2.29,1.45,1.86,2.73-.37,1.08-1.36,2.32-2.39,2.73-3.55,1.43-7.23,1.07-10.54-.7-2.39-1.28-4.29-1.11-6.51,.26-5.57,3.43-9.12,8.23-9.86,14.73-.73,6.45,2.65,13.02,11.57,12.46,1.54-.09,3.11-.4,4.58-.87,5.69-1.78,10.55-4.92,14.29-9.57,1.48-1.85,2.59-4.01,3.76-6.09,4.92-8.72,9.8-17.46,14.68-26.21,.32-.58,.7-1.27,.66-1.88-.15-1.84,.81-2.31,2.39-2.39,1.45-.07,2.89-.29,4.34-.44,1.08-.12,1.6,.46,1.53,1.46-.05,.76-.18,1.57-.53,2.24-2.27,4.32-4.61,8.6-6.92,12.9-4.86,9.05-9.73,18.11-14.56,27.18-.55,1.04-1.02,2.15-1.31,3.29-.29,1.13,.48,1.65,1.44,1.2,1.15-.54,2.28-1.26,3.21-2.12,3.29-3.03,5.56-6.84,7.77-10.67,.36-.63,.72-1.28,1.19-1.82,.22-.25,.69-.28,1.05-.41,.12,.37,.31,.73,.34,1.11,.02,.28-.13,.62-.3,.87-3.04,4.32-5.93,8.78-9.24,12.89-1.47,1.82-3.72,3.13-5.82,4.31-3.78,2.13-6.91,.18-6.95-4.14,0-.87,0-1.73,0-2.94Zm-9.57-35.93c.16,.23,.33,.45,.49,.67,1.46-.13,2.94-.17,4.39-.39,5.27-.79,10.12-2.58,14.1-6.3,1.42-1.33,2.41-2.87,1.59-4.82-.82-1.95-2.73-1.88-4.44-1.73-5.37,.47-9.51,3.4-13.01,7.19-1.37,1.49-2.1,3.56-3.13,5.37Zm4.91,8.55c-1.14-1.07-1.83-1.08-3.03,0h3.03Z"/><path class="b" d="M296.23,55.46c.39,.61,.61,1.01,.88,1.35,2.45,3.1,2.56,6.43,1.07,9.97-1.15,2.72-2.25,5.46-3.34,8.21-.21,.52-.36,1.09-.41,1.65-.15,1.66,.68,2.52,2.33,2.19,2.66-.54,4.7-2.21,6.39-4.2,1.67-1.97,3.05-4.18,4.59-6.28,.58-.79,1.2-1.57,1.86-2.29,.19-.21,.71-.39,.89-.28,.24,.15,.36,.59,.38,.92,.02,.28-.11,.62-.27,.86-3.06,4.51-5.93,9.18-10.12,12.77-2.08,1.78-4.42,3.07-7.16,3.58-3.26,.61-7.07-1.46-7.02-5.86,.04-3.68,1.43-6.73,3.14-9.78,1.34-2.4,2.66-4.82,3.93-7.26,.3-.58,.49-1.26,.57-1.92,.32-2.79,.23-2.83-2.53-3.4-.48-.1-.86-.72-1.28-1.1,.41-.38,.77-.97,1.25-1.1,2.5-.66,5.15-.89,7.52-1.84,5.95-2.36,9.45-6.93,10.65-13.19,1.01-5.26-3.05-10.32-8.84-10.87-8.54-.82-16.26,1.5-23.13,6.6-3.94,2.92-7.28,6.42-8.9,11.15-.69,2.02-1,4.26-.99,6.4,.02,3.24,2.95,5.11,6.02,3.97,1.2-.44,2.25-1.27,3.4-1.85,.44-.23,.99-.24,1.49-.36-.05,.48,.08,1.11-.17,1.43-2.51,3.13-5.44,5.86-9.56,6.46-4.52,.66-7.66-2.3-8-7.23-.39-5.54,1.69-10.27,5.05-14.5,5.33-6.72,12.43-10.7,20.5-13.19,6.06-1.87,12.21-2.47,18.46-1.21,4.73,.96,8.78,2.95,10.69,7.81,2.18,5.58,.64,10.4-3.16,14.66-3.69,4.14-8.56,6.1-13.86,7.22-.66,.12-1.31,.27-2.3,.48Z"/><path class="b" d="M252.23,85.61c-2.89-.11-5.74-.52-7.86-2.91-1.66-1.88-2.29-4.04-1.59-6.5,.51-1.76,1.7-2.83,3.5-3.15,1.6-.28,2.97,.35,3.73,1.7,.86,1.51,.9,3.14-.22,4.69-1.03,1.43-.9,2.13,.55,3.09,1.79,1.19,3.78,1.03,5.72,.55,4.34-1.08,7.51-3.93,10.31-7.19,4.56-5.31,7.54-11.65,11.21-17.55,3.51-5.64,6.77-11.46,10.58-16.89,3.72-5.3,8.94-8.74,15.38-10.1,.55-.12,1.17-.2,1.69-.06,.36,.09,.76,.57,.85,.94,.06,.25-.31,.81-.6,.91-6.03,2.05-8.39,7.42-11.21,12.35-4.58,8.02-8.87,16.22-13.73,24.07-3.52,5.68-8.54,10.08-14.65,12.94-4.27,1.99-8.85,2.97-13.66,3.12Z"/><path class="b" d="M335.24,62.16c-1.34-.77-1.52-1.56-.36-2.45,2.21-1.7,4.4-3.42,6.68-5.03,.65-.46,1.53-.65,2.33-.79,2.12-.39,2.9,.44,2.49,2.58-.25,1.32-.57,2.63-.84,3.96-.03,.12,.07,.27,.16,.57,1.93-1.71,3.68-3.46,5.65-4.93,1.34-1,2.9-1.84,4.5-2.33,2.28-.7,3.51,.37,3.5,2.74,0,1.08-.21,2.15-.36,3.6,1.18-1.09,2.06-2.09,3.12-2.82,1.9-1.32,3.8-2.72,5.9-3.65,2.33-1.03,4.56,.59,4.34,3.15-.21,2.46-.87,4.89-1.48,7.3-1.15,4.52-2.42,9.02-3.58,13.54-.13,.48,.13,1.07,.2,1.6,.58-.09,1.29,0,1.72-.3,1.13-.81,2.11-1.84,3.23-2.68,.29-.22,1.02-.26,1.26-.05s.34,1.07,.14,1.24c-2.2,1.96-4.35,4-6.75,5.71-3.09,2.19-5.15-.47-5.07-2.99,.07-2.11,.37-4.25,.88-6.31,.8-3.28,1.88-6.48,2.79-9.73,.39-1.4,.71-2.82,.9-4.26,.19-1.37-.53-1.92-1.75-1.29-3.18,1.65-5.94,3.93-7.02,7.39-1.53,4.89-2.71,9.9-3.82,14.91-.37,1.65-.97,2.24-2.61,2.19-2.98-.09-3-.03-2.3-3.01,1.44-6.22,2.93-12.43,4.33-18.66,.19-.85,.02-1.78,0-2.68-.94,.3-1.99,.41-2.8,.92-4.99,3.14-6.84,8.12-7.83,13.6-.5,2.76-1.15,5.49-1.66,8.25-.25,1.32-.91,1.79-2.25,1.73-3.08-.13-3.56,.81-2.66-3.28,1.44-6.49,2.83-12.98,4.2-19.49,.12-.54-.07-1.14-.12-1.71-.57,.2-1.22,.29-1.67,.64-1.15,.86-2.23,1.85-3.39,2.85Z"/><path class="b" d="M416.91,60.35c2.58-2.12,4.81-4.04,7.15-5.83,1.06-.81,2.27-1.51,3.51-1.97,2.95-1.1,5.1,.46,4.74,3.58-.27,2.35-.98,4.66-1.59,6.96-1.04,3.96-2.22,7.89-3.21,11.87-.24,.97,.05,2.08,.09,3.12,.93-.47,1.94-.84,2.79-1.44,.88-.62,1.56-1.53,2.41-2.2,.3-.24,1.17-.32,1.24-.18,.23,.42,.46,1.21,.24,1.45-2.49,2.73-5.11,5.37-8.69,6.67-1.92,.7-3.77-.8-3.68-3.19,.09-2.37,.48-4.76,1.04-7.06,1.03-4.24,2.3-8.41,3.4-12.63,.15-.58,.11-1.56-.24-1.82-.41-.3-1.36-.2-1.89,.07-4.55,2.38-7.99,5.72-9.14,10.95-.87,3.95-1.77,7.9-2.63,11.85-.2,.91-.64,1.33-1.61,1.28-.88-.05-1.77-.02-2.65,.05-1.03,.07-1.28-.37-1.06-1.32,1.22-5.26,2.42-10.52,3.63-15.78,.46-1.97,.96-3.94,1.35-5.92,.1-.5-.14-1.06-.22-1.59-.52,.16-1.14,.2-1.54,.51-1.1,.86-2.08,1.88-3.17,2.74-.3,.24-1.12,.38-1.21,.24-.26-.39-.52-1.19-.32-1.41,2.68-2.92,5.43-5.77,9.45-6.82,1.98-.52,3.48,.23,2.75,2.69-.46,1.58-.62,3.24-.97,5.12Z"/><path class="b" d="M401.71,52.2c-.29,1.13-.6,2.25-.87,3.38-1.63,6.86-3.27,13.73-4.86,20.6-.13,.54,.11,1.15,.17,1.73,.64-.12,1.39-.05,1.9-.38,1.13-.72,2.1-1.68,3.22-2.45,.36-.25,.94-.17,1.42-.25,0,.58,.23,1.46-.06,1.7-2.48,2.03-4.96,4.07-7.62,5.85-1.26,.84-3.05,1.38-4.4,.28-1.3-1.06-.4-2.61-.08-3.94,.12-.49,.25-.98,.48-1.87-1.71,1.42-3.05,2.66-4.53,3.73-1.3,.93-2.68,1.8-4.13,2.43-2.69,1.15-5.09-.06-6.02-2.84-1.07-3.18-.57-6.35,.44-9.34,1.73-5.14,4.68-9.55,8.73-13.26,3.42-3.14,7.46-4.09,11.9-4.15,.57,0,1.15-.42,1.71-.66,.73-.31,1.46-.64,2.19-.97,.14,.14,.28,.28,.42,.41Zm-20.53,21.56c0,.26,0,.52,0,.78,.08,3.61,1.88,4.65,5.04,2.92,2.48-1.36,4.24-3.44,5.1-6.06,1.28-3.88,2.24-7.88,3.34-11.82,.32-1.13-.1-1.65-1.26-1.73-3.44-.24-6.26,.91-8.2,3.79-2.45,3.65-3.92,7.66-4.02,12.11Z"/><path class="b" d="M483.54,62.03c-.57,8.66-4.68,15.19-12.48,18.84-5.79,2.71-11.37-.37-12.2-6.56-1.1-8.19,4.34-18.64,11.48-21.9,7.2-3.29,13.11,.47,13.2,8.37,0,.42,0,.83,0,1.25Zm-18.79,6.21c.11,1.81,.06,3.65,.38,5.42,.37,2.02,1.1,4.01,3.36,4.67,2.08,.6,3.59-.57,4.92-1.96,3.77-3.96,5.34-14.65,2.88-19.55-1.11-2.21-3.34-2.94-5.49-1.68-.79,.46-1.49,1.12-2.09,1.82-2.79,3.23-3.73,7.11-3.96,11.28Z"/><path class="b" d="M310.45,76.36c.93-7.78,3.44-15.25,10.31-20.44,1.4-1.05,3.4-1.48,5.19-1.81,2-.36,3.86,.3,4.94,2.2,1.11,1.97,.9,4.02-.1,5.97-1.6,3.12-4.46,4.86-7.36,6.5-1.81,1.02-3.7,1.89-5.59,2.76-.91,.41-1.41,.99-1.38,2.01,.04,1.09-.04,2.18,.04,3.27,.16,2.16,1.4,3.11,3.5,2.46,1.42-.44,2.78-1.14,4.08-1.88,1.26-.72,2.37-1.69,3.63-2.42,.34-.19,1.21-.08,1.37,.18,.26,.4,.36,1.31,.1,1.57-3.07,2.98-6.26,5.87-10.43,7.18-4.9,1.54-7.43-.17-8.14-5.25-.09-.61-.09-1.24-.16-2.3Zm6.76-7.27c.42-.1,.7-.09,.88-.22,2.3-1.65,4.66-3.24,6.86-5.03,.69-.57,1.29-1.65,1.33-2.52,.05-1.09-.24-2.47-.93-3.21-.49-.52-1.95-.37-2.88-.14-.66,.16-1.28,.88-1.73,1.49-2.07,2.82-2.93,6.09-3.52,9.64Z"/><path class="b" d="M443.01,82.12c-2.26-.11-4.4-.4-6.06-2.12-1.51-1.56-1.97-3.97-1.01-5.58,.59-1,1.47-1.5,2.61-1.22,1.1,.27,1.81,.99,1.88,2.2,.01,.21,.03,.41,.03,.62,.04,2.75,1.25,3.88,3.96,3.41,1.23-.22,2.56-.63,3.55-1.35,1.81-1.33,2.22-3.34,1.08-5.27-.94-1.59-2.19-3.02-3.41-4.42-2.47-2.87-4.2-5.91-3.24-9.91,1.28-5.31,8.89-8.65,13.48-5.74,.95,.6,1.68,1.8,2.12,2.88,.41,1.03-.23,1.98-1.25,2.57-1.03,.59-1.91,.27-2.69-.44-.46-.42-.82-.94-1.23-1.41-1.52-1.75-3.08-2.12-4.63-1.1-1.56,1.03-2.17,3.18-1.19,5,.68,1.26,1.7,2.34,2.53,3.52,1.46,2.06,3.32,3.97,4.24,6.25,1.6,3.97-.04,7.71-3.72,10.23-2.15,1.48-4.58,1.82-7.04,1.91Z"/></g><rect class="f" x="119.57" y="128.48" width="18.62" height="13.77"/><rect class="f" x="524.3" y="128.75" width="15.33" height="13.5"/><polygon class="c" points="261.63 350.21 216.39 414.01 216.39 483.12 311.68 350.21 261.63 350.21"/><polygon class="c" points="333.63 643.62 417.02 538.92 417.02 509.08 312.95 643.62 333.63 643.62"/><polygon class="c" points="370.9 350.21 216.39 573.5 216.39 642.61 420.94 350.21 370.9 350.21"/><rect class="e" x="450.41" y="350.21" width="147.79" height="255.18"/><rect class="g" x="298.22" y="489.39" width="8.46" height="39.38" rx="2.44" ry="2.44"/><polygon class="c" points="552.42 605.4 598.19 551.22 598.19 520.54 531.74 605.4 552.42 605.4"/><polygon class="c" points="556.75 350.51 450.41 536.29 450.41 605.4 601.64 350.21 556.75 350.51"/><rect class="e" x="42.8" y="350.21" width="147.79" height="255.18"/><polygon class="c" points="144.82 605.4 190.59 551.22 190.59 520.54 124.14 605.4 144.82 605.4"/><polygon class="c" points="149.15 350.51 42.8 536.29 42.8 605.4 194.04 350.21 149.15 350.51"/></svg>