<?xml version="1.0" encoding="utf-8"?>
<!-- Generator: Adobe Illustrator 25.1.0, SVG Export Plug-In . SVG Version: 6.00 Build 0)  -->
<svg version="1.1" id="Capa_1" xmlns="http://www.w3.org/2000/svg" xmlns:xlink="http://www.w3.org/1999/xlink" x="0px" y="0px"
	 viewBox="0 0 471.76 466.19" style="enable-background:new 0 0 471.76 466.19;" xml:space="preserve">
<style type="text/css">
	.st0{fill:#3D2C32;}
	.st1{fill:#A57287;}
	.st2{fill:#FFFFFF;}
	.st3{opacity:0.31;fill:#3D2C32;}
	.st4{fill:#DBD6F6;}
	.st5{fill:#D0EDF7;}
	.st6{fill:#414973;}
	.st7{opacity:0.31;fill:#FFFFFF;}
</style>
<g>
	<rect x="12.09" y="103.29" class="st0" width="449.14" height="362.9"/>
	<path class="st1" d="M0,103.29v109.85c0,11.84,9.6,21.44,21.44,21.44c11.84,0,21.44-9.6,21.44-21.44V103.29H0z"/>
	<path class="st2" d="M42.89,103.29v109.85c0,11.84,9.6,21.44,21.44,21.44c11.84,0,21.44-9.6,21.44-21.44V103.29H42.89z"/>
	<path class="st1" d="M85.77,103.29v109.85c0,11.84,9.6,21.44,21.44,21.44c11.84,0,21.44-9.6,21.44-21.44V103.29H85.77z"/>
	<path class="st2" d="M128.66,103.29v109.85c0,11.84,9.6,21.44,21.44,21.44c11.84,0,21.44-9.6,21.44-21.44V103.29H128.66z"/>
	<path class="st1" d="M171.55,103.29v109.85c0,11.84,9.6,21.44,21.44,21.44c11.84,0,21.44-9.6,21.44-21.44V103.29H171.55z"/>
	<path class="st2" d="M214.44,103.29v109.85c0,11.84,9.6,21.44,21.44,21.44c11.84,0,21.44-9.6,21.44-21.44V103.29H214.44z"/>
	<path class="st1" d="M257.32,103.29v109.85c0,11.84,9.6,21.44,21.44,21.44c11.84,0,21.44-9.6,21.44-21.44V103.29H257.32z"/>
	<path class="st2" d="M300.21,103.29v109.85c0,11.84,9.6,21.44,21.44,21.44c11.84,0,21.44-9.6,21.44-21.44V103.29H300.21z"/>
	<path class="st1" d="M343.1,103.29v109.85c0,11.84,9.6,21.44,21.44,21.44c11.84,0,21.44-9.6,21.44-21.44V103.29H343.1z"/>
	<path class="st2" d="M385.98,103.29v109.85c0,11.84,9.6,21.44,21.44,21.44c11.84,0,21.44-9.6,21.44-21.44V103.29H385.98z"/>
	<path class="st1" d="M428.87,103.29v109.85c0,11.84,9.6,21.44,21.44,21.44c11.84,0,21.44-9.6,21.44-21.44V103.29H428.87z"/>
	<rect x="30.57" y="253.67" class="st1" width="107.05" height="7.7"/>
	<path class="st3" d="M35.16,253.67h-4.59v7.7h4.59C34.73,259.22,34.76,255.77,35.16,253.67z"/>
	<rect x="30.57" y="261.37" class="st4" width="107.05" height="7.7"/>
	<path class="st3" d="M35.16,261.37h-4.59v7.7h4.59C34.73,266.92,34.76,263.48,35.16,261.37z"/>
	<rect x="30.57" y="269.07" class="st1" width="107.05" height="7.7"/>
	<path class="st3" d="M35.16,269.07h-4.59v7.7h4.59C34.73,274.63,34.76,271.18,35.16,269.07z"/>
	<rect x="30.57" y="276.77" class="st4" width="107.05" height="7.7"/>
	<path class="st3" d="M35.16,276.77h-4.59v7.7h4.59C34.73,282.33,34.76,278.88,35.16,276.77z"/>
	<rect x="30.57" y="284.47" class="st1" width="107.05" height="7.7"/>
	<path class="st3" d="M35.16,284.47h-4.59v7.7h4.59C34.73,290.03,34.76,286.58,35.16,284.47z"/>
	<rect x="30.57" y="292.17" class="st4" width="107.05" height="7.7"/>
	<path class="st3" d="M35.16,292.17h-4.59v7.7h4.59C34.73,297.73,34.76,294.28,35.16,292.17z"/>
	<rect x="30.57" y="299.88" class="st1" width="107.05" height="7.7"/>
	<path class="st3" d="M35.16,299.88h-4.59v7.7h4.59C34.73,305.43,34.76,301.98,35.16,299.88z"/>
	<rect x="30.57" y="307.58" class="st4" width="107.05" height="7.7"/>
	<path class="st3" d="M35.16,307.58h-4.59v7.7h4.59C34.73,313.13,34.76,309.68,35.16,307.58z"/>
	<rect x="30.57" y="315.28" class="st1" width="107.05" height="7.7"/>
	<path class="st3" d="M35.16,315.28h-4.59v7.7h4.59C34.73,320.83,34.76,317.39,35.16,315.28z"/>
	<rect x="30.57" y="322.98" class="st4" width="107.05" height="7.7"/>
	<path class="st3" d="M35.16,322.98h-4.59v7.7h4.59C34.73,328.54,34.76,325.09,35.16,322.98z"/>
	<rect x="30.57" y="330.68" class="st1" width="107.05" height="7.7"/>
	<path class="st3" d="M35.16,330.68h-4.59v7.7h4.59C34.73,336.24,34.76,332.79,35.16,330.68z"/>
	<rect x="30.57" y="338.38" class="st4" width="107.05" height="7.7"/>
	<path class="st3" d="M35.16,338.38h-4.59v7.7h4.59C34.73,343.94,34.76,340.49,35.16,338.38z"/>
	<rect x="30.57" y="346.08" class="st1" width="107.05" height="7.7"/>
	<path class="st3" d="M35.16,346.08h-4.59v7.7h4.59C34.73,351.64,34.76,348.19,35.16,346.08z"/>
	<rect x="30.57" y="353.79" class="st4" width="107.05" height="7.7"/>
	<path class="st3" d="M35.16,353.79h-4.59v7.7h4.59C34.73,359.34,34.76,355.89,35.16,353.79z"/>
	<rect x="30.57" y="361.49" class="st1" width="107.05" height="7.7"/>
	<path class="st3" d="M35.16,361.49h-4.59v7.7h4.59C34.73,367.04,34.76,363.59,35.16,361.49z"/>
	<rect x="30.57" y="369.19" class="st4" width="107.05" height="7.7"/>
	<path class="st3" d="M35.16,369.19h-4.59v7.7h4.59C34.73,374.74,34.76,371.3,35.16,369.19z"/>
	<rect x="30.57" y="376.89" class="st1" width="107.05" height="7.7"/>
	<path class="st3" d="M35.16,376.89h-4.59v7.7h4.59C34.73,382.45,34.76,379,35.16,376.89z"/>
	<rect x="30.57" y="384.59" class="st4" width="107.05" height="7.7"/>
	<path class="st3" d="M35.16,384.59h-4.59v7.7h4.59C34.73,390.15,34.76,386.7,35.16,384.59z"/>
	<rect x="30.57" y="392.29" class="st1" width="107.05" height="7.7"/>
	<path class="st3" d="M35.16,392.29h-4.59v7.7h4.59C34.73,397.85,34.76,394.4,35.16,392.29z"/>
	<rect x="30.57" y="399.99" class="st4" width="107.05" height="7.7"/>
	<path class="st3" d="M35.16,399.99h-4.59v7.7h4.59C34.73,405.55,34.76,402.1,35.16,399.99z"/>
	<rect x="30.57" y="407.7" class="st1" width="107.05" height="7.7"/>
	<path class="st3" d="M35.16,407.7h-4.59v7.7h4.59C34.73,413.25,34.76,409.8,35.16,407.7z"/>
	<rect x="30.57" y="415.4" class="st4" width="107.05" height="7.7"/>
	<path class="st3" d="M35.16,415.4h-4.59v7.7h4.59C34.73,420.95,34.76,417.5,35.16,415.4z"/>
	<rect x="30.57" y="423.1" class="st1" width="107.05" height="7.7"/>
	<path class="st3" d="M35.16,423.1h-4.59v7.7h4.59C34.73,428.65,34.76,425.21,35.16,423.1z"/>
	<rect x="30.57" y="430.8" class="st4" width="107.05" height="7.7"/>
	<path class="st3" d="M35.16,430.8h-4.59v7.7h4.59C34.73,436.36,34.76,432.91,35.16,430.8z"/>
	<rect x="156.73" y="253.67" class="st5" width="72.66" height="212.52"/>
	<rect x="229.4" y="253.67" class="st5" width="72.66" height="212.52"/>
	<path class="st0" d="M240.88,383h-1.24c-1.35,0-2.44-1.09-2.44-2.44v-23.64c0-1.35,1.09-2.44,2.44-2.44h1.24
		c1.35,0,2.44,1.09,2.44,2.44v23.64C243.32,381.91,242.23,383,240.88,383z"/>
	<rect x="52.44" class="st0" width="366.88" height="93.06"/>
	<g>
		<g>
			<path class="st2" d="M147.83,56.06c-0.53,0.37-0.87,0.57-1.17,0.82c-3.17,2.67-6.73,4.58-10.84,5.26
				c-4.68,0.77-8.93-0.13-11.92-4.12c-2.34-3.11-3.01-6.63-1.77-10.45c1.82-5.61,5.7-9.23,10.95-11.55c0.72-0.32,1.5-0.48,2.26-0.7
				c0.72-0.21,1.02-0.51,0.78-1.38c-0.33-1.21-0.94-1.81-2.19-2.06c-1.86-0.38-3.58-1.17-4.95-2.55c-2.49-2.51-2.15-6.18,0.6-8.39
				c2.41-1.95,5.17-2.02,8.02-1.89c0.35,0.02,0.83,0.16,1.02,0.41c0.28,0.38,0.52,0.94,0.44,1.36c-0.04,0.25-0.75,0.58-1.12,0.53
				c-1.62-0.19-3.17-0.42-4.75,0.36c-2.82,1.39-3.31,4.58-0.95,6.66c0.31,0.27,0.67,0.49,1.03,0.69c2.14,1.17,2.1,1.15,3.09-1
				c1.46-3.14,3.97-5.33,6.95-6.86c3.79-1.94,7.85-2.74,12.14-2.12c1.8,0.26,3.46,0.74,4.16,2.6c0.73,1.93-0.06,3.63-1.28,5.11
				c-1.68,2.03-3.91,3.29-6.36,4.12c-3.29,1.11-6.66,1.88-10.18,1.76c-0.22-0.01-0.47,0-0.67,0.09c-0.18,0.08-0.32,0.27-0.48,0.41
				c0.17,0.17,0.33,0.47,0.52,0.48c0.71,0.04,1.43-0.02,2.14-0.02c1.6-0.02,3.24-0.32,4.73,0.63c0.75,0.48,1.66,1.05,1.35,1.98
				c-0.27,0.78-0.99,1.68-1.73,1.98c-2.57,1.03-5.23,0.77-7.64-0.51c-1.73-0.92-3.11-0.8-4.72,0.19c-4.03,2.48-6.6,5.96-7.14,10.67
				c-0.53,4.67,1.92,9.43,8.38,9.02c1.12-0.07,2.25-0.29,3.32-0.63c4.12-1.29,7.64-3.56,10.35-6.93c1.07-1.34,1.87-2.9,2.72-4.41
				c3.56-6.32,7.1-12.65,10.63-18.98c0.23-0.42,0.51-0.92,0.48-1.36c-0.11-1.33,0.59-1.67,1.73-1.73c1.05-0.05,2.09-0.21,3.14-0.32
				c0.78-0.08,1.16,0.33,1.11,1.06c-0.04,0.55-0.13,1.14-0.38,1.62c-1.65,3.13-3.34,6.23-5.01,9.34
				c-3.52,6.56-7.04,13.12-10.55,19.69c-0.4,0.75-0.74,1.56-0.95,2.38c-0.21,0.82,0.35,1.2,1.04,0.87c0.84-0.39,1.65-0.91,2.32-1.54
				c2.38-2.2,4.03-4.95,5.63-7.73c0.26-0.46,0.52-0.92,0.86-1.32c0.16-0.18,0.5-0.21,0.76-0.3c0.09,0.27,0.23,0.53,0.24,0.81
				c0.01,0.21-0.09,0.45-0.22,0.63c-2.2,3.13-4.29,6.36-6.69,9.34c-1.07,1.32-2.69,2.27-4.21,3.12c-2.74,1.54-5.01,0.13-5.04-3
				C147.83,57.56,147.83,56.94,147.83,56.06z M140.9,30.03c0.12,0.16,0.24,0.32,0.36,0.49c1.06-0.09,2.13-0.12,3.18-0.28
				c3.82-0.57,7.33-1.87,10.21-4.56c1.03-0.96,1.75-2.08,1.15-3.49c-0.6-1.41-1.98-1.36-3.22-1.25c-3.89,0.34-6.89,2.46-9.42,5.21
				C142.17,27.22,141.64,28.72,140.9,30.03z M144.45,36.23c-0.82-0.78-1.33-0.78-2.2,0C143.07,36.23,143.68,36.23,144.45,36.23z"/>
			<path class="st2" d="M214.57,40.17c0.29,0.44,0.44,0.73,0.64,0.98c1.78,2.25,1.86,4.66,0.78,7.22c-0.83,1.97-1.63,3.96-2.42,5.95
				c-0.15,0.38-0.26,0.79-0.3,1.2c-0.11,1.2,0.49,1.83,1.69,1.59c1.92-0.39,3.41-1.6,4.63-3.04c1.21-1.43,2.21-3.03,3.32-4.55
				c0.42-0.57,0.87-1.14,1.35-1.66c0.14-0.15,0.52-0.28,0.65-0.2c0.17,0.11,0.26,0.43,0.27,0.67c0.02,0.21-0.08,0.45-0.2,0.62
				c-2.22,3.27-4.29,6.65-7.33,9.25c-1.51,1.29-3.2,2.22-5.19,2.59c-2.36,0.44-5.12-1.06-5.09-4.25c0.03-2.67,1.04-4.88,2.28-7.09
				c0.97-1.74,1.92-3.49,2.84-5.26c0.22-0.42,0.36-0.91,0.41-1.39c0.23-2.02,0.17-2.05-1.83-2.46c-0.35-0.07-0.62-0.52-0.92-0.8
				c0.3-0.27,0.56-0.7,0.9-0.79c1.81-0.48,3.73-0.65,5.45-1.33c4.31-1.71,6.85-5.02,7.72-9.55c0.73-3.81-2.21-7.47-6.41-7.88
				c-6.19-0.59-11.78,1.08-16.75,4.78c-2.85,2.12-5.28,4.65-6.44,8.08c-0.5,1.46-0.72,3.08-0.71,4.63c0.01,2.35,2.14,3.7,4.36,2.88
				c0.87-0.32,1.63-0.92,2.46-1.34c0.32-0.16,0.71-0.17,1.08-0.26c-0.03,0.35,0.06,0.8-0.13,1.03c-1.82,2.27-3.94,4.24-6.93,4.68
				c-3.28,0.48-5.55-1.67-5.8-5.24c-0.28-4.01,1.22-7.44,3.66-10.5c3.86-4.87,9.01-7.75,14.85-9.55c4.39-1.35,8.85-1.79,13.37-0.87
				c3.43,0.7,6.36,2.14,7.74,5.66c1.58,4.04,0.46,7.53-2.29,10.62c-2.67,3-6.2,4.42-10.04,5.23
				C215.75,39.91,215.28,40.02,214.57,40.17z"/>
			<path class="st2" d="M182.7,62.01c-2.09-0.08-4.16-0.38-5.69-2.11c-1.21-1.36-1.66-2.93-1.15-4.71c0.37-1.28,1.23-2.05,2.53-2.28
				c1.16-0.21,2.15,0.25,2.7,1.23c0.62,1.09,0.65,2.28-0.16,3.39c-0.75,1.03-0.65,1.54,0.4,2.24c1.3,0.86,2.74,0.75,4.14,0.4
				c3.14-0.78,5.44-2.84,7.47-5.21c3.3-3.85,5.46-8.44,8.12-12.71c2.54-4.09,4.9-8.3,7.66-12.24c2.69-3.84,6.47-6.33,11.14-7.32
				c0.4-0.08,0.84-0.14,1.22-0.05c0.26,0.07,0.55,0.41,0.62,0.68c0.05,0.18-0.22,0.59-0.43,0.66c-4.36,1.49-6.08,5.37-8.12,8.95
				c-3.31,5.81-6.42,11.75-9.94,17.43c-2.55,4.11-6.19,7.3-10.61,9.37C189.49,61.19,186.18,61.9,182.7,62.01z"/>
			<path class="st2" d="M242.82,45.03c-0.97-0.56-1.1-1.13-0.26-1.78c1.6-1.23,3.19-2.48,4.84-3.65c0.47-0.33,1.11-0.47,1.69-0.57
				c1.54-0.28,2.1,0.32,1.81,1.87c-0.18,0.96-0.41,1.91-0.61,2.87c-0.02,0.09,0.05,0.2,0.12,0.41c1.4-1.24,2.67-2.51,4.09-3.57
				c0.97-0.73,2.1-1.33,3.26-1.69c1.65-0.51,2.54,0.27,2.54,1.99c0,0.78-0.15,1.56-0.26,2.6c0.86-0.79,1.49-1.51,2.26-2.05
				c1.38-0.96,2.75-1.97,4.27-2.65c1.69-0.75,3.3,0.43,3.14,2.28c-0.15,1.78-0.63,3.54-1.07,5.28c-0.83,3.28-1.75,6.53-2.6,9.8
				c-0.09,0.35,0.09,0.77,0.15,1.16c0.42-0.06,0.94,0,1.24-0.22c0.82-0.59,1.53-1.33,2.34-1.94c0.21-0.16,0.74-0.19,0.92-0.03
				c0.17,0.15,0.24,0.77,0.1,0.9c-1.59,1.42-3.15,2.9-4.89,4.13c-2.24,1.59-3.73-0.34-3.67-2.17c0.05-1.53,0.27-3.08,0.63-4.57
				c0.58-2.37,1.36-4.69,2.02-7.04c0.28-1.01,0.51-2.05,0.65-3.08c0.14-0.99-0.38-1.39-1.27-0.93c-2.3,1.19-4.3,2.85-5.09,5.35
				c-1.11,3.54-1.96,7.17-2.77,10.8c-0.27,1.19-0.7,1.62-1.89,1.59c-2.16-0.06-2.17-0.02-1.67-2.18c1.05-4.5,2.12-9.01,3.14-13.51
				c0.14-0.62,0.01-1.29,0-1.94c-0.68,0.22-1.44,0.3-2.03,0.67c-3.62,2.27-4.95,5.88-5.67,9.85c-0.36,2-0.83,3.98-1.2,5.97
				c-0.18,0.95-0.66,1.3-1.63,1.25c-2.23-0.09-2.58,0.59-1.92-2.37c1.05-4.7,2.05-9.41,3.05-14.12c0.08-0.39-0.05-0.82-0.08-1.24
				c-0.41,0.15-0.88,0.21-1.21,0.46C244.44,43.58,243.67,44.3,242.82,45.03z"/>
			<path class="st2" d="M301.97,43.71c1.87-1.53,3.48-2.92,5.18-4.22c0.77-0.59,1.64-1.09,2.54-1.43c2.14-0.8,3.69,0.33,3.43,2.59
				c-0.19,1.7-0.71,3.38-1.15,5.04c-0.76,2.87-1.61,5.72-2.32,8.6c-0.17,0.7,0.03,1.51,0.07,2.26c0.68-0.34,1.41-0.61,2.02-1.04
				c0.64-0.45,1.13-1.11,1.75-1.59c0.22-0.17,0.84-0.23,0.9-0.13c0.17,0.3,0.33,0.88,0.17,1.05c-1.81,1.98-3.7,3.89-6.29,4.83
				c-1.39,0.51-2.73-0.58-2.67-2.31c0.06-1.71,0.35-3.44,0.76-5.11c0.75-3.07,1.67-6.09,2.46-9.15c0.11-0.42,0.08-1.13-0.17-1.32
				c-0.3-0.22-0.98-0.15-1.37,0.05c-3.3,1.72-5.79,4.14-6.62,7.93c-0.63,2.86-1.28,5.72-1.91,8.58c-0.14,0.66-0.46,0.97-1.16,0.92
				c-0.64-0.04-1.28-0.01-1.92,0.03c-0.75,0.05-0.93-0.27-0.77-0.95c0.89-3.81,1.75-7.62,2.63-11.43c0.33-1.43,0.69-2.85,0.98-4.29
				c0.07-0.36-0.1-0.77-0.16-1.15c-0.38,0.12-0.83,0.14-1.12,0.37c-0.8,0.62-1.51,1.36-2.3,1.99c-0.22,0.17-0.81,0.27-0.88,0.17
				c-0.19-0.29-0.38-0.86-0.23-1.02c1.94-2.11,3.93-4.18,6.85-4.94c1.44-0.38,2.52,0.16,1.99,1.95
				C302.34,41.15,302.23,42.35,301.97,43.71z"/>
			<path class="st2" d="M290.97,37.81c-0.21,0.82-0.43,1.63-0.63,2.45c-1.18,4.97-2.37,9.94-3.52,14.92
				c-0.09,0.39,0.08,0.84,0.13,1.25c0.46-0.08,1.01-0.04,1.38-0.27c0.82-0.52,1.52-1.22,2.33-1.78c0.26-0.18,0.68-0.13,1.03-0.18
				c0,0.42,0.17,1.06-0.05,1.23c-1.79,1.47-3.6,2.95-5.52,4.23c-0.92,0.61-2.21,1-3.19,0.2c-0.94-0.77-0.29-1.89-0.06-2.85
				c0.09-0.36,0.18-0.71,0.35-1.35c-1.24,1.03-2.21,1.93-3.28,2.7c-0.94,0.67-1.94,1.3-2.99,1.76c-1.95,0.84-3.68-0.05-4.36-2.06
				c-0.78-2.3-0.41-4.6,0.32-6.77c1.25-3.73,3.39-6.92,6.32-9.61c2.48-2.27,5.4-2.97,8.62-3.01c0.41,0,0.83-0.3,1.24-0.48
				c0.53-0.22,1.06-0.46,1.59-0.7C290.76,37.61,290.86,37.71,290.97,37.81z M276.09,53.43c0,0.19,0,0.38,0,0.56
				c0.06,2.62,1.36,3.37,3.65,2.11c1.8-0.98,3.07-2.49,3.7-4.39c0.93-2.81,1.62-5.71,2.42-8.56c0.23-0.82-0.07-1.19-0.91-1.25
				c-2.49-0.17-4.53,0.66-5.94,2.75C277.23,47.3,276.17,50.2,276.09,53.43z"/>
			<path class="st2" d="M350.24,44.93c-0.41,6.27-3.39,11-9.04,13.64c-4.2,1.96-8.23-0.27-8.83-4.75
				c-0.79-5.93,3.14-13.5,8.32-15.86c5.21-2.38,9.5,0.34,9.56,6.06C350.24,44.33,350.24,44.63,350.24,44.93z M336.63,49.43
				c0.08,1.31,0.04,2.64,0.27,3.93c0.27,1.46,0.79,2.9,2.44,3.38c1.51,0.44,2.6-0.41,3.57-1.42c2.73-2.87,3.87-10.61,2.09-14.16
				c-0.81-1.6-2.42-2.13-3.98-1.22c-0.57,0.33-1.08,0.81-1.52,1.32C337.47,43.6,336.79,46.41,336.63,49.43z"/>
			<path class="st2" d="M224.86,55.31c0.67-5.64,2.49-11.04,7.47-14.81c1.01-0.76,2.46-1.07,3.76-1.31c1.45-0.26,2.8,0.22,3.58,1.6
				c0.8,1.43,0.65,2.91-0.07,4.32c-1.16,2.26-3.23,3.52-5.33,4.71c-1.31,0.74-2.68,1.37-4.05,2c-0.66,0.3-1.02,0.71-1,1.46
				c0.03,0.79-0.03,1.58,0.03,2.37c0.12,1.57,1.02,2.25,2.53,1.78c1.03-0.32,2.01-0.83,2.95-1.36c0.91-0.52,1.72-1.22,2.63-1.76
				c0.24-0.14,0.87-0.06,0.99,0.13c0.19,0.29,0.26,0.95,0.07,1.14c-2.22,2.16-4.54,4.25-7.56,5.2c-3.55,1.12-5.38-0.12-5.89-3.8
				C224.91,56.53,224.91,56.07,224.86,55.31z M229.76,50.04c0.3-0.07,0.51-0.07,0.63-0.16c1.67-1.19,3.38-2.35,4.97-3.64
				c0.5-0.41,0.94-1.2,0.96-1.83c0.03-0.79-0.17-1.79-0.68-2.33c-0.35-0.38-1.41-0.27-2.09-0.1c-0.48,0.12-0.93,0.63-1.25,1.08
				C230.81,45.1,230.19,47.47,229.76,50.04z"/>
			<path class="st2" d="M320.88,59.48c-1.64-0.08-3.19-0.29-4.39-1.54c-1.09-1.13-1.43-2.87-0.73-4.04
				c0.43-0.73,1.07-1.09,1.89-0.89c0.8,0.19,1.31,0.72,1.36,1.59c0.01,0.15,0.02,0.3,0.02,0.45c0.03,1.99,0.91,2.81,2.87,2.47
				c0.89-0.16,1.86-0.46,2.57-0.98c1.31-0.96,1.61-2.42,0.78-3.82c-0.68-1.15-1.59-2.19-2.47-3.2c-1.79-2.08-3.05-4.28-2.35-7.18
				c0.92-3.85,6.44-6.26,9.77-4.16c0.69,0.44,1.22,1.3,1.54,2.09c0.3,0.75-0.16,1.44-0.9,1.86c-0.75,0.43-1.38,0.2-1.95-0.32
				c-0.33-0.3-0.59-0.68-0.89-1.02c-1.1-1.27-2.23-1.54-3.36-0.79c-1.13,0.75-1.57,2.3-0.86,3.62c0.49,0.91,1.23,1.7,1.83,2.55
				c1.06,1.49,2.41,2.87,3.07,4.53c1.16,2.88-0.03,5.58-2.7,7.41C324.42,59.17,322.67,59.42,320.88,59.48z"/>
		</g>
	</g>
	<rect x="86.61" y="93.06" class="st6" width="13.48" height="9.97"/>
	<rect x="379.76" y="93.26" class="st6" width="11.1" height="9.78"/>
	<polygon class="st7" points="189.51,253.67 156.73,299.88 156.73,349.94 225.75,253.67 	"/>
	<polygon class="st7" points="241.66,466.19 302.06,390.35 302.06,368.74 226.68,466.19 	"/>
	<polygon class="st7" points="268.65,253.67 156.73,415.4 156.73,465.46 304.9,253.67 	"/>
	<rect x="326.24" y="253.67" class="st5" width="107.05" height="184.83"/>
	<path class="st0" d="M219.69,383h-1.24c-1.35,0-2.44-1.09-2.44-2.44v-23.64c0-1.35,1.09-2.44,2.44-2.44h1.24
		c1.35,0,2.44,1.09,2.44,2.44v23.64C222.13,381.91,221.04,383,219.69,383z"/>
	<polygon class="st7" points="400.13,438.5 433.29,399.26 433.29,377.04 385.15,438.5 	"/>
	<polygon class="st7" points="403.27,253.88 326.24,388.44 326.24,438.5 435.78,253.67 	"/>
	<g>
		<rect x="326.24" y="253.67" class="st1" width="107.05" height="7.7"/>
		<path class="st3" d="M330.83,253.67h-4.59v7.7h4.59C330.4,259.22,330.43,255.77,330.83,253.67z"/>
		<rect x="326.24" y="261.37" class="st4" width="107.05" height="7.7"/>
		<path class="st3" d="M330.83,261.37h-4.59v7.7h4.59C330.4,266.92,330.43,263.48,330.83,261.37z"/>
		<rect x="326.24" y="269.07" class="st1" width="107.05" height="7.7"/>
		<path class="st3" d="M330.83,269.07h-4.59v7.7h4.59C330.4,274.63,330.43,271.18,330.83,269.07z"/>
		<rect x="326.24" y="276.77" class="st4" width="107.05" height="7.7"/>
		<path class="st3" d="M330.83,276.77h-4.59v7.7h4.59C330.4,282.33,330.43,278.88,330.83,276.77z"/>
		<rect x="326.24" y="284.47" class="st1" width="107.05" height="7.7"/>
		<path class="st3" d="M330.83,284.47h-4.59v7.7h4.59C330.4,290.03,330.43,286.58,330.83,284.47z"/>
		<rect x="326.24" y="292.17" class="st4" width="107.05" height="7.7"/>
		<path class="st3" d="M330.83,292.17h-4.59v7.7h4.59C330.4,297.73,330.43,294.28,330.83,292.17z"/>
		<rect x="326.24" y="299.88" class="st1" width="107.05" height="7.7"/>
		<path class="st3" d="M330.83,299.88h-4.59v7.7h4.59C330.4,305.43,330.43,301.98,330.83,299.88z"/>
		<rect x="326.24" y="307.58" class="st4" width="107.05" height="7.7"/>
		<path class="st3" d="M330.83,307.58h-4.59v7.7h4.59C330.4,313.13,330.43,309.68,330.83,307.58z"/>
		<rect x="326.24" y="315.28" class="st1" width="107.05" height="7.7"/>
		<path class="st3" d="M330.83,315.28h-4.59v7.7h4.59C330.4,320.83,330.43,317.39,330.83,315.28z"/>
		<rect x="326.24" y="322.98" class="st4" width="107.05" height="7.7"/>
		<path class="st3" d="M330.83,322.98h-4.59v7.7h4.59C330.4,328.54,330.43,325.09,330.83,322.98z"/>
		<rect x="326.24" y="330.68" class="st1" width="107.05" height="7.7"/>
		<path class="st3" d="M330.83,330.68h-4.59v7.7h4.59C330.4,336.24,330.43,332.79,330.83,330.68z"/>
		<rect x="326.24" y="338.38" class="st4" width="107.05" height="7.7"/>
		<path class="st3" d="M330.83,338.38h-4.59v7.7h4.59C330.4,343.94,330.43,340.49,330.83,338.38z"/>
		<rect x="326.24" y="346.08" class="st1" width="107.05" height="7.7"/>
		<path class="st3" d="M330.83,346.08h-4.59v7.7h4.59C330.4,351.64,330.43,348.19,330.83,346.08z"/>
		<rect x="326.24" y="353.79" class="st4" width="107.05" height="7.7"/>
		<path class="st3" d="M330.83,353.79h-4.59v7.7h4.59C330.4,359.34,330.43,355.89,330.83,353.79z"/>
	</g>
</g>
</svg>
