<?xml version="1.0" encoding="utf-8"?>
<!-- Generator: Adobe Illustrator 24.2.1, SVG Export Plug-In . SVG Version: 6.00 Build 0)  -->
<svg version="1.1" id="Capa_1" xmlns="http://www.w3.org/2000/svg" xmlns:xlink="http://www.w3.org/1999/xlink" x="0px" y="0px"
	 viewBox="0 0 601.64 117.23" style="enable-background:new 0 0 601.64 117.23;" xml:space="preserve">
<style type="text/css">
	.st0{fill:#FFFFFF;}
</style>
<g>
	<path class="st0" d="M69.21,100.59c-1.4,0.97-2.3,1.49-3.09,2.15c-8.33,7.03-17.7,12.04-28.51,13.83
		c-12.32,2.03-23.48-0.34-31.35-10.83C0.11,97.55-1.65,88.3,1.61,78.24c4.78-14.77,15-24.27,28.81-30.38
		c1.89-0.83,3.95-1.27,5.95-1.85c1.9-0.55,2.67-1.34,2.05-3.64c-0.86-3.18-2.46-4.76-5.76-5.42c-4.89-0.99-9.41-3.08-13.02-6.7
		C13.09,23.66,13.99,14,21.23,8.17c6.35-5.12,13.61-5.32,21.09-4.97c0.93,0.04,2.18,0.41,2.67,1.07c0.73,1,1.36,2.47,1.17,3.59
		c-0.11,0.65-1.98,1.52-2.95,1.4c-4.25-0.5-8.35-1.1-12.49,0.94c-7.41,3.66-8.71,12.06-2.5,17.51c0.81,0.71,1.75,1.3,2.7,1.82
		c5.62,3.09,5.53,3.03,8.14-2.62c3.83-8.27,10.43-14.02,18.29-18.04c9.96-5.1,20.66-7.22,31.94-5.58c4.74,0.69,9.1,1.95,10.95,6.84
		c1.92,5.09-0.15,9.54-3.36,13.43c-4.41,5.35-10.28,8.66-16.73,10.84c-8.66,2.93-17.52,4.94-26.77,4.63
		c-0.59-0.02-1.23,0.01-1.75,0.24c-0.48,0.21-0.84,0.7-1.26,1.07c0.45,0.44,0.88,1.24,1.36,1.27c1.87,0.11,3.75-0.04,5.63-0.06
		c4.22-0.04,8.53-0.85,12.43,1.66c1.98,1.27,4.37,2.77,3.54,5.2c-0.7,2.06-2.6,4.42-4.55,5.2c-6.77,2.72-13.77,2.03-20.09-1.34
		c-4.55-2.43-8.17-2.11-12.41,0.5C25.67,59.3,18.91,68.46,17.5,80.83c-1.4,12.28,5.04,24.8,22.04,23.74
		c2.94-0.18,5.92-0.77,8.73-1.65c10.84-3.4,20.1-9.37,27.22-18.24c2.82-3.52,4.93-7.64,7.16-11.6
		c9.37-16.62,18.68-33.27,27.97-49.93c0.61-1.1,1.34-2.42,1.25-3.58c-0.29-3.51,1.55-4.4,4.55-4.55c2.76-0.14,5.51-0.55,8.26-0.84
		c2.06-0.22,3.04,0.88,2.91,2.78c-0.1,1.44-0.35,3-1.01,4.26c-4.33,8.23-8.79,16.38-13.19,24.58
		c-9.26,17.25-18.53,34.51-27.74,51.79c-1.05,1.98-1.94,4.1-2.5,6.27c-0.55,2.16,0.91,3.15,2.74,2.29c2.2-1.02,4.34-2.4,6.11-4.04
		c6.27-5.78,10.59-13.03,14.81-20.33c0.69-1.2,1.37-2.43,2.26-3.47c0.41-0.48,1.32-0.54,2-0.78c0.23,0.71,0.6,1.4,0.64,2.12
		c0.03,0.54-0.24,1.19-0.57,1.65c-5.8,8.24-11.29,16.73-17.61,24.56c-2.81,3.47-7.08,5.97-11.08,8.22
		c-7.2,4.06-13.17,0.34-13.25-7.88C69.2,104.55,69.21,102.91,69.21,100.59z M50.97,32.13c0.31,0.43,0.63,0.85,0.94,1.28
		c2.79-0.24,5.61-0.32,8.37-0.74c10.05-1.51,19.28-4.92,26.87-12c2.71-2.53,4.6-5.47,3.03-9.18c-1.57-3.72-5.21-3.59-8.46-3.3
		c-10.24,0.9-18.12,6.47-24.79,13.7C54.32,24.72,52.92,28.68,50.97,32.13z M60.33,48.42c-2.17-2.04-3.49-2.06-5.78,0
		C56.69,48.42,58.29,48.42,60.33,48.42z"/>
	<path class="st0" d="M244.76,58.8c0.75,1.16,1.16,1.92,1.68,2.58c4.67,5.91,4.88,12.26,2.04,18.99
		c-2.19,5.19-4.29,10.41-6.37,15.65c-0.4,1-0.68,2.08-0.78,3.15c-0.29,3.16,1.3,4.81,4.44,4.18c5.06-1.03,8.96-4.21,12.17-8
		c3.18-3.76,5.82-7.97,8.74-11.96c1.11-1.51,2.28-2.99,3.55-4.37c0.37-0.4,1.36-0.74,1.7-0.53c0.45,0.28,0.68,1.13,0.72,1.76
		c0.04,0.54-0.21,1.18-0.52,1.64c-5.83,8.59-11.29,17.49-19.29,24.34c-3.96,3.39-8.43,5.85-13.64,6.82
		c-6.21,1.16-13.48-2.78-13.38-11.17c0.08-7.02,2.73-12.83,5.99-18.64c2.56-4.57,5.06-9.18,7.48-13.83c0.58-1.11,0.94-2.4,1.08-3.65
		c0.61-5.32,0.44-5.39-4.82-6.48c-0.92-0.19-1.63-1.38-2.43-2.1c0.79-0.72,1.46-1.85,2.38-2.09c4.76-1.25,9.81-1.7,14.33-3.5
		c11.34-4.5,18.01-13.2,20.3-25.13c1.92-10.03-5.81-19.66-16.85-20.72c-16.27-1.56-30.98,2.85-44.07,12.57
		c-7.51,5.57-13.88,12.23-16.95,21.25c-1.31,3.84-1.9,8.11-1.88,12.19c0.03,6.18,5.63,9.73,11.47,7.57
		c2.28-0.84,4.28-2.42,6.47-3.53c0.84-0.43,1.88-0.46,2.84-0.68c-0.09,0.92,0.16,2.11-0.33,2.72c-4.79,5.97-10.37,11.16-18.22,12.31
		c-8.62,1.25-14.59-4.39-15.25-13.78c-0.74-10.55,3.22-19.56,9.62-27.63c10.16-12.8,23.69-20.39,39.05-25.13
		c11.55-3.56,23.27-4.71,35.18-2.3c9.02,1.83,16.73,5.63,20.36,14.89c4.16,10.63,1.22,19.82-6.03,27.94
		c-7.03,7.88-16.31,11.63-26.4,13.75C247.88,58.11,246.64,58.39,244.76,58.8z"/>
	<path class="st0" d="M160.93,116.24c-5.5-0.21-10.94-0.99-14.97-5.55c-3.17-3.59-4.37-7.7-3.02-12.39c0.97-3.36,3.24-5.4,6.66-6.01
		c3.05-0.54,5.65,0.67,7.11,3.24c1.64,2.88,1.71,5.99-0.41,8.93c-1.96,2.72-1.72,4.06,1.04,5.89c3.41,2.26,7.2,1.96,10.9,1.04
		c8.27-2.05,14.3-7.48,19.64-13.7c8.69-10.12,14.36-22.2,21.35-33.43c6.69-10.75,12.9-21.84,20.16-32.19
		c7.08-10.09,17.03-16.66,29.3-19.25c1.05-0.22,2.22-0.38,3.22-0.12c0.68,0.18,1.44,1.08,1.62,1.79c0.12,0.47-0.59,1.55-1.14,1.74
		c-11.48,3.91-15.99,14.13-21.36,23.54c-8.72,15.29-16.9,30.91-26.16,45.86c-6.71,10.82-16.27,19.2-27.92,24.66
		C178.81,114.09,170.09,115.95,160.93,116.24z"/>
	<path class="st0" d="M319.09,71.57c-2.56-1.46-2.89-2.98-0.68-4.67c4.21-3.24,8.39-6.52,12.73-9.59c1.23-0.87,2.91-1.23,4.44-1.51
		c4.04-0.74,5.53,0.84,4.75,4.92c-0.48,2.52-1.09,5.02-1.61,7.54c-0.05,0.23,0.14,0.52,0.31,1.08c3.67-3.25,7.02-6.6,10.77-9.4
		c2.55-1.91,5.53-3.51,8.57-4.44c4.35-1.33,6.69,0.71,6.67,5.23c-0.01,2.05-0.4,4.1-0.69,6.85c2.25-2.07,3.92-3.98,5.94-5.38
		c3.62-2.52,7.24-5.19,11.24-6.96c4.44-1.96,8.69,1.13,8.27,6.01c-0.4,4.68-1.66,9.31-2.82,13.9c-2.19,8.62-4.61,17.18-6.83,25.79
		c-0.24,0.92,0.24,2.03,0.39,3.04c1.11-0.17,2.46,0,3.27-0.58c2.16-1.55,4.02-3.51,6.15-5.11c0.56-0.42,1.95-0.49,2.41-0.09
		c0.46,0.4,0.64,2.03,0.26,2.37c-4.19,3.73-8.29,7.63-12.86,10.87c-5.89,4.18-9.82-0.9-9.66-5.7c0.13-4.02,0.71-8.1,1.67-12.02
		c1.53-6.24,3.59-12.34,5.32-18.53c0.74-2.66,1.35-5.38,1.72-8.11c0.36-2.61-1.01-3.66-3.34-2.45c-6.05,3.14-11.31,7.49-13.38,14.08
		c-2.92,9.32-5.16,18.86-7.28,28.4c-0.7,3.14-1.84,4.27-4.98,4.17c-5.67-0.17-5.71-0.05-4.39-5.74c2.75-11.85,5.58-23.69,8.25-35.55
		c0.37-1.62,0.03-3.4,0.01-5.11c-1.79,0.57-3.8,0.79-5.34,1.76c-9.51,5.98-13.03,15.48-14.92,25.91
		c-0.95,5.25-2.19,10.46-3.16,15.71c-0.47,2.51-1.74,3.41-4.28,3.3c-5.87-0.24-6.79,1.54-5.06-6.24c2.75-12.36,5.4-24.74,8.01-37.13
		c0.22-1.03-0.13-2.17-0.22-3.26c-1.08,0.39-2.32,0.55-3.19,1.21C323.35,67.77,321.31,69.66,319.09,71.57z"/>
	<path class="st0" d="M474.69,68.12c4.91-4.03,9.16-7.69,13.62-11.1c2.02-1.54,4.32-2.87,6.69-3.76c5.62-2.1,9.71,0.87,9.03,6.82
		c-0.51,4.48-1.86,8.88-3.02,13.27c-1.99,7.55-4.23,15.04-6.11,22.62c-0.46,1.85,0.09,3.96,0.18,5.95c1.78-0.89,3.7-1.6,5.31-2.74
		c1.68-1.19,2.98-2.91,4.6-4.19c0.58-0.45,2.22-0.61,2.37-0.35c0.44,0.8,0.87,2.31,0.45,2.77c-4.75,5.21-9.73,10.24-16.55,12.71
		c-3.65,1.33-7.19-1.53-7.02-6.08c0.17-4.51,0.92-9.06,1.99-13.45c1.96-8.07,4.38-16.03,6.47-24.07c0.29-1.1,0.21-2.98-0.45-3.47
		c-0.78-0.57-2.59-0.39-3.6,0.14c-8.67,4.53-15.22,10.89-17.41,20.87c-1.65,7.53-3.37,15.05-5.02,22.58
		c-0.38,1.73-1.22,2.54-3.06,2.43c-1.68-0.1-3.37-0.03-5.05,0.09c-1.97,0.14-2.44-0.7-2.02-2.51c2.33-10.02,4.61-20.05,6.92-30.07
		c0.87-3.76,1.82-7.5,2.58-11.28c0.19-0.95-0.26-2.02-0.41-3.03c-0.99,0.31-2.18,0.38-2.94,0.97c-2.1,1.64-3.96,3.58-6.04,5.23
		c-0.58,0.46-2.14,0.72-2.31,0.46c-0.49-0.75-0.99-2.27-0.61-2.69c5.1-5.56,10.34-10.99,18.01-13c3.78-0.99,6.63,0.43,5.24,5.13
		C475.66,61.38,475.35,64.54,474.69,68.12z"/>
	<path class="st0" d="M445.73,52.59c-0.55,2.15-1.14,4.29-1.65,6.44c-3.11,13.08-6.23,26.16-9.26,39.25
		c-0.24,1.02,0.21,2.2,0.33,3.3c1.22-0.22,2.65-0.1,3.62-0.72c2.15-1.38,4.01-3.21,6.13-4.67c0.69-0.47,1.8-0.33,2.71-0.47
		c-0.01,1.11,0.44,2.78-0.12,3.23c-4.72,3.87-9.46,7.75-14.52,11.14c-2.41,1.61-5.82,2.62-8.38,0.53c-2.47-2.02-0.77-4.97-0.15-7.51
		c0.23-0.94,0.48-1.86,0.91-3.56c-3.25,2.7-5.82,5.07-8.64,7.1c-2.47,1.77-5.1,3.43-7.87,4.63c-5.13,2.2-9.69-0.12-11.47-5.41
		c-2.04-6.05-1.09-12.09,0.83-17.8c3.3-9.8,8.92-18.2,16.63-25.27c6.52-5.98,14.21-7.8,22.67-7.91c1.09-0.01,2.19-0.8,3.26-1.25
		c1.4-0.59,2.78-1.22,4.17-1.84C445.19,52.07,445.46,52.33,445.73,52.59z M406.61,93.67c0,0.49-0.01,0.99,0,1.48
		c0.15,6.88,3.58,8.86,9.6,5.56c4.73-2.59,8.08-6.56,9.72-11.54c2.44-7.4,4.26-15.01,6.36-22.52c0.61-2.16-0.19-3.14-2.4-3.29
		c-6.55-0.45-11.92,1.73-15.62,7.23C409.6,77.55,406.8,85.19,406.61,93.67z"/>
	<path class="st0" d="M601.64,71.32c-1.09,16.5-8.91,28.94-23.78,35.89c-11.04,5.16-21.66-0.71-23.24-12.49
		c-2.09-15.6,8.26-35.51,21.88-41.72c13.71-6.26,24.98,0.89,25.15,15.94C601.65,69.74,601.64,70.53,601.64,71.32z M565.84,83.15
		c0.21,3.45,0.11,6.95,0.72,10.33c0.7,3.84,2.09,7.64,6.41,8.89c3.96,1.15,6.84-1.08,9.38-3.74c7.19-7.54,10.18-27.92,5.49-37.24
		c-2.12-4.21-6.37-5.6-10.46-3.2c-1.5,0.88-2.84,2.14-3.99,3.47C568.07,67.81,566.28,75.2,565.84,83.15z"/>
	<path class="st0" d="M271.85,98.61c1.77-14.83,6.56-29.05,19.65-38.95c2.66-2.01,6.47-2.82,9.89-3.44c3.81-0.69,7.36,0.57,9.41,4.2
		c2.11,3.76,1.71,7.66-0.19,11.37c-3.04,5.94-8.5,9.26-14.03,12.38c-3.44,1.94-7.05,3.6-10.65,5.25c-1.73,0.79-2.69,1.88-2.62,3.83
		c0.07,2.07-0.08,4.16,0.08,6.23c0.31,4.12,2.67,5.92,6.66,4.69c2.7-0.83,5.29-2.18,7.77-3.58c2.4-1.37,4.52-3.22,6.91-4.62
		c0.64-0.37,2.3-0.15,2.61,0.35c0.49,0.77,0.69,2.5,0.19,2.99c-5.84,5.68-11.93,11.18-19.88,13.68c-9.33,2.94-14.16-0.32-15.5-10
		C271.98,101.82,271.98,100.62,271.85,98.61z M284.73,84.76c0.8-0.19,1.33-0.18,1.67-0.42c4.39-3.14,8.88-6.18,13.07-9.58
		c1.32-1.08,2.46-3.15,2.53-4.81c0.09-2.07-0.46-4.71-1.78-6.12c-0.93-0.99-3.71-0.71-5.49-0.27c-1.26,0.31-2.44,1.67-3.29,2.83
		C287.5,71.76,285.86,77.99,284.73,84.76z"/>
	<path class="st0" d="M524.42,109.59c-4.31-0.21-8.38-0.76-11.54-4.04c-2.87-2.98-3.75-7.56-1.93-10.64
		c1.13-1.91,2.81-2.86,4.98-2.33c2.1,0.51,3.44,1.89,3.58,4.19c0.02,0.4,0.05,0.79,0.06,1.19c0.08,5.24,2.39,7.39,7.54,6.49
		c2.35-0.41,4.88-1.2,6.77-2.58c3.45-2.53,4.23-6.37,2.05-10.05c-1.79-3.03-4.17-5.75-6.49-8.43c-4.7-5.46-8.01-11.26-6.18-18.89
		c2.43-10.12,16.94-16.48,25.69-10.93c1.81,1.15,3.21,3.43,4.04,5.49c0.79,1.96-0.43,3.78-2.38,4.89c-1.97,1.12-3.64,0.52-5.13-0.84
		c-0.87-0.8-1.56-1.79-2.34-2.69c-2.9-3.34-5.87-4.04-8.83-2.09c-2.98,1.96-4.14,6.06-2.27,9.52c1.3,2.4,3.23,4.46,4.82,6.71
		c2.78,3.93,6.33,7.56,8.07,11.91c3.04,7.57-0.08,14.69-7.09,19.49C533.74,108.78,529.12,109.42,524.42,109.59z"/>
</g>
</svg>
