<?xml version="1.0" encoding="utf-8"?>
<!-- Generator: Adobe Illustrator 24.3.0, SVG Export Plug-In . SVG Version: 6.00 Build 0)  -->
<svg version="1.1" id="Capa_1" xmlns="http://www.w3.org/2000/svg" xmlns:xlink="http://www.w3.org/1999/xlink" x="0px" y="0px"
	 viewBox="0 0 601.6 117.2" style="enable-background:new 0 0 601.6 117.2;" xml:space="preserve">
<style type="text/css">
	.st0{fill:#23171B;}
</style>
<g>
	<path class="st0" d="M69.2,100.6c-1.4,1-2.3,1.5-3.1,2.2c-8.3,7-17.7,12-28.5,13.8c-12.3,2-23.5-0.3-31.4-10.8
		c-6.2-8.2-7.9-17.4-4.7-27.5c4.8-14.8,15-24.3,28.8-30.4c1.9-0.8,3.9-1.3,5.9-1.8c1.9-0.5,2.7-1.3,2-3.6c-0.9-3.2-2.5-4.8-5.8-5.4
		c-4.9-1-9.4-3.1-13-6.7C13.1,23.7,14,14,21.2,8.2c6.4-5.1,13.6-5.3,21.1-5c0.9,0,2.2,0.4,2.7,1.1c0.7,1,1.4,2.5,1.2,3.6
		c-0.1,0.6-2,1.5-3,1.4c-4.2-0.5-8.4-1.1-12.5,0.9c-7.4,3.7-8.7,12.1-2.5,17.5c0.8,0.7,1.8,1.3,2.7,1.8c5.6,3.1,5.5,3,8.1-2.6
		c3.8-8.3,10.4-14,18.3-18c10-5.1,20.7-7.2,31.9-5.6c4.7,0.7,9.1,1.9,10.9,6.8c1.9,5.1-0.2,9.5-3.4,13.4
		c-4.4,5.4-10.3,8.7-16.7,10.8c-8.7,2.9-17.5,4.9-26.8,4.6c-0.6,0-1.2,0-1.8,0.2c-0.5,0.2-0.8,0.7-1.3,1.1c0.5,0.4,0.9,1.2,1.4,1.3
		c1.9,0.1,3.8,0,5.6-0.1c4.2,0,8.5-0.8,12.4,1.7c2,1.3,4.4,2.8,3.5,5.2c-0.7,2.1-2.6,4.4-4.6,5.2c-6.8,2.7-13.8,2-20.1-1.3
		c-4.5-2.4-8.2-2.1-12.4,0.5c-10.6,6.5-17.4,15.7-18.8,28.1c-1.4,12.3,5,24.8,22,23.7c2.9-0.2,5.9-0.8,8.7-1.7
		c10.8-3.4,20.1-9.4,27.2-18.2c2.8-3.5,4.9-7.6,7.2-11.6c9.4-16.6,18.7-33.3,28-49.9c0.6-1.1,1.3-2.4,1.2-3.6
		c-0.3-3.5,1.6-4.4,4.6-4.6c2.8-0.1,5.5-0.6,8.3-0.8c2.1-0.2,3,0.9,2.9,2.8c-0.1,1.4-0.3,3-1,4.3c-4.3,8.2-8.8,16.4-13.2,24.6
		c-9.3,17.2-18.5,34.5-27.7,51.8c-1.1,2-1.9,4.1-2.5,6.3c-0.6,2.2,0.9,3.2,2.7,2.3c2.2-1,4.3-2.4,6.1-4c6.3-5.8,10.6-13,14.8-20.3
		c0.7-1.2,1.4-2.4,2.3-3.5c0.4-0.5,1.3-0.5,2-0.8c0.2,0.7,0.6,1.4,0.6,2.1c0,0.5-0.2,1.2-0.6,1.7c-5.8,8.2-11.3,16.7-17.6,24.6
		c-2.8,3.5-7.1,6-11.1,8.2c-7.2,4.1-13.2,0.3-13.2-7.9C69.2,104.6,69.2,102.9,69.2,100.6z M51,32.1c0.3,0.4,0.6,0.8,0.9,1.3
		c2.8-0.2,5.6-0.3,8.4-0.7c10.1-1.5,19.3-4.9,26.9-12c2.7-2.5,4.6-5.5,3-9.2c-1.6-3.7-5.2-3.6-8.5-3.3c-10.2,0.9-18.1,6.5-24.8,13.7
		C54.3,24.7,52.9,28.7,51,32.1z M60.3,48.4c-2.2-2-3.5-2.1-5.8,0C56.7,48.4,58.3,48.4,60.3,48.4z"/>
	<path class="st0" d="M244.8,58.8c0.8,1.2,1.2,1.9,1.7,2.6c4.7,5.9,4.9,12.3,2,19c-2.2,5.2-4.3,10.4-6.4,15.7
		c-0.4,1-0.7,2.1-0.8,3.2c-0.3,3.2,1.3,4.8,4.4,4.2c5.1-1,9-4.2,12.2-8c3.2-3.8,5.8-8,8.7-12c1.1-1.5,2.3-3,3.5-4.4
		c0.4-0.4,1.4-0.7,1.7-0.5c0.5,0.3,0.7,1.1,0.7,1.8c0,0.5-0.2,1.2-0.5,1.6c-5.8,8.6-11.3,17.5-19.3,24.3c-4,3.4-8.4,5.8-13.6,6.8
		c-6.2,1.2-13.5-2.8-13.4-11.2c0.1-7,2.7-12.8,6-18.6c2.6-4.6,5.1-9.2,7.5-13.8c0.6-1.1,0.9-2.4,1.1-3.7c0.6-5.3,0.4-5.4-4.8-6.5
		c-0.9-0.2-1.6-1.4-2.4-2.1c0.8-0.7,1.5-1.8,2.4-2.1c4.8-1.2,9.8-1.7,14.3-3.5c11.3-4.5,18-13.2,20.3-25.1
		c1.9-10-5.8-19.7-16.9-20.7c-16.3-1.6-31,2.9-44.1,12.6c-7.5,5.6-13.9,12.2-16.9,21.2c-1.3,3.8-1.9,8.1-1.9,12.2
		c0,6.2,5.6,9.7,11.5,7.6c2.3-0.8,4.3-2.4,6.5-3.5c0.8-0.4,1.9-0.5,2.8-0.7c-0.1,0.9,0.2,2.1-0.3,2.7c-4.8,6-10.4,11.2-18.2,12.3
		c-8.6,1.2-14.6-4.4-15.2-13.8c-0.7-10.5,3.2-19.6,9.6-27.6C197.1,15.9,210.7,8.3,226,3.6c11.6-3.6,23.3-4.7,35.2-2.3
		c9,1.8,16.7,5.6,20.4,14.9c4.2,10.6,1.2,19.8-6,27.9c-7,7.9-16.3,11.6-26.4,13.8C247.9,58.1,246.6,58.4,244.8,58.8z"/>
	<path class="st0" d="M160.9,116.2c-5.5-0.2-10.9-1-15-5.6c-3.2-3.6-4.4-7.7-3-12.4c1-3.4,3.2-5.4,6.7-6c3.1-0.5,5.6,0.7,7.1,3.2
		c1.6,2.9,1.7,6-0.4,8.9c-2,2.7-1.7,4.1,1,5.9c3.4,2.3,7.2,2,10.9,1c8.3-2.1,14.3-7.5,19.6-13.7c8.7-10.1,14.4-22.2,21.4-33.4
		c6.7-10.8,12.9-21.8,20.2-32.2c7.1-10.1,17-16.7,29.3-19.2c1-0.2,2.2-0.4,3.2-0.1c0.7,0.2,1.4,1.1,1.6,1.8c0.1,0.5-0.6,1.5-1.1,1.7
		c-11.5,3.9-16,14.1-21.4,23.5c-8.7,15.3-16.9,30.9-26.2,45.9c-6.7,10.8-16.3,19.2-27.9,24.7C178.8,114.1,170.1,115.9,160.9,116.2z"
		/>
	<path class="st0" d="M319.1,71.6c-2.6-1.5-2.9-3-0.7-4.7c4.2-3.2,8.4-6.5,12.7-9.6c1.2-0.9,2.9-1.2,4.4-1.5c4-0.7,5.5,0.8,4.8,4.9
		c-0.5,2.5-1.1,5-1.6,7.5c0,0.2,0.1,0.5,0.3,1.1c3.7-3.2,7-6.6,10.8-9.4c2.5-1.9,5.5-3.5,8.6-4.4c4.4-1.3,6.7,0.7,6.7,5.2
		c0,2-0.4,4.1-0.7,6.8c2.2-2.1,3.9-4,5.9-5.4c3.6-2.5,7.2-5.2,11.2-7c4.4-2,8.7,1.1,8.3,6c-0.4,4.7-1.7,9.3-2.8,13.9
		c-2.2,8.6-4.6,17.2-6.8,25.8c-0.2,0.9,0.2,2,0.4,3c1.1-0.2,2.5,0,3.3-0.6c2.2-1.6,4-3.5,6.1-5.1c0.6-0.4,2-0.5,2.4-0.1
		s0.6,2,0.3,2.4c-4.2,3.7-8.3,7.6-12.9,10.9c-5.9,4.2-9.8-0.9-9.7-5.7c0.1-4,0.7-8.1,1.7-12c1.5-6.2,3.6-12.3,5.3-18.5
		c0.7-2.7,1.4-5.4,1.7-8.1c0.4-2.6-1-3.7-3.3-2.4c-6,3.1-11.3,7.5-13.4,14.1c-2.9,9.3-5.2,18.9-7.3,28.4c-0.7,3.1-1.8,4.3-5,4.2
		c-5.7-0.2-5.7-0.1-4.4-5.7c2.8-11.8,5.6-23.7,8.2-35.6c0.4-1.6,0-3.4,0-5.1c-1.8,0.6-3.8,0.8-5.3,1.8c-9.5,6-13,15.5-14.9,25.9
		c-1,5.2-2.2,10.5-3.2,15.7c-0.5,2.5-1.7,3.4-4.3,3.3c-5.9-0.2-6.8,1.5-5.1-6.2c2.8-12.4,5.4-24.7,8-37.1c0.2-1-0.1-2.2-0.2-3.3
		c-1.1,0.4-2.3,0.6-3.2,1.2C323.4,67.8,321.3,69.7,319.1,71.6z"/>
	<path class="st0" d="M474.7,68.1c4.9-4,9.2-7.7,13.6-11.1c2-1.5,4.3-2.9,6.7-3.8c5.6-2.1,9.7,0.9,9,6.8c-0.5,4.5-1.9,8.9-3,13.3
		c-2,7.6-4.2,15-6.1,22.6c-0.5,1.8,0.1,4,0.2,5.9c1.8-0.9,3.7-1.6,5.3-2.7c1.7-1.2,3-2.9,4.6-4.2c0.6-0.4,2.2-0.6,2.4-0.3
		c0.4,0.8,0.9,2.3,0.5,2.8c-4.8,5.2-9.7,10.2-16.5,12.7c-3.6,1.3-7.2-1.5-7-6.1c0.2-4.5,0.9-9.1,2-13.4c2-8.1,4.4-16,6.5-24.1
		c0.3-1.1,0.2-3-0.5-3.5c-0.8-0.6-2.6-0.4-3.6,0.1c-8.7,4.5-15.2,10.9-17.4,20.9c-1.6,7.5-3.4,15.1-5,22.6c-0.4,1.7-1.2,2.5-3.1,2.4
		c-1.7-0.1-3.4,0-5,0.1c-2,0.1-2.4-0.7-2-2.5c2.3-10,4.6-20,6.9-30.1c0.9-3.8,1.8-7.5,2.6-11.3c0.2-0.9-0.3-2-0.4-3
		c-1,0.3-2.2,0.4-2.9,1c-2.1,1.6-4,3.6-6,5.2c-0.6,0.5-2.1,0.7-2.3,0.5c-0.5-0.8-1-2.3-0.6-2.7c5.1-5.6,10.3-11,18-13
		c3.8-1,6.6,0.4,5.2,5.1C475.7,61.4,475.4,64.5,474.7,68.1z"/>
	<path class="st0" d="M445.7,52.6c-0.5,2.2-1.1,4.3-1.6,6.4c-3.1,13.1-6.2,26.2-9.3,39.2c-0.2,1,0.2,2.2,0.3,3.3
		c1.2-0.2,2.6-0.1,3.6-0.7c2.1-1.4,4-3.2,6.1-4.7c0.7-0.5,1.8-0.3,2.7-0.5c0,1.1,0.4,2.8-0.1,3.2c-4.7,3.9-9.5,7.8-14.5,11.1
		c-2.4,1.6-5.8,2.6-8.4,0.5c-2.5-2-0.8-5-0.1-7.5c0.2-0.9,0.5-1.9,0.9-3.6c-3.2,2.7-5.8,5.1-8.6,7.1c-2.5,1.8-5.1,3.4-7.9,4.6
		c-5.1,2.2-9.7-0.1-11.5-5.4c-2-6.1-1.1-12.1,0.8-17.8c3.3-9.8,8.9-18.2,16.6-25.3c6.5-6,14.2-7.8,22.7-7.9c1.1,0,2.2-0.8,3.3-1.2
		c1.4-0.6,2.8-1.2,4.2-1.8C445.2,52.1,445.5,52.3,445.7,52.6z M406.6,93.7c0,0.5,0,1,0,1.5c0.1,6.9,3.6,8.9,9.6,5.6
		c4.7-2.6,8.1-6.6,9.7-11.5c2.4-7.4,4.3-15,6.4-22.5c0.6-2.2-0.2-3.1-2.4-3.3c-6.5-0.5-11.9,1.7-15.6,7.2
		C409.6,77.6,406.8,85.2,406.6,93.7z"/>
	<path class="st0" d="M601.6,71.3c-1.1,16.5-8.9,28.9-23.8,35.9c-11,5.2-21.7-0.7-23.2-12.5c-2.1-15.6,8.3-35.5,21.9-41.7
		c13.7-6.3,25,0.9,25.2,15.9C601.7,69.7,601.6,70.5,601.6,71.3z M565.8,83.2c0.2,3.4,0.1,6.9,0.7,10.3c0.7,3.8,2.1,7.6,6.4,8.9
		c4,1.2,6.8-1.1,9.4-3.7c7.2-7.5,10.2-27.9,5.5-37.2c-2.1-4.2-6.4-5.6-10.5-3.2c-1.5,0.9-2.8,2.1-4,3.5
		C568.1,67.8,566.3,75.2,565.8,83.2z"/>
	<path class="st0" d="M271.9,98.6c1.8-14.8,6.6-29.1,19.6-39c2.7-2,6.5-2.8,9.9-3.4c3.8-0.7,7.4,0.6,9.4,4.2
		c2.1,3.8,1.7,7.7-0.2,11.4c-3,5.9-8.5,9.3-14,12.4c-3.4,1.9-7,3.6-10.6,5.2c-1.7,0.8-2.7,1.9-2.6,3.8c0.1,2.1-0.1,4.2,0.1,6.2
		c0.3,4.1,2.7,5.9,6.7,4.7c2.7-0.8,5.3-2.2,7.8-3.6c2.4-1.4,4.5-3.2,6.9-4.6c0.6-0.4,2.3-0.2,2.6,0.3c0.5,0.8,0.7,2.5,0.2,3
		c-5.8,5.7-11.9,11.2-19.9,13.7c-9.3,2.9-14.2-0.3-15.5-10C272,101.8,272,100.6,271.9,98.6z M284.7,84.8c0.8-0.2,1.3-0.2,1.7-0.4
		c4.4-3.1,8.9-6.2,13.1-9.6c1.3-1.1,2.5-3.2,2.5-4.8c0.1-2.1-0.5-4.7-1.8-6.1c-0.9-1-3.7-0.7-5.5-0.3c-1.3,0.3-2.4,1.7-3.3,2.8
		C287.5,71.8,285.9,78,284.7,84.8z"/>
	<path class="st0" d="M524.4,109.6c-4.3-0.2-8.4-0.8-11.5-4c-2.9-3-3.8-7.6-1.9-10.6c1.1-1.9,2.8-2.9,5-2.3c2.1,0.5,3.4,1.9,3.6,4.2
		c0,0.4,0,0.8,0.1,1.2c0.1,5.2,2.4,7.4,7.5,6.5c2.3-0.4,4.9-1.2,6.8-2.6c3.5-2.5,4.2-6.4,2-10.1c-1.8-3-4.2-5.8-6.5-8.4
		c-4.7-5.5-8-11.3-6.2-18.9c2.4-10.1,16.9-16.5,25.7-10.9c1.8,1.2,3.2,3.4,4,5.5c0.8,2-0.4,3.8-2.4,4.9c-2,1.1-3.6,0.5-5.1-0.8
		c-0.9-0.8-1.6-1.8-2.3-2.7c-2.9-3.3-5.9-4-8.8-2.1c-3,2-4.1,6.1-2.3,9.5c1.3,2.4,3.2,4.5,4.8,6.7c2.8,3.9,6.3,7.6,8.1,11.9
		c3,7.6-0.1,14.7-7.1,19.5C533.7,108.8,529.1,109.4,524.4,109.6z"/>
</g>
</svg>
