<?xml version="1.0" encoding="utf-8"?>
<!-- Generator: Adobe Illustrator 25.1.0, SVG Export Plug-In . SVG Version: 6.00 Build 0)  -->
<svg version="1.1" id="Capa_1" xmlns="http://www.w3.org/2000/svg" xmlns:xlink="http://www.w3.org/1999/xlink" x="0px" y="0px"
	 viewBox="0 0 172.75 299.5" style="enable-background:new 0 0 172.75 299.5;" xml:space="preserve">
<style type="text/css">
	.st0{clip-path:url(#SVGID_2_);}
	.st1{fill:#FFFFFF;stroke:#50464A;stroke-miterlimit:10;}
	.st2{fill:#50464A;}
</style>
<g>
	<defs>
		<rect id="SVGID_1_" width="172.75" height="299.5"/>
	</defs>
	<clipPath id="SVGID_2_">
		<use xlink:href="#SVGID_1_"  style="overflow:visible;"/>
	</clipPath>
	<g class="st0">
		<polygon class="st1" points="86.37,0 0,0 0,47.6 86.37,47.6 86.37,47.6 172.75,47.6 172.75,0 		"/>
		<g>
			<path class="st2" d="M20.55,12.97c0.71-2.09,1.92-3.63,3.61-4.76c2.84-1.91,5.96-2.73,9.37-2.15c2.59,0.44,3.41,2.42,1.91,4.59
				c-1.09,1.58-2.71,2.46-4.47,3.06c-1.93,0.66-3.91,1.07-5.96,1.14c-0.28,0.01-0.56,0.06-0.89,0.29c0.21,0.08,0.42,0.22,0.64,0.23
				c0.33,0.02,0.67-0.08,1.01-0.08c0.67,0.02,1.36,0,2.01,0.13c0.99,0.2,1.66,0.91,1.65,1.58c-0.01,0.66-0.56,1.23-1.55,1.5
				c-1.56,0.43-3.1,0.26-4.5-0.49c-1.08-0.58-1.97-0.51-2.98,0.12c-2.76,1.73-4.49,4.12-4.61,7.43c-0.12,3.46,2.42,5.67,5.83,5.08
				c4.02-0.69,7.21-2.72,9.26-6.3c2.45-4.27,4.86-8.58,7.26-12.88c0.39-0.7,0.62-1.5,1.01-2.46c0.73-0.09,1.62-0.26,2.53-0.3
				c0.83-0.04,1.16,0.38,0.93,1.19c-0.14,0.5-0.4,0.99-0.65,1.45c-2.42,4.41-4.86,8.8-7.26,13.21c-0.9,1.65-1.72,3.35-2.55,5.04
				c-0.2,0.4-0.25,0.88-0.38,1.35c0.97,0.33,1.45-0.21,1.94-0.63c1.55-1.36,2.62-3.08,3.66-4.84c0.28-0.48,0.62-0.92,0.94-1.39
				c0.62,0.39,0.47,0.79,0.27,1.1c-1.49,2.25-2.72,4.71-4.8,6.51c-0.72,0.62-1.56,1.15-2.43,1.53c-1.6,0.7-2.77-0.07-2.94-1.81
				c-0.04-0.38-0.04-0.77-0.06-1.19c-0.62-0.16-0.9,0.32-1.25,0.59c-1.92,1.45-4.02,2.52-6.41,2.9c-3.67,0.6-7.54-0.62-8.87-5.11
				c-0.75-2.54-0.12-4.9,1.35-7.02c1.69-2.45,3.91-4.26,6.85-5.07c0.27-0.08,0.53-0.22,0.77-0.32c-0.07-1.42-0.14-1.51-1.32-1.89
				c-0.55-0.18-1.11-0.36-1.63-0.61c-1.53-0.75-2.66-1.87-2.61-3.67c0.05-1.87,1.26-3.06,2.89-3.62c1.11-0.38,2.37-0.35,3.56-0.43
				c0.3-0.02,0.68,0.16,0.9,0.38c0.17,0.16,0.27,0.56,0.19,0.77c-0.07,0.2-0.41,0.35-0.66,0.41c-0.22,0.05-0.47-0.06-0.71-0.07
				c-0.38-0.02-0.77-0.07-1.16-0.04c-1.33,0.12-2.47,1.01-2.69,2.07c-0.26,1.21,0.39,2.35,1.75,3.01
				C19.63,12.68,20,12.77,20.55,12.97z M24,13.34c3.59-0.14,6.51-0.95,8.89-3.24c0.17-0.16,0.32-0.36,0.44-0.57
				c0.61-1.08,0.16-2.07-1.07-2.19c-0.66-0.07-1.38-0.06-2,0.14c-2.15,0.69-4,1.88-5.32,3.76C24.58,11.76,24.4,12.42,24,13.34z
				 M26.01,17.1c0-0.1-0.08-0.29-0.29-0.32c-0.21-0.03-0.34,0.04-0.39,0.2C25.5,17.15,25.67,17.2,26.01,17.1z"/>
			<path class="st2" d="M68.43,18.94c0.73-0.19,1.46-0.42,2.2-0.55c3.34-0.58,6-3.12,6.69-6.43c0.43-2.05-0.57-4.08-2.52-4.83
				c-0.88-0.34-1.88-0.55-2.82-0.53c-4.85,0.08-8.92,1.91-12.05,5.67c-1.14,1.37-1.86,2.94-1.98,4.74
				c-0.06,0.93-0.04,1.87,0.88,2.45c0.94,0.59,1.85,0.34,2.74-0.15c0.41-0.23,0.81-0.48,1.19-0.71c0.53,0.53,0.22,0.96-0.09,1.2
				c-1.05,0.83-2.08,1.78-3.28,2.33c-2.06,0.96-4.02-0.16-4.53-2.38c-0.38-1.67-0.12-3.3,0.61-4.8c0.57-1.16,1.22-2.35,2.1-3.27
				c4.88-5.09,10.84-7.21,17.85-6.1c1.65,0.26,3.15,0.98,4.14,2.43c1.48,2.19,1.46,4.45,0.14,6.69c-1.35,2.29-3.49,3.55-5.96,4.3
				c-0.73,0.22-1.48,0.41-2.31,0.63c0.19,0.39,0.31,0.7,0.48,0.96c0.86,1.28,0.85,2.63,0.31,4.01c-0.35,0.9-0.76,1.78-1.12,2.67
				c-0.23,0.58-0.5,1.17-0.61,1.77c-0.07,0.38,0.01,0.96,0.25,1.16c0.25,0.2,0.85,0.19,1.2,0.04c1.42-0.6,2.49-1.63,3.37-2.88
				c0.53-0.75,1.01-1.53,1.55-2.27c0.23-0.32,0.42-0.8,1.13-0.6c-0.07,0.3-0.07,0.64-0.22,0.87c-1.3,1.97-2.58,3.97-4.36,5.58
				c-0.99,0.89-2.09,1.56-3.4,1.85c-1.94,0.42-3.44-0.67-3.42-2.63c0.01-0.99,0.2-2.03,0.58-2.94c0.58-1.37,1.42-2.63,2.1-3.96
				c0.34-0.68,0.63-1.41,0.82-2.15c0.17-0.67,0.01-1.25-0.86-1.35c-0.49-0.05-1.12,0.08-0.91-0.64
				C68.36,19.13,68.43,18.94,68.43,18.94z"/>
			<path class="st2" d="M67.26,20.64c-1.36,2.45-2.65,4.93-4.49,7.08c-2.96,3.47-6.65,5.54-11.24,5.83
				c-0.76,0.05-1.55,0.02-2.31-0.12c-1.62-0.3-2.77-1.5-2.96-2.98c-0.11-0.86,0.08-1.64,0.74-2.24c0.6-0.55,1.34-0.66,2.01-0.34
				c0.75,0.36,1.05,0.97,0.99,1.77c-0.02,0.28-0.09,0.57-0.2,0.84c-0.5,1.27-0.19,1.85,1.18,2c1.47,0.16,2.75-0.38,3.92-1.21
				c2.06-1.45,3.51-3.44,4.78-5.56c2.06-3.44,4.1-6.89,6.14-10.34c1.5-2.54,3.34-4.75,6.05-6.06c0.86-0.42,1.79-0.71,2.71-0.97
				c0.36-0.1,0.78,0.05,1.17,0.08c0.04,0.12,0.07,0.24,0.11,0.35c-0.26,0.22-0.5,0.51-0.8,0.63c-1.35,0.57-2.34,1.54-3.08,2.76
				c-1.1,1.81-2.14,3.67-3.17,5.53C68.61,18.08,67.6,20.02,67.26,20.64z"/>
			<path class="st2" d="M104.1,20.86c-0.49,0-1.33,0.37-1.71,0.61c-1.74,1.1-2.65,2.75-3.11,4.71c-0.47,2.02-0.98,4.02-1.49,6.12
				c-0.71,0-1.36,0-2.21,0c0.09-0.61,0.13-1.17,0.25-1.7c0.6-2.64,1.23-5.27,1.82-7.9c0.03-0.09,0.27-1.57,0.27-1.57
				c-1.53,0.3-3.27,1.64-3.98,3.22c-0.41,0.92-0.7,1.9-0.95,2.88c-0.31,1.22-0.52,2.46-0.77,3.69c-0.34,1.69-0.69,1.87-2.71,1.29
				c0.76-3.59,1.53-7.2,2.31-10.9c-1.06,0.07-1.55,0.81-2.76,1.35c-0.27-0.3-0.22-0.69-0.1-0.83c1.13-1.35,2.46-2.47,4.21-2.94
				c1.11-0.29,1.53,0.15,1.33,1.3c-0.09,0.52-0.21,1.03-0.38,1.8c0.43-0.29,2.53-1.98,3.37-2.63c0.26-0.2,0.59-0.34,0.9-0.46
				c1.5-0.56,2.18-0.06,2.15,1.57c0,0.24-0.03,0.47-0.07,1.05c0.54-0.46,0.85-0.77,1.21-1.02c0.87-0.6,1.7-1.31,2.65-1.72
				c1.33-0.58,2.35,0.18,2.24,1.64c-0.08,1.05-0.38,2.08-0.65,3.11c-0.51,1.96-1.07,3.91-1.58,5.87c-0.09,0.35-0.06,0.73-0.11,1.42
				c0.68-0.39,1.12-0.61,1.53-0.88c0.32-0.21,0.57-0.52,0.89-0.73c0.12-0.08,0.46-0.06,0.5,0.01c0.09,0.18,0.15,0.52,0.05,0.61
				c-1.08,0.95-2.13,1.96-3.33,2.74c-0.92,0.6-1.87,0.09-2.03-1.02c-0.12-0.79-0.08-1.65,0.11-2.43c0.45-1.92,1.04-3.82,1.56-5.73
				C103.73,22.64,103.85,21.84,104.1,20.86z"/>
			<path class="st2" d="M127.4,21.72c1.12-0.92,2-1.67,2.91-2.37c0.5-0.38,1.03-0.73,1.6-0.99c1.7-0.78,2.75,0,2.56,1.89
				c-0.04,0.38-0.13,0.76-0.23,1.13c-0.56,2-1.16,3.99-1.69,5.99c-0.22,0.82-0.32,1.66-0.49,2.58c1.63,0.03,2.86-1.7,3.27-1.74
				c0.08,0.04,0.14,0.71,0,0.86c-1.04,1.22-2.21,2.31-3.71,2.95c-0.97,0.41-1.79-0.03-1.92-1.07c-0.1-0.75-0.05-1.56,0.12-2.29
				c0.46-1.92,1.02-3.82,1.54-5.73c0.2-0.73,0.61-2.29,0.23-2.43c-0.37-0.14-0.92,0.16-1.25,0.36c-1.86,1.15-3.34,2.61-3.83,4.86
				c-0.43,1.98-0.91,3.94-1.4,6.03c-0.78,0-1.51,0-2.42,0c0.43-1.96,0.85-3.83,1.24-5.71c0.37-1.81,1-3.57,1.14-5.57
				c-1.23,0.24-1.76,1.14-2.51,1.67c-0.46-0.05-0.75-0.44-0.39-0.84c1.2-1.34,2.47-2.61,4.3-3.06c1.09-0.27,1.44,0.08,1.32,1.17
				c-0.04,0.34-0.1,0.67-0.16,1C127.56,20.74,127.51,21.06,127.4,21.72z"/>
			<path class="st2" d="M120.23,18.07c-0.91,4.06-2.35,7.82-2.65,11.85c1.38,0.14,1.89-1.1,2.84-1.43c0.55,0.24,0.56,0.59,0.23,0.93
				c-1.11,1.15-2.27,2.25-3.8,2.84c-0.27,0.1-0.56,0.16-0.85,0.18c-0.91,0.06-1.24-0.27-1.17-1.18c0.03-0.38,0.12-0.75,0.22-1.33
				c-0.37,0.24-0.62,0.39-0.86,0.55c-0.96,0.64-1.86,1.41-2.89,1.89c-1.31,0.62-2.37,0.07-2.86-1.31c-0.53-1.49-0.27-2.98,0.21-4.41
				c0.77-2.27,2.05-4.25,3.82-5.9c1.37-1.28,2.93-2.03,4.8-2.1c0.77-0.03,1.55,0.03,2.17-0.58
				C119.54,17.99,119.8,18.07,120.23,18.07z M116.85,20.97c-1.87-0.46-3.24,0.02-4.29,1.56c-0.91,1.33-1.53,2.79-1.7,4.4
				c-0.07,0.71-0.11,1.45-0.02,2.15c0.11,0.9,0.69,1.24,1.55,0.95c0.45-0.15,0.88-0.4,1.26-0.68c1.08-0.82,1.7-1.96,2.07-3.23
				c0.41-1.43,0.77-2.88,1.12-4.33C116.91,21.53,116.85,21.24,116.85,20.97z"/>
			<path class="st2" d="M146.77,27.35c0.09-3.02,1.16-5.64,3.32-7.77c1.13-1.11,2.47-1.83,4.09-1.94c1.72-0.12,3.02,0.63,3.65,2.24
				c0.82,2.09,0.56,4.18-0.26,6.2c-0.77,1.92-2.07,3.49-3.79,4.63c-0.74,0.49-1.64,0.87-2.51,1.01c-2.6,0.42-4.38-1.14-4.5-3.79
				C146.76,27.73,146.77,27.54,146.77,27.35z M150.23,29.23c0.43,1.08,1.59,1.36,2.54,0.67c0.6-0.44,1.15-1.06,1.5-1.71
				c1.2-2.21,1.35-4.6,0.91-7.05c-0.04-0.23-0.13-0.47-0.23-0.69c-0.59-1.33-1.83-1.65-2.95-0.74c-0.92,0.75-1.56,1.74-1.87,2.87
				C149.46,25.29,149.8,28.13,150.23,29.23z"/>
			<path class="st2" d="M77.8,29.39c0.3-3.3,1.41-6.37,3.86-8.87c0.91-0.93,1.99-1.53,3.31-1.6c2.1-0.11,3.31,1.48,2.46,3.42
				c-0.37,0.84-1.02,1.68-1.76,2.22c-1.19,0.88-2.56,1.52-3.86,2.27c-0.44,0.26-1.09,0.34-1.1,1.01c-0.01,0.76-0.03,1.56,0.18,2.27
				c0.08,0.27,0.83,0.55,1.2,0.47c0.69-0.13,1.36-0.47,1.99-0.81c0.59-0.32,1.11-0.78,1.7-1.1c0.18-0.1,0.62-0.04,0.72,0.11
				c0.12,0.16,0.06,0.53-0.04,0.75c-0.09,0.2-0.31,0.37-0.5,0.51c-1.05,0.77-2.09,1.55-3.16,2.28c-0.35,0.24-0.78,0.39-1.19,0.51
				c-2.23,0.63-3.45-0.18-3.74-2.47C77.84,30.1,77.83,29.8,77.8,29.39z M81.08,25.86c1.57-0.65,2.67-1.49,3.59-2.55
				c0.72-0.84,0.72-2,0.07-2.46c-0.62-0.44-1.59-0.14-2.21,0.76C81.7,22.81,81.27,24.16,81.08,25.86z"/>
			<path class="st2" d="M139.37,32.04c-0.51-0.11-1.2-0.17-1.82-0.41c-1.11-0.41-1.78-1.6-1.61-2.65c0.12-0.72,0.63-1.24,1.24-1.19
				c0.68,0.06,1.06,0.48,1.06,1.15c0,0.84,0.12,1.61,1.12,1.73c0.99,0.12,1.94-0.04,2.63-0.87c0.59-0.7,0.64-1.56,0.09-2.42
				c-0.36-0.57-0.84-1.05-1.25-1.59c-0.47-0.61-0.99-1.2-1.34-1.88c-0.89-1.68-0.57-3.48,0.76-4.78c1.28-1.25,3.52-1.74,4.96-0.96
				c0.47,0.25,0.87,0.75,1.14,1.22c0.29,0.52,0.04,1.03-0.45,1.38c-0.47,0.34-0.92,0.22-1.32-0.13c-0.29-0.25-0.52-0.57-0.8-0.84
				c-0.64-0.6-1.22-0.71-1.83-0.35c-0.65,0.39-0.95,1.01-0.77,1.73c0.14,0.54,0.43,1.08,0.76,1.53c0.48,0.66,1.06,1.25,1.59,1.88
				c2.87,3.46,0.14,6.87-2.85,7.27C140.3,31.93,139.92,31.98,139.37,32.04z"/>
		</g>
		<rect x="86.38" y="191.54" class="st1" width="86.37" height="71.97"/>
		<rect x="86.38" y="263.52" class="st1" width="86.37" height="71.97"/>
		<rect x="86.38" y="335.49" class="st1" width="86.37" height="71.97"/>
		<rect x="86.38" y="407.36" class="st1" width="86.37" height="71.97"/>
		<rect x="86.34" y="479.22" class="st1" width="86.37" height="71.97"/>
		<rect x="0.06" y="479.22" class="st1" width="86.32" height="71.97"/>
		<rect x="0.06" y="407.36" class="st1" width="86.32" height="71.97"/>
		<rect x="0.05" y="335.49" class="st1" width="86.34" height="71.97"/>
		<rect x="0.05" y="263.52" class="st1" width="86.34" height="71.97"/>
		<rect x="-0.02" y="191.54" class="st1" width="86.37" height="71.97"/>
		<rect x="0.02" y="119.57" class="st1" width="86.34" height="71.97"/>
		<g>
			<path class="st2" d="M19.1,536.88h1.34v9.62H19.1V536.88z M19.75,536.88h5.48v1.28h-5.48V536.88z M19.75,541.09h4.75v1.28h-4.75
				V541.09z M19.75,545.22h5.48v1.28h-5.48V545.22z"/>
			<path class="st2" d="M28.27,546.49c-0.35-0.08-0.68-0.2-0.99-0.36c-0.31-0.16-0.59-0.36-0.85-0.6l0.79-0.99
				c0.37,0.28,0.73,0.49,1.09,0.63c0.36,0.14,0.72,0.21,1.08,0.21c0.53,0,0.93-0.08,1.19-0.25c0.26-0.16,0.4-0.41,0.4-0.74
				c0-0.22-0.07-0.39-0.22-0.5c-0.14-0.11-0.32-0.19-0.54-0.22c-0.21-0.04-0.52-0.07-0.91-0.1c-0.03,0-0.07,0-0.11,0
				c-0.04,0-0.08-0.01-0.11-0.01c-0.02,0-0.04,0-0.05,0c-0.02,0-0.04,0-0.05,0c-0.44-0.03-0.82-0.1-1.12-0.2
				c-0.31-0.09-0.56-0.27-0.76-0.53s-0.3-0.63-0.3-1.12c0-0.48,0.1-0.89,0.29-1.21c0.2-0.32,0.49-0.56,0.88-0.72
				c0.39-0.16,0.88-0.24,1.46-0.24c0.35,0,0.69,0.03,1.01,0.1c0.32,0.07,0.63,0.17,0.92,0.29c0.29,0.13,0.57,0.29,0.85,0.49
				l-0.81,0.98c-0.34-0.22-0.68-0.39-1.01-0.49c-0.33-0.11-0.65-0.17-0.97-0.17c-0.46,0-0.8,0.08-1.02,0.23
				c-0.23,0.16-0.34,0.39-0.34,0.71c0,0.18,0.06,0.32,0.19,0.42c0.13,0.09,0.29,0.15,0.49,0.18c0.2,0.03,0.48,0.06,0.84,0.08
				c0.03,0,0.05,0.01,0.08,0.01c0.03,0,0.06,0,0.09,0.01c0.01,0,0.03,0,0.04,0c0.01,0,0.03,0,0.04,0.01
				c0.48,0.03,0.88,0.09,1.22,0.19c0.33,0.1,0.62,0.29,0.84,0.58c0.23,0.29,0.34,0.7,0.34,1.24c0,0.49-0.1,0.9-0.31,1.23
				c-0.21,0.32-0.53,0.57-0.95,0.73c-0.42,0.16-0.95,0.25-1.59,0.25C29,546.61,28.63,546.57,28.27,546.49z"/>
			<path class="st2" d="M33.96,539.64h1.34v9.66h-1.34V539.64z M35.9,546.3c-0.31-0.21-0.55-0.5-0.7-0.87l0.09-1.44
				c0,0.3,0.05,0.55,0.16,0.75c0.1,0.21,0.26,0.37,0.46,0.48c0.2,0.11,0.44,0.17,0.72,0.17c0.44,0,0.79-0.14,1.03-0.41
				c0.24-0.27,0.36-0.66,0.36-1.15v-1.49c0-0.5-0.12-0.89-0.36-1.17s-0.59-0.42-1.03-0.42c-0.28,0-0.52,0.05-0.72,0.16
				c-0.2,0.1-0.35,0.26-0.46,0.47c-0.1,0.2-0.16,0.45-0.16,0.74l-0.14-1.32c0.21-0.4,0.48-0.71,0.81-0.93s0.7-0.33,1.11-0.33
				c0.48,0,0.89,0.11,1.24,0.33c0.34,0.22,0.6,0.54,0.78,0.96c0.18,0.42,0.27,0.93,0.27,1.52v1.5c0,0.58-0.09,1.08-0.28,1.5
				c-0.18,0.42-0.45,0.73-0.81,0.95c-0.35,0.22-0.78,0.33-1.27,0.33C36.59,546.61,36.22,546.5,35.9,546.3z"/>
			<path class="st2" d="M42.44,546.25c-0.45-0.24-0.79-0.59-1.02-1.05c-0.23-0.46-0.35-1.02-0.35-1.67v-0.77
				c0-0.68,0.11-1.26,0.34-1.74c0.23-0.48,0.55-0.85,0.98-1.1c0.43-0.25,0.94-0.38,1.55-0.38c0.57,0,1.05,0.14,1.45,0.43
				c0.4,0.29,0.71,0.7,0.92,1.25c0.21,0.54,0.32,1.19,0.32,1.95v0.45h-4.59v-1.09h3.32c-0.04-0.56-0.18-1-0.43-1.31
				c-0.25-0.31-0.58-0.47-0.99-0.47c-0.51,0-0.9,0.17-1.18,0.5c-0.28,0.34-0.42,0.81-0.42,1.42v0.87c0,0.57,0.15,1.01,0.44,1.31
				c0.3,0.3,0.72,0.46,1.27,0.46c0.27,0,0.54-0.05,0.81-0.16c0.27-0.11,0.51-0.27,0.72-0.46l0.88,0.89
				c-0.34,0.32-0.72,0.58-1.14,0.76c-0.42,0.18-0.84,0.27-1.27,0.27C43.43,546.61,42.89,546.49,42.44,546.25z"/>
			<path class="st2" d="M49.63,546.26c-0.44-0.23-0.77-0.57-1.01-1.02c-0.23-0.45-0.35-0.98-0.35-1.61v-1.13
				c0-0.62,0.12-1.15,0.35-1.59c0.23-0.44,0.57-0.78,1.01-1.01c0.44-0.23,0.97-0.35,1.59-0.35c0.35,0,0.69,0.04,1,0.13
				c0.31,0.08,0.59,0.21,0.84,0.37c0.25,0.16,0.46,0.36,0.62,0.6l-0.96,0.87c-0.19-0.22-0.42-0.39-0.68-0.51
				c-0.26-0.12-0.53-0.18-0.81-0.18c-0.52,0-0.92,0.15-1.2,0.44c-0.28,0.29-0.43,0.7-0.43,1.23v1.13c0,0.54,0.14,0.96,0.42,1.26
				c0.28,0.3,0.68,0.44,1.2,0.44c0.28,0,0.55-0.06,0.81-0.19c0.26-0.13,0.48-0.31,0.67-0.54l0.96,0.94
				c-0.17,0.23-0.38,0.42-0.63,0.59c-0.25,0.16-0.53,0.28-0.84,0.37c-0.31,0.08-0.64,0.13-0.99,0.13
				C50.6,546.61,50.07,546.49,49.63,546.26z"/>
			<path class="st2" d="M55.16,536.88h1.34v1.35h-1.34V536.88z M55.16,539.64h1.34v6.87h-1.34V539.64z"/>
			<path class="st2" d="M58.82,546.08c-0.41-0.35-0.62-0.88-0.62-1.6c0-0.68,0.19-1.19,0.57-1.53c0.38-0.34,0.96-0.51,1.73-0.51
				h1.93l0.09,1.08H60.5c-0.35,0-0.61,0.08-0.79,0.24c-0.17,0.16-0.26,0.4-0.26,0.72c0,0.35,0.12,0.61,0.35,0.77
				c0.23,0.17,0.58,0.25,1.05,0.25c0.51,0,0.89-0.05,1.14-0.17c0.25-0.11,0.38-0.28,0.38-0.51l0.14,0.96
				c-0.12,0.19-0.26,0.34-0.44,0.46c-0.17,0.12-0.37,0.21-0.6,0.27c-0.23,0.06-0.48,0.09-0.77,0.09
				C59.87,546.61,59.24,546.43,58.82,546.08z M62.37,542.15c0-0.45-0.12-0.8-0.36-1.05c-0.24-0.25-0.58-0.37-1.01-0.37
				c-0.27,0-0.54,0.04-0.8,0.13c-0.26,0.08-0.49,0.2-0.69,0.35l-0.98-0.68c0.26-0.31,0.6-0.56,1.02-0.73
				c0.42-0.17,0.89-0.26,1.41-0.26c0.56,0,1.05,0.1,1.45,0.3c0.4,0.2,0.71,0.49,0.92,0.87c0.21,0.38,0.31,0.84,0.31,1.38v4.41h-1.27
				V542.15z"/>
			<path class="st2" d="M67.01,544.73c0,0.17,0.04,0.3,0.11,0.39c0.07,0.09,0.17,0.14,0.3,0.14h0.63v1.28h-0.79
				c-0.51,0-0.9-0.16-1.18-0.48c-0.28-0.32-0.42-0.77-0.42-1.35v-7.83h1.34V544.73z"/>
		</g>
		<rect y="47.6" class="st1" width="86.37" height="71.97"/>
		<g>
			<path class="st2" d="M82.25,96.06H4.12L14,56.53h58.34l0.12,0.49L82.25,96.06z M5.78,94.76h74.8l-9.26-36.93H15.02L5.78,94.76z"
				/>
		</g>
		<g>
			<path class="st2" d="M30.98,105.1h1.35v9.62h-1.35V105.1z M31.67,109.7h3.08c0.29,0,0.55-0.07,0.77-0.2
				c0.22-0.14,0.39-0.33,0.51-0.58c0.12-0.25,0.18-0.54,0.18-0.87c0-0.33-0.06-0.62-0.18-0.87c-0.12-0.25-0.29-0.45-0.51-0.59
				c-0.22-0.14-0.48-0.21-0.77-0.21h-3.08v-1.28h3.03c0.57,0,1.08,0.12,1.52,0.37c0.44,0.25,0.77,0.59,1.02,1.04
				c0.24,0.45,0.36,0.96,0.36,1.55c0,0.59-0.12,1.1-0.36,1.55c-0.24,0.44-0.58,0.79-1.02,1.03c-0.44,0.24-0.94,0.36-1.52,0.36h-3.03
				V109.7z"/>
			<path class="st2" d="M39.28,105.1h1.35v1.35h-1.35V105.1z M39.28,107.85h1.35v6.87h-1.35V107.85z"/>
			<path class="st2" d="M42.68,107.85h1.35v6.87h-1.35V107.85z M46.85,110.56c0-0.49-0.13-0.86-0.38-1.13
				c-0.25-0.26-0.6-0.4-1.06-0.4c-0.44,0-0.78,0.12-1.02,0.35c-0.24,0.23-0.36,0.56-0.36,0.99l-0.14-1.32
				c0.21-0.41,0.49-0.74,0.83-0.96c0.34-0.23,0.72-0.34,1.13-0.34c0.75,0,1.32,0.24,1.73,0.73c0.41,0.49,0.61,1.18,0.61,2.07v4.17
				h-1.35V110.56z"/>
			<path class="st2" d="M51.36,114.47c-0.42-0.24-0.75-0.58-0.97-1.02c-0.22-0.45-0.33-0.99-0.33-1.62v-1.12
				c0-0.62,0.11-1.16,0.33-1.6c0.22-0.44,0.55-0.78,0.97-1.01c0.42-0.23,0.93-0.35,1.53-0.35s1.11,0.12,1.53,0.35
				c0.42,0.23,0.75,0.57,0.97,1.01c0.22,0.44,0.33,0.98,0.33,1.6v1.14c0,0.63-0.11,1.16-0.33,1.6c-0.22,0.44-0.55,0.78-0.97,1.02
				c-0.42,0.23-0.93,0.35-1.53,0.35S51.78,114.7,51.36,114.47z M53.99,113.09c0.26-0.3,0.39-0.71,0.39-1.24v-1.14
				c0-0.53-0.13-0.95-0.39-1.24c-0.26-0.29-0.62-0.44-1.1-0.44s-0.84,0.15-1.09,0.44c-0.26,0.29-0.39,0.7-0.39,1.24v1.14
				c0,0.53,0.13,0.95,0.39,1.24c0.26,0.3,0.62,0.44,1.09,0.44S53.73,113.39,53.99,113.09z"/>
		</g>
		<g>
			<path class="st2" d="M82.4,528.01H4.04l9.91-39.65h58.52l0.12,0.49L82.4,528.01z M5.7,526.71h75.03l-9.29-37.05H14.97L5.7,526.71
				z"/>
		</g>
		<g>
			<path class="st2" d="M21.99,177.07h1.34v9.62h-1.34V177.07z M22.68,181.68h3.05c0.29,0,0.54-0.07,0.76-0.2
				c0.22-0.14,0.39-0.33,0.51-0.58c0.12-0.25,0.18-0.54,0.18-0.87c0-0.33-0.06-0.62-0.18-0.87c-0.12-0.25-0.29-0.45-0.51-0.59
				c-0.22-0.14-0.47-0.21-0.76-0.21h-3.05v-1.28h3c0.57,0,1.07,0.12,1.5,0.37c0.43,0.25,0.77,0.59,1.01,1.04
				c0.24,0.44,0.36,0.96,0.36,1.55c0,0.59-0.12,1.1-0.36,1.55c-0.24,0.44-0.57,0.79-1.01,1.03c-0.43,0.24-0.93,0.37-1.5,0.37h-3
				V181.68z"/>
			<path class="st2" d="M30.23,177.07h1.34v1.35h-1.34V177.07z M30.23,179.83h1.34v6.87h-1.34V179.83z"/>
			<path class="st2" d="M33.6,179.83h1.34v6.87H33.6V179.83z M37.73,182.53c0-0.49-0.12-0.86-0.37-1.13c-0.25-0.26-0.6-0.4-1.05-0.4
				c-0.44,0-0.77,0.12-1.01,0.35c-0.24,0.23-0.36,0.56-0.36,0.99l-0.14-1.32c0.21-0.42,0.48-0.74,0.82-0.96
				c0.34-0.23,0.71-0.34,1.13-0.34c0.74,0,1.31,0.24,1.72,0.73c0.4,0.49,0.61,1.18,0.61,2.07v4.17h-1.34V182.53z"/>
			<path class="st2" d="M42.19,186.45c-0.42-0.24-0.74-0.58-0.96-1.02c-0.22-0.45-0.33-0.99-0.33-1.62v-1.12
				c0-0.62,0.11-1.16,0.33-1.6c0.22-0.44,0.54-0.78,0.96-1.01s0.93-0.35,1.52-0.35s1.09,0.12,1.51,0.35s0.74,0.57,0.96,1.01
				c0.22,0.44,0.33,0.98,0.33,1.6v1.14c0,0.63-0.11,1.16-0.33,1.61c-0.22,0.44-0.54,0.78-0.96,1.02c-0.42,0.23-0.92,0.35-1.51,0.35
				S42.61,186.68,42.19,186.45z M44.79,185.07c0.26-0.3,0.38-0.71,0.38-1.25v-1.14c0-0.53-0.13-0.95-0.38-1.24s-0.62-0.44-1.08-0.44
				c-0.47,0-0.83,0.15-1.09,0.44s-0.38,0.7-0.38,1.24v1.14c0,0.53,0.13,0.95,0.38,1.25c0.26,0.29,0.62,0.44,1.09,0.44
				C44.18,185.51,44.54,185.36,44.79,185.07z"/>
			<path class="st2" d="M52.32,186.27c-0.42-0.35-0.62-0.88-0.62-1.6c0-0.68,0.19-1.19,0.57-1.53s0.95-0.51,1.72-0.51h1.94
				l0.09,1.09H54c-0.35,0-0.61,0.08-0.78,0.23c-0.17,0.16-0.26,0.4-0.26,0.72c0,0.35,0.12,0.61,0.34,0.77
				c0.23,0.17,0.58,0.25,1.05,0.25c0.51,0,0.89-0.06,1.14-0.17c0.25-0.11,0.38-0.28,0.38-0.52l0.14,0.97
				c-0.12,0.18-0.26,0.34-0.43,0.46c-0.17,0.12-0.37,0.21-0.6,0.27c-0.23,0.06-0.48,0.09-0.77,0.09
				C53.36,186.79,52.73,186.62,52.32,186.27z M55.87,182.34c0-0.45-0.12-0.8-0.36-1.05c-0.24-0.25-0.58-0.38-1.01-0.38
				c-0.27,0-0.54,0.04-0.8,0.13s-0.49,0.2-0.69,0.35l-0.98-0.67c0.26-0.31,0.6-0.56,1.02-0.73s0.89-0.26,1.41-0.26
				c0.57,0,1.05,0.1,1.45,0.3c0.4,0.2,0.71,0.49,0.92,0.87c0.21,0.38,0.31,0.84,0.31,1.38v4.42h-1.27V182.34z"/>
			<path class="st2" d="M58.25,188.21H59c0.12,0,0.22-0.05,0.28-0.14c0.07-0.09,0.1-0.22,0.1-0.39v-7.86h1.34v7.84
				c0,0.58-0.14,1.03-0.42,1.34c-0.28,0.32-0.67,0.48-1.18,0.48h-0.88V188.21z M59.38,177.07h1.36v1.35h-1.36V177.07z"/>
			<path class="st2" d="M62.71,177.82l1.87-2.35l0.96,0.81l-2,2.22L62.71,177.82z M62.77,179.83h1.34v6.87h-1.34V179.83z"/>
		</g>
		<g>
			<path class="st2" d="M82.83,168.16H3.54l29.74-39.65l19.82,0.03L82.83,168.16z M6.13,166.86h74.1l-27.79-37.02l-18.52-0.03
				L6.13,166.86z"/>
		</g>
		<g>
			<path class="st2" d="M23.41,402.58c-0.41-0.09-0.8-0.22-1.15-0.4c-0.36-0.18-0.69-0.4-1-0.66l0.83-1.03
				c0.36,0.32,0.76,0.56,1.2,0.72c0.44,0.16,0.91,0.24,1.42,0.24c0.69,0,1.23-0.13,1.61-0.39c0.38-0.26,0.57-0.62,0.57-1.1v-0.01
				c0-0.33-0.09-0.6-0.26-0.8s-0.4-0.34-0.67-0.44c-0.27-0.09-0.63-0.18-1.06-0.26c-0.01,0-0.03-0.01-0.04-0.01
				c-0.02,0-0.03,0-0.04-0.01l-0.1-0.02c-0.64-0.11-1.16-0.23-1.56-0.37c-0.4-0.14-0.74-0.39-1.03-0.76
				c-0.28-0.37-0.43-0.89-0.43-1.57v-0.01c0-0.6,0.13-1.1,0.4-1.52c0.26-0.42,0.65-0.74,1.16-0.96c0.51-0.22,1.12-0.33,1.83-0.33
				c0.34,0,0.68,0.04,1.01,0.11c0.33,0.08,0.66,0.19,0.98,0.33c0.32,0.15,0.64,0.33,0.95,0.56l-0.76,1.07
				c-0.36-0.27-0.72-0.47-1.08-0.61c-0.36-0.13-0.72-0.2-1.09-0.2c-0.65,0-1.16,0.13-1.52,0.39s-0.54,0.63-0.54,1.11v0.01
				c0,0.33,0.09,0.59,0.28,0.78c0.19,0.19,0.42,0.33,0.7,0.42c0.28,0.09,0.66,0.18,1.16,0.28c0.02,0,0.03,0.01,0.05,0.01
				c0.02,0,0.03,0,0.05,0.01c0.02,0.01,0.05,0.01,0.07,0.01c0.03,0.01,0.05,0.01,0.07,0.01c0.58,0.12,1.06,0.26,1.45,0.42
				c0.39,0.16,0.71,0.43,0.97,0.79c0.26,0.37,0.39,0.86,0.39,1.49v0.01c0,0.59-0.14,1.09-0.41,1.51c-0.28,0.42-0.68,0.74-1.2,0.95
				c-0.52,0.22-1.15,0.33-1.89,0.33C24.26,402.71,23.83,402.67,23.41,402.58z"/>
			<path class="st2" d="M30.29,402.19c-0.41-0.35-0.62-0.88-0.62-1.6c0-0.68,0.19-1.19,0.57-1.53c0.38-0.34,0.96-0.51,1.73-0.51
				h1.93l0.09,1.08h-2.02c-0.35,0-0.61,0.08-0.79,0.24c-0.17,0.16-0.26,0.4-0.26,0.72c0,0.35,0.12,0.61,0.35,0.77
				c0.23,0.17,0.58,0.25,1.05,0.25c0.51,0,0.89-0.05,1.14-0.17c0.25-0.11,0.38-0.28,0.38-0.51l0.14,0.96
				c-0.12,0.19-0.26,0.34-0.44,0.46c-0.17,0.12-0.37,0.21-0.6,0.27c-0.23,0.06-0.48,0.09-0.77,0.09
				C31.33,402.71,30.7,402.54,30.29,402.19z M33.83,398.26c0-0.45-0.12-0.8-0.36-1.05c-0.24-0.25-0.58-0.37-1.01-0.37
				c-0.27,0-0.54,0.04-0.8,0.13c-0.26,0.08-0.49,0.2-0.69,0.35L30,396.64c0.26-0.31,0.6-0.56,1.02-0.73
				c0.42-0.17,0.89-0.26,1.41-0.26c0.56,0,1.05,0.1,1.45,0.3c0.4,0.2,0.71,0.49,0.92,0.87c0.21,0.38,0.31,0.84,0.31,1.38v4.41h-1.27
				V398.26z"/>
			<path class="st2" d="M38.48,400.84c0,0.17,0.04,0.3,0.11,0.39c0.07,0.09,0.17,0.14,0.3,0.14h0.63v1.28h-0.79
				c-0.51,0-0.9-0.16-1.18-0.48c-0.28-0.32-0.42-0.77-0.42-1.35v-7.83h1.34V400.84z"/>
			<path class="st2" d="M41.26,402.19c-0.42-0.35-0.62-0.88-0.62-1.6c0-0.68,0.19-1.19,0.57-1.53c0.38-0.34,0.95-0.51,1.72-0.51
				h1.94l0.09,1.08h-2.02c-0.35,0-0.61,0.08-0.78,0.24c-0.17,0.16-0.26,0.4-0.26,0.72c0,0.35,0.12,0.61,0.34,0.77
				c0.23,0.17,0.58,0.25,1.05,0.25c0.51,0,0.89-0.05,1.14-0.17c0.25-0.11,0.38-0.28,0.38-0.51l0.14,0.96
				c-0.12,0.19-0.26,0.34-0.43,0.46c-0.17,0.12-0.37,0.21-0.6,0.27c-0.23,0.06-0.48,0.09-0.77,0.09
				C42.3,402.71,41.67,402.54,41.26,402.19z M44.81,398.26c0-0.45-0.12-0.8-0.36-1.05c-0.24-0.25-0.58-0.37-1.01-0.37
				c-0.27,0-0.54,0.04-0.8,0.13c-0.26,0.08-0.49,0.2-0.69,0.35l-0.98-0.68c0.26-0.31,0.6-0.56,1.02-0.73
				c0.42-0.17,0.89-0.26,1.41-0.26c0.57,0,1.05,0.1,1.45,0.3c0.4,0.2,0.71,0.49,0.92,0.87c0.21,0.38,0.31,0.84,0.31,1.38v4.41h-1.27
				V398.26z"/>
			<path class="st2" d="M48.11,395.74h1.34v6.87h-1.34V395.74z M52.18,398.45c0-0.48-0.12-0.86-0.36-1.13c-0.24-0.26-0.57-0.4-1-0.4
				c-0.44,0-0.77,0.12-1.01,0.35c-0.24,0.23-0.36,0.56-0.36,0.99l-0.14-1.32c0.21-0.41,0.48-0.73,0.82-0.96
				c0.34-0.23,0.71-0.34,1.13-0.34c0.48,0,0.88,0.11,1.22,0.33c0.34,0.22,0.59,0.54,0.77,0.96c0.18,0.42,0.27,0.93,0.27,1.52v4.17
				h-1.34V398.45z M56.24,398.45c0-0.48-0.13-0.86-0.37-1.13c-0.25-0.26-0.6-0.4-1.05-0.4c-0.42,0-0.74,0.13-0.96,0.39
				c-0.23,0.25-0.34,0.62-0.34,1.08l-0.27-1.32c0.21-0.45,0.5-0.81,0.85-1.06c0.35-0.25,0.74-0.37,1.16-0.37
				c0.49,0,0.91,0.11,1.26,0.33c0.35,0.22,0.61,0.54,0.79,0.96c0.18,0.42,0.27,0.93,0.27,1.52v4.17h-1.34V398.45z"/>
			<path class="st2" d="M60.79,402.35c-0.44-0.24-0.79-0.59-1.02-1.05c-0.24-0.46-0.35-1.02-0.35-1.67v-0.77
				c0-0.68,0.11-1.26,0.34-1.74c0.23-0.48,0.55-0.85,0.98-1.1c0.43-0.25,0.94-0.38,1.55-0.38c0.57,0,1.05,0.14,1.46,0.43
				c0.4,0.29,0.71,0.7,0.92,1.25c0.21,0.54,0.32,1.19,0.32,1.95v0.45h-4.59v-1.09h3.32c-0.04-0.56-0.18-1-0.43-1.31
				c-0.25-0.31-0.58-0.47-0.99-0.47c-0.51,0-0.9,0.17-1.18,0.5c-0.28,0.34-0.42,0.81-0.42,1.42v0.87c0,0.57,0.15,1.01,0.45,1.31
				c0.3,0.3,0.72,0.46,1.27,0.46c0.27,0,0.54-0.05,0.81-0.16c0.27-0.11,0.5-0.27,0.71-0.46l0.88,0.89
				c-0.34,0.32-0.71,0.58-1.13,0.76c-0.42,0.18-0.84,0.27-1.27,0.27C61.77,402.71,61.23,402.59,60.79,402.35z"/>
		</g>
		<g>
			<path class="st2" d="M82.57,384.13H3.87l10-30l0.31-0.1l29.04-9.68l0.2,0.07l29.15,9.71l0.1,0.31L82.57,384.13z M5.68,382.83
				h75.09l-9.22-27.67l-28.32-9.44l-28.32,9.44L5.68,382.83z"/>
		</g>
		<g>
			<path class="st2" d="M12.04,249.05h1.21l4.66,7.44l-0.16,0.17v-7.61h1.32v9.62h-1.22l-4.65-7.33l0.16-0.17v7.5h-1.32V249.05z"/>
			<path class="st2" d="M21.61,258.25c-0.42-0.35-0.62-0.88-0.62-1.6c0-0.68,0.19-1.19,0.57-1.53c0.38-0.34,0.95-0.51,1.72-0.51
				h1.94l0.09,1.09h-2.02c-0.35,0-0.61,0.08-0.78,0.23c-0.17,0.16-0.26,0.4-0.26,0.72c0,0.35,0.12,0.61,0.34,0.77
				c0.23,0.17,0.58,0.25,1.05,0.25c0.51,0,0.89-0.06,1.14-0.17c0.25-0.11,0.38-0.28,0.38-0.52l0.14,0.97
				c-0.12,0.18-0.26,0.34-0.43,0.46c-0.17,0.12-0.37,0.21-0.6,0.27c-0.23,0.06-0.48,0.09-0.77,0.09
				C22.65,258.77,22.02,258.6,21.61,258.25z M25.16,254.32c0-0.45-0.12-0.8-0.36-1.05c-0.24-0.25-0.58-0.38-1.01-0.38
				c-0.27,0-0.54,0.04-0.8,0.13c-0.26,0.08-0.49,0.2-0.69,0.35l-0.98-0.67c0.26-0.31,0.6-0.56,1.02-0.73
				c0.42-0.17,0.89-0.26,1.41-0.26c0.57,0,1.05,0.1,1.45,0.3c0.4,0.2,0.71,0.49,0.92,0.87c0.21,0.38,0.31,0.84,0.31,1.38v4.42h-1.27
				V254.32z"/>
			<path class="st2" d="M28.46,251.8h1.34v9.66h-1.34V251.8z M30.4,258.47c-0.31-0.2-0.55-0.5-0.7-0.87l0.09-1.43
				c0,0.29,0.05,0.55,0.16,0.75c0.1,0.21,0.26,0.37,0.46,0.48c0.2,0.11,0.44,0.17,0.72,0.17c0.44,0,0.78-0.14,1.03-0.41
				c0.24-0.27,0.36-0.65,0.36-1.15v-1.49c0-0.5-0.12-0.89-0.36-1.17c-0.24-0.28-0.59-0.42-1.03-0.42c-0.28,0-0.53,0.05-0.72,0.16
				c-0.2,0.11-0.35,0.26-0.46,0.47c-0.1,0.21-0.16,0.45-0.16,0.74l-0.14-1.32c0.2-0.4,0.47-0.71,0.81-0.93
				c0.33-0.22,0.7-0.33,1.11-0.33c0.48,0,0.89,0.11,1.24,0.33c0.34,0.22,0.6,0.54,0.78,0.96c0.18,0.42,0.27,0.92,0.27,1.52v1.5
				c0,0.58-0.09,1.08-0.27,1.5c-0.18,0.41-0.45,0.73-0.81,0.95c-0.35,0.22-0.78,0.33-1.27,0.33
				C31.09,258.77,30.72,258.67,30.4,258.47z"/>
			<path class="st2" d="M36.86,258.42c-0.42-0.24-0.74-0.58-0.96-1.02c-0.22-0.45-0.33-0.99-0.33-1.62v-1.12
				c0-0.62,0.11-1.16,0.33-1.6c0.22-0.44,0.54-0.78,0.96-1.01s0.92-0.35,1.51-0.35c0.59,0,1.09,0.12,1.52,0.35
				c0.42,0.23,0.74,0.57,0.96,1.01c0.22,0.44,0.33,0.98,0.33,1.6v1.14c0,0.63-0.11,1.16-0.33,1.61c-0.22,0.44-0.54,0.78-0.96,1.02
				c-0.42,0.23-0.93,0.35-1.52,0.35C37.79,258.77,37.28,258.66,36.86,258.42z M39.46,257.05c0.26-0.3,0.38-0.71,0.38-1.25v-1.14
				c0-0.53-0.13-0.95-0.38-1.24c-0.26-0.29-0.62-0.44-1.09-0.44c-0.47,0-0.83,0.15-1.08,0.44c-0.26,0.29-0.38,0.7-0.38,1.24v1.14
				c0,0.53,0.13,0.95,0.38,1.25c0.26,0.29,0.62,0.44,1.08,0.44C38.85,257.49,39.21,257.34,39.46,257.05z"/>
			<path class="st2" d="M44.42,256.9c0,0.17,0.04,0.3,0.11,0.39c0.07,0.09,0.17,0.14,0.3,0.14h0.63v1.29h-0.79
				c-0.51,0-0.9-0.16-1.18-0.48c-0.28-0.32-0.42-0.76-0.42-1.34v-7.84h1.34V256.9z"/>
			<path class="st2" d="M46.97,249.05h1.34v1.35h-1.34V249.05z M46.97,251.8h1.34v6.87h-1.34V251.8z"/>
			<path class="st2" d="M49.82,251.8h3.07v1.22h-3.07V251.8z M50.9,258.25c-0.26-0.31-0.38-0.76-0.38-1.36v-7.08h1.34v7.1
				c0,0.17,0.03,0.3,0.1,0.39c0.07,0.09,0.16,0.14,0.29,0.14h0.64v1.29h-0.77C51.56,258.71,51.16,258.55,50.9,258.25z"/>
			<path class="st2" d="M55.02,258.25c-0.42-0.35-0.62-0.88-0.62-1.6c0-0.68,0.19-1.19,0.57-1.53c0.38-0.34,0.95-0.51,1.72-0.51
				h1.94l0.09,1.09H56.7c-0.35,0-0.61,0.08-0.78,0.23c-0.17,0.16-0.26,0.4-0.26,0.72c0,0.35,0.12,0.61,0.34,0.77
				c0.23,0.17,0.58,0.25,1.05,0.25c0.51,0,0.89-0.06,1.14-0.17c0.25-0.11,0.38-0.28,0.38-0.52l0.14,0.97
				c-0.12,0.18-0.26,0.34-0.43,0.46c-0.17,0.12-0.37,0.21-0.6,0.27c-0.23,0.06-0.48,0.09-0.77,0.09
				C56.06,258.77,55.44,258.6,55.02,258.25z M58.57,254.32c0-0.45-0.12-0.8-0.36-1.05c-0.24-0.25-0.58-0.38-1.01-0.38
				c-0.27,0-0.54,0.04-0.8,0.13s-0.49,0.2-0.69,0.35l-0.98-0.67c0.26-0.31,0.6-0.56,1.02-0.73c0.42-0.17,0.89-0.26,1.41-0.26
				c0.57,0,1.05,0.1,1.45,0.3c0.4,0.2,0.71,0.49,0.92,0.87c0.21,0.38,0.31,0.84,0.31,1.38v4.42h-1.27V254.32z"/>
			<path class="st2" d="M61.87,251.8h1.34v6.87h-1.34V251.8z M66,254.51c0-0.49-0.12-0.86-0.37-1.13c-0.25-0.26-0.6-0.4-1.05-0.4
				c-0.44,0-0.77,0.12-1.01,0.35c-0.24,0.23-0.36,0.56-0.36,0.99L63.07,253c0.21-0.42,0.48-0.74,0.82-0.96
				c0.34-0.23,0.71-0.34,1.13-0.34c0.74,0,1.31,0.24,1.72,0.73c0.4,0.49,0.61,1.18,0.61,2.07v4.17H66V254.51z"/>
			<path class="st2" d="M69.67,258.25c-0.41-0.35-0.62-0.88-0.62-1.6c0-0.68,0.19-1.19,0.57-1.53c0.38-0.34,0.96-0.51,1.73-0.51
				h1.93l0.09,1.09h-2.02c-0.35,0-0.61,0.08-0.79,0.23c-0.17,0.16-0.26,0.4-0.26,0.72c0,0.35,0.12,0.61,0.35,0.77
				c0.23,0.17,0.58,0.25,1.05,0.25c0.51,0,0.89-0.06,1.14-0.17c0.25-0.11,0.38-0.28,0.38-0.52l0.14,0.97
				c-0.12,0.18-0.26,0.34-0.44,0.46c-0.17,0.12-0.37,0.21-0.6,0.27c-0.23,0.06-0.48,0.09-0.77,0.09
				C70.71,258.77,70.09,258.6,69.67,258.25z M73.22,254.32c0-0.45-0.12-0.8-0.36-1.05c-0.24-0.25-0.58-0.38-1.01-0.38
				c-0.27,0-0.54,0.04-0.8,0.13c-0.26,0.08-0.49,0.2-0.69,0.35l-0.98-0.67c0.26-0.31,0.6-0.56,1.02-0.73
				c0.42-0.17,0.89-0.26,1.41-0.26c0.56,0,1.05,0.1,1.45,0.3c0.4,0.2,0.71,0.49,0.92,0.87c0.21,0.38,0.31,0.84,0.31,1.38v4.42h-1.27
				V254.32z"/>
		</g>
		<g>
			<path class="st2" d="M43.17,238.22c-10.41,0-18.88-8.47-18.88-18.88s8.47-18.88,18.88-18.88s18.88,8.47,18.88,18.88
				S53.58,238.22,43.17,238.22z M43.17,201.76c-9.69,0-17.58,7.89-17.58,17.58s7.89,17.58,17.58,17.58s17.58-7.89,17.58-17.58
				S52.86,201.76,43.17,201.76z"/>
		</g>
		<g>
			<path class="st2" d="M26.56,464.95h1.14l3.52,9.62h-1.44l-2.64-7.77l-2.64,7.77h-1.44L26.56,464.95z M24.67,471.18h5.02v1.29
				h-5.02V471.18z"/>
			<path class="st2" d="M33.69,474.32c-0.44-0.24-0.77-0.57-1.01-1.02c-0.23-0.44-0.35-0.98-0.35-1.61v-1.13
				c0-0.62,0.12-1.15,0.35-1.6c0.23-0.44,0.57-0.78,1.01-1.01c0.44-0.23,0.97-0.35,1.59-0.35c0.35,0,0.69,0.04,1,0.13
				c0.31,0.09,0.59,0.21,0.84,0.38c0.25,0.16,0.46,0.36,0.62,0.6l-0.96,0.87c-0.19-0.22-0.42-0.39-0.68-0.51
				c-0.26-0.12-0.53-0.18-0.81-0.18c-0.52,0-0.92,0.15-1.2,0.44c-0.28,0.29-0.43,0.7-0.43,1.23v1.13c0,0.54,0.14,0.96,0.42,1.26
				c0.28,0.3,0.68,0.44,1.2,0.44c0.28,0,0.55-0.06,0.81-0.19c0.26-0.13,0.48-0.31,0.67-0.54l0.96,0.94
				c-0.17,0.23-0.38,0.43-0.63,0.59c-0.25,0.16-0.53,0.28-0.84,0.37c-0.31,0.08-0.64,0.13-0.99,0.13
				C34.66,474.67,34.13,474.55,33.69,474.32z"/>
			<path class="st2" d="M40.4,474.31c-0.44-0.24-0.79-0.59-1.02-1.05c-0.24-0.46-0.35-1.02-0.35-1.67v-0.77
				c0-0.68,0.11-1.26,0.34-1.74c0.23-0.48,0.55-0.85,0.98-1.1c0.43-0.25,0.94-0.38,1.55-0.38c0.57,0,1.05,0.14,1.46,0.43
				c0.4,0.29,0.71,0.7,0.92,1.25c0.21,0.54,0.32,1.19,0.32,1.95v0.45H40v-1.09h3.32c-0.04-0.56-0.18-0.99-0.43-1.31
				c-0.25-0.31-0.58-0.47-0.99-0.47c-0.51,0-0.9,0.17-1.18,0.5c-0.28,0.34-0.42,0.81-0.42,1.42v0.87c0,0.57,0.15,1.01,0.45,1.31
				c0.3,0.3,0.72,0.46,1.27,0.46c0.27,0,0.54-0.06,0.81-0.16c0.27-0.11,0.5-0.27,0.71-0.46l0.88,0.89
				c-0.34,0.33-0.71,0.58-1.13,0.76c-0.42,0.18-0.84,0.27-1.27,0.27C41.38,474.67,40.84,474.55,40.4,474.31z"/>
			<path class="st2" d="M47.76,472.8c0,0.17,0.04,0.3,0.11,0.39c0.07,0.09,0.17,0.14,0.3,0.14h0.63v1.28h-0.79
				c-0.51,0-0.9-0.16-1.18-0.48c-0.28-0.32-0.42-0.77-0.42-1.35v-7.83h1.34V472.8z"/>
			<path class="st2" d="M51.19,474.36c-0.35-0.22-0.62-0.54-0.8-0.96c-0.18-0.42-0.27-0.92-0.27-1.51v-1.52
				c0-0.59,0.09-1.1,0.27-1.51c0.18-0.42,0.44-0.74,0.78-0.96c0.34-0.22,0.75-0.33,1.24-0.33c0.4,0,0.77,0.11,1.11,0.32
				c0.33,0.21,0.6,0.51,0.81,0.89l-0.14,1.4c0-0.29-0.05-0.54-0.16-0.75c-0.1-0.21-0.26-0.37-0.46-0.47
				c-0.2-0.11-0.44-0.16-0.72-0.16c-0.44,0-0.78,0.14-1.03,0.42c-0.24,0.28-0.37,0.67-0.37,1.17v1.5c0,0.5,0.12,0.88,0.37,1.16
				c0.24,0.27,0.58,0.41,1.03,0.41c0.28,0,0.53-0.06,0.72-0.17c0.2-0.11,0.35-0.27,0.46-0.49c0.1-0.21,0.16-0.47,0.16-0.76
				l0.09,1.45c-0.14,0.34-0.36,0.62-0.66,0.85c-0.31,0.23-0.69,0.35-1.14,0.35C51.97,474.69,51.54,474.58,51.19,474.36z
				 M51.22,477.08c-0.4-0.19-0.72-0.46-0.94-0.81l0.9-0.83c0.18,0.24,0.38,0.43,0.63,0.56c0.24,0.13,0.5,0.2,0.76,0.2
				c0.51,0,0.91-0.14,1.19-0.43c0.28-0.28,0.42-0.69,0.42-1.21v-6.86h1.34v6.66c0,0.63-0.12,1.17-0.35,1.62
				c-0.23,0.45-0.56,0.79-1,1.03c-0.44,0.24-0.96,0.35-1.58,0.35C52.08,477.36,51.62,477.27,51.22,477.08z"/>
			<path class="st2" d="M57.85,474.14c-0.42-0.35-0.62-0.88-0.62-1.6c0-0.68,0.19-1.19,0.57-1.53c0.38-0.34,0.95-0.51,1.72-0.51
				h1.94l0.09,1.08h-2.02c-0.35,0-0.61,0.08-0.78,0.24c-0.17,0.16-0.26,0.4-0.26,0.72c0,0.35,0.12,0.61,0.34,0.77
				c0.23,0.17,0.58,0.25,1.05,0.25c0.51,0,0.89-0.06,1.14-0.17c0.25-0.11,0.38-0.28,0.38-0.52l0.14,0.97
				c-0.12,0.18-0.26,0.34-0.43,0.46c-0.17,0.12-0.37,0.21-0.6,0.27c-0.23,0.06-0.48,0.09-0.77,0.09
				C58.89,474.67,58.26,474.49,57.85,474.14z M61.39,470.22c0-0.45-0.12-0.8-0.36-1.05c-0.24-0.25-0.58-0.38-1.01-0.38
				c-0.27,0-0.54,0.04-0.8,0.13c-0.26,0.08-0.49,0.2-0.69,0.35l-0.98-0.68c0.26-0.31,0.6-0.56,1.02-0.73
				c0.42-0.17,0.89-0.26,1.41-0.26c0.57,0,1.05,0.1,1.45,0.3c0.4,0.2,0.71,0.49,0.92,0.87c0.21,0.38,0.31,0.84,0.31,1.38v4.42h-1.27
				V470.22z"/>
		</g>
		<g>
			<g>
				<rect x="17.97" y="448.9" class="st2" width="1.3" height="13.72"/>
			</g>
			<g>
				<rect x="22.53" y="448.9" class="st2" width="1.3" height="13.72"/>
			</g>
			<g>
				<rect x="27.13" y="448.91" class="st2" width="1.3" height="13.71"/>
			</g>
			<g>
				<rect x="59.11" y="448.9" class="st2" width="1.3" height="13.72"/>
			</g>
			<g>
				<rect x="63.67" y="448.9" class="st2" width="1.3" height="13.72"/>
			</g>
			<g>
				<rect x="68.26" y="448.91" class="st2" width="1.3" height="13.71"/>
			</g>
			<g>
				<g>
					<polygon class="st2" points="82.87,456.06 72.09,456.06 72.09,454.76 80.27,454.76 52.48,417.73 33.96,417.71 6.17,454.76 
						14.1,454.76 14.1,456.06 3.57,456.06 33.31,416.41 53.13,416.43 					"/>
				</g>
				<g>
					<rect x="32.51" y="454.76" class="st2" width="21.18" height="1.3"/>
				</g>
			</g>
		</g>
		<g>
			<path class="st2" d="M27.41,321.05h1.25v9.62h-1.3v-7.21l0.06,0.42l-2.35,5.45h-0.93l-2.35-5.31l0.06-0.56v7.21h-1.3v-9.62h1.25
				l2.8,6.35L27.41,321.05z"/>
			<path class="st2" d="M31.18,330.25c-0.41-0.35-0.62-0.88-0.62-1.6c0-0.68,0.19-1.19,0.57-1.53c0.38-0.34,0.96-0.51,1.73-0.51
				h1.93l0.09,1.09h-2.02c-0.35,0-0.61,0.08-0.79,0.24c-0.17,0.16-0.26,0.4-0.26,0.72c0,0.35,0.12,0.61,0.35,0.77
				c0.23,0.17,0.58,0.25,1.05,0.25c0.51,0,0.89-0.06,1.14-0.17c0.25-0.11,0.38-0.28,0.38-0.52l0.14,0.97
				c-0.12,0.19-0.26,0.34-0.44,0.46c-0.17,0.12-0.37,0.21-0.6,0.27c-0.23,0.06-0.48,0.09-0.77,0.09
				C32.23,330.77,31.6,330.6,31.18,330.25z M34.73,326.32c0-0.45-0.12-0.8-0.36-1.05c-0.24-0.25-0.58-0.37-1.01-0.37
				c-0.27,0-0.54,0.04-0.8,0.13c-0.26,0.08-0.49,0.2-0.69,0.35l-0.98-0.68c0.26-0.31,0.6-0.56,1.02-0.73
				c0.42-0.18,0.89-0.26,1.41-0.26c0.56,0,1.05,0.1,1.45,0.3c0.4,0.2,0.71,0.49,0.92,0.87c0.21,0.38,0.31,0.84,0.31,1.38v4.41h-1.27
				V326.32z"/>
			<path class="st2" d="M38.04,323.8h1.34v6.87h-1.34V323.8z M41.34,325.1c-0.18-0.07-0.39-0.11-0.62-0.11
				c-0.42,0-0.75,0.12-0.99,0.36c-0.23,0.24-0.35,0.56-0.35,0.98L39.24,325c0.21-0.41,0.48-0.73,0.81-0.96
				c0.33-0.23,0.7-0.34,1.1-0.34c0.31,0,0.59,0.05,0.84,0.14c0.25,0.09,0.47,0.22,0.66,0.4l-0.87,1.19
				C41.66,325.28,41.52,325.17,41.34,325.1z"/>
			<path class="st2" d="M43.77,321.05h1.34v1.35h-1.34V321.05z M43.77,323.8h1.34v6.87h-1.34V323.8z"/>
			<path class="st2" d="M48.42,330.65c-0.35-0.08-0.68-0.2-0.99-0.36c-0.3-0.16-0.59-0.36-0.85-0.6l0.79-0.99
				c0.37,0.28,0.73,0.49,1.1,0.64c0.36,0.14,0.72,0.21,1.07,0.21c0.53,0,0.93-0.08,1.19-0.25c0.26-0.16,0.4-0.41,0.4-0.74
				c0-0.22-0.07-0.39-0.22-0.5c-0.15-0.11-0.32-0.18-0.54-0.22c-0.21-0.04-0.52-0.07-0.91-0.1c-0.04,0-0.07,0-0.11,0
				c-0.04,0-0.08-0.01-0.11-0.01c-0.02,0-0.04,0-0.05,0c-0.02,0-0.04,0-0.05,0c-0.44-0.04-0.82-0.1-1.12-0.2
				c-0.31-0.09-0.56-0.27-0.76-0.53c-0.2-0.26-0.31-0.63-0.31-1.12c0-0.48,0.1-0.89,0.3-1.21c0.2-0.32,0.49-0.56,0.88-0.72
				c0.39-0.16,0.88-0.24,1.46-0.24c0.35,0,0.69,0.03,1.01,0.1c0.32,0.07,0.63,0.16,0.92,0.29c0.29,0.13,0.58,0.29,0.85,0.49
				l-0.81,0.98c-0.34-0.22-0.68-0.39-1.01-0.5c-0.33-0.11-0.65-0.17-0.97-0.17c-0.46,0-0.8,0.08-1.02,0.24
				c-0.23,0.16-0.34,0.39-0.34,0.7c0,0.19,0.06,0.32,0.19,0.42c0.13,0.09,0.29,0.15,0.49,0.18c0.2,0.03,0.48,0.06,0.84,0.08
				c0.03,0,0.05,0.01,0.08,0.01c0.03,0,0.06,0,0.09,0.01c0.01,0,0.03,0,0.04,0c0.01,0,0.03,0,0.04,0.01
				c0.48,0.03,0.88,0.1,1.22,0.19c0.33,0.1,0.62,0.29,0.84,0.58s0.34,0.7,0.34,1.24c0,0.49-0.1,0.9-0.31,1.23s-0.53,0.57-0.95,0.73
				c-0.42,0.16-0.95,0.25-1.59,0.25C49.15,330.77,48.77,330.73,48.42,330.65z"/>
			<path class="st2" d="M55.26,330.42c-0.44-0.23-0.77-0.57-1.01-1.02c-0.23-0.45-0.35-0.98-0.35-1.62v-1.13
				c0-0.62,0.12-1.15,0.35-1.6c0.23-0.44,0.57-0.78,1.01-1.01c0.44-0.23,0.97-0.35,1.59-0.35c0.35,0,0.69,0.04,1,0.13
				c0.31,0.08,0.59,0.21,0.84,0.37c0.25,0.16,0.46,0.36,0.62,0.6l-0.96,0.87c-0.19-0.22-0.42-0.39-0.68-0.51
				c-0.26-0.12-0.53-0.18-0.81-0.18c-0.52,0-0.92,0.15-1.2,0.44c-0.28,0.29-0.43,0.7-0.43,1.23v1.13c0,0.54,0.14,0.96,0.42,1.26
				c0.28,0.3,0.68,0.44,1.2,0.44c0.28,0,0.55-0.06,0.81-0.19c0.26-0.13,0.48-0.31,0.67-0.54l0.96,0.94
				c-0.17,0.23-0.38,0.42-0.63,0.59c-0.25,0.16-0.53,0.28-0.84,0.37c-0.31,0.08-0.64,0.13-0.99,0.13
				C56.23,330.77,55.7,330.65,55.26,330.42z"/>
			<path class="st2" d="M61.89,330.42c-0.42-0.23-0.74-0.58-0.96-1.02c-0.22-0.45-0.33-0.99-0.33-1.62v-1.12
				c0-0.62,0.11-1.16,0.33-1.6c0.22-0.44,0.54-0.78,0.96-1.01c0.42-0.23,0.93-0.35,1.52-0.35s1.09,0.12,1.51,0.35
				c0.42,0.23,0.74,0.57,0.96,1.01c0.22,0.44,0.33,0.98,0.33,1.6v1.14c0,0.63-0.11,1.16-0.33,1.61c-0.22,0.44-0.54,0.78-0.96,1.02
				c-0.42,0.23-0.92,0.35-1.51,0.35S62.31,330.65,61.89,330.42z M64.49,329.04c0.26-0.29,0.38-0.71,0.38-1.25v-1.14
				c0-0.53-0.13-0.95-0.38-1.24c-0.26-0.29-0.62-0.44-1.08-0.44c-0.47,0-0.83,0.15-1.09,0.44c-0.26,0.29-0.38,0.7-0.38,1.24v1.14
				c0,0.53,0.13,0.95,0.38,1.25c0.26,0.3,0.62,0.44,1.09,0.44C63.87,329.49,64.23,329.34,64.49,329.04z"/>
		</g>
		<g>
			<g>
				<g>
					<rect x="18.27" y="304.93" class="st2" width="1.3" height="13.72"/>
				</g>
				<g>
					<rect x="22.84" y="304.93" class="st2" width="1.3" height="13.72"/>
				</g>
				<g>
					<rect x="27.43" y="304.94" class="st2" width="1.3" height="13.71"/>
				</g>
			</g>
			<g>
				<rect x="57.83" y="304.93" class="st2" width="1.3" height="13.72"/>
			</g>
			<g>
				<rect x="62.39" y="304.93" class="st2" width="1.3" height="13.72"/>
			</g>
			<g>
				<rect x="66.99" y="304.94" class="st2" width="1.3" height="13.71"/>
			</g>
			<g>
				<g>
					<polygon class="st2" points="82.4,312.11 72.21,312.11 72.21,310.81 80.74,310.81 71.45,273.76 14.97,273.76 5.7,310.81 
						14.23,310.81 14.23,312.11 4.04,312.11 13.95,272.46 72.47,272.46 72.59,272.95 					"/>
				</g>
				<g>
					<rect x="32.63" y="310.81" class="st2" width="21.18" height="1.3"/>
				</g>
			</g>
		</g>
		<g>
			<path class="st2" d="M99.19,258.33c-0.51-0.29-0.91-0.71-1.19-1.25c-0.28-0.53-0.42-1.16-0.42-1.86v-2.73
				c0-0.71,0.14-1.33,0.42-1.86c0.28-0.53,0.68-0.95,1.19-1.24c0.51-0.29,1.1-0.44,1.77-0.44c0.67,0,1.26,0.15,1.77,0.44
				c0.51,0.29,0.91,0.71,1.19,1.24c0.28,0.54,0.42,1.16,0.42,1.86v2.73c0,0.7-0.14,1.33-0.42,1.86c-0.28,0.54-0.68,0.95-1.19,1.25
				c-0.51,0.29-1.1,0.44-1.77,0.44C100.29,258.77,99.7,258.63,99.19,258.33z M102.01,257.17c0.3-0.18,0.54-0.43,0.7-0.76
				c0.17-0.33,0.25-0.71,0.25-1.14v-2.82c0-0.43-0.08-0.81-0.25-1.14c-0.16-0.33-0.4-0.58-0.7-0.76c-0.3-0.18-0.65-0.27-1.05-0.27
				c-0.4,0-0.75,0.09-1.05,0.27c-0.3,0.18-0.54,0.43-0.7,0.76c-0.17,0.33-0.25,0.71-0.25,1.14v2.82c0,0.43,0.08,0.82,0.25,1.14
				c0.17,0.33,0.4,0.58,0.7,0.76c0.3,0.18,0.65,0.27,1.05,0.27C101.36,257.44,101.71,257.35,102.01,257.17z M100.94,256.01l0.7-0.89
				l3.59,2.82l-0.7,0.9L100.94,256.01z"/>
			<path class="st2" d="M111.36,258.42c-0.44-0.24-0.78-0.57-1.02-1.02c-0.23-0.44-0.35-0.98-0.35-1.61v-1.13
				c0-0.62,0.12-1.15,0.35-1.6c0.23-0.44,0.57-0.78,1.02-1.01c0.44-0.23,0.98-0.35,1.6-0.35c0.36,0,0.69,0.04,1.01,0.13
				c0.31,0.09,0.6,0.21,0.85,0.38c0.25,0.16,0.46,0.36,0.63,0.6l-0.97,0.87c-0.19-0.22-0.42-0.39-0.68-0.51
				c-0.26-0.12-0.53-0.18-0.81-0.18c-0.52,0-0.92,0.15-1.21,0.44c-0.29,0.29-0.43,0.7-0.43,1.23v1.13c0,0.54,0.14,0.96,0.43,1.26
				c0.28,0.3,0.69,0.44,1.21,0.44c0.29,0,0.56-0.06,0.82-0.19c0.26-0.13,0.49-0.31,0.68-0.54l0.97,0.94
				c-0.17,0.23-0.38,0.43-0.63,0.59c-0.25,0.16-0.54,0.28-0.85,0.37s-0.65,0.13-1,0.13C112.34,258.77,111.81,258.66,111.36,258.42z"
				/>
			<path class="st2" d="M117.24,258.25c-0.42-0.35-0.63-0.88-0.63-1.6c0-0.68,0.19-1.19,0.58-1.53c0.38-0.34,0.96-0.51,1.74-0.51
				h1.95l0.09,1.08h-2.04c-0.35,0-0.62,0.08-0.79,0.24c-0.17,0.16-0.26,0.4-0.26,0.72c0,0.35,0.12,0.61,0.35,0.77
				c0.23,0.17,0.58,0.25,1.06,0.25c0.52,0,0.9-0.06,1.16-0.17c0.25-0.11,0.38-0.28,0.38-0.52l0.14,0.97
				c-0.12,0.18-0.27,0.34-0.44,0.46c-0.17,0.12-0.38,0.21-0.61,0.27c-0.23,0.06-0.49,0.09-0.77,0.09
				C118.3,258.77,117.66,258.6,117.24,258.25z M120.83,254.32c0-0.45-0.12-0.8-0.36-1.05c-0.24-0.25-0.58-0.38-1.02-0.38
				c-0.27,0-0.54,0.04-0.8,0.13c-0.26,0.08-0.5,0.2-0.7,0.35l-0.99-0.68c0.26-0.31,0.6-0.56,1.03-0.73c0.43-0.17,0.9-0.26,1.42-0.26
				c0.57,0,1.06,0.1,1.46,0.3c0.41,0.2,0.72,0.49,0.93,0.87c0.21,0.38,0.32,0.84,0.32,1.38v4.42h-1.28V254.32z"/>
			<path class="st2" d="M124.16,251.8h1.35v6.87h-1.35V251.8z M128.26,254.51c0-0.49-0.12-0.86-0.36-1.13
				c-0.24-0.26-0.58-0.4-1.01-0.4c-0.44,0-0.78,0.12-1.02,0.35s-0.36,0.56-0.36,0.99l-0.14-1.32c0.21-0.41,0.49-0.74,0.83-0.96
				c0.34-0.23,0.72-0.34,1.13-0.34c0.48,0,0.89,0.11,1.23,0.33c0.34,0.22,0.6,0.54,0.78,0.96c0.18,0.42,0.27,0.93,0.27,1.52v4.17
				h-1.35V254.51z M132.37,254.51c0-0.49-0.13-0.86-0.38-1.13c-0.25-0.26-0.61-0.4-1.06-0.4c-0.42,0-0.74,0.13-0.97,0.38
				c-0.23,0.26-0.35,0.62-0.35,1.09l-0.27-1.32c0.22-0.46,0.5-0.81,0.86-1.06s0.75-0.37,1.18-0.37c0.49,0,0.92,0.11,1.27,0.33
				c0.35,0.22,0.62,0.54,0.8,0.96c0.18,0.42,0.28,0.93,0.28,1.52v4.17h-1.35V254.51z"/>
			<path class="st2" d="M136.07,258.25c-0.42-0.35-0.63-0.88-0.63-1.6c0-0.68,0.19-1.19,0.58-1.53c0.38-0.34,0.96-0.51,1.74-0.51
				h1.95l0.09,1.08h-2.04c-0.35,0-0.62,0.08-0.79,0.24c-0.17,0.16-0.26,0.4-0.26,0.72c0,0.35,0.12,0.61,0.35,0.77
				c0.23,0.17,0.58,0.25,1.06,0.25c0.52,0,0.9-0.06,1.16-0.17c0.25-0.11,0.38-0.28,0.38-0.52l0.14,0.97
				c-0.12,0.18-0.27,0.34-0.44,0.46c-0.17,0.12-0.38,0.21-0.61,0.27c-0.23,0.06-0.49,0.09-0.77,0.09
				C137.12,258.77,136.49,258.6,136.07,258.25z M139.65,254.32c0-0.45-0.12-0.8-0.36-1.05c-0.24-0.25-0.58-0.38-1.02-0.38
				c-0.27,0-0.54,0.04-0.8,0.13c-0.26,0.08-0.5,0.2-0.7,0.35l-0.99-0.68c0.26-0.31,0.6-0.56,1.03-0.73c0.43-0.17,0.9-0.26,1.42-0.26
				c0.57,0,1.06,0.1,1.46,0.3c0.41,0.2,0.72,0.49,0.93,0.87c0.21,0.38,0.32,0.84,0.32,1.38v4.42h-1.28V254.32z"/>
			<path class="st2" d="M142.98,251.8h1.35v6.87h-1.35V251.8z M146.31,253.1c-0.18-0.08-0.39-0.11-0.63-0.11
				c-0.43,0-0.76,0.12-1,0.35c-0.24,0.24-0.35,0.57-0.35,0.98L144.2,253c0.21-0.41,0.48-0.73,0.82-0.96
				c0.33-0.23,0.71-0.34,1.11-0.34c0.31,0,0.6,0.05,0.85,0.14c0.25,0.09,0.48,0.22,0.66,0.4l-0.88,1.19
				C146.64,253.29,146.49,253.18,146.31,253.1z"/>
			<path class="st2" d="M149.74,258.42c-0.42-0.24-0.75-0.58-0.97-1.02c-0.22-0.45-0.33-0.99-0.33-1.62v-1.12
				c0-0.62,0.11-1.16,0.33-1.6c0.22-0.44,0.55-0.78,0.97-1.01c0.42-0.23,0.93-0.35,1.53-0.35c0.6,0,1.11,0.12,1.53,0.35
				c0.42,0.23,0.75,0.57,0.97,1.01c0.22,0.44,0.33,0.98,0.33,1.6v1.14c0,0.63-0.11,1.16-0.33,1.6c-0.22,0.44-0.55,0.78-0.97,1.02
				c-0.42,0.23-0.93,0.35-1.53,0.35C150.67,258.77,150.16,258.66,149.74,258.42z M152.37,257.04c0.26-0.3,0.39-0.71,0.39-1.24v-1.14
				c0-0.53-0.13-0.95-0.39-1.24c-0.26-0.29-0.62-0.44-1.1-0.44c-0.47,0-0.84,0.15-1.09,0.44c-0.26,0.29-0.39,0.7-0.39,1.24v1.14
				c0,0.53,0.13,0.95,0.39,1.24c0.26,0.3,0.62,0.44,1.09,0.44C151.74,257.49,152.11,257.34,152.37,257.04z M150.54,249.8l1.89-2.35
				l0.97,0.81l-2.02,2.22L150.54,249.8z"/>
			<path class="st2" d="M156.02,251.8h1.35v6.87h-1.35V251.8z M160.19,254.51c0-0.49-0.13-0.86-0.38-1.13
				c-0.25-0.26-0.61-0.4-1.06-0.4c-0.44,0-0.78,0.12-1.02,0.35c-0.24,0.23-0.36,0.56-0.36,0.99l-0.14-1.32
				c0.21-0.41,0.49-0.74,0.83-0.96c0.34-0.23,0.72-0.34,1.14-0.34c0.75,0,1.32,0.24,1.73,0.73c0.41,0.49,0.61,1.18,0.61,2.07v4.17
				h-1.35V254.51z"/>
		</g>
		<g>
			<path class="st2" d="M110.89,330.33c-0.51-0.29-0.91-0.71-1.19-1.24c-0.28-0.54-0.42-1.16-0.42-1.86v-2.73
				c0-0.7,0.14-1.33,0.42-1.86c0.28-0.54,0.68-0.95,1.19-1.25c0.51-0.29,1.1-0.44,1.77-0.44c0.67,0,1.26,0.15,1.77,0.44
				c0.51,0.29,0.91,0.71,1.19,1.25c0.28,0.53,0.42,1.16,0.42,1.86v2.73c0,0.71-0.14,1.33-0.42,1.86c-0.28,0.53-0.68,0.95-1.19,1.24
				c-0.51,0.29-1.1,0.44-1.77,0.44C111.99,330.77,111.4,330.62,110.89,330.33z M113.71,329.17c0.3-0.18,0.54-0.43,0.7-0.76
				c0.17-0.33,0.25-0.71,0.25-1.14v-2.82c0-0.43-0.08-0.81-0.25-1.14s-0.4-0.58-0.7-0.76c-0.3-0.18-0.65-0.27-1.05-0.27
				s-0.75,0.09-1.05,0.27c-0.3,0.18-0.54,0.43-0.7,0.76c-0.16,0.33-0.25,0.71-0.25,1.14v2.82c0,0.43,0.08,0.81,0.25,1.14
				c0.17,0.33,0.4,0.58,0.7,0.76c0.3,0.18,0.65,0.27,1.05,0.27S113.41,329.35,113.71,329.17z M112.64,328.01l0.7-0.89l3.59,2.82
				l-0.7,0.9L112.64,328.01z"/>
			<path class="st2" d="M121.9,323.8h1.35v9.66h-1.35V323.8z M123.86,330.47c-0.32-0.21-0.55-0.5-0.7-0.87l0.09-1.44
				c0,0.29,0.05,0.55,0.16,0.75c0.1,0.21,0.26,0.37,0.46,0.48c0.2,0.11,0.44,0.17,0.73,0.17c0.44,0,0.79-0.14,1.04-0.41
				c0.25-0.27,0.37-0.65,0.37-1.15v-1.49c0-0.5-0.12-0.89-0.37-1.17c-0.25-0.28-0.59-0.42-1.04-0.42c-0.29,0-0.53,0.05-0.73,0.16
				c-0.2,0.11-0.36,0.26-0.46,0.47c-0.11,0.21-0.16,0.45-0.16,0.74l-0.14-1.32c0.21-0.4,0.48-0.71,0.81-0.93
				c0.33-0.22,0.71-0.33,1.12-0.33c0.49,0,0.9,0.11,1.25,0.33c0.35,0.22,0.61,0.54,0.79,0.96c0.18,0.42,0.27,0.92,0.27,1.52v1.5
				c0,0.58-0.09,1.08-0.28,1.5c-0.19,0.42-0.46,0.73-0.81,0.95c-0.36,0.22-0.79,0.33-1.28,0.33
				C124.55,330.77,124.17,330.67,123.86,330.47z"/>
			<path class="st2" d="M130.38,330.42c-0.42-0.23-0.75-0.58-0.97-1.02c-0.22-0.45-0.33-0.99-0.33-1.62v-1.12
				c0-0.62,0.11-1.16,0.33-1.6c0.22-0.44,0.55-0.78,0.97-1.01c0.42-0.23,0.93-0.35,1.53-0.35s1.1,0.12,1.53,0.35
				c0.42,0.23,0.75,0.57,0.97,1.01c0.22,0.44,0.33,0.98,0.33,1.6v1.14c0,0.63-0.11,1.16-0.33,1.61c-0.22,0.44-0.55,0.78-0.97,1.02
				c-0.42,0.23-0.93,0.35-1.53,0.35S130.8,330.65,130.38,330.42z M133,329.04c0.26-0.29,0.39-0.71,0.39-1.25v-1.14
				c0-0.53-0.13-0.95-0.39-1.24c-0.26-0.29-0.62-0.44-1.09-0.44s-0.84,0.15-1.1,0.44c-0.26,0.29-0.39,0.7-0.39,1.24v1.14
				c0,0.53,0.13,0.95,0.39,1.25c0.26,0.3,0.62,0.44,1.1,0.44S132.74,329.34,133,329.04z"/>
			<path class="st2" d="M138.01,328.9c0,0.17,0.04,0.3,0.11,0.39c0.07,0.09,0.17,0.14,0.31,0.14h0.63v1.28h-0.79
				c-0.51,0-0.91-0.16-1.19-0.48c-0.28-0.32-0.42-0.76-0.42-1.34v-7.84h1.35V328.9z"/>
			<path class="st2" d="M141.93,328.9c0,0.17,0.04,0.3,0.11,0.39c0.07,0.09,0.17,0.14,0.31,0.14h0.63v1.28h-0.79
				c-0.51,0-0.91-0.16-1.19-0.48c-0.28-0.32-0.42-0.76-0.42-1.34v-7.84h1.35V328.9z"/>
			<path class="st2" d="M145.61,330.42c-0.42-0.23-0.75-0.58-0.97-1.02c-0.22-0.45-0.33-0.99-0.33-1.62v-1.12
				c0-0.62,0.11-1.16,0.33-1.6c0.22-0.44,0.55-0.78,0.97-1.01c0.42-0.23,0.93-0.35,1.53-0.35c0.6,0,1.11,0.12,1.53,0.35
				c0.42,0.23,0.75,0.57,0.97,1.01c0.22,0.44,0.33,0.98,0.33,1.6v1.14c0,0.63-0.11,1.16-0.33,1.61c-0.22,0.44-0.55,0.78-0.97,1.02
				c-0.42,0.23-0.93,0.35-1.53,0.35C146.54,330.77,146.04,330.65,145.61,330.42z M148.24,329.04c0.26-0.29,0.39-0.71,0.39-1.25
				v-1.14c0-0.53-0.13-0.95-0.39-1.24c-0.26-0.29-0.62-0.44-1.1-0.44c-0.47,0-0.84,0.15-1.09,0.44c-0.26,0.29-0.39,0.7-0.39,1.24
				v1.14c0,0.53,0.13,0.95,0.39,1.25c0.26,0.3,0.62,0.44,1.09,0.44C147.61,329.49,147.98,329.34,148.24,329.04z"/>
		</g>
		<g>
			<path class="st2" d="M100.2,474.27c-0.51-0.29-0.91-0.71-1.19-1.24c-0.28-0.54-0.42-1.16-0.42-1.86v-2.73
				c0-0.7,0.14-1.33,0.42-1.86c0.28-0.54,0.68-0.95,1.19-1.25c0.51-0.29,1.1-0.44,1.77-0.44c0.67,0,1.26,0.15,1.77,0.44
				c0.51,0.29,0.91,0.71,1.19,1.25c0.28,0.53,0.42,1.16,0.42,1.86v2.73c0,0.71-0.14,1.33-0.42,1.86c-0.28,0.53-0.68,0.95-1.19,1.24
				c-0.51,0.29-1.1,0.44-1.77,0.44C101.3,474.71,100.71,474.56,100.2,474.27z M103.02,473.11c0.3-0.18,0.54-0.43,0.7-0.76
				c0.17-0.33,0.25-0.71,0.25-1.14v-2.82c0-0.43-0.08-0.81-0.25-1.14c-0.17-0.33-0.4-0.58-0.7-0.76c-0.3-0.18-0.65-0.27-1.05-0.27
				c-0.4,0-0.75,0.09-1.05,0.27c-0.3,0.18-0.54,0.43-0.7,0.76c-0.16,0.33-0.25,0.71-0.25,1.14v2.82c0,0.43,0.08,0.81,0.25,1.14
				c0.17,0.33,0.4,0.58,0.7,0.76c0.3,0.18,0.65,0.27,1.05,0.27C102.37,473.38,102.72,473.29,103.02,473.11z M101.95,471.94l0.7-0.89
				l3.59,2.82l-0.7,0.9L101.95,471.94z"/>
			<path class="st2" d="M111.5,474.18c-0.42-0.35-0.63-0.88-0.63-1.6c0-0.68,0.19-1.19,0.58-1.53c0.38-0.34,0.96-0.51,1.74-0.51
				h1.95l0.09,1.09h-2.04c-0.35,0-0.62,0.08-0.79,0.24c-0.17,0.16-0.26,0.4-0.26,0.72c0,0.35,0.12,0.61,0.35,0.77
				s0.58,0.25,1.06,0.25c0.52,0,0.9-0.06,1.15-0.17c0.25-0.11,0.38-0.28,0.38-0.52l0.14,0.97c-0.12,0.19-0.27,0.34-0.44,0.46
				c-0.17,0.12-0.38,0.21-0.61,0.27c-0.23,0.06-0.49,0.09-0.77,0.09C112.56,474.71,111.92,474.54,111.5,474.18z M115.08,470.25
				c0-0.45-0.12-0.8-0.36-1.05c-0.24-0.25-0.58-0.37-1.02-0.37c-0.27,0-0.54,0.04-0.81,0.13c-0.26,0.08-0.5,0.2-0.7,0.35l-0.98-0.68
				c0.26-0.31,0.6-0.56,1.03-0.73c0.43-0.18,0.9-0.26,1.42-0.26c0.57,0,1.06,0.1,1.46,0.3c0.41,0.2,0.71,0.49,0.93,0.87
				c0.21,0.38,0.32,0.84,0.32,1.38v4.41h-1.28V470.25z"/>
			<path class="st2" d="M119.59,474.36c-0.44-0.23-0.78-0.57-1.02-1.02c-0.24-0.45-0.35-0.98-0.35-1.62v-1.13
				c0-0.62,0.12-1.15,0.35-1.6c0.23-0.44,0.57-0.78,1.02-1.01c0.44-0.23,0.98-0.35,1.61-0.35c0.36,0,0.69,0.04,1.01,0.13
				c0.32,0.08,0.6,0.21,0.85,0.37c0.25,0.16,0.46,0.36,0.63,0.6l-0.97,0.87c-0.19-0.22-0.42-0.39-0.68-0.51
				c-0.26-0.12-0.53-0.18-0.81-0.18c-0.52,0-0.93,0.15-1.21,0.44c-0.29,0.29-0.43,0.7-0.43,1.23v1.13c0,0.54,0.14,0.96,0.43,1.26
				c0.28,0.3,0.69,0.44,1.21,0.44c0.29,0,0.56-0.06,0.82-0.19c0.26-0.13,0.49-0.31,0.68-0.54l0.97,0.94
				c-0.17,0.23-0.38,0.42-0.64,0.59c-0.25,0.16-0.53,0.28-0.85,0.37c-0.32,0.08-0.65,0.13-1,0.13
				C120.56,474.71,120.03,474.59,119.59,474.36z"/>
			<path class="st2" d="M126.35,474.35c-0.45-0.24-0.79-0.59-1.03-1.05c-0.24-0.46-0.35-1.02-0.35-1.67v-0.77
				c0-0.68,0.11-1.26,0.34-1.74c0.23-0.48,0.56-0.85,0.99-1.1c0.43-0.25,0.95-0.38,1.56-0.38c0.57,0,1.06,0.14,1.47,0.43
				c0.41,0.29,0.72,0.7,0.93,1.24c0.21,0.54,0.32,1.19,0.32,1.95v0.45h-4.63v-1.08h3.35c-0.04-0.56-0.18-1-0.43-1.31
				c-0.25-0.31-0.58-0.47-1-0.47c-0.51,0-0.91,0.17-1.19,0.5c-0.28,0.33-0.42,0.81-0.42,1.42v0.87c0,0.57,0.15,1,0.45,1.31
				c0.3,0.3,0.73,0.46,1.28,0.46c0.27,0,0.54-0.05,0.81-0.17c0.27-0.11,0.51-0.26,0.72-0.46l0.89,0.89
				c-0.34,0.33-0.72,0.58-1.15,0.76c-0.42,0.18-0.85,0.27-1.28,0.27C127.35,474.71,126.8,474.59,126.35,474.35z"/>
			<path class="st2" d="M132.44,464.99h1.35v1.35h-1.35V464.99z M132.44,467.74h1.35v6.87h-1.35V467.74z"/>
			<path class="st2" d="M135.31,467.74h3.1v1.22h-3.1V467.74z M136.41,474.18c-0.26-0.31-0.39-0.76-0.39-1.36v-7.08h1.35v7.1
				c0,0.17,0.03,0.3,0.1,0.39c0.07,0.09,0.16,0.14,0.29,0.14h0.65v1.28h-0.78C137.07,474.64,136.66,474.49,136.41,474.18z"/>
			<path class="st2" d="M141.61,471.92c0,0.48,0.12,0.85,0.37,1.12c0.25,0.26,0.59,0.39,1.04,0.39c0.44,0,0.78-0.12,1.03-0.35
				c0.24-0.24,0.37-0.57,0.37-1l0.09,1.44c-0.14,0.34-0.37,0.62-0.69,0.85c-0.32,0.23-0.71,0.34-1.17,0.34
				c-0.76,0-1.35-0.24-1.76-0.73c-0.41-0.49-0.62-1.18-0.62-2.06v-4.18h1.35V471.92z M144.4,467.74h1.34v6.87h-1.34V467.74z"/>
			<path class="st2" d="M147.8,467.74h1.35v6.87h-1.35V467.74z M151.97,470.45c0-0.49-0.13-0.86-0.38-1.13
				c-0.25-0.26-0.61-0.4-1.06-0.4c-0.44,0-0.78,0.12-1.02,0.35c-0.24,0.23-0.36,0.56-0.36,0.98l-0.14-1.32
				c0.21-0.42,0.49-0.73,0.83-0.96c0.34-0.22,0.72-0.34,1.14-0.34c0.75,0,1.32,0.24,1.73,0.73c0.41,0.49,0.61,1.18,0.61,2.07v4.17
				h-1.35V470.45z"/>
			<path class="st2" d="M155.67,474.18c-0.42-0.35-0.63-0.88-0.63-1.6c0-0.68,0.19-1.19,0.58-1.53c0.38-0.34,0.96-0.51,1.74-0.51
				h1.95l0.09,1.09h-2.04c-0.35,0-0.62,0.08-0.79,0.24c-0.17,0.16-0.26,0.4-0.26,0.72c0,0.35,0.12,0.61,0.35,0.77
				s0.58,0.25,1.06,0.25c0.52,0,0.9-0.06,1.15-0.17c0.25-0.11,0.38-0.28,0.38-0.52l0.14,0.97c-0.12,0.19-0.27,0.34-0.44,0.46
				c-0.17,0.12-0.38,0.21-0.61,0.27c-0.23,0.06-0.49,0.09-0.77,0.09C156.72,474.71,156.09,474.54,155.67,474.18z M159.25,470.25
				c0-0.45-0.12-0.8-0.36-1.05c-0.24-0.25-0.58-0.37-1.02-0.37c-0.27,0-0.54,0.04-0.81,0.13c-0.26,0.08-0.5,0.2-0.7,0.35l-0.98-0.68
				c0.26-0.31,0.6-0.56,1.03-0.73c0.43-0.18,0.9-0.26,1.42-0.26c0.57,0,1.06,0.1,1.46,0.3c0.41,0.2,0.71,0.49,0.93,0.87
				c0.21,0.38,0.32,0.84,0.32,1.38v4.41h-1.28V470.25z"/>
		</g>
		<g>
			<path class="st2" d="M92.66,402.37c-0.51-0.29-0.91-0.71-1.19-1.24c-0.28-0.54-0.42-1.16-0.42-1.86v-2.73
				c0-0.7,0.14-1.33,0.42-1.86c0.28-0.54,0.68-0.95,1.19-1.25c0.51-0.29,1.1-0.44,1.77-0.44c0.67,0,1.26,0.15,1.77,0.44
				c0.51,0.29,0.91,0.71,1.19,1.25c0.28,0.53,0.42,1.16,0.42,1.86v2.73c0,0.71-0.14,1.33-0.42,1.86c-0.28,0.53-0.68,0.95-1.19,1.24
				c-0.51,0.29-1.1,0.44-1.77,0.44C93.77,402.81,93.17,402.67,92.66,402.37z M95.48,401.21c0.3-0.18,0.54-0.43,0.7-0.76
				c0.17-0.33,0.25-0.71,0.25-1.14v-2.82c0-0.43-0.08-0.81-0.25-1.14s-0.4-0.58-0.7-0.76c-0.3-0.18-0.65-0.27-1.05-0.27
				s-0.75,0.09-1.05,0.27c-0.3,0.18-0.54,0.43-0.7,0.76c-0.16,0.33-0.25,0.71-0.25,1.14v2.82c0,0.43,0.08,0.81,0.25,1.14
				c0.17,0.33,0.4,0.58,0.7,0.76c0.3,0.18,0.65,0.27,1.05,0.27S95.18,401.39,95.48,401.21z M94.42,400.05l0.7-0.89l3.59,2.82
				l-0.7,0.9L94.42,400.05z"/>
			<path class="st2" d="M104.84,402.46c-0.44-0.23-0.78-0.57-1.02-1.02c-0.24-0.45-0.35-0.98-0.35-1.62v-1.13
				c0-0.62,0.12-1.15,0.35-1.6c0.23-0.44,0.57-0.78,1.02-1.01c0.44-0.23,0.98-0.35,1.61-0.35c0.36,0,0.69,0.04,1.01,0.13
				c0.32,0.08,0.6,0.21,0.85,0.37c0.25,0.16,0.46,0.36,0.63,0.6l-0.97,0.87c-0.19-0.22-0.42-0.39-0.68-0.51
				c-0.26-0.12-0.53-0.18-0.81-0.18c-0.52,0-0.93,0.15-1.21,0.44c-0.29,0.29-0.43,0.7-0.43,1.23v1.13c0,0.54,0.14,0.96,0.43,1.26
				c0.28,0.3,0.69,0.44,1.21,0.44c0.29,0,0.56-0.06,0.82-0.19c0.26-0.13,0.49-0.31,0.68-0.54l0.97,0.94
				c-0.17,0.23-0.38,0.42-0.64,0.59c-0.25,0.16-0.53,0.28-0.85,0.37c-0.32,0.08-0.65,0.13-1,0.13
				C105.82,402.81,105.28,402.7,104.84,402.46z"/>
			<path class="st2" d="M110.42,393.09h1.35v9.62h-1.35V393.09z M114.59,398.55c0-0.49-0.13-0.86-0.38-1.13
				c-0.25-0.26-0.6-0.4-1.06-0.4c-0.44,0-0.78,0.12-1.02,0.35c-0.24,0.23-0.36,0.55-0.36,0.97l-0.14-1.32
				c0.21-0.41,0.49-0.72,0.83-0.94c0.34-0.22,0.72-0.33,1.13-0.33c0.75,0,1.32,0.24,1.73,0.73c0.41,0.49,0.61,1.18,0.61,2.07v4.17
				h-1.35V398.55z"/>
			<path class="st2" d="M118.29,402.29c-0.42-0.35-0.63-0.88-0.63-1.6c0-0.68,0.19-1.19,0.58-1.53c0.38-0.34,0.96-0.51,1.74-0.51
				h1.95l0.09,1.09h-2.04c-0.35,0-0.62,0.08-0.79,0.24c-0.17,0.16-0.26,0.4-0.26,0.72c0,0.35,0.12,0.61,0.35,0.77
				c0.23,0.17,0.58,0.25,1.06,0.25c0.52,0,0.9-0.06,1.16-0.17c0.25-0.11,0.38-0.28,0.38-0.52l0.14,0.97
				c-0.12,0.19-0.27,0.34-0.44,0.46c-0.17,0.12-0.38,0.21-0.61,0.27c-0.23,0.06-0.49,0.09-0.77,0.09
				C119.34,402.81,118.71,402.64,118.29,402.29z M121.87,398.36c0-0.45-0.12-0.8-0.36-1.05c-0.24-0.25-0.58-0.37-1.02-0.37
				c-0.27,0-0.54,0.04-0.8,0.13c-0.26,0.08-0.5,0.2-0.7,0.35l-0.99-0.68c0.26-0.31,0.6-0.56,1.03-0.73c0.43-0.18,0.9-0.26,1.42-0.26
				c0.57,0,1.06,0.1,1.46,0.3c0.41,0.2,0.72,0.49,0.93,0.87c0.21,0.38,0.32,0.84,0.32,1.38v4.41h-1.28V398.36z"/>
			<path class="st2" d="M125.21,395.84h1.35v6.87h-1.35V395.84z M129.31,398.55c0-0.49-0.12-0.86-0.36-1.13
				c-0.24-0.26-0.58-0.4-1.01-0.4c-0.44,0-0.78,0.12-1.02,0.35c-0.24,0.23-0.36,0.56-0.36,0.98l-0.14-1.32
				c0.21-0.42,0.49-0.73,0.83-0.96c0.34-0.22,0.72-0.34,1.14-0.34c0.48,0,0.89,0.11,1.23,0.33c0.34,0.22,0.6,0.54,0.78,0.96
				c0.18,0.42,0.27,0.92,0.27,1.52v4.17h-1.35V398.55z M133.41,398.55c0-0.49-0.13-0.86-0.38-1.13c-0.25-0.26-0.6-0.4-1.06-0.4
				c-0.42,0-0.74,0.13-0.97,0.38c-0.23,0.26-0.34,0.62-0.34,1.08l-0.27-1.32c0.22-0.45,0.5-0.81,0.86-1.06
				c0.36-0.25,0.75-0.37,1.17-0.37c0.49,0,0.92,0.11,1.27,0.33c0.35,0.22,0.62,0.54,0.8,0.96c0.18,0.42,0.27,0.92,0.27,1.52v4.17
				h-1.35V398.55z"/>
			<path class="st2" d="M136.81,395.84h1.35v9.66h-1.35V395.84z M138.77,402.51c-0.32-0.21-0.55-0.5-0.7-0.87l0.09-1.44
				c0,0.29,0.05,0.55,0.16,0.75c0.11,0.21,0.26,0.37,0.46,0.48c0.2,0.11,0.44,0.17,0.73,0.17c0.45,0,0.79-0.14,1.04-0.41
				c0.24-0.27,0.37-0.65,0.37-1.15v-1.49c0-0.5-0.12-0.89-0.37-1.17c-0.25-0.28-0.59-0.42-1.04-0.42c-0.29,0-0.53,0.05-0.73,0.16
				c-0.2,0.11-0.35,0.26-0.46,0.47c-0.1,0.21-0.16,0.45-0.16,0.74l-0.14-1.32c0.21-0.4,0.48-0.71,0.81-0.93
				c0.33-0.22,0.71-0.33,1.12-0.33c0.49,0,0.9,0.11,1.25,0.33c0.35,0.22,0.61,0.54,0.79,0.96c0.18,0.42,0.27,0.92,0.27,1.52v1.5
				c0,0.58-0.09,1.08-0.28,1.5c-0.18,0.42-0.46,0.73-0.81,0.95c-0.36,0.22-0.79,0.33-1.28,0.33
				C139.46,402.81,139.09,402.71,138.77,402.51z"/>
			<path class="st2" d="M144.19,393.09h1.35v1.35h-1.35V393.09z M144.19,395.84h1.35v6.87h-1.35V395.84z"/>
			<path class="st2" d="M147.59,395.84h1.35v6.87h-1.35V395.84z M150.86,394.38c-0.14-0.06-0.28-0.13-0.41-0.22l-0.07-0.05
				c-0.02-0.02-0.05-0.04-0.07-0.05c-0.03-0.02-0.05-0.04-0.07-0.05c-0.17-0.12-0.31-0.21-0.41-0.27c-0.1-0.06-0.2-0.09-0.29-0.09
				c-0.15,0-0.27,0.04-0.35,0.11c-0.08,0.07-0.12,0.19-0.12,0.34v0.34h-1.05v-0.3c0-0.55,0.11-0.96,0.34-1.23
				c0.23-0.27,0.56-0.41,1.01-0.41c0.17,0,0.33,0.03,0.48,0.1s0.31,0.16,0.47,0.28l0.05,0.04l0.07,0.05
				c0.15,0.12,0.28,0.2,0.38,0.26c0.1,0.06,0.19,0.09,0.28,0.09c0.15,0,0.27-0.04,0.35-0.13c0.08-0.08,0.12-0.21,0.12-0.38v-0.26
				h1.05v0.22c0,0.57-0.11,0.99-0.33,1.27c-0.22,0.28-0.56,0.42-1.01,0.42C151.13,394.46,151,394.43,150.86,394.38z M151.76,398.55
				c0-0.49-0.13-0.86-0.38-1.13c-0.25-0.26-0.61-0.4-1.06-0.4c-0.44,0-0.78,0.12-1.02,0.35c-0.24,0.23-0.36,0.56-0.36,0.98
				l-0.14-1.32c0.21-0.42,0.49-0.73,0.83-0.96c0.34-0.22,0.72-0.34,1.14-0.34c0.75,0,1.32,0.24,1.73,0.73
				c0.41,0.49,0.61,1.18,0.61,2.07v4.17h-1.35V398.55z"/>
			<path class="st2" d="M156.27,402.46c-0.42-0.23-0.75-0.58-0.97-1.02c-0.22-0.45-0.33-0.99-0.33-1.62v-1.12
				c0-0.62,0.11-1.16,0.33-1.6c0.22-0.44,0.55-0.78,0.97-1.01c0.42-0.23,0.93-0.35,1.53-0.35c0.6,0,1.1,0.12,1.53,0.35
				c0.42,0.23,0.75,0.57,0.97,1.01c0.22,0.44,0.33,0.98,0.33,1.6v1.14c0,0.63-0.11,1.16-0.33,1.61c-0.22,0.44-0.55,0.78-0.97,1.02
				c-0.42,0.23-0.93,0.35-1.53,0.35C157.2,402.81,156.69,402.7,156.27,402.46z M158.89,401.09c0.26-0.29,0.39-0.71,0.39-1.25v-1.14
				c0-0.53-0.13-0.95-0.39-1.24c-0.26-0.29-0.62-0.44-1.09-0.44c-0.47,0-0.84,0.15-1.1,0.44c-0.26,0.29-0.39,0.7-0.39,1.24v1.14
				c0,0.53,0.13,0.95,0.39,1.25c0.26,0.3,0.62,0.44,1.1,0.44C158.27,401.53,158.63,401.38,158.89,401.09z"/>
			<path class="st2" d="M162.55,395.84h1.35v6.87h-1.35V395.84z M166.72,398.55c0-0.49-0.13-0.86-0.38-1.13
				c-0.25-0.26-0.61-0.4-1.06-0.4c-0.44,0-0.78,0.12-1.02,0.35c-0.24,0.23-0.36,0.56-0.36,0.98l-0.14-1.32
				c0.21-0.42,0.49-0.73,0.83-0.96c0.34-0.22,0.72-0.34,1.14-0.34c0.75,0,1.32,0.24,1.73,0.73c0.41,0.49,0.61,1.18,0.61,2.07v4.17
				h-1.35V398.55z"/>
		</g>
		<g>
			<path class="st2" d="M102.55,537.68l-1.29,1.7v0.03l2.05-0.27v0.92l-2.05-0.24v0.03l1.3,1.63l-0.85,0.49l-0.82-1.9h-0.03
				l-0.88,1.91l-0.77-0.49l1.29-1.65v-0.03l-2.01,0.26v-0.92l1.99,0.26v-0.03l-1.27-1.65l0.83-0.48l0.84,1.88h0.03l0.83-1.9
				L102.55,537.68z"/>
			<path class="st2" d="M112.28,547.85c-1.23-0.32-2.44-0.69-3.5-1.06c-0.19-0.07-0.38-0.14-0.55-0.14
				c-2.17-0.08-4.03-1.68-4.03-4.62c0-2.93,1.79-4.81,4.26-4.81c2.48,0,4.09,1.93,4.09,4.63c0,2.34-1.08,3.85-2.6,4.38v0.05
				c0.91,0.23,1.9,0.45,2.67,0.59L112.28,547.85z M111.31,541.9c0-1.83-0.95-3.72-2.89-3.72c-1.99,0-2.97,1.84-2.96,3.82
				c-0.01,1.94,1.06,3.69,2.9,3.69C110.25,545.69,111.31,543.99,111.31,541.9z"/>
			<path class="st2" d="M116.47,541.94v-0.81h7v0.81H116.47z M116.47,544.6v-0.81h7v0.81H116.47z"/>
			<path class="st2" d="M135.45,547.85c-1.23-0.32-2.44-0.69-3.5-1.06c-0.19-0.07-0.38-0.14-0.55-0.14
				c-2.17-0.08-4.03-1.68-4.03-4.62c0-2.93,1.79-4.81,4.26-4.81c2.48,0,4.09,1.93,4.09,4.63c0,2.34-1.08,3.85-2.6,4.38v0.05
				c0.91,0.23,1.9,0.45,2.67,0.59L135.45,547.85z M134.47,541.9c0-1.83-0.95-3.72-2.89-3.72c-1.99,0-2.97,1.84-2.96,3.82
				c-0.01,1.94,1.06,3.69,2.9,3.69C133.41,545.69,134.47,543.99,134.47,541.9z"/>
			<path class="st2" d="M142.74,544.72c0,0.68,0.01,1.27,0.05,1.79h-1.06l-0.07-1.07h-0.03c-0.31,0.53-1,1.22-2.17,1.22
				c-1.03,0-2.26-0.57-2.26-2.87v-3.84h1.19v3.63c0,1.25,0.38,2.09,1.46,2.09c0.8,0,1.36-0.55,1.57-1.08
				c0.07-0.18,0.11-0.39,0.11-0.61v-4.03h1.19V544.72z"/>
			<path class="st2" d="M145.38,543.44c0.03,1.61,1.06,2.28,2.25,2.28c0.85,0,1.37-0.15,1.82-0.34l0.2,0.85
				c-0.42,0.19-1.14,0.41-2.18,0.41c-2.02,0-3.23-1.33-3.23-3.31c0-1.98,1.17-3.54,3.08-3.54c2.14,0,2.71,1.88,2.71,3.09
				c0,0.24-0.03,0.43-0.04,0.56H145.38z M148.88,542.59c0.01-0.76-0.31-1.94-1.65-1.94c-1.21,0-1.74,1.11-1.83,1.94H148.88z"/>
			<path class="st2" d="M151.34,545.29c0.35,0.23,0.98,0.47,1.57,0.47c0.87,0,1.27-0.43,1.27-0.98c0-0.57-0.34-0.88-1.22-1.21
				c-1.18-0.42-1.74-1.07-1.74-1.86c0-1.06,0.85-1.93,2.26-1.93c0.66,0,1.25,0.19,1.61,0.41l-0.3,0.87
				c-0.26-0.16-0.73-0.38-1.34-0.38c-0.7,0-1.1,0.41-1.1,0.9c0,0.54,0.39,0.79,1.25,1.11c1.14,0.43,1.72,1,1.72,1.98
				c0,1.15-0.89,1.97-2.45,1.97c-0.72,0-1.38-0.18-1.84-0.45L151.34,545.29z"/>
			<path class="st2" d="M162.81,543.17c0,2.43-1.68,3.49-3.27,3.49c-1.78,0-3.15-1.3-3.15-3.38c0-2.2,1.44-3.49,3.26-3.49
				C161.54,539.8,162.81,541.16,162.81,543.17z M157.61,543.24c0,1.44,0.83,2.52,1.99,2.52c1.14,0,1.99-1.07,1.99-2.55
				c0-1.11-0.55-2.52-1.97-2.52S157.61,541.99,157.61,543.24z"/>
		</g>
		<rect x="86.38" y="47.6" class="st1" width="86.37" height="71.97"/>
		<g>
			<path class="st2" d="M113.13,114.38c-0.51-0.29-0.91-0.71-1.19-1.25c-0.28-0.54-0.42-1.16-0.42-1.86v-2.73
				c0-0.71,0.14-1.33,0.42-1.86c0.28-0.54,0.68-0.95,1.19-1.25c0.51-0.29,1.1-0.44,1.77-0.44c0.67,0,1.26,0.15,1.77,0.44
				c0.51,0.29,0.91,0.71,1.19,1.25c0.28,0.53,0.42,1.16,0.42,1.86v2.73c0,0.71-0.14,1.33-0.42,1.86c-0.28,0.54-0.68,0.95-1.19,1.25
				c-0.51,0.29-1.1,0.44-1.77,0.44C114.23,114.82,113.64,114.67,113.13,114.38z M115.95,113.22c0.3-0.18,0.54-0.43,0.7-0.76
				c0.17-0.33,0.25-0.71,0.25-1.14v-2.82c0-0.43-0.08-0.81-0.25-1.14c-0.16-0.33-0.4-0.58-0.7-0.76c-0.3-0.18-0.65-0.27-1.05-0.27
				c-0.4,0-0.75,0.09-1.05,0.27c-0.3,0.18-0.54,0.43-0.7,0.76c-0.17,0.33-0.25,0.71-0.25,1.14v2.82c0,0.43,0.08,0.81,0.25,1.14
				c0.17,0.33,0.4,0.58,0.7,0.76c0.3,0.18,0.65,0.27,1.05,0.27C115.3,113.49,115.65,113.4,115.95,113.22z M114.89,112.05l0.7-0.89
				l3.59,2.82l-0.7,0.9L114.89,112.05z"/>
			<path class="st2" d="M121.78,112.03c0,0.48,0.12,0.85,0.37,1.11c0.25,0.26,0.59,0.39,1.04,0.39c0.44,0,0.78-0.12,1.03-0.35
				c0.24-0.24,0.36-0.57,0.36-1l0.09,1.44c-0.14,0.34-0.37,0.62-0.69,0.85c-0.32,0.23-0.71,0.35-1.17,0.35
				c-0.76,0-1.35-0.24-1.76-0.73c-0.41-0.49-0.62-1.18-0.62-2.06v-4.18h1.35V112.03z M124.57,107.85h1.34v6.87h-1.34V107.85z"/>
			<path class="st2" d="M129.15,114.46c-0.45-0.24-0.79-0.59-1.03-1.05c-0.24-0.46-0.35-1.02-0.35-1.67v-0.77
				c0-0.68,0.11-1.26,0.34-1.74c0.23-0.48,0.56-0.85,0.99-1.1c0.43-0.25,0.95-0.38,1.56-0.38c0.57,0,1.06,0.14,1.47,0.43
				c0.41,0.29,0.72,0.7,0.93,1.25c0.21,0.54,0.32,1.19,0.32,1.95v0.45h-4.63v-1.09h3.35c-0.04-0.56-0.18-1-0.43-1.31
				c-0.25-0.31-0.58-0.47-1-0.47c-0.51,0-0.91,0.17-1.19,0.5c-0.28,0.34-0.42,0.81-0.42,1.42v0.87c0,0.57,0.15,1.01,0.45,1.31
				c0.3,0.3,0.73,0.46,1.28,0.46c0.27,0,0.54-0.05,0.81-0.16c0.27-0.11,0.51-0.27,0.72-0.46l0.89,0.89
				c-0.34,0.32-0.72,0.58-1.15,0.76c-0.42,0.18-0.85,0.27-1.28,0.27C130.15,114.82,129.6,114.7,129.15,114.46z"/>
			<path class="st2" d="M136.53,114.7c-0.36-0.08-0.69-0.2-1-0.36c-0.31-0.16-0.59-0.36-0.85-0.6l0.8-0.99
				c0.37,0.28,0.74,0.49,1.1,0.63c0.37,0.14,0.73,0.21,1.08,0.21c0.53,0,0.94-0.08,1.2-0.25c0.27-0.16,0.4-0.41,0.4-0.74
				c0-0.22-0.07-0.39-0.22-0.5c-0.15-0.11-0.33-0.19-0.54-0.22c-0.22-0.04-0.52-0.07-0.91-0.1c-0.04,0-0.07,0-0.11,0
				c-0.04,0-0.08-0.01-0.11-0.01c-0.02,0-0.04,0-0.05,0c-0.02,0-0.04,0-0.05,0c-0.45-0.03-0.82-0.1-1.13-0.2
				c-0.31-0.09-0.57-0.27-0.77-0.53s-0.31-0.63-0.31-1.12c0-0.48,0.1-0.89,0.3-1.21c0.2-0.32,0.49-0.56,0.89-0.72
				c0.39-0.16,0.88-0.24,1.48-0.24c0.36,0,0.7,0.03,1.02,0.1c0.32,0.07,0.63,0.17,0.93,0.29c0.3,0.13,0.58,0.29,0.85,0.49
				l-0.82,0.98c-0.34-0.22-0.68-0.39-1.02-0.49c-0.33-0.11-0.66-0.17-0.98-0.17c-0.46,0-0.8,0.08-1.03,0.23
				c-0.23,0.16-0.35,0.39-0.35,0.71c0,0.18,0.07,0.32,0.19,0.42c0.13,0.09,0.3,0.15,0.49,0.18c0.2,0.03,0.48,0.06,0.85,0.08
				c0.03,0,0.05,0.01,0.08,0.01s0.06,0,0.09,0.01c0.01,0,0.03,0,0.04,0s0.03,0,0.04,0.01c0.48,0.03,0.89,0.09,1.23,0.19
				c0.34,0.1,0.62,0.29,0.85,0.58c0.23,0.29,0.34,0.7,0.34,1.24c0,0.49-0.1,0.9-0.32,1.23c-0.21,0.32-0.53,0.57-0.96,0.73
				s-0.96,0.25-1.61,0.25C137.26,114.82,136.88,114.78,136.53,114.7z"/>
			<path class="st2" d="M143.37,114.47c-0.42-0.23-0.75-0.58-0.97-1.02c-0.22-0.45-0.33-0.99-0.33-1.62v-1.12
				c0-0.62,0.11-1.15,0.33-1.6c0.22-0.44,0.55-0.78,0.97-1.01c0.42-0.23,0.93-0.35,1.53-0.35c0.6,0,1.11,0.12,1.53,0.35
				s0.75,0.57,0.97,1.01c0.22,0.44,0.33,0.97,0.33,1.6v1.14c0,0.63-0.11,1.16-0.33,1.61c-0.22,0.44-0.55,0.78-0.97,1.02
				c-0.42,0.23-0.93,0.35-1.53,0.35C144.3,114.82,143.8,114.7,143.37,114.47z M146,113.09c0.26-0.29,0.39-0.71,0.39-1.24v-1.14
				c0-0.53-0.13-0.95-0.39-1.24c-0.26-0.29-0.62-0.44-1.1-0.44c-0.47,0-0.84,0.15-1.09,0.44c-0.26,0.29-0.39,0.7-0.39,1.24v1.14
				c0,0.53,0.13,0.95,0.39,1.24c0.26,0.3,0.62,0.44,1.09,0.44C145.37,113.53,145.74,113.39,146,113.09z"/>
		</g>
		<g>
			<path class="st2" d="M168.58,96.2H90.54v-0.65c0-0.39,0.45-39.02,39.02-39.02c38.57,0,39.02,38.63,39.02,39.02V96.2z M91.86,94.9
				h75.41c-0.18-5.16-2.71-37.07-37.7-37.07C94.57,57.83,92.04,89.74,91.86,94.9z"/>
		</g>
		<rect x="86.38" y="119.57" class="st1" width="86.37" height="71.97"/>
		<g>
			<path class="st2" d="M108.59,186.36c-0.51-0.29-0.91-0.71-1.19-1.24c-0.28-0.54-0.42-1.16-0.42-1.86v-2.73
				c0-0.7,0.14-1.33,0.42-1.86c0.28-0.54,0.68-0.95,1.19-1.25c0.51-0.29,1.1-0.44,1.77-0.44c0.67,0,1.26,0.15,1.77,0.44
				c0.51,0.29,0.91,0.71,1.19,1.25c0.28,0.53,0.42,1.16,0.42,1.86v2.73c0,0.71-0.14,1.33-0.42,1.86c-0.28,0.53-0.68,0.95-1.19,1.24
				c-0.51,0.29-1.1,0.44-1.77,0.44C109.7,186.8,109.1,186.65,108.59,186.36z M111.42,185.2c0.3-0.18,0.54-0.43,0.7-0.76
				c0.17-0.33,0.25-0.71,0.25-1.14v-2.82c0-0.43-0.08-0.81-0.25-1.14s-0.4-0.58-0.7-0.76c-0.3-0.18-0.65-0.27-1.05-0.27
				c-0.4,0-0.75,0.09-1.05,0.27c-0.3,0.18-0.54,0.43-0.7,0.76c-0.16,0.33-0.25,0.71-0.25,1.14v2.82c0,0.43,0.08,0.81,0.25,1.14
				c0.17,0.33,0.4,0.58,0.7,0.76c0.3,0.18,0.65,0.27,1.05,0.27C110.76,185.47,111.11,185.38,111.42,185.2z M110.35,184.03l0.7-0.89
				l3.59,2.82l-0.7,0.9L110.35,184.03z"/>
			<path class="st2" d="M120.77,186.45c-0.44-0.23-0.78-0.57-1.02-1.02c-0.24-0.45-0.35-0.98-0.35-1.62v-1.13
				c0-0.62,0.12-1.15,0.35-1.6c0.23-0.44,0.57-0.78,1.02-1.01c0.44-0.23,0.98-0.35,1.61-0.35c0.36,0,0.69,0.04,1.01,0.13
				c0.32,0.08,0.6,0.21,0.85,0.37c0.25,0.16,0.46,0.36,0.63,0.6l-0.97,0.87c-0.19-0.22-0.42-0.39-0.68-0.51
				c-0.26-0.12-0.53-0.18-0.81-0.18c-0.52,0-0.93,0.15-1.21,0.44c-0.29,0.29-0.43,0.7-0.43,1.23v1.13c0,0.54,0.14,0.96,0.43,1.26
				c0.28,0.3,0.69,0.44,1.21,0.44c0.29,0,0.56-0.06,0.82-0.19c0.26-0.13,0.49-0.31,0.68-0.54l0.97,0.94
				c-0.17,0.23-0.38,0.42-0.64,0.59c-0.25,0.16-0.53,0.28-0.85,0.37c-0.32,0.08-0.65,0.13-1,0.13
				C121.75,186.8,121.21,186.68,120.77,186.45z"/>
			<path class="st2" d="M126.65,186.27c-0.42-0.35-0.63-0.88-0.63-1.6c0-0.68,0.19-1.19,0.58-1.53c0.38-0.34,0.96-0.51,1.74-0.51
				h1.95l0.09,1.09h-2.04c-0.35,0-0.62,0.08-0.79,0.24c-0.17,0.16-0.26,0.4-0.26,0.72c0,0.35,0.12,0.61,0.35,0.77
				c0.23,0.17,0.58,0.25,1.06,0.25c0.52,0,0.9-0.06,1.15-0.17c0.25-0.11,0.38-0.28,0.38-0.52l0.14,0.97
				c-0.12,0.19-0.27,0.34-0.44,0.46c-0.17,0.12-0.38,0.21-0.61,0.27c-0.23,0.06-0.49,0.09-0.77,0.09
				C127.7,186.8,127.07,186.62,126.65,186.27z M130.23,182.34c0-0.45-0.12-0.8-0.36-1.05c-0.24-0.25-0.58-0.37-1.02-0.37
				c-0.27,0-0.54,0.04-0.81,0.13c-0.26,0.08-0.5,0.2-0.7,0.35l-0.98-0.68c0.26-0.31,0.6-0.56,1.03-0.73
				c0.43-0.18,0.9-0.26,1.42-0.26c0.57,0,1.06,0.1,1.46,0.3c0.41,0.2,0.71,0.49,0.93,0.87c0.21,0.38,0.32,0.84,0.32,1.38v4.41h-1.28
				V182.34z"/>
			<path class="st2" d="M133.56,179.83h1.35v6.87h-1.35V179.83z M136.89,181.12c-0.18-0.07-0.39-0.11-0.63-0.11
				c-0.43,0-0.76,0.12-0.99,0.36c-0.24,0.24-0.36,0.56-0.36,0.98l-0.14-1.32c0.21-0.41,0.49-0.73,0.82-0.96
				c0.33-0.23,0.71-0.34,1.11-0.34c0.31,0,0.6,0.05,0.85,0.14c0.25,0.09,0.48,0.22,0.66,0.4l-0.88,1.19
				C137.23,181.31,137.08,181.2,136.89,181.12z"/>
			<path class="st2" d="M139.35,179.83h1.35v6.87h-1.35V179.83z M143.52,182.53c0-0.49-0.13-0.86-0.38-1.13
				c-0.25-0.26-0.61-0.4-1.06-0.4c-0.44,0-0.78,0.12-1.02,0.35c-0.24,0.23-0.36,0.56-0.36,0.98l-0.14-1.32
				c0.21-0.42,0.49-0.73,0.83-0.96c0.34-0.22,0.72-0.34,1.14-0.34c0.75,0,1.32,0.24,1.73,0.73c0.41,0.49,0.61,1.18,0.61,2.07v4.17
				h-1.35V182.53z"/>
			<path class="st2" d="M148.11,186.44c-0.45-0.24-0.79-0.59-1.03-1.05c-0.24-0.46-0.36-1.02-0.36-1.67v-0.77
				c0-0.68,0.11-1.26,0.34-1.74c0.23-0.48,0.56-0.85,0.99-1.1c0.43-0.25,0.95-0.38,1.56-0.38c0.57,0,1.06,0.14,1.47,0.43
				c0.41,0.29,0.72,0.7,0.93,1.24c0.21,0.54,0.32,1.19,0.32,1.95v0.45h-4.63v-1.08h3.35c-0.04-0.56-0.18-1-0.43-1.31
				c-0.25-0.31-0.58-0.47-1-0.47c-0.51,0-0.91,0.17-1.19,0.5c-0.28,0.33-0.42,0.81-0.42,1.42v0.87c0,0.57,0.15,1,0.45,1.31
				c0.3,0.3,0.73,0.46,1.28,0.46c0.27,0,0.54-0.05,0.82-0.17c0.27-0.11,0.51-0.26,0.72-0.46l0.89,0.89
				c-0.34,0.33-0.72,0.58-1.15,0.76c-0.42,0.18-0.85,0.27-1.28,0.27C149.1,186.8,148.56,186.68,148.11,186.44z"/>
		</g>
		<g>
			<g>
				<rect x="107.98" y="371.67" class="st2" width="1.3" height="11.81"/>
			</g>
			<g>
				<rect x="111.9" y="371.67" class="st2" width="1.3" height="11.81"/>
			</g>
			<g>
				<rect x="115.86" y="371.67" class="st2" width="1.3" height="11.8"/>
			</g>
			<g>
				<rect x="142.04" y="371.67" class="st2" width="1.3" height="11.81"/>
			</g>
			<g>
				<rect x="145.97" y="371.67" class="st2" width="1.3" height="11.81"/>
			</g>
			<g>
				<rect x="149.93" y="371.67" class="st2" width="1.3" height="11.8"/>
			</g>
			<g>
				<g>
					<path class="st2" d="M163.91,379.58h-9.4v-1.3h8.08c-0.18-4.76-2.55-32.4-33.04-32.4c-30.49,0-32.86,27.64-33.04,32.4h8.09v1.3
						h-9.4v-0.65c0-0.34,0.39-34.35,34.35-34.35c33.96,0,34.35,34.01,34.35,34.35V379.58z"/>
				</g>
				<g>
					<rect x="120.45" y="378.28" class="st2" width="18.22" height="1.3"/>
				</g>
			</g>
		</g>
		<g>
			<g>
				<g>
					<rect x="124.43" y="123.23" class="st2" width="1.3" height="13.44"/>
				</g>
				<g>
					<rect x="128.89" y="123.23" class="st2" width="1.3" height="13.44"/>
				</g>
				<g>
					<rect x="133.4" y="123.24" class="st2" width="1.3" height="13.43"/>
				</g>
			</g>
			<g>
				<g>
					<path class="st2" d="M168.57,168.16H90.56v-0.65c0-0.33,0.34-32.68,29.87-38.2l0.24,1.28c-26.16,4.89-28.57,31.73-28.79,36.27
						h75.36c-0.22-4.54-2.62-31.39-28.79-36.27l0.24-1.28c29.53,5.51,29.87,37.87,29.87,38.2V168.16z"/>
				</g>
			</g>
		</g>
		<g>
			<g>
				<rect x="143.85" y="232.2" class="st2" width="1.3" height="13.44"/>
			</g>
			<g>
				<rect x="148.32" y="232.2" class="st2" width="1.3" height="13.44"/>
			</g>
			<g>
				<rect x="152.82" y="232.21" class="st2" width="1.3" height="13.43"/>
			</g>
			<g>
				<g>
					<path class="st2" d="M168.57,240.12h-10.61v-1.3h9.3c-0.18-5.16-2.71-37.05-37.69-37.05s-37.51,31.9-37.69,37.05h48.05v1.3
						H90.56v-0.65c0-0.39,0.45-39,39-39s39,38.61,39,39V240.12z"/>
				</g>
			</g>
		</g>
		<g>
			<g>
				<polygon class="st2" points="152.36,433.09 151.53,432.09 161.87,423.46 162.7,424.46 				"/>
			</g>
			<g>
				<polygon class="st2" points="149.49,429.66 148.66,428.66 158.99,420.02 159.83,421.02 				"/>
			</g>
			<g>
				<polygon class="st2" points="146.61,426.19 145.77,425.19 156.1,416.56 156.93,417.56 				"/>
			</g>
			<g>
				<g>
					<path class="st2" d="M168.64,456.15H90.48v-0.65c0-0.39,0.45-39.08,39.08-39.08c6.61,0,12.54,1.14,17.62,3.4l-0.53,1.19
						c-4.91-2.18-10.66-3.28-17.09-3.28c-35.05,0-37.59,31.97-37.77,37.13h75.52c-0.12-2.68-0.98-13.14-6.98-22.21l1.08-0.72
						c7.14,10.78,7.22,23.06,7.22,23.58V456.15z"/>
				</g>
			</g>
		</g>
		<g>
			<g>
				<g>
					<rect x="143.87" y="304.09" class="st2" width="1.3" height="13.44"/>
				</g>
				<g>
					<rect x="148.34" y="304.09" class="st2" width="1.3" height="13.44"/>
				</g>
				<g>
					<rect x="152.84" y="304.1" class="st2" width="1.3" height="13.43"/>
				</g>
			</g>
			<g>
				<rect x="124.47" y="267.52" class="st2" width="1.3" height="13.44"/>
			</g>
			<g>
				<rect x="128.94" y="267.52" class="st2" width="1.3" height="13.44"/>
			</g>
			<g>
				<rect x="133.44" y="267.53" class="st2" width="1.3" height="13.43"/>
			</g>
			<g>
				<g>
					<path class="st2" d="M139.95,312.45H90.56v-0.65c0-0.33,0.34-32.68,29.87-38.2l0.24,1.28c-26.16,4.89-28.57,31.73-28.79,36.27
						h48.07V312.45z"/>
				</g>
				<g>
					<path class="st2" d="M168.57,312.45h-10.59v-1.3h9.27c-0.22-4.54-2.62-31.39-28.79-36.27l0.24-1.28
						c29.53,5.51,29.87,37.87,29.87,38.2V312.45z"/>
				</g>
			</g>
		</g>
	</g>
</g>
</svg>
