<?xml version="1.0" encoding="utf-8"?>
<!-- Generator: Adobe Illustrator 24.2.1, SVG Export Plug-In . SVG Version: 6.00 Build 0)  -->
<svg version="1.1" id="Capa_1" xmlns="http://www.w3.org/2000/svg" xmlns:xlink="http://www.w3.org/1999/xlink" x="0px" y="0px"
	 viewBox="0 0 478.34 418" style="enable-background:new 0 0 478.34 418;" xml:space="preserve">
<style type="text/css">
	.st0{fill:#FCFCFC;}
</style>
<g>
	<path class="st0" d="M460.83,77H17.51C7.84,77,0,69.16,0,59.49V17.51C0,7.84,7.84,0,17.51,0h443.32c9.67,0,17.51,7.84,17.51,17.51
		v41.98C478.34,69.16,470.5,77,460.83,77z"/>
	<path class="st0" d="M460.83,247.5H17.51C7.84,247.5,0,239.66,0,229.99v-41.98c0-9.67,7.84-17.51,17.51-17.51h443.32
		c9.67,0,17.51,7.84,17.51,17.51v41.98C478.34,239.66,470.5,247.5,460.83,247.5z"/>
	<path class="st0" d="M460.83,418H17.51C7.84,418,0,410.16,0,400.49v-41.98C0,348.84,7.84,341,17.51,341h443.32
		c9.67,0,17.51,7.84,17.51,17.51v41.98C478.34,410.16,470.5,418,460.83,418z"/>
</g>
</svg>
